G75*
%MOIN*%
%OFA0B0*%
%FSLAX25Y25*%
%IPPOS*%
%LPD*%
%AMOC8*
5,1,8,0,0,1.08239X$1,22.5*
%
%ADD10C,0.00300*%
%ADD11C,0.01200*%
%ADD12C,0.00400*%
%ADD13C,0.00600*%
%ADD14R,0.27500X0.00050*%
%ADD15R,0.27600X0.00050*%
%ADD16R,0.27700X0.00050*%
%ADD17R,0.27800X0.00050*%
%ADD18R,0.27900X0.00050*%
%ADD19R,0.28000X0.00050*%
%ADD20R,0.00600X0.00050*%
%ADD21R,0.00650X0.00050*%
%ADD22R,0.00550X0.00050*%
%ADD23R,0.00700X0.00050*%
%ADD24R,0.16350X0.00050*%
%ADD25R,0.21450X0.00050*%
%ADD26R,0.21500X0.00050*%
%ADD27R,0.21600X0.00050*%
%ADD28R,0.21650X0.00050*%
%ADD29R,0.21700X0.00050*%
%ADD30R,0.21750X0.00050*%
%ADD31R,0.21800X0.00050*%
%ADD32R,0.21850X0.00050*%
%ADD33R,0.21900X0.00050*%
%ADD34R,0.22000X0.00050*%
%ADD35R,0.21550X0.00050*%
%ADD36R,0.21950X0.00050*%
%ADD37R,0.00750X0.00050*%
%ADD38R,0.00800X0.00050*%
%ADD39R,0.00850X0.00050*%
%ADD40R,0.00900X0.00050*%
%ADD41R,0.00950X0.00050*%
%ADD42R,0.01000X0.00050*%
%ADD43R,0.01050X0.00050*%
%ADD44R,0.01150X0.00050*%
%ADD45R,0.01200X0.00050*%
%ADD46R,0.01250X0.00050*%
%ADD47R,0.00280X0.00011*%
%ADD48R,0.00270X0.00011*%
%ADD49R,0.00390X0.00012*%
%ADD50R,0.00480X0.00011*%
%ADD51R,0.00540X0.00011*%
%ADD52R,0.00590X0.00012*%
%ADD53R,0.00600X0.00012*%
%ADD54R,0.00660X0.00011*%
%ADD55R,0.00710X0.00012*%
%ADD56R,0.00720X0.00012*%
%ADD57R,0.00750X0.00011*%
%ADD58R,0.00740X0.00011*%
%ADD59R,0.00790X0.00012*%
%ADD60R,0.00820X0.00011*%
%ADD61R,0.00830X0.00011*%
%ADD62R,0.00860X0.00012*%
%ADD63R,0.00890X0.00011*%
%ADD64R,0.00900X0.00011*%
%ADD65R,0.00930X0.00012*%
%ADD66R,0.00920X0.00012*%
%ADD67R,0.00960X0.00011*%
%ADD68R,0.00950X0.00011*%
%ADD69R,0.00980X0.00012*%
%ADD70R,0.00990X0.00012*%
%ADD71R,0.01010X0.00011*%
%ADD72R,0.01050X0.00012*%
%ADD73R,0.01040X0.00012*%
%ADD74R,0.01070X0.00011*%
%ADD75R,0.01070X0.00011*%
%ADD76R,0.01090X0.00012*%
%ADD77R,0.01110X0.00011*%
%ADD78R,0.01120X0.00011*%
%ADD79R,0.01140X0.00012*%
%ADD80R,0.01130X0.00012*%
%ADD81R,0.01150X0.00011*%
%ADD82R,0.01160X0.00011*%
%ADD83R,0.01180X0.00011*%
%ADD84R,0.01190X0.00011*%
%ADD85R,0.01200X0.00012*%
%ADD86R,0.01190X0.00012*%
%ADD87R,0.01220X0.00011*%
%ADD88R,0.01240X0.00012*%
%ADD89R,0.01240X0.00012*%
%ADD90R,0.01260X0.00011*%
%ADD91R,0.01280X0.00012*%
%ADD92R,0.01270X0.00012*%
%ADD93R,0.01300X0.00011*%
%ADD94R,0.01310X0.00011*%
%ADD95R,0.01320X0.00012*%
%ADD96R,0.01320X0.00012*%
%ADD97R,0.01340X0.00011*%
%ADD98R,0.01340X0.00011*%
%ADD99R,0.01360X0.00012*%
%ADD100R,0.01350X0.00012*%
%ADD101R,0.01380X0.00011*%
%ADD102R,0.01390X0.00011*%
%ADD103R,0.01400X0.00012*%
%ADD104R,0.01420X0.00011*%
%ADD105R,0.01420X0.00011*%
%ADD106R,0.01440X0.00012*%
%ADD107R,0.01430X0.00012*%
%ADD108R,0.01450X0.00011*%
%ADD109R,0.01460X0.00011*%
%ADD110R,0.01480X0.00012*%
%ADD111R,0.01490X0.00011*%
%ADD112R,0.01520X0.00011*%
%ADD113R,0.01510X0.00011*%
%ADD114R,0.01530X0.00012*%
%ADD115R,0.01540X0.00012*%
%ADD116R,0.01550X0.00011*%
%ADD117R,0.01570X0.00012*%
%ADD118R,0.01570X0.00012*%
%ADD119R,0.01590X0.00011*%
%ADD120R,0.01580X0.00011*%
%ADD121R,0.01590X0.00012*%
%ADD122R,0.01600X0.00012*%
%ADD123R,0.01630X0.00011*%
%ADD124R,0.01640X0.00012*%
%ADD125R,0.01670X0.00011*%
%ADD126R,0.01660X0.00011*%
%ADD127R,0.01670X0.00012*%
%ADD128R,0.01680X0.00011*%
%ADD129R,0.01690X0.00011*%
%ADD130R,0.01710X0.00012*%
%ADD131R,0.01720X0.00011*%
%ADD132R,0.01720X0.00011*%
%ADD133R,0.01750X0.00012*%
%ADD134R,0.01740X0.00012*%
%ADD135R,0.01750X0.00011*%
%ADD136R,0.01760X0.00011*%
%ADD137R,0.01780X0.00012*%
%ADD138R,0.01790X0.00011*%
%ADD139R,0.01790X0.00011*%
%ADD140R,0.01820X0.00012*%
%ADD141R,0.01810X0.00012*%
%ADD142R,0.01810X0.00011*%
%ADD143R,0.01830X0.00011*%
%ADD144R,0.01840X0.00011*%
%ADD145R,0.01850X0.00012*%
%ADD146R,0.01860X0.00011*%
%ADD147R,0.01890X0.00012*%
%ADD148R,0.01880X0.00012*%
%ADD149R,0.01890X0.00011*%
%ADD150R,0.01900X0.00011*%
%ADD151R,0.01900X0.00012*%
%ADD152R,0.01910X0.00012*%
%ADD153R,0.01920X0.00011*%
%ADD154R,0.01910X0.00011*%
%ADD155R,0.01940X0.00012*%
%ADD156R,0.01940X0.00011*%
%ADD157R,0.01960X0.00012*%
%ADD158R,0.01980X0.00011*%
%ADD159R,0.01970X0.00011*%
%ADD160R,0.01990X0.00012*%
%ADD161R,0.01980X0.00012*%
%ADD162R,0.02010X0.00011*%
%ADD163R,0.02020X0.00012*%
%ADD164R,0.02030X0.00011*%
%ADD165R,0.02040X0.00012*%
%ADD166R,0.02060X0.00011*%
%ADD167R,0.02050X0.00011*%
%ADD168R,0.02060X0.00012*%
%ADD169R,0.02070X0.00012*%
%ADD170R,0.02090X0.00011*%
%ADD171R,0.02090X0.00011*%
%ADD172R,0.02110X0.00012*%
%ADD173R,0.02120X0.00011*%
%ADD174R,0.02110X0.00011*%
%ADD175R,0.02120X0.00012*%
%ADD176R,0.02140X0.00011*%
%ADD177R,0.02150X0.00011*%
%ADD178R,0.02150X0.00012*%
%ADD179R,0.02140X0.00012*%
%ADD180R,0.02170X0.00011*%
%ADD181R,0.02160X0.00011*%
%ADD182R,0.02170X0.00012*%
%ADD183R,0.02170X0.00012*%
%ADD184R,0.02190X0.00011*%
%ADD185R,0.02190X0.00011*%
%ADD186R,0.02200X0.00012*%
%ADD187R,0.02210X0.00012*%
%ADD188R,0.02200X0.00011*%
%ADD189R,0.02230X0.00012*%
%ADD190R,0.02220X0.00012*%
%ADD191R,0.02220X0.00011*%
%ADD192R,0.02230X0.00011*%
%ADD193R,0.02250X0.00012*%
%ADD194R,0.02260X0.00011*%
%ADD195R,0.02260X0.00012*%
%ADD196R,0.02270X0.00011*%
%ADD197R,0.02270X0.00011*%
%ADD198R,0.02280X0.00012*%
%ADD199R,0.02290X0.00011*%
%ADD200R,0.02300X0.00011*%
%ADD201R,0.02310X0.00011*%
%ADD202R,0.02310X0.00012*%
%ADD203R,0.02300X0.00012*%
%ADD204R,0.02330X0.00011*%
%ADD205R,0.02340X0.00012*%
%ADD206R,0.02340X0.00011*%
%ADD207R,0.02350X0.00012*%
%ADD208R,0.02360X0.00012*%
%ADD209R,0.02360X0.00011*%
%ADD210R,0.02370X0.00011*%
%ADD211R,0.02380X0.00012*%
%ADD212R,0.02370X0.00012*%
%ADD213R,0.02390X0.00011*%
%ADD214R,0.02390X0.00011*%
%ADD215R,0.02390X0.00012*%
%ADD216R,0.02400X0.00012*%
%ADD217R,0.02400X0.00011*%
%ADD218R,0.02410X0.00012*%
%ADD219R,0.02400X0.00012*%
%ADD220R,0.02420X0.00011*%
%ADD221R,0.02420X0.00011*%
%ADD222R,0.02430X0.00012*%
%ADD223R,0.02420X0.00012*%
%ADD224R,0.02430X0.00011*%
%ADD225R,0.02440X0.00012*%
%ADD226R,0.02450X0.00012*%
%ADD227R,0.02470X0.00011*%
%ADD228R,0.02470X0.00011*%
%ADD229R,0.02470X0.00012*%
%ADD230R,0.02460X0.00012*%
%ADD231R,0.02480X0.00011*%
%ADD232R,0.02490X0.00011*%
%ADD233R,0.02500X0.00012*%
%ADD234R,0.02500X0.00011*%
%ADD235R,0.02510X0.00011*%
%ADD236R,0.02510X0.00012*%
%ADD237R,0.02530X0.00011*%
%ADD238R,0.02520X0.00011*%
%ADD239R,0.02530X0.00012*%
%ADD240R,0.02520X0.00012*%
%ADD241R,0.02520X0.00011*%
%ADD242R,0.02540X0.00012*%
%ADD243R,0.02550X0.00011*%
%ADD244R,0.02560X0.00012*%
%ADD245R,0.02550X0.00012*%
%ADD246R,0.02570X0.00011*%
%ADD247R,0.02570X0.00012*%
%ADD248R,0.02580X0.00011*%
%ADD249R,0.02590X0.00012*%
%ADD250R,0.02600X0.00012*%
%ADD251R,0.02600X0.00011*%
%ADD252R,0.02610X0.00011*%
%ADD253R,0.02610X0.00012*%
%ADD254R,0.02620X0.00011*%
%ADD255R,0.02630X0.00011*%
%ADD256R,0.02630X0.00012*%
%ADD257R,0.02640X0.00012*%
%ADD258R,0.02650X0.00011*%
%ADD259R,0.02660X0.00012*%
%ADD260R,0.02670X0.00012*%
%ADD261R,0.02660X0.00011*%
%ADD262R,0.02680X0.00012*%
%ADD263R,0.02670X0.00012*%
%ADD264R,0.02690X0.00011*%
%ADD265R,0.02680X0.00011*%
%ADD266R,0.02710X0.00012*%
%ADD267R,0.02710X0.00011*%
%ADD268R,0.02720X0.00012*%
%ADD269R,0.02720X0.00012*%
%ADD270R,0.02730X0.00011*%
%ADD271R,0.02750X0.00012*%
%ADD272R,0.02760X0.00012*%
%ADD273R,0.02750X0.00011*%
%ADD274R,0.02760X0.00011*%
%ADD275R,0.02780X0.00012*%
%ADD276R,0.02800X0.00011*%
%ADD277R,0.02810X0.00012*%
%ADD278R,0.02830X0.00011*%
%ADD279R,0.02840X0.00011*%
%ADD280R,0.02860X0.00012*%
%ADD281R,0.02870X0.00011*%
%ADD282R,0.02870X0.00011*%
%ADD283R,0.02900X0.00011*%
%ADD284R,0.02910X0.00011*%
%ADD285R,0.02930X0.00012*%
%ADD286R,0.02940X0.00012*%
%ADD287R,0.02970X0.00011*%
%ADD288R,0.02960X0.00011*%
%ADD289R,0.03010X0.00012*%
%ADD290R,0.03000X0.00012*%
%ADD291R,0.03060X0.00011*%
%ADD292R,0.03050X0.00011*%
%ADD293R,0.03140X0.00012*%
%ADD294R,0.03150X0.00012*%
%ADD295R,0.03270X0.00011*%
%ADD296R,0.03260X0.00011*%
%ADD297R,0.03400X0.00012*%
%ADD298R,0.03390X0.00012*%
%ADD299R,0.03530X0.00011*%
%ADD300R,0.03660X0.00012*%
%ADD301R,0.03650X0.00012*%
%ADD302R,0.03780X0.00011*%
%ADD303R,0.03790X0.00011*%
%ADD304R,0.03910X0.00012*%
%ADD305R,0.03900X0.00012*%
%ADD306R,0.04030X0.00011*%
%ADD307R,0.04020X0.00011*%
%ADD308R,0.04150X0.00012*%
%ADD309R,0.04160X0.00012*%
%ADD310R,0.04260X0.00011*%
%ADD311R,0.04270X0.00011*%
%ADD312R,0.04400X0.00012*%
%ADD313R,0.04390X0.00012*%
%ADD314R,0.04510X0.00011*%
%ADD315R,0.04630X0.00012*%
%ADD316R,0.04640X0.00012*%
%ADD317R,0.04740X0.00011*%
%ADD318R,0.04750X0.00011*%
%ADD319R,0.04850X0.00011*%
%ADD320R,0.04860X0.00011*%
%ADD321R,0.04980X0.00012*%
%ADD322R,0.05100X0.00011*%
%ADD323R,0.05090X0.00011*%
%ADD324R,0.05220X0.00012*%
%ADD325R,0.05220X0.00012*%
%ADD326R,0.05320X0.00011*%
%ADD327R,0.05340X0.00011*%
%ADD328R,0.05450X0.00012*%
%ADD329R,0.05570X0.00011*%
%ADD330R,0.05560X0.00011*%
%ADD331R,0.05690X0.00012*%
%ADD332R,0.05800X0.00011*%
%ADD333R,0.05810X0.00011*%
%ADD334R,0.05920X0.00012*%
%ADD335R,0.05920X0.00012*%
%ADD336R,0.06040X0.00011*%
%ADD337R,0.06030X0.00011*%
%ADD338R,0.06140X0.00012*%
%ADD339R,0.06140X0.00012*%
%ADD340R,0.06220X0.00011*%
%ADD341R,0.06220X0.00011*%
%ADD342R,0.06300X0.00012*%
%ADD343R,0.06340X0.00011*%
%ADD344R,0.06350X0.00011*%
%ADD345R,0.06410X0.00012*%
%ADD346R,0.06400X0.00012*%
%ADD347R,0.06450X0.00011*%
%ADD348R,0.06470X0.00012*%
%ADD349R,0.06470X0.00012*%
%ADD350R,0.06500X0.00011*%
%ADD351R,0.06510X0.00011*%
%ADD352R,0.06530X0.00011*%
%ADD353R,0.06540X0.00012*%
%ADD354R,0.06550X0.00011*%
%ADD355R,0.06550X0.00012*%
%ADD356R,0.06560X0.00011*%
%ADD357R,0.06550X0.00012*%
%ADD358R,0.06540X0.00011*%
%ADD359R,0.06530X0.00012*%
%ADD360R,0.06470X0.00012*%
%ADD361R,0.06480X0.00012*%
%ADD362R,0.06440X0.00011*%
%ADD363R,0.06420X0.00012*%
%ADD364R,0.06370X0.00011*%
%ADD365R,0.06370X0.00011*%
%ADD366R,0.06330X0.00012*%
%ADD367R,0.06270X0.00011*%
%ADD368R,0.06280X0.00011*%
%ADD369R,0.06230X0.00012*%
%ADD370R,0.06180X0.00011*%
%ADD371R,0.06190X0.00011*%
%ADD372R,0.06090X0.00011*%
%ADD373R,0.06090X0.00011*%
%ADD374R,0.06050X0.00011*%
%ADD375R,0.06010X0.00012*%
%ADD376R,0.05960X0.00011*%
%ADD377R,0.05970X0.00011*%
%ADD378R,0.05920X0.00012*%
%ADD379R,0.05920X0.00012*%
%ADD380R,0.05890X0.00011*%
%ADD381R,0.05880X0.00011*%
%ADD382R,0.05840X0.00012*%
%ADD383R,0.05830X0.00012*%
%ADD384R,0.05760X0.00012*%
%ADD385R,0.05730X0.00011*%
%ADD386R,0.05720X0.00011*%
%ADD387R,0.05690X0.00012*%
%ADD388R,0.05690X0.00012*%
%ADD389R,0.05650X0.00011*%
%ADD390R,0.05640X0.00011*%
%ADD391R,0.05600X0.00012*%
%ADD392R,0.05570X0.00011*%
%ADD393R,0.05580X0.00011*%
%ADD394R,0.05540X0.00012*%
%ADD395R,0.05540X0.00012*%
%ADD396R,0.05500X0.00011*%
%ADD397R,0.05490X0.00011*%
%ADD398R,0.05460X0.00012*%
%ADD399R,0.05440X0.00011*%
%ADD400R,0.05440X0.00011*%
%ADD401R,0.05400X0.00011*%
%ADD402R,0.05410X0.00011*%
%ADD403R,0.05370X0.00012*%
%ADD404R,0.05370X0.00012*%
%ADD405R,0.05330X0.00011*%
%ADD406R,0.05320X0.00011*%
%ADD407R,0.05300X0.00012*%
%ADD408R,0.05270X0.00011*%
%ADD409R,0.05260X0.00011*%
%ADD410R,0.05230X0.00012*%
%ADD411R,0.05240X0.00012*%
%ADD412R,0.05190X0.00011*%
%ADD413R,0.05210X0.00011*%
%ADD414R,0.05170X0.00012*%
%ADD415R,0.05190X0.00012*%
%ADD416R,0.05150X0.00011*%
%ADD417R,0.05120X0.00012*%
%ADD418R,0.05110X0.00012*%
%ADD419R,0.05080X0.00011*%
%ADD420R,0.05060X0.00012*%
%ADD421R,0.05030X0.00011*%
%ADD422R,0.05040X0.00011*%
%ADD423R,0.05010X0.00012*%
%ADD424R,0.05000X0.00012*%
%ADD425R,0.04980X0.00011*%
%ADD426R,0.04950X0.00012*%
%ADD427R,0.04940X0.00012*%
%ADD428R,0.04920X0.00011*%
%ADD429R,0.04890X0.00012*%
%ADD430R,0.04870X0.00011*%
%ADD431R,0.04880X0.00011*%
%ADD432R,0.04840X0.00011*%
%ADD433R,0.04820X0.00012*%
%ADD434R,0.04820X0.00012*%
%ADD435R,0.04800X0.00011*%
%ADD436R,0.04790X0.00011*%
%ADD437R,0.04760X0.00012*%
%ADD438R,0.04770X0.00012*%
%ADD439R,0.04740X0.00011*%
%ADD440R,0.04730X0.00012*%
%ADD441R,0.04710X0.00011*%
%ADD442R,0.04700X0.00011*%
%ADD443R,0.04670X0.00012*%
%ADD444R,0.04680X0.00012*%
%ADD445R,0.04650X0.00011*%
%ADD446R,0.04640X0.00011*%
%ADD447R,0.04620X0.00012*%
%ADD448R,0.04600X0.00011*%
%ADD449R,0.04570X0.00012*%
%ADD450R,0.04580X0.00012*%
%ADD451R,0.04570X0.00011*%
%ADD452R,0.04560X0.00011*%
%ADD453R,0.04550X0.00012*%
%ADD454R,0.04540X0.00012*%
%ADD455R,0.04520X0.00011*%
%ADD456R,0.04520X0.00011*%
%ADD457R,0.04500X0.00012*%
%ADD458R,0.04470X0.00011*%
%ADD459R,0.04480X0.00011*%
%ADD460R,0.04460X0.00012*%
%ADD461R,0.04440X0.00011*%
%ADD462R,0.04420X0.00011*%
%ADD463R,0.04420X0.00011*%
%ADD464R,0.04390X0.00012*%
%ADD465R,0.04380X0.00011*%
%ADD466R,0.04390X0.00011*%
%ADD467R,0.04370X0.00012*%
%ADD468R,0.04370X0.00012*%
%ADD469R,0.04340X0.00011*%
%ADD470R,0.04350X0.00011*%
%ADD471R,0.04330X0.00012*%
%ADD472R,0.04320X0.00012*%
%ADD473R,0.04320X0.00011*%
%ADD474R,0.04310X0.00011*%
%ADD475R,0.04290X0.00012*%
%ADD476R,0.04280X0.00011*%
%ADD477R,0.04250X0.00012*%
%ADD478R,0.04260X0.00012*%
%ADD479R,0.04230X0.00011*%
%ADD480R,0.04240X0.00011*%
%ADD481R,0.04220X0.00012*%
%ADD482R,0.04200X0.00011*%
%ADD483R,0.04190X0.00012*%
%ADD484R,0.04190X0.00012*%
%ADD485R,0.04180X0.00011*%
%ADD486R,0.04170X0.00011*%
%ADD487R,0.04150X0.00012*%
%ADD488R,0.04160X0.00012*%
%ADD489R,0.04140X0.00011*%
%ADD490R,0.04120X0.00012*%
%ADD491R,0.04130X0.00012*%
%ADD492R,0.04120X0.00011*%
%ADD493R,0.04120X0.00011*%
%ADD494R,0.04110X0.00011*%
%ADD495R,0.04100X0.00011*%
%ADD496R,0.04080X0.00012*%
%ADD497R,0.04070X0.00011*%
%ADD498R,0.04080X0.00011*%
%ADD499R,0.04060X0.00012*%
%ADD500R,0.04050X0.00011*%
%ADD501R,0.04030X0.00012*%
%ADD502R,0.04020X0.00011*%
%ADD503R,0.04010X0.00011*%
%ADD504R,0.04010X0.00012*%
%ADD505R,0.04000X0.00012*%
%ADD506R,0.03990X0.00011*%
%ADD507R,0.03990X0.00011*%
%ADD508R,0.03980X0.00012*%
%ADD509R,0.03990X0.00012*%
%ADD510R,0.03970X0.00011*%
%ADD511R,0.03970X0.00011*%
%ADD512R,0.03950X0.00012*%
%ADD513R,0.03940X0.00011*%
%ADD514R,0.03930X0.00011*%
%ADD515R,0.03930X0.00012*%
%ADD516R,0.03920X0.00012*%
%ADD517R,0.03900X0.00011*%
%ADD518R,0.03890X0.00012*%
%ADD519R,0.03880X0.00011*%
%ADD520R,0.03870X0.00011*%
%ADD521R,0.03860X0.00012*%
%ADD522R,0.03870X0.00012*%
%ADD523R,0.03850X0.00011*%
%ADD524R,0.03860X0.00011*%
%ADD525R,0.03840X0.00011*%
%ADD526R,0.03850X0.00012*%
%ADD527R,0.03830X0.00012*%
%ADD528R,0.03830X0.00011*%
%ADD529R,0.03820X0.00012*%
%ADD530R,0.03820X0.00012*%
%ADD531R,0.03810X0.00011*%
%ADD532R,0.03800X0.00012*%
%ADD533R,0.03770X0.00012*%
%ADD534R,0.03780X0.00012*%
%ADD535R,0.03770X0.00011*%
%ADD536R,0.03760X0.00011*%
%ADD537R,0.03770X0.00012*%
%ADD538R,0.03760X0.00012*%
%ADD539R,0.03750X0.00011*%
%ADD540R,0.03730X0.00012*%
%ADD541R,0.03720X0.00012*%
%ADD542R,0.03720X0.00011*%
%ADD543R,0.03720X0.00011*%
%ADD544R,0.03710X0.00012*%
%ADD545R,0.03720X0.00012*%
%ADD546R,0.03700X0.00011*%
%ADD547R,0.03710X0.00011*%
%ADD548R,0.03700X0.00012*%
%ADD549R,0.03690X0.00012*%
%ADD550R,0.03690X0.00011*%
%ADD551R,0.03680X0.00012*%
%ADD552R,0.03670X0.00011*%
%ADD553R,0.03670X0.00011*%
%ADD554R,0.03660X0.00011*%
%ADD555R,0.03650X0.00011*%
%ADD556R,0.03630X0.00012*%
%ADD557R,0.03640X0.00012*%
%ADD558R,0.03630X0.00011*%
%ADD559R,0.03630X0.00012*%
%ADD560R,0.03620X0.00012*%
%ADD561R,0.03620X0.00011*%
%ADD562R,0.03610X0.00011*%
%ADD563R,0.03600X0.00012*%
%ADD564R,0.03590X0.00011*%
%ADD565R,0.03590X0.00012*%
%ADD566R,0.03590X0.00012*%
%ADD567R,0.03580X0.00011*%
%ADD568R,0.03580X0.00012*%
%ADD569R,0.03570X0.00011*%
%ADD570R,0.03570X0.00011*%
%ADD571R,0.03560X0.00012*%
%ADD572R,0.03550X0.00011*%
%ADD573R,0.03540X0.00011*%
%ADD574R,0.03550X0.00012*%
%ADD575R,0.03540X0.00012*%
%ADD576R,0.03520X0.00011*%
%ADD577R,0.03520X0.00012*%
%ADD578R,0.03530X0.00012*%
%ADD579R,0.03520X0.00011*%
%ADD580R,0.03510X0.00012*%
%ADD581R,0.03510X0.00011*%
%ADD582R,0.03500X0.00012*%
%ADD583R,0.03490X0.00011*%
%ADD584R,0.03490X0.00011*%
%ADD585R,0.03490X0.00012*%
%ADD586R,0.03480X0.00012*%
%ADD587R,0.03460X0.00012*%
%ADD588R,0.03470X0.00012*%
%ADD589R,0.03460X0.00011*%
%ADD590R,0.03470X0.00011*%
%ADD591R,0.03470X0.00011*%
%ADD592R,0.03450X0.00012*%
%ADD593R,0.03440X0.00012*%
%ADD594R,0.03450X0.00011*%
%ADD595R,0.03440X0.00011*%
%ADD596R,0.03430X0.00011*%
%ADD597R,0.03420X0.00012*%
%ADD598R,0.03410X0.00012*%
%ADD599R,0.03420X0.00011*%
%ADD600R,0.03420X0.00011*%
%ADD601R,0.03390X0.00011*%
%ADD602R,0.03400X0.00011*%
%ADD603R,0.03400X0.00012*%
%ADD604R,0.03380X0.00011*%
%ADD605R,0.03370X0.00011*%
%ADD606R,0.03380X0.00012*%
%ADD607R,0.03370X0.00012*%
%ADD608R,0.03360X0.00011*%
%ADD609R,0.03350X0.00012*%
%ADD610R,0.03340X0.00011*%
%ADD611R,0.03330X0.00011*%
%ADD612R,0.03340X0.00012*%
%ADD613R,0.03310X0.00011*%
%ADD614R,0.03320X0.00011*%
%ADD615R,0.03300X0.00012*%
%ADD616R,0.03310X0.00012*%
%ADD617R,0.03290X0.00011*%
%ADD618R,0.03270X0.00012*%
%ADD619R,0.03270X0.00012*%
%ADD620R,0.03240X0.00012*%
%ADD621R,0.03240X0.00012*%
%ADD622R,0.03220X0.00011*%
%ADD623R,0.03210X0.00011*%
%ADD624R,0.03190X0.00012*%
%ADD625R,0.03170X0.00011*%
%ADD626R,0.03160X0.00011*%
%ADD627R,0.03140X0.00011*%
%ADD628R,0.03130X0.00011*%
%ADD629R,0.03100X0.00012*%
%ADD630R,0.03090X0.00012*%
%ADD631R,0.03070X0.00011*%
%ADD632R,0.03030X0.00012*%
%ADD633R,0.02980X0.00011*%
%ADD634R,0.02990X0.00011*%
%ADD635R,0.02930X0.00012*%
%ADD636R,0.02940X0.00012*%
%ADD637R,0.02880X0.00011*%
%ADD638R,0.02850X0.00012*%
%ADD639R,0.02840X0.00012*%
%ADD640R,0.02720X0.00011*%
%ADD641R,0.02720X0.00011*%
%ADD642R,0.02670X0.00012*%
%ADD643R,0.02600X0.00012*%
%ADD644R,0.02540X0.00012*%
%ADD645R,0.02470X0.00012*%
%ADD646R,0.02480X0.00012*%
%ADD647R,0.02440X0.00011*%
%ADD648R,0.02410X0.00011*%
%ADD649R,0.02390X0.00012*%
%ADD650R,0.02350X0.00011*%
%ADD651R,0.02330X0.00012*%
%ADD652R,0.02270X0.00012*%
%ADD653R,0.02240X0.00011*%
%ADD654R,0.00350X0.00012*%
%ADD655R,0.02220X0.00012*%
%ADD656R,0.00340X0.00012*%
%ADD657R,0.02180X0.00011*%
%ADD658R,0.00650X0.00011*%
%ADD659R,0.00860X0.00012*%
%ADD660R,0.02160X0.00012*%
%ADD661R,0.00870X0.00012*%
%ADD662R,0.01020X0.00011*%
%ADD663R,0.02120X0.00011*%
%ADD664R,0.02130X0.00011*%
%ADD665R,0.01020X0.00011*%
%ADD666R,0.01160X0.00012*%
%ADD667R,0.02100X0.00012*%
%ADD668R,0.01280X0.00011*%
%ADD669R,0.02070X0.00011*%
%ADD670R,0.02080X0.00011*%
%ADD671R,0.01290X0.00011*%
%ADD672R,0.01400X0.00012*%
%ADD673R,0.02060X0.00012*%
%ADD674R,0.02050X0.00012*%
%ADD675R,0.01390X0.00012*%
%ADD676R,0.02020X0.00011*%
%ADD677R,0.01500X0.00011*%
%ADD678R,0.01590X0.00012*%
%ADD679R,0.02000X0.00012*%
%ADD680R,0.01600X0.00012*%
%ADD681R,0.01700X0.00011*%
%ADD682R,0.01790X0.00012*%
%ADD683R,0.01950X0.00012*%
%ADD684R,0.01770X0.00012*%
%ADD685R,0.01920X0.00011*%
%ADD686R,0.01870X0.00011*%
%ADD687R,0.01950X0.00011*%
%ADD688R,0.02020X0.00012*%
%ADD689R,0.01870X0.00012*%
%ADD690R,0.01870X0.00012*%
%ADD691R,0.02020X0.00012*%
%ADD692R,0.02100X0.00011*%
%ADD693R,0.01830X0.00012*%
%ADD694R,0.01820X0.00011*%
%ADD695R,0.02240X0.00011*%
%ADD696R,0.02370X0.00011*%
%ADD697R,0.01710X0.00011*%
%ADD698R,0.01700X0.00012*%
%ADD699R,0.01670X0.00011*%
%ADD700R,0.01650X0.00012*%
%ADD701R,0.01640X0.00012*%
%ADD702R,0.02770X0.00012*%
%ADD703R,0.01610X0.00012*%
%ADD704R,0.02840X0.00011*%
%ADD705R,0.01570X0.00011*%
%ADD706R,0.01570X0.00011*%
%ADD707R,0.02880X0.00012*%
%ADD708R,0.01550X0.00012*%
%ADD709R,0.02950X0.00011*%
%ADD710R,0.01540X0.00011*%
%ADD711R,0.01530X0.00011*%
%ADD712R,0.03000X0.00011*%
%ADD713R,0.03040X0.00012*%
%ADD714R,0.01490X0.00012*%
%ADD715R,0.01490X0.00012*%
%ADD716R,0.03100X0.00011*%
%ADD717R,0.01470X0.00011*%
%ADD718R,0.03090X0.00011*%
%ADD719R,0.03130X0.00012*%
%ADD720R,0.01450X0.00012*%
%ADD721R,0.03180X0.00011*%
%ADD722R,0.03220X0.00012*%
%ADD723R,0.01410X0.00012*%
%ADD724R,0.03230X0.00012*%
%ADD725R,0.03330X0.00012*%
%ADD726R,0.01370X0.00012*%
%ADD727R,0.03370X0.00011*%
%ADD728R,0.01310X0.00012*%
%ADD729R,0.01290X0.00011*%
%ADD730R,0.01250X0.00011*%
%ADD731R,0.03580X0.00012*%
%ADD732R,0.01210X0.00011*%
%ADD733R,0.03660X0.00012*%
%ADD734R,0.01170X0.00011*%
%ADD735R,0.01170X0.00011*%
%ADD736R,0.01150X0.00012*%
%ADD737R,0.03770X0.00011*%
%ADD738R,0.01130X0.00011*%
%ADD739R,0.01120X0.00011*%
%ADD740R,0.03820X0.00011*%
%ADD741R,0.01100X0.00011*%
%ADD742R,0.03850X0.00012*%
%ADD743R,0.03910X0.00011*%
%ADD744R,0.01050X0.00011*%
%ADD745R,0.01060X0.00011*%
%ADD746R,0.03940X0.00012*%
%ADD747R,0.01030X0.00012*%
%ADD748R,0.01040X0.00012*%
%ADD749R,0.03930X0.00012*%
%ADD750R,0.03960X0.00011*%
%ADD751R,0.00980X0.00012*%
%ADD752R,0.00970X0.00012*%
%ADD753R,0.04040X0.00011*%
%ADD754R,0.00970X0.00011*%
%ADD755R,0.04080X0.00012*%
%ADD756R,0.00940X0.00012*%
%ADD757R,0.04090X0.00012*%
%ADD758R,0.00920X0.00011*%
%ADD759R,0.00910X0.00011*%
%ADD760R,0.04140X0.00012*%
%ADD761R,0.00870X0.00012*%
%ADD762R,0.00880X0.00012*%
%ADD763R,0.04170X0.00011*%
%ADD764R,0.00850X0.00011*%
%ADD765R,0.04210X0.00012*%
%ADD766R,0.00820X0.00012*%
%ADD767R,0.00810X0.00012*%
%ADD768R,0.04250X0.00011*%
%ADD769R,0.00790X0.00011*%
%ADD770R,0.04280X0.00012*%
%ADD771R,0.00770X0.00012*%
%ADD772R,0.00770X0.00012*%
%ADD773R,0.00720X0.00011*%
%ADD774R,0.00720X0.00011*%
%ADD775R,0.04300X0.00011*%
%ADD776R,0.04340X0.00012*%
%ADD777R,0.00700X0.00012*%
%ADD778R,0.04370X0.00011*%
%ADD779R,0.00670X0.00011*%
%ADD780R,0.00670X0.00011*%
%ADD781R,0.00630X0.00012*%
%ADD782R,0.04430X0.00011*%
%ADD783R,0.00600X0.00011*%
%ADD784R,0.04450X0.00011*%
%ADD785R,0.00560X0.00011*%
%ADD786R,0.04480X0.00012*%
%ADD787R,0.00530X0.00012*%
%ADD788R,0.04490X0.00012*%
%ADD789R,0.00490X0.00011*%
%ADD790R,0.00490X0.00011*%
%ADD791R,0.04530X0.00012*%
%ADD792R,0.00450X0.00012*%
%ADD793R,0.00400X0.00011*%
%ADD794R,0.04590X0.00012*%
%ADD795R,0.00350X0.00012*%
%ADD796R,0.00360X0.00012*%
%ADD797R,0.04630X0.00011*%
%ADD798R,0.00300X0.00011*%
%ADD799R,0.04620X0.00011*%
%ADD800R,0.04640X0.00012*%
%ADD801R,0.00260X0.00012*%
%ADD802R,0.00250X0.00012*%
%ADD803R,0.04670X0.00011*%
%ADD804R,0.00170X0.00011*%
%ADD805R,0.00180X0.00011*%
%ADD806R,0.04670X0.00011*%
%ADD807R,0.04680X0.00012*%
%ADD808R,0.04720X0.00011*%
%ADD809R,0.04760X0.00011*%
%ADD810R,0.04770X0.00012*%
%ADD811R,0.04780X0.00012*%
%ADD812R,0.04820X0.00012*%
%ADD813R,0.04820X0.00012*%
%ADD814R,0.04830X0.00011*%
%ADD815R,0.04860X0.00012*%
%ADD816R,0.04850X0.00012*%
%ADD817R,0.04900X0.00011*%
%ADD818R,0.04910X0.00012*%
%ADD819R,0.04930X0.00011*%
%ADD820R,0.04940X0.00012*%
%ADD821R,0.04960X0.00011*%
%ADD822R,0.04950X0.00011*%
%ADD823R,0.04970X0.00012*%
%ADD824R,0.04960X0.00012*%
%ADD825R,0.04990X0.00011*%
%ADD826R,0.05000X0.00011*%
%ADD827R,0.05020X0.00012*%
%ADD828R,0.05030X0.00012*%
%ADD829R,0.05040X0.00011*%
%ADD830R,0.00470X0.00012*%
%ADD831R,0.05050X0.00012*%
%ADD832R,0.00470X0.00012*%
%ADD833R,0.05060X0.00011*%
%ADD834R,0.01020X0.00012*%
%ADD835R,0.05070X0.00012*%
%ADD836R,0.05070X0.00012*%
%ADD837R,0.01020X0.00012*%
%ADD838R,0.01200X0.00011*%
%ADD839R,0.05070X0.00011*%
%ADD840R,0.05070X0.00011*%
%ADD841R,0.05090X0.00012*%
%ADD842R,0.00040X0.00012*%
%ADD843R,0.05090X0.00012*%
%ADD844R,0.01380X0.00012*%
%ADD845R,0.00230X0.00011*%
%ADD846R,0.05090X0.00011*%
%ADD847R,0.05100X0.00012*%
%ADD848R,0.00320X0.00012*%
%ADD849R,0.05110X0.00012*%
%ADD850R,0.01640X0.00012*%
%ADD851R,0.05120X0.00011*%
%ADD852R,0.00390X0.00011*%
%ADD853R,0.05120X0.00011*%
%ADD854R,0.01890X0.00011*%
%ADD855R,0.00450X0.00011*%
%ADD856R,0.01880X0.00011*%
%ADD857R,0.05130X0.00012*%
%ADD858R,0.00490X0.00012*%
%ADD859R,0.05130X0.00011*%
%ADD860R,0.02180X0.00012*%
%ADD861R,0.05140X0.00012*%
%ADD862R,0.00590X0.00012*%
%ADD863R,0.05140X0.00012*%
%ADD864R,0.02280X0.00011*%
%ADD865R,0.05140X0.00011*%
%ADD866R,0.00630X0.00011*%
%ADD867R,0.05140X0.00011*%
%ADD868R,0.05140X0.00012*%
%ADD869R,0.00660X0.00012*%
%ADD870R,0.05140X0.00012*%
%ADD871R,0.02370X0.00012*%
%ADD872R,0.02460X0.00011*%
%ADD873R,0.00700X0.00011*%
%ADD874R,0.02550X0.00012*%
%ADD875R,0.05150X0.00012*%
%ADD876R,0.00740X0.00012*%
%ADD877R,0.00760X0.00011*%
%ADD878R,0.05150X0.00012*%
%ADD879R,0.00800X0.00012*%
%ADD880R,0.02790X0.00011*%
%ADD881R,0.00820X0.00011*%
%ADD882R,0.02790X0.00011*%
%ADD883R,0.02930X0.00011*%
%ADD884R,0.05160X0.00011*%
%ADD885R,0.05170X0.00011*%
%ADD886R,0.03000X0.00012*%
%ADD887R,0.05160X0.00012*%
%ADD888R,0.00930X0.00012*%
%ADD889R,0.03010X0.00012*%
%ADD890R,0.03080X0.00011*%
%ADD891R,0.03070X0.00011*%
%ADD892R,0.03140X0.00012*%
%ADD893R,0.00990X0.00012*%
%ADD894R,0.05160X0.00012*%
%ADD895R,0.01030X0.00011*%
%ADD896R,0.03280X0.00011*%
%ADD897R,0.03340X0.00012*%
%ADD898R,0.01090X0.00012*%
%ADD899R,0.03410X0.00011*%
%ADD900R,0.02210X0.00012*%
%ADD901R,0.02630X0.00012*%
%ADD902R,0.01140X0.00012*%
%ADD903R,0.02620X0.00012*%
%ADD904R,0.02220X0.00012*%
%ADD905R,0.03480X0.00012*%
%ADD906R,0.03600X0.00012*%
%ADD907R,0.01220X0.00012*%
%ADD908R,0.03610X0.00012*%
%ADD909R,0.02320X0.00011*%
%ADD910R,0.01240X0.00011*%
%ADD911R,0.02320X0.00011*%
%ADD912R,0.02020X0.00011*%
%ADD913R,0.03720X0.00012*%
%ADD914R,0.02250X0.00012*%
%ADD915R,0.01260X0.00012*%
%ADD916R,0.01910X0.00012*%
%ADD917R,0.02120X0.00012*%
%ADD918R,0.01330X0.00012*%
%ADD919R,0.02120X0.00012*%
%ADD920R,0.01920X0.00012*%
%ADD921R,0.03890X0.00011*%
%ADD922R,0.01360X0.00011*%
%ADD923R,0.03890X0.00011*%
%ADD924R,0.03940X0.00012*%
%ADD925R,0.02010X0.00012*%
%ADD926R,0.03950X0.00012*%
%ADD927R,0.04000X0.00011*%
%ADD928R,0.01410X0.00011*%
%ADD929R,0.01850X0.00011*%
%ADD930R,0.01840X0.00012*%
%ADD931R,0.01820X0.00011*%
%ADD932R,0.01840X0.00011*%
%ADD933R,0.04170X0.00012*%
%ADD934R,0.01800X0.00012*%
%ADD935R,0.04220X0.00011*%
%ADD936R,0.01740X0.00011*%
%ADD937R,0.04220X0.00011*%
%ADD938R,0.04280X0.00012*%
%ADD939R,0.01770X0.00012*%
%ADD940R,0.01690X0.00012*%
%ADD941R,0.01550X0.00012*%
%ADD942R,0.01680X0.00012*%
%ADD943R,0.01650X0.00011*%
%ADD944R,0.01740X0.00011*%
%ADD945R,0.01600X0.00011*%
%ADD946R,0.01590X0.00011*%
%ADD947R,0.04430X0.00012*%
%ADD948R,0.01730X0.00012*%
%ADD949R,0.01540X0.00012*%
%ADD950R,0.01620X0.00012*%
%ADD951R,0.01640X0.00011*%
%ADD952R,0.04490X0.00011*%
%ADD953R,0.04530X0.00012*%
%ADD954R,0.01670X0.00012*%
%ADD955R,0.01460X0.00012*%
%ADD956R,0.04580X0.00011*%
%ADD957R,0.04630X0.00012*%
%ADD958R,0.01710X0.00012*%
%ADD959R,0.01380X0.00012*%
%ADD960R,0.01370X0.00012*%
%ADD961R,0.04640X0.00012*%
%ADD962R,0.04680X0.00011*%
%ADD963R,0.01320X0.00011*%
%ADD964R,0.01730X0.00011*%
%ADD965R,0.01320X0.00011*%
%ADD966R,0.01290X0.00012*%
%ADD967R,0.01750X0.00012*%
%ADD968R,0.04720X0.00012*%
%ADD969R,0.04770X0.00011*%
%ADD970R,0.01780X0.00011*%
%ADD971R,0.04780X0.00011*%
%ADD972R,0.04830X0.00012*%
%ADD973R,0.01680X0.00012*%
%ADD974R,0.01200X0.00012*%
%ADD975R,0.01800X0.00012*%
%ADD976R,0.01190X0.00012*%
%ADD977R,0.04870X0.00011*%
%ADD978R,0.04920X0.00012*%
%ADD979R,0.01660X0.00012*%
%ADD980R,0.01120X0.00012*%
%ADD981R,0.01110X0.00012*%
%ADD982R,0.01650X0.00012*%
%ADD983R,0.04930X0.00012*%
%ADD984R,0.04970X0.00011*%
%ADD985R,0.01030X0.00012*%
%ADD986R,0.00980X0.00011*%
%ADD987R,0.00990X0.00011*%
%ADD988R,0.01640X0.00011*%
%ADD989R,0.01630X0.00012*%
%ADD990R,0.00950X0.00012*%
%ADD991R,0.01930X0.00012*%
%ADD992R,0.00960X0.00012*%
%ADD993R,0.05200X0.00012*%
%ADD994R,0.01620X0.00012*%
%ADD995R,0.01960X0.00012*%
%ADD996R,0.00870X0.00012*%
%ADD997R,0.01620X0.00012*%
%ADD998R,0.05190X0.00012*%
%ADD999R,0.05240X0.00011*%
%ADD1000R,0.01620X0.00011*%
%ADD1001R,0.00840X0.00011*%
%ADD1002R,0.01990X0.00011*%
%ADD1003R,0.00840X0.00011*%
%ADD1004R,0.01620X0.00011*%
%ADD1005R,0.05250X0.00011*%
%ADD1006R,0.05290X0.00011*%
%ADD1007R,0.00800X0.00011*%
%ADD1008R,0.05290X0.00011*%
%ADD1009R,0.05340X0.00012*%
%ADD1010R,0.00770X0.00012*%
%ADD1011R,0.02030X0.00012*%
%ADD1012R,0.00770X0.00012*%
%ADD1013R,0.05330X0.00012*%
%ADD1014R,0.05380X0.00011*%
%ADD1015R,0.01610X0.00011*%
%ADD1016R,0.00730X0.00011*%
%ADD1017R,0.05410X0.00012*%
%ADD1018R,0.05420X0.00012*%
%ADD1019R,0.05450X0.00011*%
%ADD1020R,0.05500X0.00012*%
%ADD1021R,0.01610X0.00012*%
%ADD1022R,0.00640X0.00012*%
%ADD1023R,0.05480X0.00012*%
%ADD1024R,0.05530X0.00011*%
%ADD1025R,0.00610X0.00011*%
%ADD1026R,0.05560X0.00012*%
%ADD1027R,0.00560X0.00012*%
%ADD1028R,0.01590X0.00012*%
%ADD1029R,0.05570X0.00012*%
%ADD1030R,0.05620X0.00011*%
%ADD1031R,0.00530X0.00011*%
%ADD1032R,0.05610X0.00011*%
%ADD1033R,0.05640X0.00012*%
%ADD1034R,0.00500X0.00012*%
%ADD1035R,0.00490X0.00012*%
%ADD1036R,0.01590X0.00012*%
%ADD1037R,0.05630X0.00012*%
%ADD1038R,0.05670X0.00011*%
%ADD1039R,0.00460X0.00011*%
%ADD1040R,0.05660X0.00011*%
%ADD1041R,0.05700X0.00012*%
%ADD1042R,0.00410X0.00012*%
%ADD1043R,0.02200X0.00012*%
%ADD1044R,0.00420X0.00012*%
%ADD1045R,0.05750X0.00011*%
%ADD1046R,0.00380X0.00011*%
%ADD1047R,0.00370X0.00011*%
%ADD1048R,0.05770X0.00012*%
%ADD1049R,0.01580X0.00012*%
%ADD1050R,0.01570X0.00012*%
%ADD1051R,0.05770X0.00012*%
%ADD1052R,0.00290X0.00011*%
%ADD1053R,0.05830X0.00012*%
%ADD1054R,0.01580X0.00012*%
%ADD1055R,0.00230X0.00012*%
%ADD1056R,0.02270X0.00012*%
%ADD1057R,0.05850X0.00011*%
%ADD1058R,0.00160X0.00011*%
%ADD1059R,0.00150X0.00011*%
%ADD1060R,0.05890X0.00012*%
%ADD1061R,0.05880X0.00012*%
%ADD1062R,0.05920X0.00011*%
%ADD1063R,0.01560X0.00011*%
%ADD1064R,0.05920X0.00011*%
%ADD1065R,0.05930X0.00011*%
%ADD1066R,0.05960X0.00012*%
%ADD1067R,0.01560X0.00012*%
%ADD1068R,0.05970X0.00012*%
%ADD1069R,0.05990X0.00011*%
%ADD1070R,0.05990X0.00011*%
%ADD1071R,0.06020X0.00012*%
%ADD1072R,0.06030X0.00012*%
%ADD1073R,0.06060X0.00012*%
%ADD1074R,0.01560X0.00012*%
%ADD1075R,0.06070X0.00012*%
%ADD1076R,0.06100X0.00012*%
%ADD1077R,0.02460X0.00012*%
%ADD1078R,0.06120X0.00011*%
%ADD1079R,0.06130X0.00011*%
%ADD1080R,0.06130X0.00012*%
%ADD1081R,0.02480X0.00012*%
%ADD1082R,0.06140X0.00012*%
%ADD1083R,0.06160X0.00011*%
%ADD1084R,0.02490X0.00011*%
%ADD1085R,0.06180X0.00012*%
%ADD1086R,0.06200X0.00011*%
%ADD1087R,0.06210X0.00012*%
%ADD1088R,0.02530X0.00012*%
%ADD1089R,0.06220X0.00012*%
%ADD1090R,0.06230X0.00011*%
%ADD1091R,0.01540X0.00011*%
%ADD1092R,0.06240X0.00012*%
%ADD1093R,0.01540X0.00012*%
%ADD1094R,0.06250X0.00011*%
%ADD1095R,0.02560X0.00011*%
%ADD1096R,0.06260X0.00011*%
%ADD1097R,0.06250X0.00012*%
%ADD1098R,0.02580X0.00012*%
%ADD1099R,0.06290X0.00011*%
%ADD1100R,0.02590X0.00011*%
%ADD1101R,0.06280X0.00012*%
%ADD1102R,0.02620X0.00011*%
%ADD1103R,0.06290X0.00011*%
%ADD1104R,0.06290X0.00012*%
%ADD1105R,0.06290X0.00012*%
%ADD1106R,0.02640X0.00012*%
%ADD1107R,0.06260X0.00012*%
%ADD1108R,0.02650X0.00012*%
%ADD1109R,0.06240X0.00011*%
%ADD1110R,0.06230X0.00012*%
%ADD1111R,0.02660X0.00012*%
%ADD1112R,0.02670X0.00011*%
%ADD1113R,0.06150X0.00012*%
%ADD1114R,0.06110X0.00011*%
%ADD1115R,0.06100X0.00011*%
%ADD1116R,0.06050X0.00012*%
%ADD1117R,0.06010X0.00011*%
%ADD1118R,0.06020X0.00011*%
%ADD1119R,0.05970X0.00012*%
%ADD1120R,0.02690X0.00012*%
%ADD1121R,0.05980X0.00012*%
%ADD1122R,0.02690X0.00011*%
%ADD1123R,0.05910X0.00012*%
%ADD1124R,0.05860X0.00011*%
%ADD1125R,0.05830X0.00011*%
%ADD1126R,0.05800X0.00012*%
%ADD1127R,0.05810X0.00012*%
%ADD1128R,0.05780X0.00011*%
%ADD1129R,0.05750X0.00012*%
%ADD1130R,0.02700X0.00012*%
%ADD1131R,0.05720X0.00011*%
%ADD1132R,0.02700X0.00011*%
%ADD1133R,0.05710X0.00011*%
%ADD1134R,0.05620X0.00012*%
%ADD1135R,0.05630X0.00012*%
%ADD1136R,0.05600X0.00011*%
%ADD1137R,0.05570X0.00012*%
%ADD1138R,0.02700X0.00012*%
%ADD1139R,0.05580X0.00012*%
%ADD1140R,0.05540X0.00011*%
%ADD1141R,0.05540X0.00011*%
%ADD1142R,0.05510X0.00012*%
%ADD1143R,0.05520X0.00012*%
%ADD1144R,0.05480X0.00011*%
%ADD1145R,0.00830X0.00012*%
%ADD1146R,0.00820X0.00012*%
%ADD1147R,0.00590X0.00011*%
%ADD1148R,0.03240X0.00011*%
%ADD1149R,0.03230X0.00011*%
%ADD1150R,0.00510X0.00012*%
%ADD1151R,0.03080X0.00012*%
%ADD1152R,0.00520X0.00012*%
%ADD1153R,0.00430X0.00011*%
%ADD1154R,0.02940X0.00011*%
%ADD1155R,0.00440X0.00011*%
%ADD1156R,0.00370X0.00012*%
%ADD1157R,0.02830X0.00012*%
%ADD1158R,0.02680X0.00012*%
%ADD1159R,0.02820X0.00012*%
%ADD1160R,0.00370X0.00012*%
%ADD1161R,0.00170X0.00012*%
%ADD1162R,0.02570X0.00012*%
%ADD1163R,0.02340X0.00012*%
%ADD1164R,0.02120X0.00012*%
%ADD1165R,0.01920X0.00012*%
%ADD1166R,0.01570X0.00012*%
%ADD1167R,0.02650X0.00012*%
%ADD1168R,0.02640X0.00011*%
%ADD1169R,0.02640X0.00012*%
%ADD1170R,0.01520X0.00012*%
%ADD1171R,0.02620X0.00012*%
%ADD1172R,0.01530X0.00012*%
%ADD1173R,0.01320X0.00012*%
%ADD1174R,0.01320X0.00012*%
%ADD1175R,0.01220X0.00011*%
%ADD1176R,0.02570X0.00012*%
%ADD1177R,0.01000X0.00012*%
%ADD1178R,0.00880X0.00011*%
%ADD1179R,0.00870X0.00011*%
%ADD1180R,0.00740X0.00012*%
%ADD1181R,0.00750X0.00012*%
%ADD1182R,0.02540X0.00011*%
%ADD1183R,0.00580X0.00011*%
%ADD1184R,0.00390X0.00012*%
%ADD1185R,0.02520X0.00012*%
%ADD1186R,0.00400X0.00012*%
%ADD1187R,0.00220X0.00012*%
%ADD1188R,0.00220X0.00012*%
%ADD1189R,0.00370X0.00011*%
%ADD1190R,0.00360X0.00011*%
%ADD1191R,0.00470X0.00012*%
%ADD1192R,0.02450X0.00012*%
%ADD1193R,0.00650X0.00012*%
%ADD1194R,0.00810X0.00012*%
%ADD1195R,0.02370X0.00012*%
%ADD1196R,0.00820X0.00012*%
%ADD1197R,0.01080X0.00011*%
%ADD1198R,0.02300X0.00012*%
%ADD1199R,0.01190X0.00011*%
%ADD1200R,0.02250X0.00011*%
%ADD1201R,0.01360X0.00012*%
%ADD1202R,0.01370X0.00012*%
%ADD1203R,0.02210X0.00011*%
%ADD1204R,0.02190X0.00012*%
%ADD1205R,0.02170X0.00011*%
%ADD1206R,0.02090X0.00012*%
%ADD1207R,0.02040X0.00012*%
%ADD1208R,0.01900X0.00012*%
%ADD1209R,0.01960X0.00011*%
%ADD1210R,0.00350X0.00011*%
%ADD1211R,0.01100X0.00012*%
%ADD1212R,0.02070X0.00011*%
%ADD1213R,0.02140X0.00012*%
%ADD1214R,0.01950X0.00012*%
%ADD1215R,0.02150X0.00012*%
%ADD1216R,0.01930X0.00011*%
%ADD1217R,0.02770X0.00011*%
%ADD1218R,0.02950X0.00012*%
%ADD1219R,0.02260X0.00012*%
%ADD1220R,0.01860X0.00012*%
%ADD1221R,0.03120X0.00011*%
%ADD1222R,0.03120X0.00011*%
%ADD1223R,0.03280X0.00012*%
%ADD1224R,0.01820X0.00012*%
%ADD1225R,0.01800X0.00011*%
%ADD1226R,0.00110X0.00012*%
%ADD1227R,0.00130X0.00012*%
%ADD1228R,0.03680X0.00011*%
%ADD1229R,0.00210X0.00011*%
%ADD1230R,0.00200X0.00011*%
%ADD1231R,0.00270X0.00012*%
%ADD1232R,0.00320X0.00011*%
%ADD1233R,0.00320X0.00011*%
%ADD1234R,0.03960X0.00012*%
%ADD1235R,0.02420X0.00012*%
%ADD1236R,0.02420X0.00012*%
%ADD1237R,0.04100X0.00012*%
%ADD1238R,0.00440X0.00012*%
%ADD1239R,0.00430X0.00012*%
%ADD1240R,0.00470X0.00011*%
%ADD1241R,0.04160X0.00011*%
%ADD1242R,0.04220X0.00012*%
%ADD1243R,0.00500X0.00012*%
%ADD1244R,0.00510X0.00012*%
%ADD1245R,0.04270X0.00011*%
%ADD1246R,0.04330X0.00011*%
%ADD1247R,0.00570X0.00011*%
%ADD1248R,0.04320X0.00011*%
%ADD1249R,0.04370X0.00012*%
%ADD1250R,0.00610X0.00012*%
%ADD1251R,0.01510X0.00012*%
%ADD1252R,0.04370X0.00012*%
%ADD1253R,0.04470X0.00012*%
%ADD1254R,0.00670X0.00012*%
%ADD1255R,0.01470X0.00012*%
%ADD1256R,0.00690X0.00011*%
%ADD1257R,0.00690X0.00011*%
%ADD1258R,0.04550X0.00012*%
%ADD1259R,0.02570X0.00012*%
%ADD1260R,0.01410X0.00012*%
%ADD1261R,0.00730X0.00012*%
%ADD1262R,0.04560X0.00012*%
%ADD1263R,0.02590X0.00012*%
%ADD1264R,0.00780X0.00012*%
%ADD1265R,0.00810X0.00011*%
%ADD1266R,0.01330X0.00011*%
%ADD1267R,0.04710X0.00012*%
%ADD1268R,0.02620X0.00012*%
%ADD1269R,0.00830X0.00012*%
%ADD1270R,0.01300X0.00012*%
%ADD1271R,0.00820X0.00012*%
%ADD1272R,0.04720X0.00012*%
%ADD1273R,0.00860X0.00011*%
%ADD1274R,0.01270X0.00011*%
%ADD1275R,0.04780X0.00012*%
%ADD1276R,0.00880X0.00012*%
%ADD1277R,0.01250X0.00012*%
%ADD1278R,0.04790X0.00012*%
%ADD1279R,0.04810X0.00011*%
%ADD1280R,0.00920X0.00011*%
%ADD1281R,0.04820X0.00011*%
%ADD1282R,0.04850X0.00012*%
%ADD1283R,0.04910X0.00012*%
%ADD1284R,0.01120X0.00012*%
%ADD1285R,0.01620X0.00012*%
%ADD1286R,0.04940X0.00011*%
%ADD1287R,0.02690X0.00012*%
%ADD1288R,0.01080X0.00012*%
%ADD1289R,0.02710X0.00012*%
%ADD1290R,0.01140X0.00012*%
%ADD1291R,0.00970X0.00012*%
%ADD1292R,0.02730X0.00012*%
%ADD1293R,0.00910X0.00012*%
%ADD1294R,0.01230X0.00011*%
%ADD1295R,0.05170X0.00012*%
%ADD1296R,0.02730X0.00012*%
%ADD1297R,0.01660X0.00012*%
%ADD1298R,0.01230X0.00012*%
%ADD1299R,0.00840X0.00012*%
%ADD1300R,0.05180X0.00012*%
%ADD1301R,0.02740X0.00011*%
%ADD1302R,0.01270X0.00011*%
%ADD1303R,0.05200X0.00011*%
%ADD1304R,0.01310X0.00012*%
%ADD1305R,0.00790X0.00012*%
%ADD1306R,0.05270X0.00012*%
%ADD1307R,0.02770X0.00012*%
%ADD1308R,0.01670X0.00012*%
%ADD1309R,0.01350X0.00012*%
%ADD1310R,0.02760X0.00012*%
%ADD1311R,0.05280X0.00012*%
%ADD1312R,0.05300X0.00011*%
%ADD1313R,0.00680X0.00011*%
%ADD1314R,0.01690X0.00011*%
%ADD1315R,0.05320X0.00012*%
%ADD1316R,0.01420X0.00012*%
%ADD1317R,0.05320X0.00012*%
%ADD1318R,0.01440X0.00011*%
%ADD1319R,0.00620X0.00011*%
%ADD1320R,0.05350X0.00011*%
%ADD1321R,0.05380X0.00012*%
%ADD1322R,0.02790X0.00012*%
%ADD1323R,0.00580X0.00012*%
%ADD1324R,0.00520X0.00011*%
%ADD1325R,0.05420X0.00012*%
%ADD1326R,0.02800X0.00012*%
%ADD1327R,0.00480X0.00012*%
%ADD1328R,0.05430X0.00012*%
%ADD1329R,0.02810X0.00011*%
%ADD1330R,0.00440X0.00011*%
%ADD1331R,0.05470X0.00011*%
%ADD1332R,0.05470X0.00011*%
%ADD1333R,0.05480X0.00012*%
%ADD1334R,0.02810X0.00012*%
%ADD1335R,0.01740X0.00012*%
%ADD1336R,0.00300X0.00012*%
%ADD1337R,0.01730X0.00012*%
%ADD1338R,0.05490X0.00012*%
%ADD1339R,0.02820X0.00011*%
%ADD1340R,0.02820X0.00011*%
%ADD1341R,0.05510X0.00011*%
%ADD1342R,0.05530X0.00012*%
%ADD1343R,0.02830X0.00012*%
%ADD1344R,0.01690X0.00012*%
%ADD1345R,0.01760X0.00012*%
%ADD1346R,0.02820X0.00012*%
%ADD1347R,0.02850X0.00011*%
%ADD1348R,0.05590X0.00011*%
%ADD1349R,0.05610X0.00012*%
%ADD1350R,0.02840X0.00012*%
%ADD1351R,0.01810X0.00012*%
%ADD1352R,0.01820X0.00012*%
%ADD1353R,0.05620X0.00011*%
%ADD1354R,0.05640X0.00012*%
%ADD1355R,0.02840X0.00012*%
%ADD1356R,0.02850X0.00012*%
%ADD1357R,0.05650X0.00012*%
%ADD1358R,0.05670X0.00011*%
%ADD1359R,0.05680X0.00012*%
%ADD1360R,0.02870X0.00012*%
%ADD1361R,0.01850X0.00012*%
%ADD1362R,0.01940X0.00012*%
%ADD1363R,0.01940X0.00012*%
%ADD1364R,0.01840X0.00012*%
%ADD1365R,0.02870X0.00012*%
%ADD1366R,0.05700X0.00011*%
%ADD1367R,0.01870X0.00011*%
%ADD1368R,0.05720X0.00012*%
%ADD1369R,0.02870X0.00012*%
%ADD1370R,0.01890X0.00012*%
%ADD1371R,0.02870X0.00012*%
%ADD1372R,0.05730X0.00012*%
%ADD1373R,0.02040X0.00011*%
%ADD1374R,0.02880X0.00012*%
%ADD1375R,0.02090X0.00012*%
%ADD1376R,0.05760X0.00011*%
%ADD1377R,0.01970X0.00011*%
%ADD1378R,0.02140X0.00011*%
%ADD1379R,0.05780X0.00012*%
%ADD1380R,0.02180X0.00012*%
%ADD1381R,0.05790X0.00012*%
%ADD1382R,0.05790X0.00011*%
%ADD1383R,0.02890X0.00011*%
%ADD1384R,0.05820X0.00011*%
%ADD1385R,0.02910X0.00012*%
%ADD1386R,0.04600X0.00012*%
%ADD1387R,0.02900X0.00012*%
%ADD1388R,0.05840X0.00011*%
%ADD1389R,0.04610X0.00011*%
%ADD1390R,0.05850X0.00012*%
%ADD1391R,0.04580X0.00012*%
%ADD1392R,0.04570X0.00012*%
%ADD1393R,0.05870X0.00011*%
%ADD1394R,0.02920X0.00011*%
%ADD1395R,0.04570X0.00011*%
%ADD1396R,0.05870X0.00011*%
%ADD1397R,0.05890X0.00012*%
%ADD1398R,0.02920X0.00012*%
%ADD1399R,0.04560X0.00012*%
%ADD1400R,0.05900X0.00011*%
%ADD1401R,0.04550X0.00011*%
%ADD1402R,0.05890X0.00011*%
%ADD1403R,0.05910X0.00012*%
%ADD1404R,0.02920X0.00012*%
%ADD1405R,0.04540X0.00012*%
%ADD1406R,0.02910X0.00012*%
%ADD1407R,0.04530X0.00011*%
%ADD1408R,0.05930X0.00012*%
%ADD1409R,0.04500X0.00012*%
%ADD1410R,0.04510X0.00012*%
%ADD1411R,0.02920X0.00012*%
%ADD1412R,0.05950X0.00011*%
%ADD1413R,0.04490X0.00011*%
%ADD1414R,0.04500X0.00011*%
%ADD1415R,0.02920X0.00011*%
%ADD1416R,0.05940X0.00011*%
%ADD1417R,0.05970X0.00012*%
%ADD1418R,0.04480X0.00012*%
%ADD1419R,0.04490X0.00012*%
%ADD1420R,0.02920X0.00012*%
%ADD1421R,0.05960X0.00012*%
%ADD1422R,0.05970X0.00011*%
%ADD1423R,0.04470X0.00012*%
%ADD1424R,0.05980X0.00011*%
%ADD1425R,0.04440X0.00011*%
%ADD1426R,0.06000X0.00012*%
%ADD1427R,0.04420X0.00012*%
%ADD1428R,0.04410X0.00012*%
%ADD1429R,0.06000X0.00011*%
%ADD1430R,0.04410X0.00011*%
%ADD1431R,0.04400X0.00012*%
%ADD1432R,0.04390X0.00012*%
%ADD1433R,0.06020X0.00011*%
%ADD1434R,0.04390X0.00011*%
%ADD1435R,0.04360X0.00011*%
%ADD1436R,0.06040X0.00012*%
%ADD1437R,0.04350X0.00012*%
%ADD1438R,0.04340X0.00011*%
%ADD1439R,0.06050X0.00012*%
%ADD1440R,0.04310X0.00012*%
%ADD1441R,0.04320X0.00012*%
%ADD1442R,0.06040X0.00012*%
%ADD1443R,0.06060X0.00011*%
%ADD1444R,0.04290X0.00011*%
%ADD1445R,0.04290X0.00011*%
%ADD1446R,0.06060X0.00012*%
%ADD1447R,0.04260X0.00012*%
%ADD1448R,0.04250X0.00012*%
%ADD1449R,0.06040X0.00012*%
%ADD1450R,0.06040X0.00011*%
%ADD1451R,0.04180X0.00012*%
%ADD1452R,0.06030X0.00012*%
%ADD1453R,0.04150X0.00011*%
%ADD1454R,0.06000X0.00012*%
%ADD1455R,0.04140X0.00012*%
%ADD1456R,0.05940X0.00012*%
%ADD1457R,0.05950X0.00012*%
%ADD1458R,0.04090X0.00011*%
%ADD1459R,0.04040X0.00011*%
%ADD1460R,0.04010X0.00012*%
%ADD1461R,0.04000X0.00012*%
%ADD1462R,0.05520X0.00011*%
%ADD1463R,0.03980X0.00011*%
%ADD1464R,0.05520X0.00011*%
%ADD1465R,0.03970X0.00012*%
%ADD1466R,0.03940X0.00011*%
%ADD1467R,0.03950X0.00011*%
%ADD1468R,0.05360X0.00012*%
%ADD1469R,0.05350X0.00012*%
%ADD1470R,0.03920X0.00011*%
%ADD1471R,0.02900X0.00012*%
%ADD1472R,0.05230X0.00011*%
%ADD1473R,0.02890X0.00012*%
%ADD1474R,0.02860X0.00012*%
%ADD1475R,0.03810X0.00012*%
%ADD1476R,0.05130X0.00012*%
%ADD1477R,0.02860X0.00011*%
%ADD1478R,0.03800X0.00011*%
%ADD1479R,0.05070X0.00012*%
%ADD1480R,0.05070X0.00012*%
%ADD1481R,0.03740X0.00011*%
%ADD1482R,0.05010X0.00012*%
%ADD1483R,0.05000X0.00012*%
%ADD1484R,0.04970X0.00011*%
%ADD1485R,0.02820X0.00012*%
%ADD1486R,0.03640X0.00011*%
%ADD1487R,0.03620X0.00012*%
%ADD1488R,0.03600X0.00011*%
%ADD1489R,0.03590X0.00011*%
%ADD1490R,0.04840X0.00011*%
%ADD1491R,0.03560X0.00011*%
%ADD1492R,0.03540X0.00012*%
%ADD1493R,0.04720X0.00012*%
%ADD1494R,0.03480X0.00011*%
%ADD1495R,0.04660X0.00011*%
%ADD1496R,0.04610X0.00012*%
%ADD1497R,0.03350X0.00012*%
%ADD1498R,0.04590X0.00011*%
%ADD1499R,0.03320X0.00011*%
%ADD1500R,0.04590X0.00011*%
%ADD1501R,0.02590X0.00012*%
%ADD1502R,0.03300X0.00011*%
%ADD1503R,0.04540X0.00011*%
%ADD1504R,0.02520X0.00012*%
%ADD1505R,0.03220X0.00011*%
%ADD1506R,0.04470X0.00012*%
%ADD1507R,0.02440X0.00011*%
%ADD1508R,0.03170X0.00011*%
%ADD1509R,0.04440X0.00012*%
%ADD1510R,0.03140X0.00012*%
%ADD1511R,0.02380X0.00011*%
%ADD1512R,0.04410X0.00012*%
%ADD1513R,0.03090X0.00012*%
%ADD1514R,0.04420X0.00012*%
%ADD1515R,0.04390X0.00012*%
%ADD1516R,0.04380X0.00012*%
%ADD1517R,0.04370X0.00011*%
%ADD1518R,0.03010X0.00011*%
%ADD1519R,0.02980X0.00012*%
%ADD1520R,0.02990X0.00012*%
%ADD1521R,0.00310X0.00011*%
%ADD1522R,0.02970X0.00011*%
%ADD1523R,0.04320X0.00012*%
%ADD1524R,0.00460X0.00012*%
%ADD1525R,0.02110X0.00012*%
%ADD1526R,0.02940X0.00012*%
%ADD1527R,0.04330X0.00012*%
%ADD1528R,0.00690X0.00012*%
%ADD1529R,0.00770X0.00011*%
%ADD1530R,0.00250X0.00011*%
%ADD1531R,0.00260X0.00011*%
%ADD1532R,0.02000X0.00011*%
%ADD1533R,0.04270X0.00012*%
%ADD1534R,0.01990X0.00012*%
%ADD1535R,0.00340X0.00012*%
%ADD1536R,0.00330X0.00012*%
%ADD1537R,0.01980X0.00012*%
%ADD1538R,0.04270X0.00012*%
%ADD1539R,0.00410X0.00011*%
%ADD1540R,0.02780X0.00011*%
%ADD1541R,0.04230X0.00012*%
%ADD1542R,0.02740X0.00012*%
%ADD1543R,0.00550X0.00011*%
%ADD1544R,0.04210X0.00012*%
%ADD1545R,0.00600X0.00012*%
%ADD1546R,0.02690X0.00012*%
%ADD1547R,0.00590X0.00012*%
%ADD1548R,0.01820X0.00012*%
%ADD1549R,0.04190X0.00011*%
%ADD1550R,0.04180X0.00012*%
%ADD1551R,0.01760X0.00012*%
%ADD1552R,0.00670X0.00012*%
%ADD1553R,0.02620X0.00012*%
%ADD1554R,0.00680X0.00012*%
%ADD1555R,0.00710X0.00011*%
%ADD1556R,0.01720X0.00012*%
%ADD1557R,0.00760X0.00012*%
%ADD1558R,0.02560X0.00012*%
%ADD1559R,0.01720X0.00012*%
%ADD1560R,0.01400X0.00011*%
%ADD1561R,0.00790X0.00011*%
%ADD1562R,0.01440X0.00012*%
%ADD1563R,0.00840X0.00012*%
%ADD1564R,0.02510X0.00012*%
%ADD1565R,0.01670X0.00012*%
%ADD1566R,0.00870X0.00011*%
%ADD1567R,0.04110X0.00012*%
%ADD1568R,0.04100X0.00012*%
%ADD1569R,0.04090X0.00011*%
%ADD1570R,0.01630X0.00012*%
%ADD1571R,0.02360X0.00012*%
%ADD1572R,0.02380X0.00012*%
%ADD1573R,0.01540X0.00012*%
%ADD1574R,0.04090X0.00012*%
%ADD1575R,0.02340X0.00011*%
%ADD1576R,0.01720X0.00012*%
%ADD1577R,0.01520X0.00012*%
%ADD1578R,0.01060X0.00012*%
%ADD1579R,0.01510X0.00012*%
%ADD1580R,0.01480X0.00011*%
%ADD1581R,0.01090X0.00011*%
%ADD1582R,0.01090X0.00011*%
%ADD1583R,0.04040X0.00012*%
%ADD1584R,0.01460X0.00012*%
%ADD1585R,0.01120X0.00012*%
%ADD1586R,0.02230X0.00012*%
%ADD1587R,0.01450X0.00012*%
%ADD1588R,0.01440X0.00011*%
%ADD1589R,0.01220X0.00012*%
%ADD1590R,0.01220X0.00012*%
%ADD1591R,0.04020X0.00012*%
%ADD1592R,0.03990X0.00012*%
%ADD1593R,0.02010X0.00012*%
%ADD1594R,0.01340X0.00012*%
%ADD1595R,0.01290X0.00012*%
%ADD1596R,0.01280X0.00012*%
%ADD1597R,0.01340X0.00012*%
%ADD1598R,0.02000X0.00012*%
%ADD1599R,0.03990X0.00012*%
%ADD1600R,0.01970X0.00012*%
%ADD1601R,0.01300X0.00012*%
%ADD1602R,0.03970X0.00012*%
%ADD1603R,0.01370X0.00011*%
%ADD1604R,0.03960X0.00012*%
%ADD1605R,0.02160X0.00012*%
%ADD1606R,0.01260X0.00012*%
%ADD1607R,0.01890X0.00012*%
%ADD1608R,0.01880X0.00012*%
%ADD1609R,0.02170X0.00012*%
%ADD1610R,0.03940X0.00012*%
%ADD1611R,0.01210X0.00012*%
%ADD1612R,0.02330X0.00012*%
%ADD1613R,0.01170X0.00012*%
%ADD1614R,0.01500X0.00012*%
%ADD1615R,0.01170X0.00012*%
%ADD1616R,0.02320X0.00012*%
%ADD1617R,0.03920X0.00011*%
%ADD1618R,0.01130X0.00012*%
%ADD1619R,0.03880X0.00012*%
%ADD1620R,0.02540X0.00012*%
%ADD1621R,0.01050X0.00012*%
%ADD1622R,0.01390X0.00012*%
%ADD1623R,0.01040X0.00012*%
%ADD1624R,0.01040X0.00011*%
%ADD1625R,0.02570X0.00011*%
%ADD1626R,0.03870X0.00011*%
%ADD1627R,0.01000X0.00012*%
%ADD1628R,0.02670X0.00011*%
%ADD1629R,0.01140X0.00011*%
%ADD1630R,0.03840X0.00012*%
%ADD1631R,0.00950X0.00012*%
%ADD1632R,0.01070X0.00012*%
%ADD1633R,0.01060X0.00012*%
%ADD1634R,0.02720X0.00012*%
%ADD1635R,0.03840X0.00012*%
%ADD1636R,0.00940X0.00011*%
%ADD1637R,0.00990X0.00011*%
%ADD1638R,0.01770X0.00011*%
%ADD1639R,0.00940X0.00011*%
%ADD1640R,0.03840X0.00012*%
%ADD1641R,0.00900X0.00012*%
%ADD1642R,0.00890X0.00012*%
%ADD1643R,0.00890X0.00011*%
%ADD1644R,0.00690X0.00012*%
%ADD1645R,0.00890X0.00012*%
%ADD1646R,0.03800X0.00012*%
%ADD1647R,0.00850X0.00012*%
%ADD1648R,0.00400X0.00012*%
%ADD1649R,0.00390X0.00012*%
%ADD1650R,0.03790X0.00011*%
%ADD1651R,0.02950X0.00012*%
%ADD1652R,0.03040X0.00011*%
%ADD1653R,0.03750X0.00012*%
%ADD1654R,0.03060X0.00012*%
%ADD1655R,0.01920X0.00012*%
%ADD1656R,0.00740X0.00012*%
%ADD1657R,0.03740X0.00011*%
%ADD1658R,0.03110X0.00011*%
%ADD1659R,0.01940X0.00011*%
%ADD1660R,0.03740X0.00012*%
%ADD1661R,0.03150X0.00012*%
%ADD1662R,0.03730X0.00011*%
%ADD1663R,0.03730X0.00012*%
%ADD1664R,0.03190X0.00012*%
%ADD1665R,0.03190X0.00012*%
%ADD1666R,0.00640X0.00011*%
%ADD1667R,0.03710X0.00012*%
%ADD1668R,0.03230X0.00012*%
%ADD1669R,0.03240X0.00012*%
%ADD1670R,0.00620X0.00011*%
%ADD1671R,0.03290X0.00012*%
%ADD1672R,0.03330X0.00012*%
%ADD1673R,0.00570X0.00012*%
%ADD1674R,0.02020X0.00012*%
%ADD1675R,0.00580X0.00012*%
%ADD1676R,0.03350X0.00011*%
%ADD1677R,0.00550X0.00012*%
%ADD1678R,0.00520X0.00011*%
%ADD1679R,0.03520X0.00012*%
%ADD1680R,0.00510X0.00011*%
%ADD1681R,0.00500X0.00011*%
%ADD1682R,0.02040X0.00012*%
%ADD1683R,0.00490X0.00012*%
%ADD1684R,0.03410X0.00012*%
%ADD1685R,0.02040X0.00011*%
%ADD1686R,0.00460X0.00012*%
%ADD1687R,0.03470X0.00012*%
%ADD1688R,0.03500X0.00011*%
%ADD1689R,0.00430X0.00012*%
%ADD1690R,0.00420X0.00011*%
%ADD1691R,0.03570X0.00012*%
%ADD1692R,0.00380X0.00012*%
%ADD1693R,0.00330X0.00011*%
%ADD1694R,0.03620X0.00011*%
%ADD1695R,0.01790X0.00012*%
%ADD1696R,0.00310X0.00012*%
%ADD1697R,0.01970X0.00012*%
%ADD1698R,0.03640X0.00011*%
%ADD1699R,0.03650X0.00012*%
%ADD1700R,0.00290X0.00012*%
%ADD1701R,0.01690X0.00012*%
%ADD1702R,0.00240X0.00012*%
%ADD1703R,0.03670X0.00012*%
%ADD1704R,0.00180X0.00012*%
%ADD1705R,0.00190X0.00012*%
%ADD1706R,0.03670X0.00012*%
%ADD1707R,0.00140X0.00011*%
%ADD1708R,0.00130X0.00011*%
%ADD1709R,0.00090X0.00012*%
%ADD1710R,0.03690X0.00012*%
%ADD1711R,0.03690X0.00011*%
%ADD1712R,0.01370X0.00011*%
%ADD1713R,0.01340X0.00012*%
%ADD1714R,0.03700X0.00012*%
%ADD1715R,0.01330X0.00012*%
%ADD1716R,0.01180X0.00012*%
%ADD1717R,0.03690X0.00012*%
%ADD1718R,0.03680X0.00012*%
%ADD1719R,0.01000X0.00011*%
%ADD1720R,0.00900X0.00012*%
%ADD1721R,0.01500X0.00012*%
%ADD1722R,0.03670X0.00012*%
%ADD1723R,0.01430X0.00011*%
%ADD1724R,0.00760X0.00012*%
%ADD1725R,0.00030X0.00011*%
%ADD1726R,0.00020X0.00011*%
%ADD1727R,0.00040X0.00011*%
%ADD1728R,0.00050X0.00011*%
%ADD1729R,0.00060X0.00012*%
%ADD1730R,0.00070X0.00012*%
%ADD1731R,0.00080X0.00011*%
%ADD1732R,0.00090X0.00011*%
%ADD1733R,0.00100X0.00012*%
%ADD1734R,0.03620X0.00012*%
%ADD1735R,0.00520X0.00012*%
%ADD1736R,0.03610X0.00012*%
%ADD1737R,0.00150X0.00012*%
%ADD1738R,0.00520X0.00012*%
%ADD1739R,0.01240X0.00011*%
%ADD1740R,0.00450X0.00012*%
%ADD1741R,0.00190X0.00012*%
%ADD1742R,0.01230X0.00012*%
%ADD1743R,0.00240X0.00011*%
%ADD1744R,0.00220X0.00011*%
%ADD1745R,0.00420X0.00011*%
%ADD1746R,0.00230X0.00012*%
%ADD1747R,0.03590X0.00012*%
%ADD1748R,0.00370X0.00012*%
%ADD1749R,0.00340X0.00011*%
%ADD1750R,0.00640X0.00012*%
%ADD1751R,0.00280X0.00012*%
%ADD1752R,0.01150X0.00012*%
%ADD1753R,0.03560X0.00012*%
%ADD1754R,0.00050X0.00012*%
%ADD1755R,0.00320X0.00012*%
%ADD1756R,0.01100X0.00012*%
%ADD1757R,0.01110X0.00012*%
%ADD1758R,0.00060X0.00012*%
%ADD1759R,0.00170X0.00011*%
%ADD1760R,0.00200X0.00012*%
%ADD1761R,0.01070X0.00012*%
%ADD1762R,0.00210X0.00012*%
%ADD1763R,0.03550X0.00012*%
%ADD1764R,0.00120X0.00012*%
%ADD1765R,0.03530X0.00012*%
%ADD1766R,0.00290X0.00012*%
%ADD1767R,0.00410X0.00012*%
%ADD1768R,0.03490X0.00012*%
%ADD1769R,0.00970X0.00011*%
%ADD1770R,0.01470X0.00012*%
%ADD1771R,0.00420X0.00012*%
%ADD1772R,0.00890X0.00012*%
%ADD1773R,0.03440X0.00011*%
%ADD1774R,0.01770X0.00012*%
%ADD1775R,0.03430X0.00012*%
%ADD1776R,0.00550X0.00012*%
%ADD1777R,0.00650X0.00012*%
%ADD1778R,0.00640X0.00012*%
%ADD1779R,0.01780X0.00012*%
%ADD1780R,0.00570X0.00011*%
%ADD1781R,0.00590X0.00012*%
%ADD1782R,0.03390X0.00012*%
%ADD1783R,0.00620X0.00012*%
%ADD1784R,0.00620X0.00012*%
%ADD1785R,0.03370X0.00012*%
%ADD1786R,0.00790X0.00012*%
%ADD1787R,0.00800X0.00012*%
%ADD1788R,0.00680X0.00012*%
%ADD1789R,0.02130X0.00012*%
%ADD1790R,0.00770X0.00011*%
%ADD1791R,0.03340X0.00011*%
%ADD1792R,0.03320X0.00012*%
%ADD1793R,0.00730X0.00012*%
%ADD1794R,0.02290X0.00012*%
%ADD1795R,0.00780X0.00012*%
%ADD1796R,0.00920X0.00012*%
%ADD1797R,0.00720X0.00012*%
%ADD1798R,0.03290X0.00012*%
%ADD1799R,0.00970X0.00012*%
%ADD1800R,0.03250X0.00011*%
%ADD1801R,0.02430X0.00012*%
%ADD1802R,0.03250X0.00012*%
%ADD1803R,0.01010X0.00012*%
%ADD1804R,0.02490X0.00012*%
%ADD1805R,0.00660X0.00012*%
%ADD1806R,0.02490X0.00012*%
%ADD1807R,0.03200X0.00012*%
%ADD1808R,0.01090X0.00012*%
%ADD1809R,0.00620X0.00012*%
%ADD1810R,0.00620X0.00012*%
%ADD1811R,0.03210X0.00012*%
%ADD1812R,0.03200X0.00011*%
%ADD1813R,0.02610X0.00012*%
%ADD1814R,0.03160X0.00012*%
%ADD1815R,0.01190X0.00012*%
%ADD1816R,0.01180X0.00012*%
%ADD1817R,0.03170X0.00012*%
%ADD1818R,0.02670X0.00012*%
%ADD1819R,0.03150X0.00011*%
%ADD1820R,0.03140X0.00011*%
%ADD1821R,0.02740X0.00012*%
%ADD1822R,0.03120X0.00012*%
%ADD1823R,0.01250X0.00012*%
%ADD1824R,0.01010X0.00012*%
%ADD1825R,0.02740X0.00012*%
%ADD1826R,0.02770X0.00011*%
%ADD1827R,0.01290X0.00012*%
%ADD1828R,0.03110X0.00012*%
%ADD1829R,0.01040X0.00011*%
%ADD1830R,0.03070X0.00012*%
%ADD1831R,0.03070X0.00012*%
%ADD1832R,0.01350X0.00011*%
%ADD1833R,0.02890X0.00011*%
%ADD1834R,0.03070X0.00012*%
%ADD1835R,0.00310X0.00012*%
%ADD1836R,0.01390X0.00011*%
%ADD1837R,0.02960X0.00012*%
%ADD1838R,0.03030X0.00012*%
%ADD1839R,0.03020X0.00011*%
%ADD1840R,0.03030X0.00011*%
%ADD1841R,0.03050X0.00012*%
%ADD1842R,0.03110X0.00012*%
%ADD1843R,0.02960X0.00012*%
%ADD1844R,0.01210X0.00012*%
%ADD1845R,0.00940X0.00012*%
%ADD1846R,0.00940X0.00012*%
%ADD1847R,0.00940X0.00012*%
%ADD1848R,0.03210X0.00012*%
%ADD1849R,0.01270X0.00012*%
%ADD1850R,0.03220X0.00012*%
%ADD1851R,0.03240X0.00011*%
%ADD1852R,0.03260X0.00012*%
%ADD1853R,0.03320X0.00012*%
%ADD1854R,0.01390X0.00012*%
%ADD1855R,0.03390X0.00011*%
%ADD1856R,0.02790X0.00012*%
%ADD1857R,0.02770X0.00012*%
%ADD1858R,0.03440X0.00012*%
%ADD1859R,0.03470X0.00012*%
%ADD1860R,0.01470X0.00012*%
%ADD1861R,0.03460X0.00012*%
%ADD1862R,0.03570X0.00012*%
%ADD1863R,0.03570X0.00012*%
%ADD1864R,0.00960X0.00012*%
%ADD1865R,0.02520X0.00012*%
%ADD1866R,0.01770X0.00011*%
%ADD1867R,0.02450X0.00011*%
%ADD1868R,0.02410X0.00012*%
%ADD1869R,0.01830X0.00012*%
%ADD1870R,0.02350X0.00012*%
%ADD1871R,0.02290X0.00012*%
%ADD1872R,0.02220X0.00011*%
%ADD1873R,0.03690X0.00012*%
%ADD1874R,0.00190X0.00011*%
%ADD1875R,0.03640X0.00012*%
%ADD1876R,0.02080X0.00012*%
%ADD1877R,0.02070X0.00012*%
%ADD1878R,0.00930X0.00011*%
%ADD1879R,0.00870X0.00012*%
%ADD1880R,0.00710X0.00012*%
%ADD1881R,0.02130X0.00012*%
%ADD1882R,0.00020X0.00011*%
%ADD1883R,0.00040X0.00011*%
%ADD1884R,0.03520X0.00012*%
%ADD1885R,0.03510X0.00012*%
%ADD1886R,0.02240X0.00012*%
%ADD1887R,0.02240X0.00012*%
%ADD1888R,0.00140X0.00012*%
%ADD1889R,0.00190X0.00012*%
%ADD1890R,0.00200X0.00012*%
%ADD1891R,0.03450X0.00012*%
%ADD1892R,0.02320X0.00012*%
%ADD1893R,0.00280X0.00012*%
%ADD1894R,0.00320X0.00012*%
%ADD1895R,0.03440X0.00012*%
%ADD1896R,0.02370X0.00012*%
%ADD1897R,0.00360X0.00012*%
%ADD1898R,0.00370X0.00012*%
%ADD1899R,0.03430X0.00012*%
%ADD1900R,0.02390X0.00012*%
%ADD1901R,0.00120X0.00012*%
%ADD1902R,0.00270X0.00011*%
%ADD1903R,0.02500X0.00012*%
%ADD1904R,0.03380X0.00012*%
%ADD1905R,0.03360X0.00012*%
%ADD1906R,0.00640X0.00012*%
%ADD1907R,0.03360X0.00012*%
%ADD1908R,0.01520X0.00012*%
%ADD1909R,0.00720X0.00012*%
%ADD1910R,0.03340X0.00012*%
%ADD1911R,0.03340X0.00012*%
%ADD1912R,0.02580X0.00012*%
%ADD1913R,0.01790X0.00012*%
%ADD1914R,0.03320X0.00012*%
%ADD1915R,0.02640X0.00011*%
%ADD1916R,0.03300X0.00012*%
%ADD1917R,0.00920X0.00012*%
%ADD1918R,0.01990X0.00012*%
%ADD1919R,0.03290X0.00011*%
%ADD1920R,0.02050X0.00012*%
%ADD1921R,0.02690X0.00012*%
%ADD1922R,0.02100X0.00012*%
%ADD1923R,0.03270X0.00012*%
%ADD1924R,0.03270X0.00012*%
%ADD1925R,0.03270X0.00011*%
%ADD1926R,0.03260X0.00012*%
%ADD1927R,0.01170X0.00012*%
%ADD1928R,0.02750X0.00012*%
%ADD1929R,0.03250X0.00012*%
%ADD1930R,0.02740X0.00011*%
%ADD1931R,0.02290X0.00011*%
%ADD1932R,0.01370X0.00012*%
%ADD1933R,0.02740X0.00012*%
%ADD1934R,0.02340X0.00012*%
%ADD1935R,0.03200X0.00012*%
%ADD1936R,0.03190X0.00011*%
%ADD1937R,0.03190X0.00012*%
%ADD1938R,0.02420X0.00012*%
%ADD1939R,0.03180X0.00012*%
%ADD1940R,0.03170X0.00012*%
%ADD1941R,0.01690X0.00012*%
%ADD1942R,0.01700X0.00012*%
%ADD1943R,0.02720X0.00012*%
%ADD1944R,0.02440X0.00012*%
%ADD1945R,0.03170X0.00012*%
%ADD1946R,0.03170X0.00012*%
%ADD1947R,0.02490X0.00012*%
%ADD1948R,0.01860X0.00012*%
%ADD1949R,0.03130X0.00012*%
%ADD1950R,0.03120X0.00012*%
%ADD1951R,0.03120X0.00012*%
%ADD1952R,0.02540X0.00012*%
%ADD1953R,0.02540X0.00011*%
%ADD1954R,0.03100X0.00012*%
%ADD1955R,0.02190X0.00012*%
%ADD1956R,0.03080X0.00012*%
%ADD1957R,0.02280X0.00012*%
%ADD1958R,0.03090X0.00011*%
%ADD1959R,0.03090X0.00012*%
%ADD1960R,0.02310X0.00012*%
%ADD1961R,0.03070X0.00012*%
%ADD1962R,0.03060X0.00012*%
%ADD1963R,0.02470X0.00012*%
%ADD1964R,0.00060X0.00011*%
%ADD1965R,0.03050X0.00012*%
%ADD1966R,0.00120X0.00012*%
%ADD1967R,0.00110X0.00012*%
%ADD1968R,0.03040X0.00012*%
%ADD1969R,0.03040X0.00012*%
%ADD1970R,0.03020X0.00011*%
%ADD1971R,0.03020X0.00012*%
%ADD1972R,0.00320X0.00012*%
%ADD1973R,0.00340X0.00012*%
%ADD1974R,0.02640X0.00012*%
%ADD1975R,0.02990X0.00012*%
%ADD1976R,0.02990X0.00012*%
%ADD1977R,0.02800X0.00012*%
%ADD1978R,0.02980X0.00012*%
%ADD1979R,0.02990X0.00011*%
%ADD1980R,0.02970X0.00012*%
%ADD1981R,0.02320X0.00012*%
%ADD1982R,0.02970X0.00012*%
%ADD1983R,0.00440X0.00012*%
%ADD1984R,0.00470X0.00011*%
%ADD1985R,0.02890X0.00012*%
%ADD1986R,0.00540X0.00012*%
%ADD1987R,0.00530X0.00012*%
%ADD1988R,0.00570X0.00012*%
%ADD1989R,0.03320X0.00012*%
%ADD1990R,0.00610X0.00012*%
%ADD1991R,0.02080X0.00012*%
%ADD1992R,0.00630X0.00012*%
%ADD1993R,0.03500X0.00012*%
%ADD1994R,0.02030X0.00012*%
%ADD1995R,0.02140X0.00012*%
%ADD1996R,0.01990X0.00011*%
%ADD1997R,0.00700X0.00012*%
%ADD1998R,0.01970X0.00012*%
%ADD1999R,0.00740X0.00011*%
%ADD2000R,0.01930X0.00012*%
%ADD2001R,0.00750X0.00012*%
%ADD2002R,0.01790X0.00012*%
%ADD2003R,0.03820X0.00012*%
%ADD2004R,0.03910X0.00012*%
%ADD2005R,0.03900X0.00012*%
%ADD2006R,0.01840X0.00012*%
%ADD2007R,0.04070X0.00011*%
%ADD2008R,0.04130X0.00012*%
%ADD2009R,0.00910X0.00012*%
%ADD2010R,0.01070X0.00012*%
%ADD2011R,0.04230X0.00012*%
%ADD2012R,0.04220X0.00012*%
%ADD2013R,0.04270X0.00012*%
%ADD2014R,0.04310X0.00012*%
%ADD2015R,0.04360X0.00012*%
%ADD2016R,0.01020X0.00012*%
%ADD2017R,0.00840X0.00012*%
%ADD2018R,0.01040X0.00012*%
%ADD2019R,0.01490X0.00011*%
%ADD2020R,0.04670X0.00012*%
%ADD2021R,0.04690X0.00011*%
%ADD2022R,0.01470X0.00011*%
%ADD2023R,0.00210X0.00012*%
%ADD2024R,0.04720X0.00012*%
%ADD2025R,0.00220X0.00012*%
%ADD2026R,0.00560X0.00012*%
%ADD2027R,0.00540X0.00012*%
%ADD2028R,0.00540X0.00012*%
%ADD2029R,0.01430X0.00012*%
%ADD2030R,0.04800X0.00012*%
%ADD2031R,0.04810X0.00012*%
%ADD2032R,0.01420X0.00012*%
%ADD2033R,0.00440X0.00012*%
%ADD2034R,0.04870X0.00012*%
%ADD2035R,0.04860X0.00012*%
%ADD2036R,0.04890X0.00011*%
%ADD2037R,0.04950X0.00012*%
%ADD2038R,0.01270X0.00012*%
%ADD2039R,0.05020X0.00011*%
%ADD2040R,0.05010X0.00011*%
%ADD2041R,0.00040X0.00012*%
%ADD2042R,0.05040X0.00012*%
%ADD2043R,0.05080X0.00012*%
%ADD2044R,0.05110X0.00011*%
%ADD2045R,0.05120X0.00012*%
%ADD2046R,0.01390X0.00012*%
%ADD2047R,0.05170X0.00012*%
%ADD2048R,0.05170X0.00012*%
%ADD2049R,0.05210X0.00012*%
%ADD2050R,0.05270X0.00012*%
%ADD2051R,0.05280X0.00012*%
%ADD2052R,0.05320X0.00012*%
%ADD2053R,0.05320X0.00012*%
%ADD2054R,0.01160X0.00012*%
%ADD2055R,0.00290X0.00012*%
%ADD2056R,0.01420X0.00012*%
%ADD2057R,0.05390X0.00011*%
%ADD2058R,0.01140X0.00011*%
%ADD2059R,0.05400X0.00012*%
%ADD2060R,0.05430X0.00011*%
%ADD2061R,0.05440X0.00012*%
%ADD2062R,0.00070X0.00011*%
%ADD2063R,0.00030X0.00012*%
%ADD2064R,0.05500X0.00012*%
%ADD2065R,0.01490X0.00012*%
%ADD2066R,0.01080X0.00012*%
%ADD2067R,0.05550X0.00011*%
%ADD2068R,0.05580X0.00012*%
%ADD2069R,0.01520X0.00011*%
%ADD2070R,0.05620X0.00012*%
%ADD2071R,0.05680X0.00012*%
%ADD2072R,0.05730X0.00012*%
%ADD2073R,0.05770X0.00012*%
%ADD2074R,0.05790X0.00011*%
%ADD2075R,0.05820X0.00012*%
%ADD2076R,0.05860X0.00012*%
%ADD2077R,0.05900X0.00012*%
%ADD2078R,0.05990X0.00012*%
%ADD2079R,0.02340X0.00012*%
%ADD2080R,0.00850X0.00012*%
%ADD2081R,0.06020X0.00012*%
%ADD2082R,0.06070X0.00011*%
%ADD2083R,0.06070X0.00011*%
%ADD2084R,0.01740X0.00012*%
%ADD2085R,0.06090X0.00012*%
%ADD2086R,0.06120X0.00011*%
%ADD2087R,0.02270X0.00012*%
%ADD2088R,0.02270X0.00012*%
%ADD2089R,0.06150X0.00011*%
%ADD2090R,0.02440X0.00012*%
%ADD2091R,0.06170X0.00012*%
%ADD2092R,0.00780X0.00011*%
%ADD2093R,0.06220X0.00012*%
%ADD2094R,0.06220X0.00012*%
%ADD2095R,0.06020X0.00012*%
%ADD2096R,0.05910X0.00011*%
%ADD2097R,0.05680X0.00011*%
%ADD2098R,0.05570X0.00012*%
%ADD2099R,0.05520X0.00012*%
%ADD2100R,0.05370X0.00011*%
%ADD2101R,0.01940X0.00012*%
%ADD2102R,0.01970X0.00012*%
%ADD2103R,0.05050X0.00012*%
%ADD2104R,0.00570X0.00012*%
%ADD2105R,0.00540X0.00011*%
%ADD2106R,0.04900X0.00012*%
%ADD2107R,0.04770X0.00012*%
%ADD2108R,0.02820X0.00012*%
%ADD2109R,0.04730X0.00011*%
%ADD2110R,0.04620X0.00012*%
%ADD2111R,0.00390X0.00011*%
%ADD2112R,0.00330X0.00012*%
%ADD2113R,0.02070X0.00012*%
%ADD2114R,0.00240X0.00012*%
%ADD2115R,0.00240X0.00012*%
%ADD2116R,0.01120X0.00012*%
%ADD2117R,0.04200X0.00012*%
%ADD2118R,0.00170X0.00012*%
%ADD2119R,0.00110X0.00011*%
%ADD2120R,0.00020X0.00012*%
%ADD2121R,0.00020X0.00012*%
%ADD2122R,0.04060X0.00011*%
%ADD2123R,0.00890X0.00012*%
%ADD2124R,0.03880X0.00012*%
%ADD2125R,0.03830X0.00012*%
%ADD2126R,0.03770X0.00012*%
%ADD2127R,0.03720X0.00012*%
%ADD2128R,0.00290X0.00011*%
%ADD2129R,0.00240X0.00011*%
%ADD2130R,0.00160X0.00012*%
%ADD2131R,0.03090X0.00012*%
%ADD2132R,0.03220X0.00012*%
%ADD2133R,0.02090X0.00012*%
%ADD2134R,0.03180X0.00012*%
%ADD2135R,0.03040X0.00011*%
%ADD2136R,0.00220X0.00011*%
%ADD2137R,0.00390X0.00012*%
%ADD2138R,0.00520X0.00012*%
%ADD2139R,0.02940X0.00012*%
%ADD2140R,0.00640X0.00011*%
%ADD2141R,0.00690X0.00012*%
%ADD2142R,0.00790X0.00012*%
%ADD2143R,0.02470X0.00012*%
%ADD2144R,0.01240X0.00012*%
%ADD2145R,0.01240X0.00012*%
%ADD2146R,0.02220X0.00012*%
%ADD2147R,0.00920X0.00012*%
%ADD2148R,0.01440X0.00012*%
%ADD2149R,0.02070X0.00012*%
%ADD2150R,0.01520X0.00012*%
%ADD2151R,0.01440X0.00012*%
%ADD2152R,0.01290X0.00012*%
%ADD2153R,0.01140X0.00012*%
%ADD2154R,0.01220X0.00012*%
%ADD2155R,0.02590X0.00011*%
%ADD2156R,0.01720X0.00012*%
%ADD2157R,0.01020X0.00012*%
%ADD2158R,0.01480X0.00012*%
%ADD2159R,0.01770X0.00012*%
%ADD2160R,0.02770X0.00012*%
%ADD2161R,0.01170X0.00012*%
%ADD2162R,0.01870X0.00012*%
%ADD2163R,0.04050X0.00012*%
%ADD2164R,0.01870X0.00012*%
%ADD2165R,0.04170X0.00012*%
%ADD2166R,0.04210X0.00011*%
%ADD2167R,0.04710X0.00012*%
%ADD2168R,0.04970X0.00012*%
%ADD2169R,0.05310X0.00012*%
%ADD2170R,0.05390X0.00012*%
%ADD2171R,0.00380X0.00012*%
%ADD2172R,0.01990X0.00012*%
%ADD2173R,0.05590X0.00012*%
%ADD2174R,0.00300X0.00012*%
%ADD2175R,0.05770X0.00011*%
%ADD2176R,0.05870X0.00012*%
%ADD2177R,0.02490X0.00012*%
%ADD2178R,0.00070X0.00011*%
%ADD2179R,0.06070X0.00012*%
%ADD2180R,0.01920X0.00012*%
%ADD2181R,0.00720X0.00012*%
%ADD2182R,0.06210X0.00011*%
%ADD2183R,0.06330X0.00011*%
%ADD2184R,0.06360X0.00012*%
%ADD2185R,0.06390X0.00011*%
%ADD2186R,0.06430X0.00011*%
%ADD2187R,0.06490X0.00012*%
%ADD2188R,0.06590X0.00012*%
%ADD2189R,0.06620X0.00011*%
%ADD2190R,0.06650X0.00012*%
%ADD2191R,0.06680X0.00011*%
%ADD2192R,0.06710X0.00011*%
%ADD2193R,0.06730X0.00012*%
%ADD2194R,0.06750X0.00011*%
%ADD2195R,0.06790X0.00012*%
%ADD2196R,0.06830X0.00011*%
%ADD2197R,0.06850X0.00012*%
%ADD2198R,0.06870X0.00011*%
%ADD2199R,0.06890X0.00012*%
%ADD2200R,0.00470X0.00012*%
%ADD2201R,0.02240X0.00012*%
%ADD2202R,0.06910X0.00011*%
%ADD2203R,0.06960X0.00012*%
%ADD2204R,0.06990X0.00011*%
%ADD2205R,0.07010X0.00012*%
%ADD2206R,0.07030X0.00011*%
%ADD2207R,0.07050X0.00012*%
%ADD2208R,0.07070X0.00011*%
%ADD2209R,0.07110X0.00012*%
%ADD2210R,0.07130X0.00011*%
%ADD2211R,0.07160X0.00011*%
%ADD2212R,0.07180X0.00012*%
%ADD2213R,0.07210X0.00011*%
%ADD2214R,0.00420X0.00012*%
%ADD2215R,0.07230X0.00012*%
%ADD2216R,0.07270X0.00011*%
%ADD2217R,0.07290X0.00012*%
%ADD2218R,0.07310X0.00011*%
%ADD2219R,0.07330X0.00012*%
%ADD2220R,0.07350X0.00011*%
%ADD2221R,0.07370X0.00012*%
%ADD2222R,0.07410X0.00011*%
%ADD2223R,0.07430X0.00012*%
%ADD2224R,0.07450X0.00011*%
%ADD2225R,0.07470X0.00012*%
%ADD2226R,0.02170X0.00012*%
%ADD2227R,0.07490X0.00011*%
%ADD2228R,0.07510X0.00012*%
%ADD2229R,0.07530X0.00011*%
%ADD2230R,0.07570X0.00012*%
%ADD2231R,0.07590X0.00011*%
%ADD2232R,0.07610X0.00011*%
%ADD2233R,0.07630X0.00012*%
%ADD2234R,0.07650X0.00011*%
%ADD2235R,0.07670X0.00012*%
%ADD2236R,0.07690X0.00011*%
%ADD2237R,0.07730X0.00012*%
%ADD2238R,0.07750X0.00011*%
%ADD2239R,0.07770X0.00012*%
%ADD2240R,0.07790X0.00011*%
%ADD2241R,0.07810X0.00012*%
%ADD2242R,0.07830X0.00011*%
%ADD2243R,0.07850X0.00012*%
%ADD2244R,0.07850X0.00011*%
%ADD2245R,0.07890X0.00012*%
%ADD2246R,0.00250X0.00012*%
%ADD2247R,0.07910X0.00011*%
%ADD2248R,0.01340X0.00012*%
%ADD2249R,0.02190X0.00012*%
%ADD2250R,0.07930X0.00012*%
%ADD2251R,0.07950X0.00011*%
%ADD2252R,0.07970X0.00012*%
%ADD2253R,0.07990X0.00011*%
%ADD2254R,0.08010X0.00011*%
%ADD2255R,0.08030X0.00012*%
%ADD2256R,0.08050X0.00011*%
%ADD2257R,0.08070X0.00012*%
%ADD2258R,0.08090X0.00011*%
%ADD2259R,0.08110X0.00012*%
%ADD2260R,0.08130X0.00011*%
%ADD2261R,0.08150X0.00012*%
%ADD2262R,0.08150X0.00011*%
%ADD2263R,0.08190X0.00012*%
%ADD2264R,0.08210X0.00011*%
%ADD2265R,0.08230X0.00012*%
%ADD2266R,0.08250X0.00011*%
%ADD2267R,0.08260X0.00012*%
%ADD2268R,0.00140X0.00011*%
%ADD2269R,0.08270X0.00011*%
%ADD2270R,0.00270X0.00012*%
%ADD2271R,0.08290X0.00012*%
%ADD2272R,0.08310X0.00011*%
%ADD2273R,0.02140X0.00012*%
%ADD2274R,0.00180X0.00012*%
%ADD2275R,0.08350X0.00012*%
%ADD2276R,0.00030X0.00012*%
%ADD2277R,0.08360X0.00011*%
%ADD2278R,0.08370X0.00011*%
%ADD2279R,0.08390X0.00012*%
%ADD2280R,0.08410X0.00011*%
%ADD2281R,0.00480X0.00012*%
%ADD2282R,0.00170X0.00012*%
%ADD2283R,0.08430X0.00012*%
%ADD2284R,0.00160X0.00012*%
%ADD2285R,0.08430X0.00011*%
%ADD2286R,0.08450X0.00012*%
%ADD2287R,0.08470X0.00011*%
%ADD2288R,0.08510X0.00012*%
%ADD2289R,0.08520X0.00011*%
%ADD2290R,0.00590X0.00011*%
%ADD2291R,0.08530X0.00012*%
%ADD2292R,0.08550X0.00011*%
%ADD2293R,0.08570X0.00012*%
%ADD2294R,0.08570X0.00011*%
%ADD2295R,0.08590X0.00012*%
%ADD2296R,0.02040X0.00012*%
%ADD2297R,0.08610X0.00011*%
%ADD2298R,0.08630X0.00012*%
%ADD2299R,0.08630X0.00011*%
%ADD2300R,0.00190X0.00011*%
%ADD2301R,0.00220X0.00012*%
%ADD2302R,0.08670X0.00012*%
%ADD2303R,0.08690X0.00011*%
%ADD2304R,0.08710X0.00012*%
%ADD2305R,0.08730X0.00011*%
%ADD2306R,0.08740X0.00012*%
%ADD2307R,0.08750X0.00011*%
%ADD2308R,0.08770X0.00012*%
%ADD2309R,0.08790X0.00011*%
%ADD2310R,0.08790X0.00012*%
%ADD2311R,0.08830X0.00011*%
%ADD2312R,0.08850X0.00012*%
%ADD2313R,0.08850X0.00011*%
%ADD2314R,0.08870X0.00012*%
%ADD2315R,0.08890X0.00011*%
%ADD2316R,0.08890X0.00012*%
%ADD2317R,0.08910X0.00011*%
%ADD2318R,0.08930X0.00012*%
%ADD2319R,0.08930X0.00011*%
%ADD2320R,0.08970X0.00011*%
%ADD2321R,0.08970X0.00012*%
%ADD2322R,0.01070X0.00012*%
%ADD2323R,0.08990X0.00011*%
%ADD2324R,0.09010X0.00012*%
%ADD2325R,0.09010X0.00011*%
%ADD2326R,0.09030X0.00012*%
%ADD2327R,0.09050X0.00011*%
%ADD2328R,0.09050X0.00012*%
%ADD2329R,0.09070X0.00011*%
%ADD2330R,0.09080X0.00012*%
%ADD2331R,0.09090X0.00011*%
%ADD2332R,0.09130X0.00012*%
%ADD2333R,0.09130X0.00011*%
%ADD2334R,0.09150X0.00012*%
%ADD2335R,0.00340X0.00011*%
%ADD2336R,0.09150X0.00011*%
%ADD2337R,0.00340X0.00012*%
%ADD2338R,0.09170X0.00012*%
%ADD2339R,0.09190X0.00011*%
%ADD2340R,0.09190X0.00012*%
%ADD2341R,0.01840X0.00012*%
%ADD2342R,0.09210X0.00011*%
%ADD2343R,0.00100X0.00011*%
%ADD2344R,0.09230X0.00012*%
%ADD2345R,0.09240X0.00011*%
%ADD2346R,0.09250X0.00012*%
%ADD2347R,0.09290X0.00011*%
%ADD2348R,0.00070X0.00012*%
%ADD2349R,0.09290X0.00012*%
%ADD2350R,0.00070X0.00012*%
%ADD2351R,0.09310X0.00011*%
%ADD2352R,0.09310X0.00012*%
%ADD2353R,0.09330X0.00011*%
%ADD2354R,0.01420X0.00012*%
%ADD2355R,0.09330X0.00012*%
%ADD2356R,0.00170X0.00012*%
%ADD2357R,0.09350X0.00011*%
%ADD2358R,0.09350X0.00012*%
%ADD2359R,0.09370X0.00011*%
%ADD2360R,0.09380X0.00012*%
%ADD2361R,0.09390X0.00011*%
%ADD2362R,0.09400X0.00012*%
%ADD2363R,0.09410X0.00011*%
%ADD2364R,0.09450X0.00012*%
%ADD2365R,0.09450X0.00011*%
%ADD2366R,0.09470X0.00011*%
%ADD2367R,0.09470X0.00012*%
%ADD2368R,0.09490X0.00011*%
%ADD2369R,0.09490X0.00012*%
%ADD2370R,0.09510X0.00011*%
%ADD2371R,0.09510X0.00012*%
%ADD2372R,0.09530X0.00011*%
%ADD2373R,0.09530X0.00012*%
%ADD2374R,0.09550X0.00011*%
%ADD2375R,0.09550X0.00012*%
%ADD2376R,0.00150X0.00012*%
%ADD2377R,0.09580X0.00011*%
%ADD2378R,0.09580X0.00012*%
%ADD2379R,0.09610X0.00011*%
%ADD2380R,0.01470X0.00012*%
%ADD2381R,0.09610X0.00012*%
%ADD2382R,0.07530X0.00012*%
%ADD2383R,0.07460X0.00011*%
%ADD2384R,0.07410X0.00012*%
%ADD2385R,0.07330X0.00011*%
%ADD2386R,0.07280X0.00012*%
%ADD2387R,0.07260X0.00011*%
%ADD2388R,0.07230X0.00012*%
%ADD2389R,0.00120X0.00011*%
%ADD2390R,0.02240X0.00012*%
%ADD2391R,0.00990X0.00012*%
%ADD2392R,0.00570X0.00012*%
%ADD2393R,0.02890X0.00012*%
%ADD2394R,0.02970X0.00012*%
%ADD2395R,0.00970X0.00012*%
%ADD2396R,0.03190X0.00011*%
%ADD2397R,0.03160X0.00012*%
%ADD2398R,0.00420X0.00012*%
%ADD2399R,0.03370X0.00012*%
%ADD2400R,0.03420X0.00012*%
%ADD2401R,0.03490X0.00012*%
%ADD2402R,0.03570X0.00012*%
%ADD2403R,0.03780X0.00012*%
%ADD2404R,0.03810X0.00012*%
%ADD2405R,0.03920X0.00012*%
%ADD2406R,0.03290X0.00012*%
%ADD2407R,0.03290X0.00012*%
%ADD2408R,0.04040X0.00012*%
%ADD2409R,0.04070X0.00012*%
%ADD2410R,0.04140X0.00011*%
%ADD2411R,0.00270X0.00012*%
%ADD2412R,0.04200X0.00012*%
%ADD2413R,0.04140X0.00012*%
%ADD2414R,0.04270X0.00012*%
%ADD2415R,0.04240X0.00011*%
%ADD2416R,0.04300X0.00012*%
%ADD2417R,0.04350X0.00012*%
%ADD2418R,0.01640X0.00012*%
%ADD2419R,0.03420X0.00012*%
%ADD2420R,0.04460X0.00011*%
%ADD2421R,0.03420X0.00012*%
%ADD2422R,0.00080X0.00012*%
%ADD2423R,0.04520X0.00012*%
%ADD2424R,0.04510X0.00012*%
%ADD2425R,0.00120X0.00011*%
%ADD2426R,0.04620X0.00012*%
%ADD2427R,0.00010X0.00012*%
%ADD2428R,0.04670X0.00012*%
%ADD2429R,0.04640X0.00011*%
%ADD2430R,0.04760X0.00012*%
%ADD2431R,0.00260X0.00012*%
%ADD2432R,0.04810X0.00012*%
%ADD2433R,0.04750X0.00012*%
%ADD2434R,0.04820X0.00011*%
%ADD2435R,0.04770X0.00011*%
%ADD2436R,0.04790X0.00012*%
%ADD2437R,0.04880X0.00012*%
%ADD2438R,0.04870X0.00012*%
%ADD2439R,0.04920X0.00011*%
%ADD2440R,0.04990X0.00012*%
%ADD2441R,0.05020X0.00011*%
%ADD2442R,0.05040X0.00012*%
%ADD2443R,0.04980X0.00012*%
%ADD2444R,0.05050X0.00011*%
%ADD2445R,0.05100X0.00012*%
%ADD2446R,0.05180X0.00012*%
%ADD2447R,0.05120X0.00012*%
%ADD2448R,0.05260X0.00012*%
%ADD2449R,0.05220X0.00011*%
%ADD2450R,0.05290X0.00012*%
%ADD2451R,0.05250X0.00012*%
%ADD2452R,0.05340X0.00011*%
%ADD2453R,0.05360X0.00012*%
%ADD2454R,0.05330X0.00012*%
%ADD2455R,0.05420X0.00011*%
%ADD2456R,0.05370X0.00011*%
%ADD2457R,0.05470X0.00012*%
%ADD2458R,0.05490X0.00011*%
%ADD2459R,0.05450X0.00012*%
%ADD2460R,0.05440X0.00012*%
%ADD2461R,0.05410X0.00012*%
%ADD2462R,0.05370X0.00012*%
%ADD2463R,0.00020X0.00012*%
%ADD2464R,0.05360X0.00011*%
%ADD2465R,0.05340X0.00012*%
%ADD2466R,0.05290X0.00012*%
%ADD2467R,0.05300X0.00012*%
%ADD2468R,0.00120X0.00012*%
%ADD2469R,0.05260X0.00012*%
%ADD2470R,0.05280X0.00011*%
%ADD2471R,0.05240X0.00011*%
%ADD2472R,0.05220X0.00011*%
%ADD2473R,0.05180X0.00011*%
%ADD2474R,0.05020X0.00012*%
%ADD2475R,0.04960X0.00012*%
%ADD2476R,0.04970X0.00012*%
%ADD2477R,0.04920X0.00012*%
%ADD2478R,0.04880X0.00012*%
%ADD2479R,0.04910X0.00011*%
%ADD2480R,0.04840X0.00012*%
%ADD2481R,0.04800X0.00012*%
%ADD2482R,0.04740X0.00012*%
%ADD2483R,0.04720X0.00011*%
%ADD2484R,0.04650X0.00012*%
%ADD2485R,0.04590X0.00012*%
%ADD2486R,0.04450X0.00012*%
%ADD2487R,0.02390X0.00012*%
%ADD2488R,0.04460X0.00012*%
%ADD2489R,0.03470X0.00012*%
%ADD2490R,0.04240X0.00012*%
%ADD2491R,0.04130X0.00011*%
%ADD2492R,0.04110X0.00012*%
%ADD2493R,0.04060X0.00012*%
%ADD2494R,0.04070X0.00012*%
%ADD2495R,0.04020X0.00012*%
%ADD2496R,0.04040X0.00012*%
%ADD2497R,0.03920X0.00012*%
%ADD2498R,0.00670X0.00012*%
%ADD2499R,0.03860X0.00012*%
%ADD2500R,0.03890X0.00012*%
%ADD2501R,0.03820X0.00011*%
%ADD2502R,0.01890X0.00012*%
%ADD2503R,0.00490X0.00012*%
%ADD2504R,0.03640X0.00012*%
%ADD2505R,0.03540X0.00012*%
%ADD2506R,0.03310X0.00012*%
%ADD2507R,0.03020X0.00012*%
%ADD2508R,0.00050X0.00012*%
%ADD2509R,0.02790X0.00012*%
%ADD2510R,0.00190X0.00012*%
%ADD2511R,0.00240X0.00012*%
%ADD2512R,0.00040X0.00012*%
%ADD2513R,0.00100X0.00012*%
%ADD2514R,0.00670X0.00012*%
%ADD2515R,0.07240X0.00011*%
%ADD2516R,0.07350X0.00012*%
%ADD2517R,0.07390X0.00011*%
%ADD2518R,0.07570X0.00012*%
%ADD2519R,0.09380X0.00011*%
%ADD2520R,0.09360X0.00012*%
%ADD2521R,0.00090X0.00012*%
%ADD2522R,0.09290X0.00012*%
%ADD2523R,0.00740X0.00012*%
%ADD2524R,0.09250X0.00012*%
%ADD2525R,0.09210X0.00012*%
%ADD2526R,0.09170X0.00011*%
%ADD2527R,0.09150X0.00012*%
%ADD2528R,0.09030X0.00012*%
%ADD2529R,0.08980X0.00012*%
%ADD2530R,0.08930X0.00012*%
%ADD2531R,0.08910X0.00012*%
%ADD2532R,0.08870X0.00012*%
%ADD2533R,0.08740X0.00012*%
%ADD2534R,0.08700X0.00011*%
%ADD2535R,0.08690X0.00012*%
%ADD2536R,0.08670X0.00011*%
%ADD2537R,0.08630X0.00012*%
%ADD2538R,0.08610X0.00012*%
%ADD2539R,0.08590X0.00011*%
%ADD2540R,0.08570X0.00012*%
%ADD2541R,0.08440X0.00011*%
%ADD2542R,0.08370X0.00012*%
%ADD2543R,0.08350X0.00011*%
%ADD2544R,0.08310X0.00012*%
%ADD2545R,0.08290X0.00011*%
%ADD2546R,0.08270X0.00012*%
%ADD2547R,0.00020X0.00012*%
%ADD2548R,0.08230X0.00012*%
%ADD2549R,0.00070X0.00012*%
%ADD2550R,0.08170X0.00011*%
%ADD2551R,0.08150X0.00012*%
%ADD2552R,0.08050X0.00012*%
%ADD2553R,0.07990X0.00012*%
%ADD2554R,0.07970X0.00011*%
%ADD2555R,0.07950X0.00012*%
%ADD2556R,0.07930X0.00011*%
%ADD2557R,0.07910X0.00012*%
%ADD2558R,0.07890X0.00011*%
%ADD2559R,0.07870X0.00011*%
%ADD2560R,0.07850X0.00012*%
%ADD2561R,0.00540X0.00012*%
%ADD2562R,0.07770X0.00012*%
%ADD2563R,0.07590X0.00012*%
%ADD2564R,0.07570X0.00011*%
%ADD2565R,0.07510X0.00011*%
%ADD2566R,0.07490X0.00012*%
%ADD2567R,0.07470X0.00011*%
%ADD2568R,0.07370X0.00012*%
%ADD2569R,0.07330X0.00012*%
%ADD2570R,0.02320X0.00012*%
%ADD2571R,0.07190X0.00012*%
%ADD2572R,0.07140X0.00012*%
%ADD2573R,0.07110X0.00011*%
%ADD2574R,0.07070X0.00012*%
%ADD2575R,0.07050X0.00011*%
%ADD2576R,0.07010X0.00012*%
%ADD2577R,0.06970X0.00012*%
%ADD2578R,0.06890X0.00012*%
%ADD2579R,0.06850X0.00012*%
%ADD2580R,0.06800X0.00012*%
%ADD2581R,0.06730X0.00012*%
%ADD2582R,0.06690X0.00012*%
%ADD2583R,0.06650X0.00011*%
%ADD2584R,0.06620X0.00012*%
%ADD2585R,0.06590X0.00011*%
%ADD2586R,0.06570X0.00012*%
%ADD2587R,0.02790X0.00012*%
%ADD2588R,0.06370X0.00012*%
%ADD2589R,0.06170X0.00012*%
%ADD2590R,0.00010X0.00012*%
%ADD2591R,0.05690X0.00011*%
%ADD2592R,0.05590X0.00012*%
%ADD2593R,0.05510X0.00012*%
%ADD2594R,0.05350X0.00012*%
%ADD2595R,0.05310X0.00011*%
%ADD2596R,0.05270X0.00012*%
%ADD2597R,0.00130X0.00012*%
%ADD2598R,0.04520X0.00012*%
%ADD2599R,0.00270X0.00012*%
%ADD2600R,0.02780X0.00012*%
%ADD2601R,0.02440X0.00012*%
%ADD2602R,0.00140X0.00012*%
%ADD2603R,0.02290X0.00012*%
%ADD2604R,0.00010X0.00011*%
%ADD2605R,0.02290X0.00012*%
%ADD2606R,0.00440X0.00012*%
%ADD2607R,0.03870X0.00012*%
%ADD2608R,0.04050X0.00012*%
%ADD2609R,0.04170X0.00012*%
%ADD2610R,0.04120X0.00012*%
%ADD2611R,0.04420X0.00012*%
%ADD2612R,0.04690X0.00012*%
%ADD2613R,0.01490X0.00012*%
%ADD2614R,0.05090X0.00012*%
%ADD2615R,0.05310X0.00012*%
%ADD2616R,0.05720X0.00012*%
%ADD2617R,0.05670X0.00012*%
%ADD2618R,0.06040X0.00012*%
%ADD2619R,0.04090X0.00012*%
%ADD2620R,0.05950X0.00012*%
%ADD2621R,0.04120X0.00012*%
%ADD2622R,0.05870X0.00012*%
%ADD2623R,0.05870X0.00012*%
%ADD2624R,0.05810X0.00012*%
%ADD2625R,0.05740X0.00011*%
%ADD2626R,0.05550X0.00012*%
%ADD2627R,0.00080X0.00012*%
%ADD2628R,0.05220X0.00012*%
%ADD2629R,0.05230X0.00012*%
%ADD2630R,0.05060X0.00012*%
%ADD2631R,0.04900X0.00012*%
%ADD2632R,0.03670X0.00012*%
%ADD2633R,0.04730X0.00012*%
%ADD2634R,0.04740X0.00012*%
%ADD2635R,0.04700X0.00012*%
%ADD2636R,0.04690X0.00012*%
%ADD2637R,0.02590X0.00012*%
%ADD2638R,0.04650X0.00012*%
%ADD2639R,0.03280X0.00012*%
%ADD2640R,0.04470X0.00011*%
%ADD2641R,0.03020X0.00012*%
%ADD2642R,0.03920X0.00012*%
%ADD2643R,0.01740X0.00012*%
%ADD2644R,0.00690X0.00012*%
%ADD2645R,0.01090X0.00012*%
%ADD2646R,0.01270X0.00012*%
%ADD2647R,0.01190X0.00012*%
%ADD2648R,0.00140X0.00012*%
%ADD2649R,0.00090X0.00012*%
%ADD2650R,0.02190X0.00012*%
%ADD2651R,0.04290X0.00012*%
%ADD2652R,0.04240X0.00012*%
%ADD2653R,0.04090X0.00012*%
%ADD2654R,0.00290X0.00012*%
%ADD2655R,0.00140X0.00012*%
%ADD2656R,0.00090X0.00011*%
%ADD2657R,0.03020X0.00012*%
%ADD2658R,0.03120X0.00012*%
%ADD2659R,0.02990X0.00012*%
%ADD2660C,0.00000*%
%ADD2661C,0.01500*%
%ADD2662C,0.00800*%
%ADD2663R,0.00984X0.00984*%
%ADD2664C,0.00500*%
%ADD2665R,0.01500X0.03000*%
%ADD2666R,0.03000X0.01500*%
%ADD2667C,0.01000*%
D10*
X0400200Y0368860D02*
X0402669Y0368860D01*
X0401434Y0368860D02*
X0401434Y0372563D01*
X0400200Y0371329D01*
X0400384Y0425960D02*
X0400384Y0429663D01*
X0399150Y0428429D01*
X0399150Y0425960D02*
X0401619Y0425960D01*
X0539347Y0463427D02*
X0539347Y0464662D01*
X0539964Y0465279D01*
X0540581Y0465279D01*
X0541198Y0464662D01*
X0541816Y0465279D01*
X0542433Y0465279D01*
X0543050Y0464662D01*
X0543050Y0463427D01*
X0542433Y0462810D01*
X0541198Y0464044D02*
X0541198Y0464662D01*
X0542433Y0466493D02*
X0542433Y0467110D01*
X0543050Y0467110D01*
X0543050Y0466493D01*
X0542433Y0466493D01*
X0542433Y0468335D02*
X0543050Y0468952D01*
X0543050Y0470186D01*
X0542433Y0470803D01*
X0541816Y0470803D01*
X0541198Y0470186D01*
X0541198Y0469569D01*
X0541198Y0470186D02*
X0540581Y0470803D01*
X0539964Y0470803D01*
X0539347Y0470186D01*
X0539347Y0468952D01*
X0539964Y0468335D01*
X0539347Y0472018D02*
X0541816Y0472018D01*
X0543050Y0473252D01*
X0541816Y0474487D01*
X0539347Y0474487D01*
X0549347Y0472228D02*
X0549347Y0470376D01*
X0553050Y0470376D01*
X0553050Y0472228D01*
X0552433Y0472845D01*
X0549964Y0472845D01*
X0549347Y0472228D01*
X0549347Y0469162D02*
X0553050Y0469162D01*
X0549347Y0466693D01*
X0553050Y0466693D01*
X0552433Y0465479D02*
X0551198Y0465479D01*
X0551198Y0464244D01*
X0549964Y0463010D02*
X0552433Y0463010D01*
X0553050Y0463627D01*
X0553050Y0464862D01*
X0552433Y0465479D01*
X0549964Y0465479D02*
X0549347Y0464862D01*
X0549347Y0463627D01*
X0549964Y0463010D01*
X0559247Y0463577D02*
X0559864Y0462960D01*
X0560481Y0462960D01*
X0561098Y0463577D01*
X0561098Y0464812D01*
X0561716Y0465429D01*
X0562333Y0465429D01*
X0562950Y0464812D01*
X0562950Y0463577D01*
X0562333Y0462960D01*
X0559247Y0463577D02*
X0559247Y0464812D01*
X0559864Y0465429D01*
X0559864Y0466643D02*
X0562333Y0466643D01*
X0562950Y0467260D01*
X0562950Y0468495D01*
X0562333Y0469112D01*
X0562950Y0470326D02*
X0562950Y0472795D01*
X0562950Y0470326D02*
X0559247Y0470326D01*
X0559864Y0469112D02*
X0559247Y0468495D01*
X0559247Y0467260D01*
X0559864Y0466643D01*
X0569197Y0466843D02*
X0569197Y0468695D01*
X0569814Y0469312D01*
X0572283Y0469312D01*
X0572900Y0468695D01*
X0572900Y0466843D01*
X0569197Y0466843D01*
X0569814Y0465629D02*
X0569197Y0465012D01*
X0569197Y0463777D01*
X0569814Y0463160D01*
X0570431Y0463160D01*
X0571048Y0463777D01*
X0571048Y0465012D01*
X0571666Y0465629D01*
X0572283Y0465629D01*
X0572900Y0465012D01*
X0572900Y0463777D01*
X0572283Y0463160D01*
X0572900Y0470526D02*
X0570431Y0470526D01*
X0569197Y0471761D01*
X0570431Y0472995D01*
X0572900Y0472995D01*
X0571048Y0472995D02*
X0571048Y0470526D01*
X0539964Y0462810D02*
X0539347Y0463427D01*
D11*
X0536421Y0619160D02*
X0536421Y0632972D01*
X0545629Y0619160D01*
X0545629Y0632972D01*
X0550233Y0632972D02*
X0557138Y0632972D01*
X0559440Y0630670D01*
X0559440Y0621462D01*
X0557138Y0619160D01*
X0550233Y0619160D01*
X0550233Y0632972D01*
X0531817Y0628368D02*
X0531817Y0619160D01*
X0531817Y0626066D02*
X0522609Y0626066D01*
X0522609Y0628368D02*
X0527213Y0632972D01*
X0531817Y0628368D01*
X0522609Y0628368D02*
X0522609Y0619160D01*
X0513401Y0619160D02*
X0513401Y0632972D01*
X0508797Y0632972D02*
X0518005Y0632972D01*
X0504193Y0630670D02*
X0501891Y0632972D01*
X0497287Y0632972D01*
X0494985Y0630670D01*
X0494985Y0628368D01*
X0497287Y0626066D01*
X0501891Y0626066D01*
X0504193Y0623764D01*
X0504193Y0621462D01*
X0501891Y0619160D01*
X0497287Y0619160D01*
X0494985Y0621462D01*
X0474268Y0621462D02*
X0474268Y0632972D01*
X0471966Y0632972D02*
X0476570Y0632972D01*
X0474268Y0621462D02*
X0471966Y0619160D01*
X0469664Y0619160D01*
X0467362Y0621462D01*
X0462758Y0619160D02*
X0453550Y0619160D01*
X0453550Y0632972D01*
D12*
X0452093Y0613414D02*
X0452093Y0608310D01*
X0450432Y0608310D02*
X0447879Y0608310D01*
X0447029Y0609161D01*
X0447029Y0610862D01*
X0447879Y0611713D01*
X0450432Y0611713D01*
X0452093Y0610862D02*
X0452944Y0611713D01*
X0454645Y0611713D01*
X0455496Y0610862D01*
X0455496Y0608310D01*
X0457157Y0608310D02*
X0458859Y0608310D01*
X0458008Y0608310D02*
X0458008Y0613414D01*
X0457157Y0613414D01*
X0461384Y0611713D02*
X0463086Y0611713D01*
X0463936Y0610862D01*
X0463936Y0608310D01*
X0461384Y0608310D01*
X0460534Y0609161D01*
X0461384Y0610011D01*
X0463936Y0610011D01*
X0465598Y0608310D02*
X0465598Y0611713D01*
X0468150Y0611713D01*
X0469001Y0610862D01*
X0469001Y0608310D01*
X0470339Y0606614D02*
X0470339Y0605764D01*
X0468637Y0604062D01*
X0468637Y0601510D01*
X0468637Y0604062D02*
X0466936Y0605764D01*
X0466936Y0606614D01*
X0472000Y0604062D02*
X0472851Y0604913D01*
X0474552Y0604913D01*
X0475403Y0604062D01*
X0475403Y0603211D01*
X0472000Y0603211D01*
X0472000Y0602361D02*
X0472000Y0604062D01*
X0472000Y0602361D02*
X0472851Y0601510D01*
X0474552Y0601510D01*
X0477065Y0601510D02*
X0478766Y0601510D01*
X0477915Y0601510D02*
X0477915Y0606614D01*
X0477065Y0606614D01*
X0476577Y0608310D02*
X0478279Y0608310D01*
X0479129Y0609161D01*
X0479129Y0610862D01*
X0477428Y0610862D01*
X0475726Y0612564D02*
X0475726Y0609161D01*
X0476577Y0608310D01*
X0480791Y0608310D02*
X0480791Y0611713D01*
X0482492Y0611713D02*
X0483343Y0611713D01*
X0482492Y0611713D02*
X0480791Y0610011D01*
X0479129Y0612564D02*
X0478279Y0613414D01*
X0476577Y0613414D01*
X0475726Y0612564D01*
X0480441Y0606614D02*
X0481292Y0606614D01*
X0481292Y0601510D01*
X0482142Y0601510D02*
X0480441Y0601510D01*
X0483817Y0602361D02*
X0484668Y0601510D01*
X0487220Y0601510D01*
X0487220Y0604062D01*
X0486369Y0604913D01*
X0484668Y0604913D01*
X0484668Y0603211D02*
X0487220Y0603211D01*
X0488881Y0601510D02*
X0488881Y0604913D01*
X0491434Y0604913D01*
X0492284Y0604062D01*
X0492284Y0601510D01*
X0493946Y0602361D02*
X0494796Y0601510D01*
X0497349Y0601510D01*
X0497349Y0606614D01*
X0497349Y0604913D02*
X0494796Y0604913D01*
X0493946Y0604062D01*
X0493946Y0602361D01*
X0493478Y0608310D02*
X0493478Y0610862D01*
X0492628Y0611713D01*
X0490075Y0611713D01*
X0490075Y0608310D01*
X0488414Y0608310D02*
X0488414Y0610862D01*
X0487563Y0611713D01*
X0485862Y0611713D01*
X0485862Y0610011D02*
X0488414Y0610011D01*
X0488414Y0608310D02*
X0485862Y0608310D01*
X0485011Y0609161D01*
X0485862Y0610011D01*
X0484668Y0603211D02*
X0483817Y0602361D01*
X0495990Y0609161D02*
X0495990Y0612564D01*
X0495140Y0611713D02*
X0496841Y0611713D01*
X0495990Y0609161D02*
X0496841Y0608310D01*
X0489015Y0589113D02*
X0486462Y0589113D01*
X0486462Y0585710D01*
X0484801Y0586561D02*
X0484801Y0588262D01*
X0483950Y0589113D01*
X0482249Y0589113D01*
X0481398Y0588262D01*
X0481398Y0586561D01*
X0482249Y0585710D01*
X0483950Y0585710D01*
X0484801Y0586561D01*
X0489015Y0589113D02*
X0489865Y0588262D01*
X0489865Y0585710D01*
X0479723Y0585710D02*
X0478873Y0586561D01*
X0478873Y0589964D01*
X0479723Y0589113D02*
X0478022Y0589113D01*
X0476360Y0589113D02*
X0473808Y0589113D01*
X0472958Y0588262D01*
X0472958Y0586561D01*
X0473808Y0585710D01*
X0476360Y0585710D01*
X0476360Y0584859D02*
X0476360Y0589113D01*
X0476360Y0584859D02*
X0475510Y0584009D01*
X0474659Y0584009D01*
X0471296Y0585710D02*
X0471296Y0588262D01*
X0470445Y0589113D01*
X0467893Y0589113D01*
X0467893Y0585710D01*
X0466218Y0585710D02*
X0464517Y0585710D01*
X0465368Y0585710D02*
X0465368Y0589113D01*
X0464517Y0589113D01*
X0465368Y0590814D02*
X0465368Y0591665D01*
X0461992Y0590814D02*
X0461992Y0585710D01*
X0462842Y0585710D02*
X0461141Y0585710D01*
X0459466Y0585710D02*
X0457765Y0585710D01*
X0458615Y0585710D02*
X0458615Y0590814D01*
X0457765Y0590814D01*
X0455252Y0589113D02*
X0456103Y0588262D01*
X0456103Y0585710D01*
X0453551Y0585710D01*
X0452700Y0586561D01*
X0453551Y0587411D01*
X0456103Y0587411D01*
X0455252Y0589113D02*
X0453551Y0589113D01*
X0451039Y0590814D02*
X0451039Y0585710D01*
X0449337Y0587411D01*
X0447636Y0585710D01*
X0447636Y0590814D01*
X0440910Y0589113D02*
X0438358Y0589113D01*
X0437507Y0588262D01*
X0438358Y0587411D01*
X0440059Y0587411D01*
X0440910Y0586561D01*
X0440059Y0585710D01*
X0437507Y0585710D01*
X0435846Y0587411D02*
X0432443Y0587411D01*
X0432443Y0586561D02*
X0432443Y0588262D01*
X0433294Y0589113D01*
X0434995Y0589113D01*
X0435846Y0588262D01*
X0435846Y0587411D01*
X0434995Y0585710D02*
X0433294Y0585710D01*
X0432443Y0586561D01*
X0430782Y0585710D02*
X0430782Y0588262D01*
X0429931Y0589113D01*
X0429080Y0588262D01*
X0429080Y0585710D01*
X0427379Y0585710D02*
X0427379Y0589113D01*
X0428229Y0589113D01*
X0429080Y0588262D01*
X0425717Y0588262D02*
X0425717Y0585710D01*
X0423165Y0585710D01*
X0422314Y0586561D01*
X0423165Y0587411D01*
X0425717Y0587411D01*
X0425717Y0588262D02*
X0424866Y0589113D01*
X0423165Y0589113D01*
X0420653Y0590814D02*
X0418951Y0590814D01*
X0419802Y0590814D02*
X0419802Y0586561D01*
X0418951Y0585710D01*
X0418101Y0585710D01*
X0417250Y0586561D01*
X0417951Y0583064D02*
X0417100Y0582214D01*
X0417100Y0581363D01*
X0417951Y0580512D01*
X0419652Y0580512D01*
X0420503Y0579661D01*
X0420503Y0578811D01*
X0419652Y0577960D01*
X0417951Y0577960D01*
X0417100Y0578811D01*
X0417250Y0575314D02*
X0420653Y0570210D01*
X0420653Y0575314D01*
X0423165Y0573613D02*
X0424866Y0573613D01*
X0425717Y0572762D01*
X0425717Y0570210D01*
X0423165Y0570210D01*
X0422314Y0571061D01*
X0423165Y0571911D01*
X0425717Y0571911D01*
X0427379Y0571911D02*
X0429931Y0573613D01*
X0431599Y0573613D02*
X0431599Y0571061D01*
X0432450Y0570210D01*
X0435002Y0570210D01*
X0435002Y0573613D01*
X0436663Y0575314D02*
X0437514Y0575314D01*
X0437514Y0570210D01*
X0436663Y0570210D02*
X0438365Y0570210D01*
X0445104Y0570210D02*
X0445104Y0575314D01*
X0447656Y0575314D01*
X0448507Y0574464D01*
X0448507Y0571061D01*
X0447656Y0570210D01*
X0445104Y0570210D01*
X0450168Y0571061D02*
X0451019Y0570210D01*
X0452720Y0570210D01*
X0453571Y0571061D01*
X0453571Y0572762D01*
X0452720Y0573613D01*
X0451019Y0573613D01*
X0450168Y0572762D01*
X0450168Y0571061D01*
X0455232Y0570210D02*
X0457785Y0570210D01*
X0458635Y0571061D01*
X0457785Y0571911D01*
X0456083Y0571911D01*
X0455232Y0572762D01*
X0456083Y0573613D01*
X0458635Y0573613D01*
X0460297Y0572762D02*
X0461147Y0573613D01*
X0462849Y0573613D01*
X0463700Y0572762D01*
X0463700Y0570210D01*
X0465361Y0570210D02*
X0467062Y0570210D01*
X0466212Y0570210D02*
X0466212Y0573613D01*
X0465361Y0573613D01*
X0466212Y0575314D02*
X0466212Y0576165D01*
X0460297Y0575314D02*
X0460297Y0570210D01*
X0457615Y0577960D02*
X0457615Y0581363D01*
X0459316Y0581363D02*
X0460167Y0581363D01*
X0459316Y0581363D02*
X0457615Y0579661D01*
X0455953Y0578811D02*
X0455953Y0580512D01*
X0455102Y0581363D01*
X0453401Y0581363D01*
X0452550Y0580512D01*
X0452550Y0578811D01*
X0453401Y0577960D01*
X0455102Y0577960D01*
X0455953Y0578811D01*
X0450889Y0577960D02*
X0450889Y0583064D01*
X0450889Y0581363D02*
X0448337Y0581363D01*
X0447486Y0580512D01*
X0447486Y0578811D01*
X0448337Y0577960D01*
X0450889Y0577960D01*
X0445825Y0577960D02*
X0445825Y0581363D01*
X0445825Y0577960D02*
X0443272Y0577960D01*
X0442422Y0578811D01*
X0442422Y0581363D01*
X0440760Y0583064D02*
X0437357Y0583064D01*
X0439059Y0583064D02*
X0439059Y0577960D01*
X0430632Y0577960D02*
X0430632Y0580512D01*
X0429781Y0581363D01*
X0428930Y0580512D01*
X0428930Y0577960D01*
X0427229Y0577960D02*
X0427229Y0581363D01*
X0428079Y0581363D01*
X0428930Y0580512D01*
X0425567Y0580512D02*
X0425567Y0577960D01*
X0423015Y0577960D01*
X0422164Y0578811D01*
X0423015Y0579661D01*
X0425567Y0579661D01*
X0425567Y0580512D02*
X0424716Y0581363D01*
X0423015Y0581363D01*
X0420503Y0582214D02*
X0419652Y0583064D01*
X0417951Y0583064D01*
X0417250Y0575314D02*
X0417250Y0570210D01*
X0427379Y0570210D02*
X0427379Y0575314D01*
X0427379Y0571911D02*
X0429931Y0570210D01*
X0437401Y0601510D02*
X0438251Y0601510D01*
X0439102Y0602361D01*
X0439102Y0606614D01*
X0438251Y0606614D02*
X0439953Y0606614D01*
X0440303Y0608310D02*
X0436900Y0608310D01*
X0436900Y0613414D01*
X0442815Y0611713D02*
X0444516Y0611713D01*
X0445367Y0610862D01*
X0445367Y0608310D01*
X0442815Y0608310D01*
X0441964Y0609161D01*
X0442815Y0610011D01*
X0445367Y0610011D01*
X0444166Y0604913D02*
X0445017Y0604062D01*
X0445017Y0601510D01*
X0442465Y0601510D01*
X0441614Y0602361D01*
X0442465Y0603211D01*
X0445017Y0603211D01*
X0444166Y0604913D02*
X0442465Y0604913D01*
X0446679Y0604913D02*
X0447529Y0604913D01*
X0448380Y0604062D01*
X0449231Y0604913D01*
X0450082Y0604062D01*
X0450082Y0601510D01*
X0448380Y0601510D02*
X0448380Y0604062D01*
X0446679Y0604913D02*
X0446679Y0601510D01*
X0451743Y0602361D02*
X0451743Y0604062D01*
X0452594Y0604913D01*
X0454295Y0604913D01*
X0455146Y0604062D01*
X0455146Y0603211D01*
X0451743Y0603211D01*
X0451743Y0602361D02*
X0452594Y0601510D01*
X0454295Y0601510D01*
X0456807Y0601510D02*
X0459359Y0601510D01*
X0460210Y0602361D01*
X0459359Y0603211D01*
X0457658Y0603211D01*
X0456807Y0604062D01*
X0457658Y0604913D01*
X0460210Y0604913D01*
X0461141Y0590814D02*
X0461992Y0590814D01*
X0437401Y0601510D02*
X0436550Y0602361D01*
X0571400Y0627260D02*
X0573952Y0627260D01*
X0574803Y0628111D01*
X0574803Y0631514D01*
X0573952Y0632364D01*
X0571400Y0632364D01*
X0571400Y0627260D01*
X0576464Y0628111D02*
X0576464Y0629812D01*
X0577315Y0630663D01*
X0579016Y0630663D01*
X0579867Y0629812D01*
X0579867Y0628961D01*
X0576464Y0628961D01*
X0576464Y0628111D02*
X0577315Y0627260D01*
X0579016Y0627260D01*
X0581529Y0627260D02*
X0584081Y0627260D01*
X0584932Y0628111D01*
X0584081Y0628961D01*
X0582379Y0628961D01*
X0581529Y0629812D01*
X0582379Y0630663D01*
X0584932Y0630663D01*
X0586593Y0630663D02*
X0587444Y0630663D01*
X0587444Y0627260D01*
X0588294Y0627260D02*
X0586593Y0627260D01*
X0589969Y0628111D02*
X0590820Y0627260D01*
X0593372Y0627260D01*
X0593372Y0626409D02*
X0593372Y0630663D01*
X0590820Y0630663D01*
X0589969Y0629812D01*
X0589969Y0628111D01*
X0591671Y0625559D02*
X0592521Y0625559D01*
X0593372Y0626409D01*
X0595034Y0627260D02*
X0595034Y0630663D01*
X0597586Y0630663D01*
X0598436Y0629812D01*
X0598436Y0627260D01*
X0600098Y0628111D02*
X0600098Y0629812D01*
X0600949Y0630663D01*
X0602650Y0630663D01*
X0603501Y0629812D01*
X0603501Y0628961D01*
X0600098Y0628961D01*
X0600098Y0628111D02*
X0600949Y0627260D01*
X0602650Y0627260D01*
X0605162Y0628111D02*
X0605162Y0629812D01*
X0606013Y0630663D01*
X0608565Y0630663D01*
X0608565Y0632364D02*
X0608565Y0627260D01*
X0606013Y0627260D01*
X0605162Y0628111D01*
X0615291Y0627260D02*
X0615291Y0632364D01*
X0615291Y0630663D02*
X0617843Y0630663D01*
X0618694Y0629812D01*
X0618694Y0628111D01*
X0617843Y0627260D01*
X0615291Y0627260D01*
X0620355Y0628111D02*
X0621206Y0627260D01*
X0623758Y0627260D01*
X0623758Y0626409D02*
X0622907Y0625559D01*
X0622057Y0625559D01*
X0623758Y0626409D02*
X0623758Y0630663D01*
X0620355Y0630663D02*
X0620355Y0628111D01*
X0630484Y0628111D02*
X0631334Y0627260D01*
X0632185Y0627260D01*
X0633036Y0628111D01*
X0633036Y0632364D01*
X0632185Y0632364D02*
X0633887Y0632364D01*
X0636399Y0630663D02*
X0638100Y0630663D01*
X0638951Y0629812D01*
X0638951Y0627260D01*
X0636399Y0627260D01*
X0635548Y0628111D01*
X0636399Y0628961D01*
X0638951Y0628961D01*
X0640612Y0627260D02*
X0640612Y0630663D01*
X0641463Y0630663D01*
X0642314Y0629812D01*
X0643165Y0630663D01*
X0644015Y0629812D01*
X0644015Y0627260D01*
X0642314Y0627260D02*
X0642314Y0629812D01*
X0645677Y0629812D02*
X0646527Y0630663D01*
X0648229Y0630663D01*
X0649080Y0629812D01*
X0649080Y0628961D01*
X0645677Y0628961D01*
X0645677Y0628111D02*
X0645677Y0629812D01*
X0645677Y0628111D02*
X0646527Y0627260D01*
X0648229Y0627260D01*
X0650741Y0627260D02*
X0653293Y0627260D01*
X0654144Y0628111D01*
X0653293Y0628961D01*
X0651592Y0628961D01*
X0650741Y0629812D01*
X0651592Y0630663D01*
X0654144Y0630663D01*
X0660870Y0631514D02*
X0662571Y0629812D01*
X0662571Y0627260D01*
X0662571Y0629812D02*
X0664273Y0631514D01*
X0664273Y0632364D01*
X0666785Y0630663D02*
X0668486Y0630663D01*
X0669337Y0629812D01*
X0669337Y0628961D01*
X0665934Y0628961D01*
X0665934Y0628111D02*
X0665934Y0629812D01*
X0666785Y0630663D01*
X0665934Y0628111D02*
X0666785Y0627260D01*
X0668486Y0627260D01*
X0670998Y0627260D02*
X0672700Y0627260D01*
X0671849Y0627260D02*
X0671849Y0632364D01*
X0670998Y0632364D01*
X0674375Y0632364D02*
X0675225Y0632364D01*
X0675225Y0627260D01*
X0674375Y0627260D02*
X0676076Y0627260D01*
X0677751Y0628111D02*
X0678601Y0628961D01*
X0681154Y0628961D01*
X0681154Y0629812D02*
X0681154Y0627260D01*
X0678601Y0627260D01*
X0677751Y0628111D01*
X0678601Y0630663D02*
X0680303Y0630663D01*
X0681154Y0629812D01*
X0682815Y0630663D02*
X0682815Y0627260D01*
X0682815Y0630663D02*
X0685367Y0630663D01*
X0686218Y0629812D01*
X0686218Y0627260D01*
X0687879Y0628111D02*
X0687879Y0629812D01*
X0688730Y0630663D01*
X0691282Y0630663D01*
X0691282Y0632364D02*
X0691282Y0627260D01*
X0688730Y0627260D01*
X0687879Y0628111D01*
X0660870Y0631514D02*
X0660870Y0632364D01*
X0587444Y0632364D02*
X0587444Y0633215D01*
D13*
X0581781Y0594822D02*
X0579419Y0594822D01*
X0579419Y0590098D02*
X0581781Y0590098D01*
X0596119Y0589798D02*
X0598481Y0589798D01*
X0598481Y0594522D02*
X0596119Y0594522D01*
X0602341Y0556501D02*
X0602341Y0554032D01*
X0601106Y0552798D01*
X0598678Y0554032D02*
X0597443Y0555266D01*
X0594974Y0555266D01*
X0593740Y0554032D01*
X0593740Y0552798D01*
X0594974Y0551563D01*
X0597443Y0551563D01*
X0598678Y0550329D01*
X0598678Y0549094D01*
X0597443Y0547860D01*
X0594974Y0547860D01*
X0593740Y0549094D01*
X0588843Y0547860D02*
X0588843Y0551563D01*
X0591311Y0554032D01*
X0591311Y0555266D01*
X0588843Y0551563D02*
X0586374Y0554032D01*
X0586374Y0555266D01*
X0583945Y0554032D02*
X0582711Y0555266D01*
X0580242Y0555266D01*
X0579007Y0554032D01*
X0579007Y0549094D01*
X0580242Y0547860D01*
X0582711Y0547860D01*
X0583945Y0549094D01*
X0583945Y0554032D01*
X0576579Y0554032D02*
X0576579Y0552798D01*
X0575344Y0551563D01*
X0571641Y0551563D01*
X0571641Y0547860D02*
X0575344Y0547860D01*
X0576579Y0549094D01*
X0576579Y0550329D01*
X0575344Y0551563D01*
X0576579Y0554032D02*
X0575344Y0555266D01*
X0571641Y0555266D01*
X0571641Y0547860D01*
X0570516Y0543265D02*
X0570516Y0537928D01*
X0569448Y0536860D01*
X0567313Y0536860D01*
X0566245Y0537928D01*
X0566245Y0543265D01*
X0564070Y0541130D02*
X0564070Y0536860D01*
X0564070Y0540063D02*
X0559800Y0540063D01*
X0559800Y0541130D02*
X0561935Y0543265D01*
X0564070Y0541130D01*
X0559800Y0541130D02*
X0559800Y0536860D01*
X0572691Y0537928D02*
X0573759Y0536860D01*
X0575894Y0536860D01*
X0576961Y0537928D01*
X0576961Y0538995D01*
X0575894Y0540063D01*
X0573759Y0540063D01*
X0572691Y0541130D01*
X0572691Y0542198D01*
X0573759Y0543265D01*
X0575894Y0543265D01*
X0576961Y0542198D01*
X0579136Y0543265D02*
X0583407Y0543265D01*
X0581272Y0543265D02*
X0581272Y0536860D01*
X0585582Y0536860D02*
X0585582Y0543265D01*
X0588785Y0543265D01*
X0589852Y0542198D01*
X0589852Y0540063D01*
X0588785Y0538995D01*
X0585582Y0538995D01*
X0587717Y0538995D02*
X0589852Y0536860D01*
X0592027Y0536860D02*
X0592027Y0541130D01*
X0594163Y0543265D01*
X0596298Y0541130D01*
X0596298Y0536860D01*
X0598473Y0536860D02*
X0602743Y0536860D01*
X0604918Y0536860D02*
X0607054Y0536860D01*
X0605986Y0536860D02*
X0605986Y0543265D01*
X0604918Y0543265D02*
X0607054Y0543265D01*
X0609215Y0541130D02*
X0611351Y0543265D01*
X0613486Y0541130D01*
X0613486Y0536860D01*
X0613486Y0540063D02*
X0609215Y0540063D01*
X0609215Y0541130D02*
X0609215Y0536860D01*
X0598473Y0536860D02*
X0598473Y0543265D01*
X0596298Y0540063D02*
X0592027Y0540063D01*
X0612156Y0549094D02*
X0613390Y0547860D01*
X0615859Y0547860D01*
X0617093Y0549094D01*
X0619522Y0549094D02*
X0620756Y0547860D01*
X0623225Y0547860D01*
X0624460Y0549094D01*
X0624460Y0554032D01*
X0623225Y0555266D01*
X0620756Y0555266D01*
X0619522Y0554032D01*
X0619522Y0549094D01*
X0617093Y0554032D02*
X0615859Y0555266D01*
X0613390Y0555266D01*
X0612156Y0554032D01*
X0612156Y0549094D01*
X0626888Y0547860D02*
X0626888Y0555266D01*
X0634255Y0555266D02*
X0634255Y0547860D01*
X0639192Y0547860D01*
X0641621Y0547860D02*
X0641621Y0555266D01*
X0646558Y0555266D01*
X0648987Y0554032D02*
X0648987Y0549094D01*
X0650222Y0547860D01*
X0652690Y0547860D01*
X0653925Y0549094D01*
X0653925Y0551563D01*
X0651456Y0551563D01*
X0653925Y0554032D02*
X0652690Y0555266D01*
X0650222Y0555266D01*
X0648987Y0554032D01*
X0644090Y0551563D02*
X0641621Y0551563D01*
X0641621Y0547860D02*
X0646558Y0547860D01*
X0656354Y0547860D02*
X0656354Y0555266D01*
X0661291Y0555266D01*
X0658822Y0551563D02*
X0656354Y0551563D01*
X0656354Y0547860D02*
X0661291Y0547860D01*
X0631826Y0547860D02*
X0626888Y0547860D01*
X0652920Y0522132D02*
X0658826Y0522132D01*
X0658826Y0491188D01*
X0686385Y0491188D01*
X0686385Y0522132D01*
X0658826Y0522132D01*
X0652920Y0522132D02*
X0652920Y0491188D01*
X0658826Y0491188D01*
X0658626Y0485432D02*
X0652720Y0485432D01*
X0652720Y0454488D01*
X0658626Y0454488D01*
X0658626Y0485432D01*
X0686185Y0485432D01*
X0686185Y0454488D01*
X0658626Y0454488D01*
X0561846Y0547860D02*
X0556909Y0547860D01*
X0556909Y0555266D01*
X0561846Y0555266D01*
X0559377Y0551563D02*
X0556909Y0551563D01*
X0554480Y0547860D02*
X0554480Y0555266D01*
X0549542Y0555266D02*
X0554480Y0547860D01*
X0549542Y0547860D02*
X0549542Y0555266D01*
X0547114Y0552798D02*
X0547114Y0547860D01*
X0547114Y0551563D02*
X0542176Y0551563D01*
X0542176Y0552798D02*
X0542176Y0547860D01*
X0539747Y0549094D02*
X0538513Y0547860D01*
X0534810Y0547860D01*
X0534810Y0555266D01*
X0538513Y0555266D01*
X0539747Y0554032D01*
X0539747Y0552798D01*
X0538513Y0551563D01*
X0534810Y0551563D01*
X0532381Y0550329D02*
X0532381Y0549094D01*
X0531147Y0547860D01*
X0528678Y0547860D01*
X0527443Y0549094D01*
X0525001Y0547860D02*
X0522533Y0547860D01*
X0523767Y0547860D02*
X0523767Y0555266D01*
X0522533Y0555266D02*
X0525001Y0555266D01*
X0527443Y0554032D02*
X0527443Y0552798D01*
X0528678Y0551563D01*
X0531147Y0551563D01*
X0532381Y0550329D01*
X0532381Y0554032D02*
X0531147Y0555266D01*
X0528678Y0555266D01*
X0527443Y0554032D01*
X0520104Y0554032D02*
X0520104Y0551563D01*
X0518869Y0550329D01*
X0515166Y0550329D01*
X0512738Y0550329D02*
X0512738Y0549094D01*
X0511503Y0547860D01*
X0507800Y0547860D01*
X0507800Y0555266D01*
X0511503Y0555266D01*
X0512738Y0554032D01*
X0512738Y0552798D01*
X0511503Y0551563D01*
X0507800Y0551563D01*
X0511503Y0551563D02*
X0512738Y0550329D01*
X0515166Y0547860D02*
X0515166Y0555266D01*
X0518869Y0555266D01*
X0520104Y0554032D01*
X0517635Y0550329D02*
X0520104Y0547860D01*
X0538513Y0551563D02*
X0539747Y0550329D01*
X0539747Y0549094D01*
X0542176Y0552798D02*
X0544645Y0555266D01*
X0547114Y0552798D01*
D14*
X0723275Y0565610D03*
X0723275Y0613160D03*
D15*
X0723275Y0613110D03*
X0723275Y0613060D03*
X0723275Y0565710D03*
X0723275Y0565660D03*
D16*
X0723275Y0565760D03*
X0723275Y0613010D03*
D17*
X0723275Y0612960D03*
X0723275Y0612910D03*
M02*
