  0
SECTION
  2
HEADER
  9
$ACADVER
  1
AC1012
  9
$DWGCODEPAGE
  3
undefined
  9
$INSBASE
 10
0.0
 20
0.0
 30
0.0
  9
$EXTMIN
 10
1.000000000000000E+20
 20
1.000000000000000E+20
 30
1.000000000000000E+20
  9
$EXTMAX
 10
-1.000000000000000E+20
 20
-1.000000000000000E+20
 30
-1.000000000000000E+20
  9
$LIMMIN
 10
0.0
 20
0.0
  9
$LIMMAX
 10
12.0
 20
9.0
  9
$ORTHOMODE
 70
     0
  9
$REGENMODE
 70
     1
  9
$FILLMODE
 70
     1
  9
$QTEXTMODE
 70
     0
  9
$MIRRTEXT
 70
     1
  9
$DRAGMODE
 70
     2
  9
$LTSCALE
 40
1.0
  9
$OSMODE
 70
    37
  9
$ATTMODE
 70
     1
  9
$TEXTSIZE
 40
0.2
  9
$TRACEWID
 40
0.05
  9
$TEXTSTYLE
  7
STANDARD
  9
$CLAYER
  8
0
  9
$CELTYPE
  6
BYLAYER
  9
$CECOLOR
 62
   256
  9
$CELTSCALE
 40
1.0
  9
$DELOBJ
 70
     1
  9
$DISPSILH
 70
     0
  9
$DIMSCALE
 40
1.0
  9
$DIMASZ
 40
0.18
  9
$DIMEXO
 40
0.0625
  9
$DIMDLI
 40
0.38
  9
$DIMRND
 40
0.0
  9
$DIMDLE
 40
0.0
  9
$DIMEXE
 40
0.18
  9
$DIMTP
 40
0.0
  9
$DIMTM
 40
0.0
  9
$DIMTXT
 40
0.18
  9
$DIMCEN
 40
0.09
  9
$DIMTSZ
 40
0.0
  9
$DIMTOL
 70
     0
  9
$DIMLIM
 70
     0
  9
$DIMTIH
 70
     1
  9
$DIMTOH
 70
     1
  9
$DIMSE1
 70
     0
  9
$DIMSE2
 70
     0
  9
$DIMTAD
 70
     0
  9
$DIMZIN
 70
     0
  9
$DIMBLK
  1

  9
$DIMASO
 70
     1
  9
$DIMSHO
 70
     1
  9
$DIMPOST
  1

  9
$DIMAPOST
  1

  9
$DIMALT
 70
     0
  9
$DIMALTD
 70
     2
  9
$DIMALTF
 40
25.4
  9
$DIMLFAC
 40
1.0
  9
$DIMTOFL
 70
     0
  9
$DIMTVP
 40
0.0
  9
$DIMTIX
 70
     0
  9
$DIMSOXD
 70
     0
  9
$DIMSAH
 70
     0
  9
$DIMBLK1
  1

  9
$DIMBLK2
  1

  9
$DIMSTYLE
  2
STANDARD
  9
$DIMCLRD
 70
     0
  9
$DIMCLRE
 70
     0
  9
$DIMCLRT
 70
     0
  9
$DIMTFAC
 40
1.0
  9
$DIMGAP
 40
0.09
  9
$DIMJUST
 70
     0
  9
$DIMSD1
 70
     0
  9
$DIMSD2
 70
     0
  9
$DIMTOLJ
 70
     1
  9
$DIMTZIN
 70
     0
  9
$DIMALTZ
 70
     0
  9
$DIMALTTZ
 70
     0
  9
$DIMFIT
 70
     3
  9
$DIMUPT
 70
     0
  9
$DIMUNIT
 70
     2
  9
$DIMDEC
 70
     4
  9
$DIMTDEC
 70
     4
  9
$DIMALTU
 70
     2
  9
$DIMALTTD
 70
     2
  9
$DIMTXSTY
  7
STANDARD
  9
$DIMAUNIT
 70
     0
  9
$LUNITS
 70
     2
  9
$LUPREC
 70
     4
  9
$SKETCHINC
 40
0.1
  9
$FILLETRAD
 40
0.5
  9
$AUNITS
 70
     0
  9
$AUPREC
 70
     0
  9
$MENU
  1
.
  9
$ELEVATION
 40
0.0
  9
$PELEVATION
 40
0.0
  9
$THICKNESS
 40
0.0
  9
$LIMCHECK
 70
     0
  9
$CHAMFERA
 40
0.5
  9
$CHAMFERB
 40
0.5
  9
$CHAMFERC
 40
1.0
  9
$CHAMFERD
 40
0.0
  9
$SKPOLY
 70
     0
  9
$TDCREATE
 40
2457834.736597222
  9
$TDUPDATE
 40
2457834.736597222
  9
$TDINDWG
 40
0.0000000116
  9
$TDUSRTIMER
 40
0.0000000116
  9
$USRTIMER
 70
     1
  9
$ANGBASE
 50
0.0
  9
$ANGDIR
 70
     0
  9
$PDMODE
 70
     0
  9
$PDSIZE
 40
0.0
  9
$PLINEWID
 40
0.0
  9
$COORDS
 70
     1
  9
$SPLFRAME
 70
     0
  9
$SPLINETYPE
 70
     6
  9
$SPLINESEGS
 70
     8
  9
$ATTDIA
 70
     0
  9
$ATTREQ
 70
     1
  9
$HANDLING
 70
     1
  9
$HANDSEED
  5
5F
  9
$SURFTAB1
 70
     6
  9
$SURFTAB2
 70
     6
  9
$SURFTYPE
 70
     6
  9
$SURFU
 70
     6
  9
$SURFV
 70
     6
  9
$UCSNAME
  2

  9
$UCSORG
 10
0.0
 20
0.0
 30
0.0
  9
$UCSXDIR
 10
1.0
 20
0.0
 30
0.0
  9
$UCSYDIR
 10
0.0
 20
1.0
 30
0.0
  9
$PUCSNAME
  2

  9
$PUCSORG
 10
0.0
 20
0.0
 30
0.0
  9
$PUCSXDIR
 10
1.0
 20
0.0
 30
0.0
  9
$PUCSYDIR
 10
0.0
 20
1.0
 30
0.0
  9
$USERI1
 70
     0
  9
$USERI2
 70
     0
  9
$USERI3
 70
     0
  9
$USERI4
 70
     0
  9
$USERI5
 70
     0
  9
$USERR1
 40
0.0
  9
$USERR2
 40
0.0
  9
$USERR3
 40
0.0
  9
$USERR4
 40
0.0
  9
$USERR5
 40
0.0
  9
$WORLDVIEW
 70
     1
  9
$SHADEDGE
 70
     3
  9
$SHADEDIF
 70
    70
  9
$TILEMODE
 70
     1
  9
$MAXACTVP
 70
    64
  9
$PINSBASE
 10
0.0
 20
0.0
 30
0.0
  9
$PLIMCHECK
 70
     0
  9
$PEXTMIN
 10
1.000000000000000E+20
 20
1.000000000000000E+20
 30
1.000000000000000E+20
  9
$PEXTMAX
 10
-1.000000000000000E+20
 20
-1.000000000000000E+20
 30
-1.000000000000000E+20
  9
$PLIMMIN
 10
0.0
 20
0.0
  9
$PLIMMAX
 10
12.0
 20
9.0
  9
$UNITMODE
 70
     0
  9
$VISRETAIN
 70
     1
  9
$PLINEGEN
 70
     0
  9
$PSLTSCALE
 70
     1
  9
$TREEDEPTH
 70
  3020
  9
$PICKSTYLE
 70
     1
  9
$CMLSTYLE
  2
STANDARD
  9
$CMLJUST
 70
     0
  9
$CMLSCALE
 40
1.0
  9
$SAVEIMAGES
 70
     1
  0
ENDSEC
  0
SECTION
  2
CLASSES
  0
CLASS
  1
ACDBDICTIONARYWDFLT
  2
AcDbDictionaryWithDefault
  3
ObjectDBX Classes
 90
    32768
280
     0
281
     0
  0
CLASS
  1
VISUALSTYLE
  2
AcDbVisualStyle
  3
ObjectDBX Classes
 90
     4095
280
     0
281
     0
  0
CLASS
  1
MATERIAL
  2
AcDbMaterial
  3
ObjectDBX Classes
 90
     1153
280
     0
281
     0
  0
CLASS
  1
SUN
  2
AcDbSun
  3
SCENEOE
 90
     1024
280
     0
281
     0
  0
CLASS
  1
DICTIONARYVAR
  2
AcDbDictionaryVar
  3
ObjectDBX Classes
 90
        0
280
     0
281
     0
  0
CLASS
  1
XRECORD
  2
AcDbXrecord
  3
AutoCAD 2000
 90
    32768
280
     0
281
     0
  0
CLASS
  1
LWPOLYLINE
  2
AcDbPolyline
  3
AutoCAD 2000
 90
    32768
280
     0
281
     1
  0
CLASS
  1
HATCH
  2
AcDbHatch
  3
AutoCAD 2000
 90
    32768
280
     0
281
     1
  0
CLASS
  1
ACDBPLACEHOLDER
  2
AcDbPlaceHolder
  3
ObjectDBX Classes
 90
        0
280
     0
281
     0
  0
CLASS
  1
LAYOUT
  2
AcDbLayout
  3
ObjectDBX Classes
 90
        0
280
     0
281
     0
  0
ENDSEC
  0
SECTION
  2
TABLES
  0
TABLE
  2
VPORT
  5
8
330
0
100
AcDbSymbolTable
 70
     1
  0
VPORT
  5
29
330
8
100
AcDbSymbolTableRecord
100
AcDbViewportTableRecord
  2
*ACTIVE
 70
     0
 10
0.0
 20
0.0
 11
1.0
 21
1.0
 12
0.0
 22
0.0
 13
0.0
 23
0.0
 14
0.5
 24
0.5
 15
0.5
 25
0.5
 16
0.0
 26
0.0
 36
1.0
 17
148.5000416295416
 27
-105.0007777515277
 37
0.0
 40
210.0015555030554
 41
1.414275634995294
 42
50.0
 43
0.0
 44
0.0
 50
0.0
 51
0.0
 71
     0
 72
   100
 73
     1
 74
     3
 75
     0
 76
     0
 77
     0
 78
     0
  0
ENDTAB
  0
TABLE
  2
LTYPE
  5
5
330
0
100
AcDbSymbolTable
 70
     1
  0
LTYPE
  5
14
330
5
100
AcDbSymbolTableRecord
100
AcDbLinetypeTableRecord
  2
BYBLOCK
 70
     0
  3

 72
    65
 73
     0
 40
0.0
  0
LTYPE
  5
15
330
5
100
AcDbSymbolTableRecord
100
AcDbLinetypeTableRecord
  2
BYLAYER
 70
     0
  3

 72
    65
 73
     0
 40
0.0
  0
LTYPE
  5
16
330
5
100
AcDbSymbolTableRecord
100
AcDbLinetypeTableRecord
  2
CONTINUOUS
 70
     0
  3
Solid line
 72
    65
 73
     0
 40
0.0
  0
ENDTAB
  0
TABLE
  2
LAYER
  5
2
330
0
100
AcDbSymbolTable
 70
     2
  0
LAYER
  5
10
330
2
100
AcDbSymbolTableRecord
100
AcDbLayerTableRecord
  2
0
 70
     0
 62
     7
  6
CONTINUOUS
  0
LAYER
  5
40
330
2
100
AcDbSymbolTableRecord
100
AcDbLayerTableRecord
  2
LAYER_1
 70
     0
 62
     7
  6
CONTINUOUS
  0
ENDTAB
  0
TABLE
  2
STYLE
  5
3
330
0
100
AcDbSymbolTable
 70
     1
  0
STYLE
  5
11
330
3
100
AcDbSymbolTableRecord
100
AcDbTextStyleTableRecord
  2
STANDARD
 70
     0
 40
0.0
 41
1.0
 50
0.0
 71
     0
 42
0.2
  3
txt
  4

  0
ENDTAB
  0
TABLE
  2
VIEW
  5
6
330
0
100
AcDbSymbolTable
 70
     0
  0
ENDTAB
  0
TABLE
  2
UCS
  5
7
330
0
100
AcDbSymbolTable
 70
     0
  0
ENDTAB
  0
TABLE
  2
APPID
  5
9
330
0
100
AcDbSymbolTable
 70
     1
  0
APPID
  5
12
330
9
100
AcDbSymbolTableRecord
100
AcDbRegAppTableRecord
  2
ACAD
 70
     0
  0
ENDTAB
  0
TABLE
  2
DIMSTYLE
  5
A
330
0
100
AcDbSymbolTable
 70
     1
  0
DIMSTYLE
105
27
330
A
100
AcDbSymbolTableRecord
100
AcDbDimStyleTableRecord
  2
STANDARD
 70
     0
  3

  4

  5

  6

  7

 40
1.0
 41
0.18
 42
0.0625
 43
0.38
 44
0.18
 45
0.0
 46
0.0
 47
0.0
 48
0.0
140
0.18
141
0.09
142
0.0
143
25.4
144
1.0
145
0.0
146
1.0
147
0.09
 71
     0
 72
     0
 73
     1
 74
     1
 75
     0
 76
     0
 77
     0
 78
     0
170
     0
171
     2
172
     0
173
     0
174
     0
175
     0
176
     0
177
     0
178
     0
270
     2
271
     4
272
     4
273
     2
274
     2
340
11
275
     0
280
     0
281
     0
282
     0
283
     1
284
     0
285
     0
286
     0
287
     3
288
     0
  0
ENDTAB
  0
TABLE
  2
BLOCK_RECORD
  5
1
330
0
100
AcDbSymbolTable
 70
     5
  0
BLOCK_RECORD
  5
1F
330
1
100
AcDbSymbolTableRecord
100
AcDbBlockTableRecord
  2
*MODEL_SPACE
  0
BLOCK_RECORD
  5
1B
330
1
100
AcDbSymbolTableRecord
100
AcDbBlockTableRecord
  2
*PAPER_SPACE
  0
BLOCK_RECORD
  5
41
330
1
100
AcDbSymbolTableRecord
100
AcDbBlockTableRecord
  2
BLOCK_2
  0
BLOCK_RECORD
  5
45
330
1
100
AcDbSymbolTableRecord
100
AcDbBlockTableRecord
  2
BLOCK_3
  0
BLOCK_RECORD
  5
4A
330
1
100
AcDbSymbolTableRecord
100
AcDbBlockTableRecord
  2
BLOCK_4
  0
BLOCK_RECORD
  5
4F
330
1
100
AcDbSymbolTableRecord
100
AcDbBlockTableRecord
  2
BLOCK_5
  0
ENDTAB
  0
ENDSEC
  0
SECTION
  2
BLOCKS
  0
BLOCK
  5
20
330
1F
100
AcDbEntity
  8
0
100
AcDbBlockBegin
  2
*MODEL_SPACE
 70
     0
 10
0.0
 20
0.0
 30
0.0
  3
*MODEL_SPACE
  1

  0
ENDBLK
  5
21
330
1F
100
AcDbEntity
  8
0
100
AcDbBlockEnd
  0
BLOCK
  5
1C
330
1B
100
AcDbEntity
 67
     1
  8
0
100
AcDbBlockBegin
  2
*PAPER_SPACE
 70
     0
 10
0.0
 20
0.0
 30
0.0
  3
*PAPER_SPACE
  1

  0
ENDBLK
  5
1D
330
1B
100
AcDbEntity
 67
     1
  8
0
100
AcDbBlockEnd
  0
BLOCK
  5
43
330
41
100
AcDbEntity
  8
0
100
AcDbBlockBegin
  2
BLOCK_2
 70
     0
 10
0.0
 20
0.0
 30
0.0
  3
BLOCK_2
  1

  0
INSERT
  5
46
330
41
100
AcDbEntity
  8
LAYER_1
100
AcDbBlockReference
  2
BLOCK_3
 10
0.0
 20
0.0
 30
0.0
  0
INSERT
  5
4B
330
41
100
AcDbEntity
  8
LAYER_1
100
AcDbBlockReference
  2
BLOCK_4
 10
0.0
 20
0.0
 30
0.0
  0
INSERT
  5
50
330
41
100
AcDbEntity
  8
LAYER_1
100
AcDbBlockReference
  2
BLOCK_5
 10
0.0
 20
0.0
 30
0.0
  0
ENDBLK
  5
44
330
41
100
AcDbEntity
  8
0
100
AcDbBlockEnd
  0
BLOCK
  5
47
330
45
100
AcDbEntity
  8
0
100
AcDbBlockBegin
  2
BLOCK_3
 70
     0
 10
0.0
 20
0.0
 30
0.0
  3
BLOCK_3
  1

  0
SPLINE
  5
49
330
45
100
AcDbEntity
  8
LAYER_1
 62
     7
100
AcDbSpline
210
0.0
220
0.0
230
1.0
 70
    11
 71
     3
 72
   581
 73
   577
 74
     0
 42
0.0000000001
 43
0.0000000001
 12
1.0
 22
0.0
 32
0.0
 13
1.0
 23
0.0
 33
0.0
 40
0.0
 40
0.0
 40
0.0
 40
0.0
 40
1.0
 40
1.0
 40
1.0
 40
2.0
 40
2.0
 40
2.0
 40
3.0
 40
3.0
 40
3.0
 40
4.0
 40
4.0
 40
4.0
 40
5.0
 40
5.0
 40
5.0
 40
6.0
 40
6.0
 40
6.0
 40
7.0
 40
7.0
 40
7.0
 40
8.0
 40
8.0
 40
8.0
 40
9.0
 40
9.0
 40
9.0
 40
10.0
 40
10.0
 40
10.0
 40
11.0
 40
11.0
 40
11.0
 40
12.0
 40
12.0
 40
12.0
 40
13.0
 40
13.0
 40
13.0
 40
14.0
 40
14.0
 40
14.0
 40
15.0
 40
15.0
 40
15.0
 40
16.0
 40
16.0
 40
16.0
 40
17.0
 40
17.0
 40
17.0
 40
18.0
 40
18.0
 40
18.0
 40
19.0
 40
19.0
 40
19.0
 40
20.0
 40
20.0
 40
20.0
 40
21.0
 40
21.0
 40
21.0
 40
22.0
 40
22.0
 40
22.0
 40
23.0
 40
23.0
 40
23.0
 40
24.0
 40
24.0
 40
24.0
 40
25.0
 40
25.0
 40
25.0
 40
26.0
 40
26.0
 40
26.0
 40
27.0
 40
27.0
 40
27.0
 40
28.0
 40
28.0
 40
28.0
 40
29.0
 40
29.0
 40
29.0
 40
30.0
 40
30.0
 40
30.0
 40
31.0
 40
31.0
 40
31.0
 40
32.0
 40
32.0
 40
32.0
 40
33.0
 40
33.0
 40
33.0
 40
34.0
 40
34.0
 40
34.0
 40
35.0
 40
35.0
 40
35.0
 40
36.0
 40
36.0
 40
36.0
 40
37.0
 40
37.0
 40
37.0
 40
38.0
 40
38.0
 40
38.0
 40
39.0
 40
39.0
 40
39.0
 40
40.0
 40
40.0
 40
40.0
 40
41.0
 40
41.0
 40
41.0
 40
42.0
 40
42.0
 40
42.0
 40
43.0
 40
43.0
 40
43.0
 40
44.0
 40
44.0
 40
44.0
 40
45.0
 40
45.0
 40
45.0
 40
46.0
 40
46.0
 40
46.0
 40
47.0
 40
47.0
 40
47.0
 40
48.0
 40
48.0
 40
48.0
 40
49.0
 40
49.0
 40
49.0
 40
50.0
 40
50.0
 40
50.0
 40
51.0
 40
51.0
 40
51.0
 40
52.0
 40
52.0
 40
52.0
 40
53.0
 40
53.0
 40
53.0
 40
54.0
 40
54.0
 40
54.0
 40
55.0
 40
55.0
 40
55.0
 40
56.0
 40
56.0
 40
56.0
 40
57.0
 40
57.0
 40
57.0
 40
58.0
 40
58.0
 40
58.0
 40
59.0
 40
59.0
 40
59.0
 40
60.0
 40
60.0
 40
60.0
 40
61.0
 40
61.0
 40
61.0
 40
62.0
 40
62.0
 40
62.0
 40
63.0
 40
63.0
 40
63.0
 40
64.0
 40
64.0
 40
64.0
 40
65.0
 40
65.0
 40
65.0
 40
66.0
 40
66.0
 40
66.0
 40
67.0
 40
67.0
 40
67.0
 40
68.0
 40
68.0
 40
68.0
 40
69.0
 40
69.0
 40
69.0
 40
70.0
 40
70.0
 40
70.0
 40
71.0
 40
71.0
 40
71.0
 40
72.0
 40
72.0
 40
72.0
 40
73.0
 40
73.0
 40
73.0
 40
74.0
 40
74.0
 40
74.0
 40
75.0
 40
75.0
 40
75.0
 40
76.0
 40
76.0
 40
76.0
 40
77.0
 40
77.0
 40
77.0
 40
78.0
 40
78.0
 40
78.0
 40
79.0
 40
79.0
 40
79.0
 40
80.0
 40
80.0
 40
80.0
 40
81.0
 40
81.0
 40
81.0
 40
82.0
 40
82.0
 40
82.0
 40
83.0
 40
83.0
 40
83.0
 40
84.0
 40
84.0
 40
84.0
 40
85.0
 40
85.0
 40
85.0
 40
86.0
 40
86.0
 40
86.0
 40
87.0
 40
87.0
 40
87.0
 40
88.0
 40
88.0
 40
88.0
 40
89.0
 40
89.0
 40
89.0
 40
90.0
 40
90.0
 40
90.0
 40
91.0
 40
91.0
 40
91.0
 40
92.0
 40
92.0
 40
92.0
 40
93.0
 40
93.0
 40
93.0
 40
94.0
 40
94.0
 40
94.0
 40
95.0
 40
95.0
 40
95.0
 40
96.0
 40
96.0
 40
96.0
 40
97.0
 40
97.0
 40
97.0
 40
98.0
 40
98.0
 40
98.0
 40
99.0
 40
99.0
 40
99.0
 40
100.0
 40
100.0
 40
100.0
 40
101.0
 40
101.0
 40
101.0
 40
102.0
 40
102.0
 40
102.0
 40
103.0
 40
103.0
 40
103.0
 40
104.0
 40
104.0
 40
104.0
 40
105.0
 40
105.0
 40
105.0
 40
106.0
 40
106.0
 40
106.0
 40
107.0
 40
107.0
 40
107.0
 40
108.0
 40
108.0
 40
108.0
 40
109.0
 40
109.0
 40
109.0
 40
110.0
 40
110.0
 40
110.0
 40
111.0
 40
111.0
 40
111.0
 40
112.0
 40
112.0
 40
112.0
 40
113.0
 40
113.0
 40
113.0
 40
114.0
 40
114.0
 40
114.0
 40
115.0
 40
115.0
 40
115.0
 40
116.0
 40
116.0
 40
116.0
 40
117.0
 40
117.0
 40
117.0
 40
118.0
 40
118.0
 40
118.0
 40
119.0
 40
119.0
 40
119.0
 40
120.0
 40
120.0
 40
120.0
 40
121.0
 40
121.0
 40
121.0
 40
122.0
 40
122.0
 40
122.0
 40
123.0
 40
123.0
 40
123.0
 40
124.0
 40
124.0
 40
124.0
 40
125.0
 40
125.0
 40
125.0
 40
126.0
 40
126.0
 40
126.0
 40
127.0
 40
127.0
 40
127.0
 40
128.0
 40
128.0
 40
128.0
 40
129.0
 40
129.0
 40
129.0
 40
130.0
 40
130.0
 40
130.0
 40
131.0
 40
131.0
 40
131.0
 40
132.0
 40
132.0
 40
132.0
 40
133.0
 40
133.0
 40
133.0
 40
134.0
 40
134.0
 40
134.0
 40
135.0
 40
135.0
 40
135.0
 40
136.0
 40
136.0
 40
136.0
 40
137.0
 40
137.0
 40
137.0
 40
138.0
 40
138.0
 40
138.0
 40
139.0
 40
139.0
 40
139.0
 40
140.0
 40
140.0
 40
140.0
 40
141.0
 40
141.0
 40
141.0
 40
142.0
 40
142.0
 40
142.0
 40
143.0
 40
143.0
 40
143.0
 40
144.0
 40
144.0
 40
144.0
 40
145.0
 40
145.0
 40
145.0
 40
146.0
 40
146.0
 40
146.0
 40
147.0
 40
147.0
 40
147.0
 40
148.0
 40
148.0
 40
148.0
 40
149.0
 40
149.0
 40
149.0
 40
150.0
 40
150.0
 40
150.0
 40
151.0
 40
151.0
 40
151.0
 40
152.0
 40
152.0
 40
152.0
 40
153.0
 40
153.0
 40
153.0
 40
154.0
 40
154.0
 40
154.0
 40
155.0
 40
155.0
 40
155.0
 40
156.0
 40
156.0
 40
156.0
 40
157.0
 40
157.0
 40
157.0
 40
158.0
 40
158.0
 40
158.0
 40
159.0
 40
159.0
 40
159.0
 40
160.0
 40
160.0
 40
160.0
 40
161.0
 40
161.0
 40
161.0
 40
162.0
 40
162.0
 40
162.0
 40
163.0
 40
163.0
 40
163.0
 40
164.0
 40
164.0
 40
164.0
 40
165.0
 40
165.0
 40
165.0
 40
166.0
 40
166.0
 40
166.0
 40
167.0
 40
167.0
 40
167.0
 40
168.0
 40
168.0
 40
168.0
 40
169.0
 40
169.0
 40
169.0
 40
170.0
 40
170.0
 40
170.0
 40
171.0
 40
171.0
 40
171.0
 40
172.0
 40
172.0
 40
172.0
 40
173.0
 40
173.0
 40
173.0
 40
174.0
 40
174.0
 40
174.0
 40
175.0
 40
175.0
 40
175.0
 40
176.0
 40
176.0
 40
176.0
 40
177.0
 40
177.0
 40
177.0
 40
178.0
 40
178.0
 40
178.0
 40
179.0
 40
179.0
 40
179.0
 40
180.0
 40
180.0
 40
180.0
 40
181.0
 40
181.0
 40
181.0
 40
182.0
 40
182.0
 40
182.0
 40
183.0
 40
183.0
 40
183.0
 40
184.0
 40
184.0
 40
184.0
 40
185.0
 40
185.0
 40
185.0
 40
186.0
 40
186.0
 40
186.0
 40
187.0
 40
187.0
 40
187.0
 40
188.0
 40
188.0
 40
188.0
 40
189.0
 40
189.0
 40
189.0
 40
190.0
 40
190.0
 40
190.0
 40
191.0
 40
191.0
 40
191.0
 40
192.0
 40
192.0
 40
192.0
 40
192.0
 10
120.0413536532676
 20
-87.31043743361286
 30
0.0
 10
120.0413536532676
 20
-87.31043743361286
 30
0.0
 10
121.2601036532679
 20
-88.0140830741878
 30
0.0
 10
121.2601036532679
 20
-88.0140830741878
 30
0.0
 10
121.2601036532679
 20
-88.0140830741878
 30
0.0
 10
122.4788536532678
 20
-88.7177287147624
 30
0.0
 10
122.4788536532678
 20
-88.7177287147624
 30
0.0
 10
122.4788536532678
 20
-88.7177287147624
 30
0.0
 10
123.6976036532677
 20
-89.42137435533733
 30
0.0
 10
123.6976036532677
 20
-89.42137435533733
 30
0.0
 10
123.6976036532677
 20
-89.42137435533733
 30
0.0
 10
124.9163536532677
 20
-90.12501999591227
 30
0.0
 10
124.9163536532677
 20
-90.12501999591227
 30
0.0
 10
124.9163536532677
 20
-90.12501999591227
 30
0.0
 10
126.1351036532676
 20
-90.8286656364872
 30
0.0
 10
126.1351036532676
 20
-90.8286656364872
 30
0.0
 10
126.1351036532676
 20
-90.8286656364872
 30
0.0
 10
127.3538536532676
 20
-91.53231127706213
 30
0.0
 10
127.3538536532676
 20
-91.53231127706213
 30
0.0
 10
127.3538536532676
 20
-91.53231127706213
 30
0.0
 10
128.5726036532675
 20
-92.23595691763674
 30
0.0
 10
128.5726036532675
 20
-92.23595691763674
 30
0.0
 10
128.5726036532675
 20
-92.23595691763674
 30
0.0
 10
129.7913536532675
 20
-92.93960255821167
 30
0.0
 10
129.7913536532675
 20
-92.93960255821167
 30
0.0
 10
129.7913536532675
 20
-92.93960255821167
 30
0.0
 10
131.0101036532674
 20
-93.64324819878661
 30
0.0
 10
131.0101036532674
 20
-93.64324819878661
 30
0.0
 10
131.0101036532674
 20
-93.64324819878661
 30
0.0
 10
132.2288536532674
 20
-94.34689383936123
 30
0.0
 10
132.2288536532674
 20
-94.34689383936123
 30
0.0
 10
132.2288536532674
 20
-94.34689383936123
 30
0.0
 10
133.4476036532673
 20
-95.05053947993616
 30
0.0
 10
133.4476036532673
 20
-95.05053947993616
 30
0.0
 10
133.4476036532673
 20
-95.05053947993616
 30
0.0
 10
134.6663536532672
 20
-95.7541851205111
 30
0.0
 10
134.6663536532672
 20
-95.7541851205111
 30
0.0
 10
134.6663536532672
 20
-95.7541851205111
 30
0.0
 10
135.8851036532672
 20
-96.45783076108603
 30
0.0
 10
135.8851036532672
 20
-96.45783076108603
 30
0.0
 10
135.8851036532672
 20
-96.45783076108603
 30
0.0
 10
137.1038536532671
 20
-97.16147640166096
 30
0.0
 10
137.1038536532671
 20
-97.16147640166096
 30
0.0
 10
137.1038536532671
 20
-97.16147640166096
 30
0.0
 10
138.3226036532671
 20
-97.86512204223557
 30
0.0
 10
138.3226036532671
 20
-97.86512204223557
 30
0.0
 10
138.3226036532671
 20
-97.86512204223557
 30
0.0
 10
139.5413536532673
 20
-98.5687676828105
 30
0.0
 10
139.5413536532673
 20
-98.5687676828105
 30
0.0
 10
139.5800287878623
 20
-98.59109678217979
 30
0.0
 10
139.6177757806327
 20
-98.61460943017356
 30
0.0
 10
139.6545595745621
 20
-98.63924490625891
 30
0.0
 10
139.691343368492
 20
-98.66388038234395
 30
0.0
 10
139.7271639635809
 20
-98.68963868651993
 30
0.0
 10
139.7619863028125
 20
-98.71645909825365
 30
0.0
 10
139.7968086420442
 20
-98.74327950998737
 30
0.0
 10
139.8306327254182
 20
-98.77116202927817
 30
0.0
 10
139.8634234959187
 20
-98.80004593559255
 30
0.0
 10
139.8962142664191
 20
-98.82892984190724
 30
0.0
 10
139.9279717240459
 20
-98.85881513524548
 30
0.0
 10
139.9586608117824
 20
-98.88964109507376
 30
0.0
 10
139.9893498995189
 20
-98.92046705490202
 30
0.0
 10
140.0189706173654
 20
-98.95223368122063
 30
0.0
 10
140.0474879083048
 20
-98.98488025349542
 30
0.0
 10
140.0760051992443
 20
-99.01752682577019
 30
0.0
 10
140.1034190632775
 20
-99.05105334400113
 30
0.0
 10
140.1296944433872
 20
-99.08539908765471
 30
0.0
 10
140.155969823497
 20
-99.11974483130828
 30
0.0
 10
140.1811067196837
 20
-99.15490980038481
 30
0.0
 10
140.2050700749306
 20
-99.19083327435011
 30
0.0
 10
140.2290334301776
 20
-99.22675674831542
 30
0.0
 10
140.2518232444848
 20
-99.26343872716981
 30
0.0
 10
140.2734044608363
 20
-99.30081849037946
 30
0.0
 10
140.2949856771877
 20
-99.3381982535891
 30
0.0
 10
140.3153582955827
 20
-99.37627580115398
 30
0.0
 10
140.3344872590053
 20
-99.41499041254056
 30
0.0
 10
140.3536162224282
 20
-99.45370502392682
 30
0.0
 10
140.371501530878
 20
-99.49305669913511
 30
0.0
 10
140.3881081273392
 20
-99.53298471763092
 30
0.0
 10
140.4047147238005
 20
-99.57291273612674
 30
0.0
 10
140.4200426082723
 20
-99.61341709791073
 30
0.0
 10
140.4340567237388
 20
-99.65443708244902
 30
0.0
 10
140.4480708392054
 20
-99.69545706698733
 30
0.0
 10
140.4607711856665
 20
-99.73699267427962
 30
0.0
 10
140.4721227061057
 20
-99.77898318379269
 30
0.0
 10
140.4834742265449
 20
-99.82097369330545
 30
0.0
 10
140.4934769209618
 20
-99.86341910503897
 30
0.0
 10
140.5020957323406
 20
-99.90625869845942
 30
0.0
 10
140.5107145437193
 20
-99.94909829187988
 30
0.0
 10
140.5179494720598
 20
-99.99233206698725
 30
0.0
 10
140.5237654603453
 20
-100.0358993032477
 30
0.0
 10
140.5295814486305
 20
-100.0794665395081
 30
0.0
 10
140.5339784968611
 20
-100.1233672369216
 30
0.0
 10
140.5369215480204
 20
-100.167540674955
 30
0.0
 10
140.5398645991794
 20
-100.2117141129884
 30
0.0
 10
140.5413536532674
 20
-100.2561602916409
 30
0.0
 10
140.5413536532674
 20
-100.3008184903795
 30
0.0
 10
140.5413536532674
 20
-100.3008184903795
 30
0.0
 10
140.5413536532674
 20
-101.7081097715294
 30
0.0
 10
140.5413536532674
 20
-101.7081097715294
 30
0.0
 10
140.5413536532674
 20
-101.7081097715294
 30
0.0
 10
140.5413536532674
 20
-103.1154010526789
 30
0.0
 10
140.5413536532674
 20
-103.1154010526789
 30
0.0
 10
140.5413536532674
 20
-103.1154010526789
 30
0.0
 10
140.5413536532674
 20
-104.5226923338284
 30
0.0
 10
140.5413536532674
 20
-104.5226923338284
 30
0.0
 10
140.5413536532674
 20
-104.5226923338284
 30
0.0
 10
140.5413536532674
 20
-105.9299836149783
 30
0.0
 10
140.5413536532674
 20
-105.9299836149783
 30
0.0
 10
140.5413536532674
 20
-105.9299836149783
 30
0.0
 10
140.5413536532674
 20
-107.3372748961282
 30
0.0
 10
140.5413536532674
 20
-107.3372748961282
 30
0.0
 10
140.5413536532674
 20
-107.3372748961282
 30
0.0
 10
140.5413536532674
 20
-108.744566177278
 30
0.0
 10
140.5413536532674
 20
-108.744566177278
 30
0.0
 10
140.5413536532674
 20
-108.744566177278
 30
0.0
 10
140.5413536532674
 20
-110.1518574584273
 30
0.0
 10
140.5413536532674
 20
-110.1518574584273
 30
0.0
 10
140.5413536532674
 20
-110.1518574584273
 30
0.0
 10
140.5413536532674
 20
-111.5591487395771
 30
0.0
 10
140.5413536532674
 20
-111.5591487395771
 30
0.0
 10
140.5413536532674
 20
-111.5591487395771
 30
0.0
 10
140.5413536532674
 20
-112.966440020727
 30
0.0
 10
140.5413536532674
 20
-112.966440020727
 30
0.0
 10
140.5413536532674
 20
-112.966440020727
 30
0.0
 10
140.5413536532674
 20
-114.3737313018762
 30
0.0
 10
140.5413536532674
 20
-114.3737313018762
 30
0.0
 10
140.5413536532674
 20
-114.3737313018762
 30
0.0
 10
140.5413536532674
 20
-115.7810225830261
 30
0.0
 10
140.5413536532674
 20
-115.7810225830261
 30
0.0
 10
140.5413536532674
 20
-115.7810225830261
 30
0.0
 10
140.5413536532674
 20
-117.188313864176
 30
0.0
 10
140.5413536532674
 20
-117.188313864176
 30
0.0
 10
140.5413536532674
 20
-117.188313864176
 30
0.0
 10
140.5413536532674
 20
-118.5956051453258
 30
0.0
 10
140.5413536532674
 20
-118.5956051453258
 30
0.0
 10
140.5413536532674
 20
-118.5956051453258
 30
0.0
 10
140.5413536532674
 20
-120.0028964264757
 30
0.0
 10
140.5413536532674
 20
-120.0028964264757
 30
0.0
 10
140.5413536532674
 20
-120.0028964264757
 30
0.0
 10
140.5413536532674
 20
-121.4101877076249
 30
0.0
 10
140.5413536532674
 20
-121.4101877076249
 30
0.0
 10
140.5413536532674
 20
-121.4101877076249
 30
0.0
 10
140.5413536532674
 20
-122.8174789887748
 30
0.0
 10
140.5413536532674
 20
-122.8174789887748
 30
0.0
 10
140.5413536532674
 20
-122.8621371875133
 30
0.0
 10
140.5398645991794
 20
-122.9065833661653
 30
0.0
 10
140.5369215480204
 20
-122.9507568041989
 30
0.0
 10
140.5339784968611
 20
-122.994930242232
 30
0.0
 10
140.5295814486305
 20
-123.0388309396455
 30
0.0
 10
140.5237654603453
 20
-123.0823981759059
 30
0.0
 10
140.5179494720598
 20
-123.1259654121664
 30
0.0
 10
140.5107145437193
 20
-123.1691991872744
 30
0.0
 10
140.5020957323406
 20
-123.2120387806945
 30
0.0
 10
140.4934769209618
 20
-123.2548783741147
 30
0.0
 10
140.4834742265449
 20
-123.2973237858482
 30
0.0
 10
140.4721227061057
 20
-123.3393142953616
 30
0.0
 10
140.4607711856665
 20
-123.381304804875
 30
0.0
 10
140.4480708392054
 20
-123.4228404121669
 30
0.0
 10
140.4340567237388
 20
-123.4638603967052
 30
0.0
 10
140.4200426082723
 20
-123.5048803812435
 30
0.0
 10
140.4047147238005
 20
-123.5453847430269
 30
0.0
 10
140.3881081273392
 20
-123.585312761523
 30
0.0
 10
140.371501530878
 20
-123.6252407800192
 30
0.0
 10
140.3536162224282
 20
-123.6645924552274
 30
0.0
 10
140.3344872590053
 20
-123.7033070666137
 30
0.0
 10
140.3153582955827
 20
-123.7420216780006
 30
0.0
 10
140.2949856771877
 20
-123.7800992255655
 30
0.0
 10
140.2734044608363
 20
-123.8174789887748
 30
0.0
 10
140.2518232444848
 20
-123.8548587519841
 30
0.0
 10
140.2290334301776
 20
-123.8915407308392
 30
0.0
 10
140.2050700749306
 20
-123.9274642048045
 30
0.0
 10
140.1811067196837
 20
-123.9633876787698
 30
0.0
 10
140.155969823497
 20
-123.998552647846
 30
0.0
 10
140.1296944433872
 20
-124.0328983914996
 30
0.0
 10
140.1034190632775
 20
-124.0672441351531
 30
0.0
 10
140.0760051992443
 20
-124.1007706533841
 30
0.0
 10
140.0474879083048
 20
-124.1334172256589
 30
0.0
 10
140.0189706173654
 20
-124.1660637979336
 30
0.0
 10
139.9893498995189
 20
-124.1978304242516
 30
0.0
 10
139.9586608117824
 20
-124.2286563840799
 30
0.0
 10
139.9279717240459
 20
-124.2594823439081
 30
0.0
 10
139.8962142664191
 20
-124.2893676372467
 30
0.0
 10
139.8634234959187
 20
-124.3182515435614
 30
0.0
 10
139.8306327254182
 20
-124.3471354498761
 30
0.0
 10
139.7968086420442
 20
-124.3750179691669
 30
0.0
 10
139.7619863028125
 20
-124.4018383809009
 30
0.0
 10
139.7271639635809
 20
-124.4286587926343
 30
0.0
 10
139.691343368492
 20
-124.4544170968103
 30
0.0
 10
139.6545595745621
 20
-124.4790525728954
 30
0.0
 10
139.6177757806327
 20
-124.5036880489804
 30
0.0
 10
139.5800287878623
 20
-124.5272006969738
 30
0.0
 10
139.5413536532673
 20
-124.5495297963434
 30
0.0
 10
139.5413536532673
 20
-124.5495297963434
 30
0.0
 10
138.3226036532671
 20
-125.2531754369181
 30
0.0
 10
138.3226036532671
 20
-125.2531754369181
 30
0.0
 10
138.3226036532671
 20
-125.2531754369181
 30
0.0
 10
137.1038536532671
 20
-125.9568210774933
 30
0.0
 10
137.1038536532671
 20
-125.9568210774933
 30
0.0
 10
137.1038536532671
 20
-125.9568210774933
 30
0.0
 10
135.8851036532672
 20
-126.6604667180679
 30
0.0
 10
135.8851036532672
 20
-126.6604667180679
 30
0.0
 10
135.8851036532672
 20
-126.6604667180679
 30
0.0
 10
134.6663536532672
 20
-127.3641123586425
 30
0.0
 10
134.6663536532672
 20
-127.3641123586425
 30
0.0
 10
134.6663536532672
 20
-127.3641123586425
 30
0.0
 10
133.4476036532673
 20
-128.0677579992178
 30
0.0
 10
133.4476036532673
 20
-128.0677579992178
 30
0.0
 10
133.4476036532673
 20
-128.0677579992178
 30
0.0
 10
132.2288536532674
 20
-128.7714036397924
 30
0.0
 10
132.2288536532674
 20
-128.7714036397924
 30
0.0
 10
132.2288536532674
 20
-128.7714036397924
 30
0.0
 10
131.0101036532674
 20
-129.475049280367
 30
0.0
 10
131.0101036532674
 20
-129.475049280367
 30
0.0
 10
131.0101036532674
 20
-129.475049280367
 30
0.0
 10
129.7913536532675
 20
-130.1786949209423
 30
0.0
 10
129.7913536532675
 20
-130.1786949209423
 30
0.0
 10
129.7913536532675
 20
-130.1786949209423
 30
0.0
 10
128.5726036532675
 20
-130.8823405615175
 30
0.0
 10
128.5726036532675
 20
-130.8823405615175
 30
0.0
 10
128.5726036532675
 20
-130.8823405615175
 30
0.0
 10
127.3538536532676
 20
-131.5859862020921
 30
0.0
 10
127.3538536532676
 20
-131.5859862020921
 30
0.0
 10
127.3538536532676
 20
-131.5859862020921
 30
0.0
 10
126.1351036532676
 20
-132.2896318426668
 30
0.0
 10
126.1351036532676
 20
-132.2896318426668
 30
0.0
 10
126.1351036532676
 20
-132.2896318426668
 30
0.0
 10
124.9163536532677
 20
-132.993277483242
 30
0.0
 10
124.9163536532677
 20
-132.993277483242
 30
0.0
 10
124.9163536532677
 20
-132.993277483242
 30
0.0
 10
123.6976036532677
 20
-133.6969231238166
 30
0.0
 10
123.6976036532677
 20
-133.6969231238166
 30
0.0
 10
123.6976036532677
 20
-133.6969231238166
 30
0.0
 10
122.4788536532678
 20
-134.4005687643912
 30
0.0
 10
122.4788536532678
 20
-134.4005687643912
 30
0.0
 10
122.4788536532678
 20
-134.4005687643912
 30
0.0
 10
121.2601036532679
 20
-135.1042144049665
 30
0.0
 10
121.2601036532679
 20
-135.1042144049665
 30
0.0
 10
121.2601036532679
 20
-135.1042144049665
 30
0.0
 10
120.0413536532676
 20
-135.8078600455411
 30
0.0
 10
120.0413536532676
 20
-135.8078600455411
 30
0.0
 10
120.0026785186727
 20
-135.8301891449107
 30
0.0
 10
119.9634424718146
 20
-135.8511226755692
 30
0.0
 10
119.9237156267258
 20
-135.8706606375172
 30
0.0
 10
119.8839887816367
 20
-135.8901985994652
 30
0.0
 10
119.8437711383175
 20
-135.9083409927027
 30
0.0
 10
119.8031328108006
 20
-135.9250878172298
 30
0.0
 10
119.7624944832838
 20
-135.9418346417568
 30
0.0
 10
119.7214354715692
 20
-135.9571858975733
 30
0.0
 10
119.6800258896898
 20
-135.9711415846788
 30
0.0
 10
119.6386163078106
 20
-135.9850972717849
 30
0.0
 10
119.5968561557668
 20
-135.9976573901798
 30
0.0
 10
119.5548155475912
 20
-136.008821939865
 30
0.0
 10
119.5127749394155
 20
-136.0199864895494
 30
0.0
 10
119.4704538751083
 20
-136.0297554705234
 30
0.0
 10
119.4279224687019
 20
-136.038128882787
 30
0.0
 10
119.3853910622958
 20
-136.0465022950505
 30
0.0
 10
119.3426493137909
 20
-136.0534801386029
 30
0.0
 10
119.2997673372199
 20
-136.0590624134454
 30
0.0
 10
119.2568853606489
 20
-136.064644688288
 30
0.0
 10
119.2138631560124
 20
-136.0688313944194
 30
0.0
 10
119.1707708373426
 20
-136.0716225318404
 30
0.0
 10
119.127678518673
 20
-136.074413669262
 30
0.0
 10
119.0845160859701
 20
-136.0758092379725
 30
0.0
 10
119.0413536532676
 20
-136.0758092379725
 30
0.0
 10
118.998191220565
 20
-136.0758092379725
 30
0.0
 10
118.9550287878621
 20
-136.074413669262
 30
0.0
 10
118.9119364691926
 20
-136.0716225318404
 30
0.0
 10
118.8688441505227
 20
-136.0688313944194
 30
0.0
 10
118.8258219458862
 20
-136.064644688288
 30
0.0
 10
118.7829399693152
 20
-136.0590624134454
 30
0.0
 10
118.7400579927442
 20
-136.0534801386029
 30
0.0
 10
118.6973162442393
 20
-136.0465022950505
 30
0.0
 10
118.6547848378332
 20
-136.038128882787
 30
0.0
 10
118.6122534314269
 20
-136.0297554705234
 30
0.0
 10
118.5699323671196
 20
-136.0199864895494
 30
0.0
 10
118.527891758944
 20
-136.008821939865
 30
0.0
 10
118.4858511507683
 20
-135.9976573901805
 30
0.0
 10
118.4440909987245
 20
-135.9850972717849
 30
0.0
 10
118.4026814168454
 20
-135.9711415846794
 30
0.0
 10
118.3612718349659
 20
-135.9571858975733
 30
0.0
 10
118.3202128232513
 20
-135.9418346417568
 30
0.0
 10
118.2795744957345
 20
-135.9250878172304
 30
0.0
 10
118.2389361682176
 20
-135.9083409927034
 30
0.0
 10
118.1987185248984
 20
-135.8901985994658
 30
0.0
 10
118.1589916798093
 20
-135.8706606375178
 30
0.0
 10
118.1192648347205
 20
-135.8511226755698
 30
0.0
 10
118.0800287878625
 20
-135.8301891449107
 30
0.0
 10
118.0413536532675
 20
-135.8078600455417
 30
0.0
 10
118.0413536532675
 20
-135.8078600455417
 30
0.0
 10
116.8226036532673
 20
-135.1042144049665
 30
0.0
 10
116.8226036532673
 20
-135.1042144049665
 30
0.0
 10
116.8226036532673
 20
-135.1042144049665
 30
0.0
 10
115.6038536532673
 20
-134.4005687643919
 30
0.0
 10
115.6038536532673
 20
-134.4005687643919
 30
0.0
 10
115.6038536532673
 20
-134.4005687643919
 30
0.0
 10
114.3851036532674
 20
-133.6969231238172
 30
0.0
 10
114.3851036532674
 20
-133.6969231238172
 30
0.0
 10
114.3851036532674
 20
-133.6969231238172
 30
0.0
 10
113.1663536532674
 20
-132.993277483242
 30
0.0
 10
113.1663536532674
 20
-132.993277483242
 30
0.0
 10
113.1663536532674
 20
-132.993277483242
 30
0.0
 10
111.9476036532675
 20
-132.2896318426668
 30
0.0
 10
111.9476036532675
 20
-132.2896318426668
 30
0.0
 10
111.9476036532675
 20
-132.2896318426668
 30
0.0
 10
110.7288536532675
 20
-131.5859862020921
 30
0.0
 10
110.7288536532675
 20
-131.5859862020921
 30
0.0
 10
110.7288536532675
 20
-131.5859862020921
 30
0.0
 10
109.5101036532676
 20
-130.8823405615175
 30
0.0
 10
109.5101036532676
 20
-130.8823405615175
 30
0.0
 10
109.5101036532676
 20
-130.8823405615175
 30
0.0
 10
108.2913536532677
 20
-130.1786949209423
 30
0.0
 10
108.2913536532677
 20
-130.1786949209423
 30
0.0
 10
108.2913536532677
 20
-130.1786949209423
 30
0.0
 10
107.0726036532677
 20
-129.475049280367
 30
0.0
 10
107.0726036532677
 20
-129.475049280367
 30
0.0
 10
107.0726036532677
 20
-129.475049280367
 30
0.0
 10
105.8538536532678
 20
-128.7714036397924
 30
0.0
 10
105.8538536532678
 20
-128.7714036397924
 30
0.0
 10
105.8538536532678
 20
-128.7714036397924
 30
0.0
 10
104.6351036532678
 20
-128.0677579992178
 30
0.0
 10
104.6351036532678
 20
-128.0677579992178
 30
0.0
 10
104.6351036532678
 20
-128.0677579992178
 30
0.0
 10
103.4163536532676
 20
-127.3641123586425
 30
0.0
 10
103.4163536532676
 20
-127.3641123586425
 30
0.0
 10
103.4163536532676
 20
-127.3641123586425
 30
0.0
 10
102.1976036532673
 20
-126.6604667180679
 30
0.0
 10
102.1976036532673
 20
-126.6604667180679
 30
0.0
 10
102.1976036532673
 20
-126.6604667180679
 30
0.0
 10
100.9788536532674
 20
-125.9568210774933
 30
0.0
 10
100.9788536532674
 20
-125.9568210774933
 30
0.0
 10
100.9788536532674
 20
-125.9568210774933
 30
0.0
 10
99.76010365326742
 20
-125.2531754369181
 30
0.0
 10
99.76010365326742
 20
-125.2531754369181
 30
0.0
 10
99.76010365326742
 20
-125.2531754369181
 30
0.0
 10
98.54135365326748
 20
-124.5495297963434
 30
0.0
 10
98.54135365326748
 20
-124.5495297963434
 30
0.0
 10
98.50267851867287
 20
-124.5272006969738
 30
0.0
 10
98.46493152590214
 20
-124.5036880489804
 30
0.0
 10
98.42814773197266
 20
-124.4790525728954
 30
0.0
 10
98.39136393804316
 20
-124.4544170968103
 30
0.0
 10
98.35554334295423
 20
-124.4286587926343
 30
0.0
 10
98.3207210037226
 20
-124.4018383809009
 30
0.0
 10
98.28589866449094
 20
-124.3750179691669
 30
0.0
 10
98.25207458111687
 20
-124.3471354498761
 30
0.0
 10
98.21928381061645
 20
-124.3182515435614
 30
0.0
 10
98.186493040116
 20
-124.2893676372467
 30
0.0
 10
98.1547355824892
 20
-124.2594823439081
 30
0.0
 10
98.12404649475272
 20
-124.2286563840799
 30
0.0
 10
98.09335740701623
 20
-124.1978304242516
 30
0.0
 10
98.06373668916974
 20
-124.1660637979336
 30
0.0
 10
98.03521939823025
 20
-124.1334172256589
 30
0.0
 10
98.00670210729078
 20
-124.1007706533841
 30
0.0
 10
97.97928824325766
 20
-124.0672441351531
 30
0.0
 10
97.9530128631479
 20
-124.0328983914996
 30
0.0
 10
97.92673748303815
 20
-123.998552647846
 30
0.0
 10
97.90160058685146
 20
-123.9633876787698
 30
0.0
 10
97.87763723160448
 20
-123.9274642048045
 30
0.0
 10
97.8536738763572
 20
-123.8915407308392
 30
0.0
 10
97.83088406204965
 20
-123.8548587519841
 30
0.0
 10
97.80930284569853
 20
-123.8174789887748
 30
0.0
 10
97.78772162934739
 20
-123.7800992255655
 30
0.0
 10
97.76734901095205
 20
-123.7420216780006
 30
0.0
 10
97.74822004752949
 20
-123.7033070666137
 30
0.0
 10
97.72909108410693
 20
-123.6645924552274
 30
0.0
 10
97.71120577565651
 20
-123.6252407800192
 30
0.0
 10
97.69459917919558
 20
-123.585312761523
 30
0.0
 10
97.67799258273463
 20
-123.5453847430269
 30
0.0
 10
97.66266469826253
 20
-123.5048803812435
 30
0.0
 10
97.64865058279563
 20
-123.4638603967052
 30
0.0
 10
97.63463646732936
 20
-123.4228404121669
 30
0.0
 10
97.6219361208683
 20
-123.381304804875
 30
0.0
 10
97.61058460042912
 20
-123.3393142953616
 30
0.0
 10
97.59923307998993
 20
-123.2973237858482
 30
0.0
 10
97.58923038557296
 20
-123.2548783741147
 30
0.0
 10
97.58061157419424
 20
-123.2120387806945
 30
0.0
 10
97.57199276281551
 20
-123.1691991872744
 30
0.0
 10
97.56475783447505
 20
-123.1259654121664
 30
0.0
 10
97.55894184618951
 20
-123.0823981759059
 30
0.0
 10
97.55312585790398
 20
-123.0388309396455
 30
0.0
 10
97.5487288096737
 20
-122.994930242232
 30
0.0
 10
97.5457857585144
 20
-122.9507568041989
 30
0.0
 10
97.5428427073551
 20
-122.9065833661653
 30
0.0
 10
97.54135365326744
 20
-122.8621371875133
 30
0.0
 10
97.54135365326744
 20
-122.8174789887748
 30
0.0
 10
97.54135365326744
 20
-122.8174789887748
 30
0.0
 10
97.54135365326744
 20
-121.4101877076249
 30
0.0
 10
97.54135365326744
 20
-121.4101877076249
 30
0.0
 10
97.54135365326744
 20
-121.4101877076249
 30
0.0
 10
97.54135365326744
 20
-120.0028964264757
 30
0.0
 10
97.54135365326744
 20
-120.0028964264757
 30
0.0
 10
97.54135365326744
 20
-120.0028964264757
 30
0.0
 10
97.54135365326744
 20
-118.5956051453258
 30
0.0
 10
97.54135365326744
 20
-118.5956051453258
 30
0.0
 10
97.54135365326744
 20
-118.5956051453258
 30
0.0
 10
97.54135365326744
 20
-117.188313864176
 30
0.0
 10
97.54135365326744
 20
-117.188313864176
 30
0.0
 10
97.54135365326744
 20
-117.188313864176
 30
0.0
 10
97.54135365326744
 20
-115.7810225830261
 30
0.0
 10
97.54135365326744
 20
-115.7810225830261
 30
0.0
 10
97.54135365326744
 20
-115.7810225830261
 30
0.0
 10
97.54135365326744
 20
-114.3737313018762
 30
0.0
 10
97.54135365326744
 20
-114.3737313018762
 30
0.0
 10
97.54135365326744
 20
-114.3737313018762
 30
0.0
 10
97.54135365326744
 20
-112.966440020727
 30
0.0
 10
97.54135365326744
 20
-112.966440020727
 30
0.0
 10
97.54135365326744
 20
-112.966440020727
 30
0.0
 10
97.54135365326744
 20
-111.5591487395771
 30
0.0
 10
97.54135365326744
 20
-111.5591487395771
 30
0.0
 10
97.54135365326744
 20
-111.5591487395771
 30
0.0
 10
97.54135365326744
 20
-110.1518574584273
 30
0.0
 10
97.54135365326744
 20
-110.1518574584273
 30
0.0
 10
97.54135365326744
 20
-110.1518574584273
 30
0.0
 10
97.54135365326744
 20
-108.744566177278
 30
0.0
 10
97.54135365326744
 20
-108.744566177278
 30
0.0
 10
97.54135365326744
 20
-108.744566177278
 30
0.0
 10
97.54135365326744
 20
-107.3372748961282
 30
0.0
 10
97.54135365326744
 20
-107.3372748961282
 30
0.0
 10
97.54135365326744
 20
-107.3372748961282
 30
0.0
 10
97.54135365326744
 20
-105.9299836149783
 30
0.0
 10
97.54135365326744
 20
-105.9299836149783
 30
0.0
 10
97.54135365326744
 20
-105.9299836149783
 30
0.0
 10
97.54135365326744
 20
-104.5226923338284
 30
0.0
 10
97.54135365326744
 20
-104.5226923338284
 30
0.0
 10
97.54135365326744
 20
-104.5226923338284
 30
0.0
 10
97.54135365326744
 20
-103.1154010526789
 30
0.0
 10
97.54135365326744
 20
-103.1154010526789
 30
0.0
 10
97.54135365326744
 20
-103.1154010526789
 30
0.0
 10
97.54135365326744
 20
-101.7081097715294
 30
0.0
 10
97.54135365326744
 20
-101.7081097715294
 30
0.0
 10
97.54135365326744
 20
-101.7081097715294
 30
0.0
 10
97.54135365326744
 20
-100.3008184903795
 30
0.0
 10
97.54135365326744
 20
-100.3008184903795
 30
0.0
 10
97.54135365326744
 20
-100.2561602916409
 30
0.0
 10
97.5428427073551
 20
-100.2117141129884
 30
0.0
 10
97.5457857585144
 20
-100.167540674955
 30
0.0
 10
97.5487288096737
 20
-100.1233672369216
 30
0.0
 10
97.55312585790398
 20
-100.0794665395081
 30
0.0
 10
97.55894184618951
 20
-100.0358993032477
 30
0.0
 10
97.56475783447505
 20
-99.99233206698725
 30
0.0
 10
97.57199276281551
 20
-99.94909829187988
 30
0.0
 10
97.58061157419424
 20
-99.90625869845942
 30
0.0
 10
97.58923038557296
 20
-99.86341910503897
 30
0.0
 10
97.59923307998993
 20
-99.82097369330545
 30
0.0
 10
97.61058460042912
 20
-99.77898318379269
 30
0.0
 10
97.6219361208683
 20
-99.73699267427962
 30
0.0
 10
97.63463646732936
 20
-99.69545706698733
 30
0.0
 10
97.64865058279563
 20
-99.65443708244902
 30
0.0
 10
97.66266469826253
 20
-99.61341709791073
 30
0.0
 10
97.67799258273463
 20
-99.57291273612674
 30
0.0
 10
97.69459917919558
 20
-99.53298471763092
 30
0.0
 10
97.71120577565651
 20
-99.49305669913511
 30
0.0
 10
97.72909108410693
 20
-99.45370502392682
 30
0.0
 10
97.74822004752949
 20
-99.41499041254056
 30
0.0
 10
97.76734901095205
 20
-99.37627580115398
 30
0.0
 10
97.78772162934739
 20
-99.3381982535891
 30
0.0
 10
97.80930284569853
 20
-99.30081849037946
 30
0.0
 10
97.83088406204965
 20
-99.26343872716981
 30
0.0
 10
97.8536738763572
 20
-99.22675674831542
 30
0.0
 10
97.87763723160448
 20
-99.19083327435011
 30
0.0
 10
97.90160058685146
 20
-99.15490980038481
 30
0.0
 10
97.92673748303815
 20
-99.11974483130828
 30
0.0
 10
97.9530128631479
 20
-99.08539908765471
 30
0.0
 10
97.97928824325766
 20
-99.05105334400113
 30
0.0
 10
98.00670210729078
 20
-99.01752682577019
 30
0.0
 10
98.03521939823025
 20
-98.98488025349542
 30
0.0
 10
98.06373668916974
 20
-98.95223368122063
 30
0.0
 10
98.09335740701623
 20
-98.92046705490202
 30
0.0
 10
98.12404649475272
 20
-98.88964109507376
 30
0.0
 10
98.1547355824892
 20
-98.85881513524548
 30
0.0
 10
98.186493040116
 20
-98.82892984190724
 30
0.0
 10
98.21928381061645
 20
-98.80004593559255
 30
0.0
 10
98.25207458111687
 20
-98.77116202927817
 30
0.0
 10
98.28589866449094
 20
-98.74327950998737
 30
0.0
 10
98.3207210037226
 20
-98.71645909825365
 30
0.0
 10
98.35554334295423
 20
-98.68963868651993
 30
0.0
 10
98.39136393804316
 20
-98.66388038234395
 30
0.0
 10
98.42814773197266
 20
-98.63924490625891
 30
0.0
 10
98.46493152590214
 20
-98.61460943017356
 30
0.0
 10
98.50267851867287
 20
-98.59109678217979
 30
0.0
 10
98.54135365326748
 20
-98.5687676828105
 30
0.0
 10
98.54135365326748
 20
-98.5687676828105
 30
0.0
 10
99.76010365326742
 20
-97.86512204223557
 30
0.0
 10
99.76010365326742
 20
-97.86512204223557
 30
0.0
 10
99.76010365326742
 20
-97.86512204223557
 30
0.0
 10
100.9788536532674
 20
-97.16147640166096
 30
0.0
 10
100.9788536532674
 20
-97.16147640166096
 30
0.0
 10
100.9788536532674
 20
-97.16147640166096
 30
0.0
 10
102.1976036532673
 20
-96.45783076108603
 30
0.0
 10
102.1976036532673
 20
-96.45783076108603
 30
0.0
 10
102.1976036532673
 20
-96.45783076108603
 30
0.0
 10
103.4163536532676
 20
-95.7541851205111
 30
0.0
 10
103.4163536532676
 20
-95.7541851205111
 30
0.0
 10
103.4163536532676
 20
-95.7541851205111
 30
0.0
 10
104.6351036532678
 20
-95.05053947993616
 30
0.0
 10
104.6351036532678
 20
-95.05053947993616
 30
0.0
 10
104.6351036532678
 20
-95.05053947993616
 30
0.0
 10
105.8538536532678
 20
-94.34689383936123
 30
0.0
 10
105.8538536532678
 20
-94.34689383936123
 30
0.0
 10
105.8538536532678
 20
-94.34689383936123
 30
0.0
 10
107.0726036532677
 20
-93.64324819878661
 30
0.0
 10
107.0726036532677
 20
-93.64324819878661
 30
0.0
 10
107.0726036532677
 20
-93.64324819878661
 30
0.0
 10
108.2913536532677
 20
-92.93960255821167
 30
0.0
 10
108.2913536532677
 20
-92.93960255821167
 30
0.0
 10
108.2913536532677
 20
-92.93960255821167
 30
0.0
 10
109.5101036532676
 20
-92.23595691763674
 30
0.0
 10
109.5101036532676
 20
-92.23595691763674
 30
0.0
 10
109.5101036532676
 20
-92.23595691763674
 30
0.0
 10
110.7288536532675
 20
-91.53231127706213
 30
0.0
 10
110.7288536532675
 20
-91.53231127706213
 30
0.0
 10
110.7288536532675
 20
-91.53231127706213
 30
0.0
 10
111.9476036532675
 20
-90.8286656364872
 30
0.0
 10
111.9476036532675
 20
-90.8286656364872
 30
0.0
 10
111.9476036532675
 20
-90.8286656364872
 30
0.0
 10
113.1663536532674
 20
-90.12501999591227
 30
0.0
 10
113.1663536532674
 20
-90.12501999591227
 30
0.0
 10
113.1663536532674
 20
-90.12501999591227
 30
0.0
 10
114.3851036532674
 20
-89.42137435533733
 30
0.0
 10
114.3851036532674
 20
-89.42137435533733
 30
0.0
 10
114.3851036532674
 20
-89.42137435533733
 30
0.0
 10
115.6038536532673
 20
-88.7177287147624
 30
0.0
 10
115.6038536532673
 20
-88.7177287147624
 30
0.0
 10
115.6038536532673
 20
-88.7177287147624
 30
0.0
 10
116.8226036532673
 20
-88.0140830741878
 30
0.0
 10
116.8226036532673
 20
-88.0140830741878
 30
0.0
 10
116.8226036532673
 20
-88.0140830741878
 30
0.0
 10
118.0413536532675
 20
-87.31043743361286
 30
0.0
 10
118.0413536532675
 20
-87.31043743361286
 30
0.0
 10
118.0800287878625
 20
-87.28810833424357
 30
0.0
 10
118.1192648347205
 20
-87.26717480358509
 30
0.0
 10
118.1589916798093
 20
-87.24763684163709
 30
0.0
 10
118.1987185248984
 20
-87.22809887968909
 30
0.0
 10
118.2389361682176
 20
-87.20995648645156
 30
0.0
 10
118.2795744957345
 20
-87.19320966192453
 30
0.0
 10
118.3202128232513
 20
-87.17646283739748
 30
0.0
 10
118.3612718349659
 20
-87.16111158158093
 30
0.0
 10
118.4026814168454
 20
-87.14715589447516
 30
0.0
 10
118.4440909987245
 20
-87.1332002073694
 30
0.0
 10
118.4858511507683
 20
-87.12064008897444
 30
0.0
 10
118.527891758944
 20
-87.10947553928963
 30
0.0
 10
118.5699323671196
 20
-87.09831098960483
 30
0.0
 10
118.6122534314269
 20
-87.08854200863082
 30
0.0
 10
118.6547848378332
 20
-87.0801685963673
 30
0.0
 10
118.6973162442393
 20
-87.07179518410379
 30
0.0
 10
118.7400579927442
 20
-87.06481734055106
 30
0.0
 10
118.7829399693152
 20
-87.05923506570882
 30
0.0
 10
118.8258219458862
 20
-87.05365279086627
 30
0.0
 10
118.8688441505227
 20
-87.04946608473482
 30
0.0
 10
118.9119364691926
 20
-87.04667494731355
 30
0.0
 10
118.9550287878621
 20
-87.04388380989226
 30
0.0
 10
118.998191220565
 20
-87.04248824118179
 30
0.0
 10
119.0413536532676
 20
-87.04248824118179
 30
0.0
 10
119.0845160859701
 20
-87.04248824118179
 30
0.0
 10
119.127678518673
 20
-87.04388380989226
 30
0.0
 10
119.1707708373426
 20
-87.04667494731355
 30
0.0
 10
119.2138631560124
 20
-87.04946608473482
 30
0.0
 10
119.2568853606489
 20
-87.05365279086627
 30
0.0
 10
119.2997673372199
 20
-87.05923506570882
 30
0.0
 10
119.3426493137909
 20
-87.06481734055106
 30
0.0
 10
119.3853910622958
 20
-87.07179518410379
 30
0.0
 10
119.4279224687019
 20
-87.0801685963673
 30
0.0
 10
119.4704538751083
 20
-87.08854200863082
 30
0.0
 10
119.5127749394155
 20
-87.09831098960483
 30
0.0
 10
119.5548155475912
 20
-87.10947553928963
 30
0.0
 10
119.5968561557668
 20
-87.12064008897444
 30
0.0
 10
119.6386163078106
 20
-87.1332002073694
 30
0.0
 10
119.6800258896898
 20
-87.14715589447516
 30
0.0
 10
119.7214354715692
 20
-87.16111158158093
 30
0.0
 10
119.7624944832838
 20
-87.17646283739748
 30
0.0
 10
119.8031328108006
 20
-87.19320966192453
 30
0.0
 10
119.8437711383175
 20
-87.20995648645156
 30
0.0
 10
119.8839887816367
 20
-87.22809887968909
 30
0.0
 10
119.9237156267258
 20
-87.24763684163709
 30
0.0
 10
119.9634424718146
 20
-87.26717480358509
 30
0.0
 10
120.0026785186727
 20
-87.28810833424357
 30
0.0
 10
120.0413536532676
 20
-87.31043743361286
 30
0.0
  0
ENDBLK
  5
48
330
45
100
AcDbEntity
  8
0
100
AcDbBlockEnd
  0
BLOCK
  5
4C
330
4A
100
AcDbEntity
  8
0
100
AcDbBlockBegin
  2
BLOCK_4
 70
     0
 10
0.0
 20
0.0
 30
0.0
  3
BLOCK_4
  1

  0
SPLINE
  5
4E
330
4A
100
AcDbEntity
  8
LAYER_1
 62
     7
100
AcDbSpline
210
0.0
220
0.0
230
1.0
 70
    11
 71
     3
 72
   245
 73
   241
 74
     0
 42
0.0000000001
 43
0.0000000001
 12
1.0
 22
0.0
 32
0.0
 13
1.0
 23
0.0
 33
0.0
 40
0.0
 40
0.0
 40
0.0
 40
0.0
 40
1.0
 40
1.0
 40
1.0
 40
2.0
 40
2.0
 40
2.0
 40
3.0
 40
3.0
 40
3.0
 40
4.0
 40
4.0
 40
4.0
 40
5.0
 40
5.0
 40
5.0
 40
6.0
 40
6.0
 40
6.0
 40
7.0
 40
7.0
 40
7.0
 40
8.0
 40
8.0
 40
8.0
 40
9.0
 40
9.0
 40
9.0
 40
10.0
 40
10.0
 40
10.0
 40
11.0
 40
11.0
 40
11.0
 40
12.0
 40
12.0
 40
12.0
 40
13.0
 40
13.0
 40
13.0
 40
14.0
 40
14.0
 40
14.0
 40
15.0
 40
15.0
 40
15.0
 40
16.0
 40
16.0
 40
16.0
 40
17.0
 40
17.0
 40
17.0
 40
18.0
 40
18.0
 40
18.0
 40
19.0
 40
19.0
 40
19.0
 40
20.0
 40
20.0
 40
20.0
 40
21.0
 40
21.0
 40
21.0
 40
22.0
 40
22.0
 40
22.0
 40
23.0
 40
23.0
 40
23.0
 40
24.0
 40
24.0
 40
24.0
 40
25.0
 40
25.0
 40
25.0
 40
26.0
 40
26.0
 40
26.0
 40
27.0
 40
27.0
 40
27.0
 40
28.0
 40
28.0
 40
28.0
 40
29.0
 40
29.0
 40
29.0
 40
30.0
 40
30.0
 40
30.0
 40
31.0
 40
31.0
 40
31.0
 40
32.0
 40
32.0
 40
32.0
 40
33.0
 40
33.0
 40
33.0
 40
34.0
 40
34.0
 40
34.0
 40
35.0
 40
35.0
 40
35.0
 40
36.0
 40
36.0
 40
36.0
 40
37.0
 40
37.0
 40
37.0
 40
38.0
 40
38.0
 40
38.0
 40
39.0
 40
39.0
 40
39.0
 40
40.0
 40
40.0
 40
40.0
 40
41.0
 40
41.0
 40
41.0
 40
42.0
 40
42.0
 40
42.0
 40
43.0
 40
43.0
 40
43.0
 40
44.0
 40
44.0
 40
44.0
 40
45.0
 40
45.0
 40
45.0
 40
46.0
 40
46.0
 40
46.0
 40
47.0
 40
47.0
 40
47.0
 40
48.0
 40
48.0
 40
48.0
 40
49.0
 40
49.0
 40
49.0
 40
50.0
 40
50.0
 40
50.0
 40
51.0
 40
51.0
 40
51.0
 40
52.0
 40
52.0
 40
52.0
 40
53.0
 40
53.0
 40
53.0
 40
54.0
 40
54.0
 40
54.0
 40
55.0
 40
55.0
 40
55.0
 40
56.0
 40
56.0
 40
56.0
 40
57.0
 40
57.0
 40
57.0
 40
58.0
 40
58.0
 40
58.0
 40
59.0
 40
59.0
 40
59.0
 40
60.0
 40
60.0
 40
60.0
 40
61.0
 40
61.0
 40
61.0
 40
62.0
 40
62.0
 40
62.0
 40
63.0
 40
63.0
 40
63.0
 40
64.0
 40
64.0
 40
64.0
 40
65.0
 40
65.0
 40
65.0
 40
66.0
 40
66.0
 40
66.0
 40
67.0
 40
67.0
 40
67.0
 40
68.0
 40
68.0
 40
68.0
 40
69.0
 40
69.0
 40
69.0
 40
70.0
 40
70.0
 40
70.0
 40
71.0
 40
71.0
 40
71.0
 40
72.0
 40
72.0
 40
72.0
 40
73.0
 40
73.0
 40
73.0
 40
74.0
 40
74.0
 40
74.0
 40
75.0
 40
75.0
 40
75.0
 40
76.0
 40
76.0
 40
76.0
 40
77.0
 40
77.0
 40
77.0
 40
78.0
 40
78.0
 40
78.0
 40
79.0
 40
79.0
 40
79.0
 40
80.0
 40
80.0
 40
80.0
 40
80.0
 10
125.6913536532673
 20
-97.269729577134
 30
0.0
 10
125.6913536532673
 20
-97.2145011021509
 30
0.0
 10
125.694151873581
 20
-97.15992618654096
 30
0.0
 10
125.6996142728994
 20
-97.10613887161217
 30
0.0
 10
125.7050766722177
 20
-97.05235155668372
 30
0.0
 10
125.7132032505405
 20
-96.99935184243706
 30
0.0
 10
125.7238599665596
 20
-96.94727377018057
 30
0.0
 10
125.7345166825787
 20
-96.89519569792408
 30
0.0
 10
125.7477035362938
 20
-96.84403926765837
 30
0.0
 10
125.763286486396
 20
-96.79393852069148
 30
0.0
 10
125.7788694364981
 20
-96.74383777372492
 30
0.0
 10
125.7968484829877
 20
-96.69479271005748
 30
0.0
 10
125.8170895845556
 20
-96.64693737099817
 30
0.0
 10
125.8373306861232
 20
-96.59908203193886
 30
0.0
 10
125.8598338427695
 20
-96.55241641748768
 30
0.0
 10
125.8844650131852
 20
-96.50707456895326
 30
0.0
 10
125.9090961836009
 20
-96.46173272041885
 30
0.0
 10
125.9358553677864
 20
-96.4177146378009
 30
0.0
 10
125.9646085244325
 20
-96.37515436240903
 30
0.0
 10
125.9933616810787
 20
-96.33259408701718
 30
0.0
 10
126.0241088101856
 20
-96.29149161885076
 30
0.0
 10
126.0567158704449
 20
-96.2519809992191
 30
0.0
 10
126.0893229307039
 20
-96.2124703795871
 30
0.0
 10
126.1237899221149
 20
-96.17455160848986
 30
0.0
 10
126.1599828033691
 20
-96.1383587272354
 30
0.0
 10
126.1961756846232
 20
-96.10216584598093
 30
0.0
 10
126.2340944557208
 20
-96.0676988545702
 30
0.0
 10
126.2736050753525
 20
-96.03509179431121
 30
0.0
 10
126.3131156949844
 20
-96.00248473405223
 30
0.0
 10
126.3542181631505
 20
-95.97173760494533
 30
0.0
 10
126.3967784385427
 20
-95.94298444829916
 30
0.0
 10
126.4393387139349
 20
-95.91423129165298
 30
0.0
 10
126.4833567965522
 20
-95.88747210746756
 30
0.0
 10
126.5286986450866
 20
-95.86284093705184
 30
0.0
 10
126.574040493621
 20
-95.83820976663581
 30
0.0
 10
126.6207061080726
 20
-95.81570660998983
 30
0.0
 10
126.6685614471319
 20
-95.79546550842191
 30
0.0
 10
126.7164167861912
 20
-95.77522440685398
 30
0.0
 10
126.7654618498586
 20
-95.75724536036476
 30
0.0
 10
126.8155625968252
 20
-95.74166241026259
 30
0.0
 10
126.8656633437917
 20
-95.72607946016042
 30
0.0
 10
126.9168197740574
 20
-95.7128926064453
 30
0.0
 10
126.9688978463139
 20
-95.7022358904262
 30
0.0
 10
127.0209759185704
 20
-95.69157917440711
 30
0.0
 10
127.0739756328171
 20
-95.68345259608436
 30
0.0
 10
127.1277629477456
 20
-95.67799019676599
 30
0.0
 10
127.1815502626743
 20
-95.67252779744761
 30
0.0
 10
127.2361251782843
 20
-95.66972957713395
 30
0.0
 10
127.2913536532674
 20
-95.66972957713395
 30
0.0
 10
127.3465821282505
 20
-95.66972957713395
 30
0.0
 10
127.4011570438607
 20
-95.67252779744761
 30
0.0
 10
127.4549443587892
 20
-95.67799019676599
 30
0.0
 10
127.5087316737176
 20
-95.68345259608436
 30
0.0
 10
127.5617313879646
 20
-95.69157917440711
 30
0.0
 10
127.6138094602211
 20
-95.7022358904262
 30
0.0
 10
127.6658875324773
 20
-95.7128926064453
 30
0.0
 10
127.7170439627433
 20
-95.72607946016042
 30
0.0
 10
127.7671447097099
 20
-95.74166241026259
 30
0.0
 10
127.8172454566764
 20
-95.75724536036476
 30
0.0
 10
127.8662905203439
 20
-95.77522440685398
 30
0.0
 10
127.9141458594032
 20
-95.79546550842191
 30
0.0
 10
127.9620011984625
 20
-95.81570660998983
 30
0.0
 10
128.0086668129137
 20
-95.83820976663581
 30
0.0
 10
128.0540086614481
 20
-95.86284093705184
 30
0.0
 10
128.0993505099825
 20
-95.88747210746756
 30
0.0
 10
128.1433685926005
 20
-95.91423129165298
 30
0.0
 10
128.1859288679923
 20
-95.94298444829916
 30
0.0
 10
128.2284891433842
 20
-95.97173760494533
 30
0.0
 10
128.2695916115506
 20
-96.00248473405223
 30
0.0
 10
128.3091022311823
 20
-96.03509179431121
 30
0.0
 10
128.3486128508143
 20
-96.0676988545702
 30
0.0
 10
128.3865316219115
 20
-96.10216584598093
 30
0.0
 10
128.422724503166
 20
-96.1383587272354
 30
0.0
 10
128.4589173844204
 20
-96.17455160848986
 30
0.0
 10
128.4933843758312
 20
-96.2124703795871
 30
0.0
 10
128.5259914360902
 20
-96.2519809992191
 30
0.0
 10
128.5585984963491
 20
-96.29149161885076
 30
0.0
 10
128.589345625456
 20
-96.33259408701718
 30
0.0
 10
128.6180987821022
 20
-96.37515436240903
 30
0.0
 10
128.6468519387484
 20
-96.4177146378009
 30
0.0
 10
128.6736111229338
 20
-96.46173272041885
 30
0.0
 10
128.6982422933495
 20
-96.50707456895326
 30
0.0
 10
128.7228734637656
 20
-96.55241641748768
 30
0.0
 10
128.7453766204115
 20
-96.59908203193886
 30
0.0
 10
128.7656177219795
 20
-96.64693737099817
 30
0.0
 10
128.7858588235474
 20
-96.69479271005748
 30
0.0
 10
128.8038378700366
 20
-96.74383777372492
 30
0.0
 10
128.8194208201388
 20
-96.79393852069148
 30
0.0
 10
128.8350037702409
 20
-96.84403926765837
 30
0.0
 10
128.8481906239561
 20
-96.89519569792408
 30
0.0
 10
128.8588473399752
 20
-96.94727377018057
 30
0.0
 10
128.8695040559943
 20
-96.99935184243706
 30
0.0
 10
128.877630634317
 20
-97.05235155668372
 30
0.0
 10
128.8830930336354
 20
-97.10613887161217
 30
0.0
 10
128.8885554329538
 20
-97.15992618654096
 30
0.0
 10
128.8913536532674
 20
-97.2145011021509
 30
0.0
 10
128.8913536532674
 20
-97.269729577134
 30
0.0
 10
128.8913536532674
 20
-97.3249580521171
 30
0.0
 10
128.8885554329538
 20
-97.37953296772704
 30
0.0
 10
128.8830930336354
 20
-97.43332028265583
 30
0.0
 10
128.877630634317
 20
-97.48710759758428
 30
0.0
 10
128.8695040559943
 20
-97.54010731183094
 30
0.0
 10
128.8588473399752
 20
-97.59218538408743
 30
0.0
 10
128.8481906239561
 20
-97.64426345634392
 30
0.0
 10
128.8350037702409
 20
-97.69541988660963
 30
0.0
 10
128.8194208201388
 20
-97.74552063357619
 30
0.0
 10
128.8038378700366
 20
-97.79562138054276
 30
0.0
 10
128.7858588235474
 20
-97.84466644421019
 30
0.0
 10
128.7656177219795
 20
-97.8925217832695
 30
0.0
 10
128.7453766204115
 20
-97.94037712232881
 30
0.0
 10
128.7228734637656
 20
-97.98704273678032
 30
0.0
 10
128.6982422933495
 20
-98.03238458531473
 30
0.0
 10
128.6736111229338
 20
-98.07772643384915
 30
0.0
 10
128.6468519387484
 20
-98.12174451646645
 30
0.0
 10
128.6180987821022
 20
-98.16430479185864
 30
0.0
 10
128.589345625456
 20
-98.20686506725082
 30
0.0
 10
128.5585984963491
 20
-98.24796753541692
 30
0.0
 10
128.5259914360902
 20
-98.2874781550489
 30
0.0
 10
128.4933843758312
 20
-98.32698877468057
 30
0.0
 10
128.4589173844204
 20
-98.36490754577814
 30
0.0
 10
128.422724503166
 20
-98.40110042703228
 30
0.0
 10
128.3865316219115
 20
-98.43729330828643
 30
0.0
 10
128.3486128508143
 20
-98.47176029969748
 30
0.0
 10
128.3091022311823
 20
-98.50436735995646
 30
0.0
 10
128.2695916115506
 20
-98.53697442021577
 30
0.0
 10
128.2284891433842
 20
-98.56772154932267
 30
0.0
 10
128.1859288679923
 20
-98.59647470596884
 30
0.0
 10
128.1433685926005
 20
-98.625227862615
 30
0.0
 10
128.0993505099825
 20
-98.65198704680044
 30
0.0
 10
128.0540086614481
 20
-98.67661821721615
 30
0.0
 10
128.0086668129137
 20
-98.70124938763186
 30
0.0
 10
127.9620011984625
 20
-98.72375254427817
 30
0.0
 10
127.9141458594032
 20
-98.74399364584578
 30
0.0
 10
127.8662905203439
 20
-98.76423474741337
 30
0.0
 10
127.8172454566764
 20
-98.78221379390291
 30
0.0
 10
127.7671447097099
 20
-98.79779674400508
 30
0.0
 10
127.7170439627433
 20
-98.81337969410725
 30
0.0
 10
127.6658875324773
 20
-98.82656654782238
 30
0.0
 10
127.6138094602211
 20
-98.83722326384148
 30
0.0
 10
127.5617313879646
 20
-98.84787997986058
 30
0.0
 10
127.5087316737176
 20
-98.85600655818364
 30
0.0
 10
127.4549443587892
 20
-98.86146895750201
 30
0.0
 10
127.4011570438607
 20
-98.86693135682037
 30
0.0
 10
127.3465821282505
 20
-98.86972957713374
 30
0.0
 10
127.2913536532674
 20
-98.86972957713374
 30
0.0
 10
127.2361251782843
 20
-98.86972957713374
 30
0.0
 10
127.1815502626743
 20
-98.86693135682037
 30
0.0
 10
127.1277629477456
 20
-98.86146895750201
 30
0.0
 10
127.0739756328171
 20
-98.85600655818364
 30
0.0
 10
127.0209759185704
 20
-98.84787997986058
 30
0.0
 10
126.9688978463139
 20
-98.83722326384148
 30
0.0
 10
126.9168197740574
 20
-98.82656654782238
 30
0.0
 10
126.8656633437917
 20
-98.81337969410725
 30
0.0
 10
126.8155625968252
 20
-98.79779674400508
 30
0.0
 10
126.7654618498586
 20
-98.78221379390291
 30
0.0
 10
126.7164167861912
 20
-98.76423474741337
 30
0.0
 10
126.6685614471319
 20
-98.74399364584578
 30
0.0
 10
126.6207061080726
 20
-98.72375254427817
 30
0.0
 10
126.574040493621
 20
-98.70124938763186
 30
0.0
 10
126.5286986450866
 20
-98.67661821721615
 30
0.0
 10
126.4833567965522
 20
-98.65198704680044
 30
0.0
 10
126.4393387139349
 20
-98.625227862615
 30
0.0
 10
126.3967784385427
 20
-98.59647470596884
 30
0.0
 10
126.3542181631505
 20
-98.56772154932267
 30
0.0
 10
126.3131156949844
 20
-98.53697442021577
 30
0.0
 10
126.2736050753525
 20
-98.50436735995646
 30
0.0
 10
126.2340944557208
 20
-98.47176029969748
 30
0.0
 10
126.1961756846232
 20
-98.43729330828643
 30
0.0
 10
126.1599828033691
 20
-98.40110042703228
 30
0.0
 10
126.1237899221149
 20
-98.36490754577814
 30
0.0
 10
126.0893229307039
 20
-98.32698877468057
 30
0.0
 10
126.0567158704449
 20
-98.2874781550489
 30
0.0
 10
126.0241088101856
 20
-98.24796753541692
 30
0.0
 10
125.9933616810787
 20
-98.20686506725082
 30
0.0
 10
125.9646085244325
 20
-98.16430479185864
 30
0.0
 10
125.9358553677864
 20
-98.12174451646645
 30
0.0
 10
125.9090961836009
 20
-98.07772643384915
 30
0.0
 10
125.8844650131852
 20
-98.03238458531473
 30
0.0
 10
125.8598338427695
 20
-97.98704273678032
 30
0.0
 10
125.8373306861232
 20
-97.94037712232881
 30
0.0
 10
125.8170895845556
 20
-97.8925217832695
 30
0.0
 10
125.7968484829877
 20
-97.84466644421019
 30
0.0
 10
125.7788694364981
 20
-97.79562138054276
 30
0.0
 10
125.763286486396
 20
-97.74552063357619
 30
0.0
 10
125.7477035362938
 20
-97.69541988660963
 30
0.0
 10
125.7345166825787
 20
-97.64426345634392
 30
0.0
 10
125.7238599665596
 20
-97.59218538408743
 30
0.0
 10
125.7132032505405
 20
-97.54010731183094
 30
0.0
 10
125.7050766722177
 20
-97.48710759758428
 30
0.0
 10
125.6996142728994
 20
-97.43332028265583
 30
0.0
 10
125.694151873581
 20
-97.37953296772704
 30
0.0
 10
125.6913536532673
 20
-97.3249580521171
 30
0.0
 10
125.6913536532673
 20
-97.269729577134
 30
0.0
 10
125.6913536532673
 20
-97.269729577134
 30
0.0
 10
125.6913536532673
 20
-97.269729577134
 30
0.0
 10
125.6913536532673
 20
-97.269729577134
 30
0.0
 10
125.6913536532673
 20
-97.269729577134
 30
0.0
 10
125.6913536532673
 20
-97.269729577134
 30
0.0
 10
125.6913536532673
 20
-97.269729577134
 30
0.0
 10
125.6913536532673
 20
-97.269729577134
 30
0.0
 10
125.6913536532673
 20
-97.269729577134
 30
0.0
 10
125.6913536532673
 20
-97.269729577134
 30
0.0
 10
125.6913536532673
 20
-97.269729577134
 30
0.0
 10
125.6913536532673
 20
-97.269729577134
 30
0.0
 10
125.6913536532673
 20
-97.269729577134
 30
0.0
 10
125.6913536532673
 20
-97.269729577134
 30
0.0
 10
125.6913536532673
 20
-97.269729577134
 30
0.0
 10
125.6913536532673
 20
-97.269729577134
 30
0.0
 10
125.6913536532673
 20
-97.269729577134
 30
0.0
 10
125.6913536532673
 20
-97.269729577134
 30
0.0
 10
125.6913536532673
 20
-97.269729577134
 30
0.0
 10
125.6913536532673
 20
-97.269729577134
 30
0.0
 10
125.6913536532673
 20
-97.269729577134
 30
0.0
 10
125.6913536532673
 20
-97.269729577134
 30
0.0
 10
125.6913536532673
 20
-97.269729577134
 30
0.0
 10
125.6913536532673
 20
-97.269729577134
 30
0.0
 10
125.6913536532673
 20
-97.269729577134
 30
0.0
 10
125.6913536532673
 20
-97.269729577134
 30
0.0
 10
125.6913536532673
 20
-97.269729577134
 30
0.0
 10
125.6913536532673
 20
-97.269729577134
 30
0.0
 10
125.6913536532673
 20
-97.269729577134
 30
0.0
 10
125.6913536532673
 20
-97.269729577134
 30
0.0
 10
125.6913536532673
 20
-97.269729577134
 30
0.0
 10
125.6913536532673
 20
-97.269729577134
 30
0.0
 10
125.6913536532673
 20
-97.269729577134
 30
0.0
 10
125.6913536532673
 20
-97.269729577134
 30
0.0
 10
125.6913536532673
 20
-97.269729577134
 30
0.0
 10
125.6913536532673
 20
-97.269729577134
 30
0.0
 10
125.6913536532673
 20
-97.269729577134
 30
0.0
 10
125.6913536532673
 20
-97.269729577134
 30
0.0
 10
125.6913536532673
 20
-97.269729577134
 30
0.0
 10
125.6913536532673
 20
-97.269729577134
 30
0.0
 10
125.6913536532673
 20
-97.269729577134
 30
0.0
 10
125.6913536532673
 20
-97.269729577134
 30
0.0
 10
125.6913536532673
 20
-97.269729577134
 30
0.0
 10
125.6913536532673
 20
-97.269729577134
 30
0.0
 10
125.6913536532673
 20
-97.269729577134
 30
0.0
 10
125.6913536532673
 20
-97.269729577134
 30
0.0
 10
125.6913536532673
 20
-97.269729577134
 30
0.0
 10
125.6913536532673
 20
-97.269729577134
 30
0.0
 10
125.6913536532673
 20
-97.269729577134
 30
0.0
  0
ENDBLK
  5
4D
330
4A
100
AcDbEntity
  8
0
100
AcDbBlockEnd
  0
BLOCK
  5
51
330
4F
100
AcDbEntity
  8
0
100
AcDbBlockBegin
  2
BLOCK_5
 70
     0
 10
0.0
 20
0.0
 30
0.0
  3
BLOCK_5
  1

  0
SPLINE
  5
53
330
4F
100
AcDbEntity
  8
LAYER_1
 62
     7
100
AcDbSpline
210
0.0
220
0.0
230
1.0
 70
    11
 71
     3
 72
   245
 73
   241
 74
     0
 42
0.0000000001
 43
0.0000000001
 12
1.0
 22
0.0
 32
0.0
 13
1.0
 23
0.0
 33
0.0
 40
0.0
 40
0.0
 40
0.0
 40
0.0
 40
1.0
 40
1.0
 40
1.0
 40
2.0
 40
2.0
 40
2.0
 40
3.0
 40
3.0
 40
3.0
 40
4.0
 40
4.0
 40
4.0
 40
5.0
 40
5.0
 40
5.0
 40
6.0
 40
6.0
 40
6.0
 40
7.0
 40
7.0
 40
7.0
 40
8.0
 40
8.0
 40
8.0
 40
9.0
 40
9.0
 40
9.0
 40
10.0
 40
10.0
 40
10.0
 40
11.0
 40
11.0
 40
11.0
 40
12.0
 40
12.0
 40
12.0
 40
13.0
 40
13.0
 40
13.0
 40
14.0
 40
14.0
 40
14.0
 40
15.0
 40
15.0
 40
15.0
 40
16.0
 40
16.0
 40
16.0
 40
17.0
 40
17.0
 40
17.0
 40
18.0
 40
18.0
 40
18.0
 40
19.0
 40
19.0
 40
19.0
 40
20.0
 40
20.0
 40
20.0
 40
21.0
 40
21.0
 40
21.0
 40
22.0
 40
22.0
 40
22.0
 40
23.0
 40
23.0
 40
23.0
 40
24.0
 40
24.0
 40
24.0
 40
25.0
 40
25.0
 40
25.0
 40
26.0
 40
26.0
 40
26.0
 40
27.0
 40
27.0
 40
27.0
 40
28.0
 40
28.0
 40
28.0
 40
29.0
 40
29.0
 40
29.0
 40
30.0
 40
30.0
 40
30.0
 40
31.0
 40
31.0
 40
31.0
 40
32.0
 40
32.0
 40
32.0
 40
33.0
 40
33.0
 40
33.0
 40
34.0
 40
34.0
 40
34.0
 40
35.0
 40
35.0
 40
35.0
 40
36.0
 40
36.0
 40
36.0
 40
37.0
 40
37.0
 40
37.0
 40
38.0
 40
38.0
 40
38.0
 40
39.0
 40
39.0
 40
39.0
 40
40.0
 40
40.0
 40
40.0
 40
41.0
 40
41.0
 40
41.0
 40
42.0
 40
42.0
 40
42.0
 40
43.0
 40
43.0
 40
43.0
 40
44.0
 40
44.0
 40
44.0
 40
45.0
 40
45.0
 40
45.0
 40
46.0
 40
46.0
 40
46.0
 40
47.0
 40
47.0
 40
47.0
 40
48.0
 40
48.0
 40
48.0
 40
49.0
 40
49.0
 40
49.0
 40
50.0
 40
50.0
 40
50.0
 40
51.0
 40
51.0
 40
51.0
 40
52.0
 40
52.0
 40
52.0
 40
53.0
 40
53.0
 40
53.0
 40
54.0
 40
54.0
 40
54.0
 40
55.0
 40
55.0
 40
55.0
 40
56.0
 40
56.0
 40
56.0
 40
57.0
 40
57.0
 40
57.0
 40
58.0
 40
58.0
 40
58.0
 40
59.0
 40
59.0
 40
59.0
 40
60.0
 40
60.0
 40
60.0
 40
61.0
 40
61.0
 40
61.0
 40
62.0
 40
62.0
 40
62.0
 40
63.0
 40
63.0
 40
63.0
 40
64.0
 40
64.0
 40
64.0
 40
65.0
 40
65.0
 40
65.0
 40
66.0
 40
66.0
 40
66.0
 40
67.0
 40
67.0
 40
67.0
 40
68.0
 40
68.0
 40
68.0
 40
69.0
 40
69.0
 40
69.0
 40
70.0
 40
70.0
 40
70.0
 40
71.0
 40
71.0
 40
71.0
 40
72.0
 40
72.0
 40
72.0
 40
73.0
 40
73.0
 40
73.0
 40
74.0
 40
74.0
 40
74.0
 40
75.0
 40
75.0
 40
75.0
 40
76.0
 40
76.0
 40
76.0
 40
77.0
 40
77.0
 40
77.0
 40
78.0
 40
78.0
 40
78.0
 40
79.0
 40
79.0
 40
79.0
 40
80.0
 40
80.0
 40
80.0
 40
80.0
 10
126.1913536532677
 20
-126.7145933058049
 30
0.0
 10
126.1913536532677
 20
-126.6593648308222
 30
0.0
 10
126.1941518735813
 20
-126.6047899152116
 30
0.0
 10
126.1996142728997
 20
-126.5510026002828
 30
0.0
 10
126.2050766722181
 20
-126.4972152853546
 30
0.0
 10
126.2132032505408
 20
-126.4442155711077
 30
0.0
 10
126.2238599665599
 20
-126.3921374988515
 30
0.0
 10
126.234516682579
 20
-126.3400594265947
 30
0.0
 10
126.2477035362941
 20
-126.2889029963287
 30
0.0
 10
126.2632864863963
 20
-126.2388022493624
 30
0.0
 10
126.2788694364985
 20
-126.1887015023955
 30
0.0
 10
126.2968484829877
 20
-126.1396564387284
 30
0.0
 10
126.3170895845556
 20
-126.0918010996688
 30
0.0
 10
126.3373306861235
 20
-126.0439457606091
 30
0.0
 10
126.3598338427695
 20
-125.9972801461583
 30
0.0
 10
126.3844650131856
 20
-125.9519382976239
 30
0.0
 10
126.4090961836013
 20
-125.9065964490895
 30
0.0
 10
126.4358553677867
 20
-125.8625783664721
 30
0.0
 10
126.4646085244329
 20
-125.8200180910803
 30
0.0
 10
126.493361681079
 20
-125.7774578156878
 30
0.0
 10
126.5241088101859
 20
-125.736355347522
 30
0.0
 10
126.5567158704449
 20
-125.69684472789
 30
0.0
 10
126.5893229307039
 20
-125.657334108258
 30
0.0
 10
126.6237899221146
 20
-125.6194153371611
 30
0.0
 10
126.6599828033691
 20
-125.5832224559063
 30
0.0
 10
126.6961756846236
 20
-125.5470295746515
 30
0.0
 10
126.7340944557208
 20
-125.5125625832408
 30
0.0
 10
126.7736050753528
 20
-125.4799555229818
 30
0.0
 10
126.8131156949845
 20
-125.4473484627228
 30
0.0
 10
126.8542181631509
 20
-125.4166013336156
 30
0.0
 10
126.8967784385428
 20
-125.3878481769698
 30
0.0
 10
126.9393387139346
 20
-125.3590950203239
 30
0.0
 10
126.9833567965526
 20
-125.3323358361382
 30
0.0
 10
127.028698645087
 20
-125.3077046657221
 30
0.0
 10
127.0740404936214
 20
-125.2830734953068
 30
0.0
 10
127.1207061080726
 20
-125.2605703386604
 30
0.0
 10
127.1685614471319
 20
-125.2403292370928
 30
0.0
 10
127.2164167861912
 20
-125.2200881355252
 30
0.0
 10
127.2654618498586
 20
-125.2021090890357
 30
0.0
 10
127.3155625968252
 20
-125.1865261389338
 30
0.0
 10
127.3656633437918
 20
-125.1709431888313
 30
0.0
 10
127.4168197740578
 20
-125.1577563351159
 30
0.0
 10
127.468897846314
 20
-125.1470996190971
 30
0.0
 10
127.5209759185705
 20
-125.1364429030783
 30
0.0
 10
127.5739756328174
 20
-125.128316324755
 30
0.0
 10
127.6277629477459
 20
-125.1228539254366
 30
0.0
 10
127.6815502626743
 20
-125.1173915261182
 30
0.0
 10
127.7361251782846
 20
-125.1145933058049
 30
0.0
 10
127.7913536532677
 20
-125.1145933058049
 30
0.0
 10
127.8465821282508
 20
-125.1145933058049
 30
0.0
 10
127.9011570438607
 20
-125.1173915261182
 30
0.0
 10
127.9549443587895
 20
-125.1228539254366
 30
0.0
 10
128.008731673718
 20
-125.128316324755
 30
0.0
 10
128.0617313879646
 20
-125.1364429030783
 30
0.0
 10
128.1138094602211
 20
-125.1470996190971
 30
0.0
 10
128.1658875324776
 20
-125.1577563351159
 30
0.0
 10
128.2170439627433
 20
-125.1709431888313
 30
0.0
 10
128.2671447097099
 20
-125.1865261389338
 30
0.0
 10
128.3172454566765
 20
-125.2021090890357
 30
0.0
 10
128.3662905203439
 20
-125.2200881355252
 30
0.0
 10
128.4141458594032
 20
-125.2403292370928
 30
0.0
 10
128.4620011984625
 20
-125.2605703386604
 30
0.0
 10
128.508666812914
 20
-125.2830734953068
 30
0.0
 10
128.5540086614484
 20
-125.3077046657221
 30
0.0
 10
128.5993505099829
 20
-125.3323358361382
 30
0.0
 10
128.6433685926002
 20
-125.3590950203239
 30
0.0
 10
128.6859288679923
 20
-125.3878481769698
 30
0.0
 10
128.7284891433845
 20
-125.4166013336156
 30
0.0
 10
128.7695916115506
 20
-125.4473484627228
 30
0.0
 10
128.8091022311826
 20
-125.4799555229818
 30
0.0
 10
128.8486128508143
 20
-125.5125625832408
 30
0.0
 10
128.8865316219118
 20
-125.5470295746515
 30
0.0
 10
128.922724503166
 20
-125.5832224559063
 30
0.0
 10
128.9589173844201
 20
-125.6194153371611
 30
0.0
 10
128.9933843758312
 20
-125.657334108258
 30
0.0
 10
129.0259914360902
 20
-125.69684472789
 30
0.0
 10
129.0585984963495
 20
-125.736355347522
 30
0.0
 10
129.0893456254564
 20
-125.7774578156878
 30
0.0
 10
129.1180987821025
 20
-125.8200180910803
 30
0.0
 10
129.1468519387487
 20
-125.8625783664721
 30
0.0
 10
129.1736111229341
 20
-125.9065964490895
 30
0.0
 10
129.1982422933499
 20
-125.9519382976239
 30
0.0
 10
129.2228734637656
 20
-125.9972801461583
 30
0.0
 10
129.2453766204119
 20
-126.0439457606091
 30
0.0
 10
129.2656177219795
 20
-126.0918010996688
 30
0.0
 10
129.2858588235474
 20
-126.1396564387284
 30
0.0
 10
129.3038378700369
 20
-126.1887015023955
 30
0.0
 10
129.3194208201391
 20
-126.2388022493624
 30
0.0
 10
129.3350037702413
 20
-126.2889029963287
 30
0.0
 10
129.3481906239564
 20
-126.3400594265947
 30
0.0
 10
129.3588473399755
 20
-126.3921374988515
 30
0.0
 10
129.3695040559946
 20
-126.4442155711077
 30
0.0
 10
129.3776306343173
 20
-126.4972152853546
 30
0.0
 10
129.3830930336357
 20
-126.5510026002828
 30
0.0
 10
129.3885554329541
 20
-126.6047899152116
 30
0.0
 10
129.3913536532678
 20
-126.6593648308222
 30
0.0
 10
129.3913536532678
 20
-126.7145933058049
 30
0.0
 10
129.3913536532678
 20
-126.7698217807877
 30
0.0
 10
129.3885554329541
 20
-126.8243966963983
 30
0.0
 10
129.3830930336357
 20
-126.8781840113271
 30
0.0
 10
129.3776306343173
 20
-126.9319713262552
 30
0.0
 10
129.3695040559946
 20
-126.9849710405022
 30
0.0
 10
129.3588473399755
 20
-127.0370491127584
 30
0.0
 10
129.3481906239564
 20
-127.0891271850152
 30
0.0
 10
129.3350037702413
 20
-127.1402836152812
 30
0.0
 10
129.3194208201391
 20
-127.1903843622474
 30
0.0
 10
129.3038378700369
 20
-127.2404851092143
 30
0.0
 10
129.2858588235474
 20
-127.2895301728814
 30
0.0
 10
129.2656177219795
 20
-127.3373855119411
 30
0.0
 10
129.2453766204119
 20
-127.3852408510007
 30
0.0
 10
129.2228734637656
 20
-127.4319064654516
 30
0.0
 10
129.1982422933499
 20
-127.477248313986
 30
0.0
 10
129.1736111229341
 20
-127.5225901625204
 30
0.0
 10
129.1468519387487
 20
-127.5666082451377
 30
0.0
 10
129.1180987821025
 20
-127.6091685205296
 30
0.0
 10
129.0893456254564
 20
-127.6517287959221
 30
0.0
 10
129.0585984963495
 20
-127.6928312640878
 30
0.0
 10
129.0259914360902
 20
-127.7323418837198
 30
0.0
 10
128.9933843758312
 20
-127.7718525033518
 30
0.0
 10
128.9589173844201
 20
-127.8097712744487
 30
0.0
 10
128.922724503166
 20
-127.8459641557035
 30
0.0
 10
128.8865316219118
 20
-127.8821570369583
 30
0.0
 10
128.8486128508143
 20
-127.9166240283691
 30
0.0
 10
128.8091022311826
 20
-127.949231088628
 30
0.0
 10
128.7695916115506
 20
-127.981838148887
 30
0.0
 10
128.7284891433845
 20
-128.0125852779942
 30
0.0
 10
128.6859288679923
 20
-128.0413384346401
 30
0.0
 10
128.6433685926002
 20
-128.0700915912859
 30
0.0
 10
128.5993505099829
 20
-128.0968507754717
 30
0.0
 10
128.5540086614484
 20
-128.1214819458877
 30
0.0
 10
128.508666812914
 20
-128.1461131163031
 30
0.0
 10
128.4620011984625
 20
-128.1686162729494
 30
0.0
 10
128.4141458594032
 20
-128.188857374517
 30
0.0
 10
128.3662905203439
 20
-128.2090984760846
 30
0.0
 10
128.3172454566765
 20
-128.2270775225742
 30
0.0
 10
128.2671447097099
 20
-128.242660472676
 30
0.0
 10
128.2170439627433
 20
-128.2582434227785
 30
0.0
 10
128.1658875324776
 20
-128.271430276494
 30
0.0
 10
128.1138094602211
 20
-128.2820869925127
 30
0.0
 10
128.0617313879646
 20
-128.2927437085315
 30
0.0
 10
128.008731673718
 20
-128.3008702868549
 30
0.0
 10
127.9549443587895
 20
-128.3063326861732
 30
0.0
 10
127.9011570438607
 20
-128.3117950854916
 30
0.0
 10
127.8465821282508
 20
-128.314593305805
 30
0.0
 10
127.7913536532677
 20
-128.314593305805
 30
0.0
 10
127.7361251782846
 20
-128.314593305805
 30
0.0
 10
127.6815502626743
 20
-128.3117950854916
 30
0.0
 10
127.6277629477459
 20
-128.3063326861732
 30
0.0
 10
127.5739756328174
 20
-128.3008702868549
 30
0.0
 10
127.5209759185705
 20
-128.2927437085315
 30
0.0
 10
127.468897846314
 20
-128.2820869925127
 30
0.0
 10
127.4168197740578
 20
-128.271430276494
 30
0.0
 10
127.3656633437918
 20
-128.2582434227785
 30
0.0
 10
127.3155625968252
 20
-128.242660472676
 30
0.0
 10
127.2654618498586
 20
-128.2270775225742
 30
0.0
 10
127.2164167861912
 20
-128.2090984760846
 30
0.0
 10
127.1685614471319
 20
-128.188857374517
 30
0.0
 10
127.1207061080726
 20
-128.1686162729494
 30
0.0
 10
127.0740404936214
 20
-128.1461131163031
 30
0.0
 10
127.028698645087
 20
-128.1214819458877
 30
0.0
 10
126.9833567965526
 20
-128.0968507754717
 30
0.0
 10
126.9393387139346
 20
-128.0700915912859
 30
0.0
 10
126.8967784385428
 20
-128.0413384346401
 30
0.0
 10
126.8542181631509
 20
-128.0125852779942
 30
0.0
 10
126.8131156949845
 20
-127.981838148887
 30
0.0
 10
126.7736050753528
 20
-127.949231088628
 30
0.0
 10
126.7340944557208
 20
-127.9166240283691
 30
0.0
 10
126.6961756846236
 20
-127.8821570369583
 30
0.0
 10
126.6599828033691
 20
-127.8459641557035
 30
0.0
 10
126.6237899221146
 20
-127.8097712744487
 30
0.0
 10
126.5893229307039
 20
-127.7718525033518
 30
0.0
 10
126.5567158704449
 20
-127.7323418837198
 30
0.0
 10
126.5241088101859
 20
-127.6928312640878
 30
0.0
 10
126.493361681079
 20
-127.6517287959221
 30
0.0
 10
126.4646085244329
 20
-127.6091685205296
 30
0.0
 10
126.4358553677867
 20
-127.5666082451377
 30
0.0
 10
126.4090961836013
 20
-127.5225901625204
 30
0.0
 10
126.3844650131856
 20
-127.477248313986
 30
0.0
 10
126.3598338427695
 20
-127.4319064654516
 30
0.0
 10
126.3373306861235
 20
-127.3852408510007
 30
0.0
 10
126.3170895845556
 20
-127.3373855119411
 30
0.0
 10
126.2968484829877
 20
-127.2895301728814
 30
0.0
 10
126.2788694364985
 20
-127.2404851092143
 30
0.0
 10
126.2632864863963
 20
-127.1903843622474
 30
0.0
 10
126.2477035362941
 20
-127.1402836152812
 30
0.0
 10
126.234516682579
 20
-127.0891271850152
 30
0.0
 10
126.2238599665599
 20
-127.0370491127584
 30
0.0
 10
126.2132032505408
 20
-126.9849710405022
 30
0.0
 10
126.2050766722181
 20
-126.9319713262552
 30
0.0
 10
126.1996142728997
 20
-126.8781840113271
 30
0.0
 10
126.1941518735813
 20
-126.8243966963983
 30
0.0
 10
126.1913536532677
 20
-126.7698217807877
 30
0.0
 10
126.1913536532677
 20
-126.7145933058049
 30
0.0
 10
126.1913536532677
 20
-126.7145933058049
 30
0.0
 10
126.1913536532677
 20
-126.7145933058049
 30
0.0
 10
126.1913536532677
 20
-126.7145933058049
 30
0.0
 10
126.1913536532677
 20
-126.7145933058049
 30
0.0
 10
126.1913536532677
 20
-126.7145933058049
 30
0.0
 10
126.1913536532677
 20
-126.7145933058049
 30
0.0
 10
126.1913536532677
 20
-126.7145933058049
 30
0.0
 10
126.1913536532677
 20
-126.7145933058049
 30
0.0
 10
126.1913536532677
 20
-126.7145933058049
 30
0.0
 10
126.1913536532677
 20
-126.7145933058049
 30
0.0
 10
126.1913536532677
 20
-126.7145933058049
 30
0.0
 10
126.1913536532677
 20
-126.7145933058049
 30
0.0
 10
126.1913536532677
 20
-126.7145933058049
 30
0.0
 10
126.1913536532677
 20
-126.7145933058049
 30
0.0
 10
126.1913536532677
 20
-126.7145933058049
 30
0.0
 10
126.1913536532677
 20
-126.7145933058049
 30
0.0
 10
126.1913536532677
 20
-126.7145933058049
 30
0.0
 10
126.1913536532677
 20
-126.7145933058049
 30
0.0
 10
126.1913536532677
 20
-126.7145933058049
 30
0.0
 10
126.1913536532677
 20
-126.7145933058049
 30
0.0
 10
126.1913536532677
 20
-126.7145933058049
 30
0.0
 10
126.1913536532677
 20
-126.7145933058049
 30
0.0
 10
126.1913536532677
 20
-126.7145933058049
 30
0.0
 10
126.1913536532677
 20
-126.7145933058049
 30
0.0
 10
126.1913536532677
 20
-126.7145933058049
 30
0.0
 10
126.1913536532677
 20
-126.7145933058049
 30
0.0
 10
126.1913536532677
 20
-126.7145933058049
 30
0.0
 10
126.1913536532677
 20
-126.7145933058049
 30
0.0
 10
126.1913536532677
 20
-126.7145933058049
 30
0.0
 10
126.1913536532677
 20
-126.7145933058049
 30
0.0
 10
126.1913536532677
 20
-126.7145933058049
 30
0.0
 10
126.1913536532677
 20
-126.7145933058049
 30
0.0
 10
126.1913536532677
 20
-126.7145933058049
 30
0.0
 10
126.1913536532677
 20
-126.7145933058049
 30
0.0
 10
126.1913536532677
 20
-126.7145933058049
 30
0.0
 10
126.1913536532677
 20
-126.7145933058049
 30
0.0
 10
126.1913536532677
 20
-126.7145933058049
 30
0.0
 10
126.1913536532677
 20
-126.7145933058049
 30
0.0
 10
126.1913536532677
 20
-126.7145933058049
 30
0.0
 10
126.1913536532677
 20
-126.7145933058049
 30
0.0
 10
126.1913536532677
 20
-126.7145933058049
 30
0.0
 10
126.1913536532677
 20
-126.7145933058049
 30
0.0
 10
126.1913536532677
 20
-126.7145933058049
 30
0.0
 10
126.1913536532677
 20
-126.7145933058049
 30
0.0
 10
126.1913536532677
 20
-126.7145933058049
 30
0.0
 10
126.1913536532677
 20
-126.7145933058049
 30
0.0
 10
126.1913536532677
 20
-126.7145933058049
 30
0.0
 10
126.1913536532677
 20
-126.7145933058049
 30
0.0
  0
ENDBLK
  5
52
330
4F
100
AcDbEntity
  8
0
100
AcDbBlockEnd
  0
ENDSEC
  0
SECTION
  2
ENTITIES
  0
INSERT
  5
42
330
1F
100
AcDbEntity
  8
LAYER_1
100
AcDbBlockReference
  2
BLOCK_2
 10
0.0
 20
0.0
 30
0.0
  0
ENDSEC
  0
SECTION
  2
OBJECTS
  0
DICTIONARY
  5
C
330
0
100
AcDbDictionary
  3
ACAD_GROUP
350
D
  3
ACAD_LAYOUT
350
1A
  3
ACAD_MATERIAL
350
3B
  3
ACAD_MLEADERSTYLE
350
56
  3
ACAD_MLINESTYLE
350
17
  3
ACAD_PLOTSETTINGS
350
19
  3
ACAD_VISUALSTYLE
350
2A
  3
ACDBVARIABLEDICTIONARY
350
54
1001
ACAD
1000
TREAT_AS_HARD
1070
     0
  0
DICTIONARY
  5
D
102
{ACAD_REACTORS
330
C
102
}
330
C
100
AcDbDictionary
1001
ACAD
1000
TREAT_AS_HARD
1070
     0
  0
DICTIONARY
  5
1A
102
{ACAD_REACTORS
330
C
102
}
330
C
100
AcDbDictionary
1001
ACAD
1000
TREAT_AS_HARD
1070
     0
  0
DICTIONARY
  5
3B
102
{ACAD_REACTORS
330
C
102
}
330
C
100
AcDbDictionary
  3
BYBLOCK
350
3D
  3
BYLAYER
350
3C
  3
GLOBAL
350
3E
1001
ACAD
1000
TREAT_AS_HARD
1070
     0
  0
DICTIONARY
  5
56
102
{ACAD_REACTORS
330
C
102
}
330
C
100
AcDbDictionary
1001
ACAD
1000
TREAT_AS_HARD
1070
     0
  0
DICTIONARY
  5
17
102
{ACAD_REACTORS
330
C
102
}
330
C
100
AcDbDictionary
  3
STANDARD
350
18
1001
ACAD
1000
TREAT_AS_HARD
1070
     0
  0
DICTIONARY
  5
19
102
{ACAD_REACTORS
330
C
102
}
330
C
100
AcDbDictionary
1001
ACAD
1000
TREAT_AS_HARD
1070
     0
  0
DICTIONARY
  5
2A
102
{ACAD_REACTORS
330
C
102
}
330
C
100
AcDbDictionary
  3
2DWIREFRAME
350
2F
  3
3DWIREFRAME
350
30
  3
3D_HIDDEN
350
31
  3
BASIC
350
32
  3
BRIGHTEN
350
36
  3
COLORCHANGE
350
3A
  3
CONCEPTUAL
350
34
  3
DIM
350
35
  3
FACEPATTERN
350
39
  3
FLAT
350
2B
  3
FLATWITHEDGES
350
2C
  3
GOURAUD
350
2D
  3
GOURAUDWITHEDGES
350
2E
  3
LINEPATTERN
350
38
  3
REALISTIC
350
33
  3
THICKEN
350
37
1001
ACAD
1000
TREAT_AS_HARD
1070
     0
  0
DICTIONARY
  5
54
102
{ACAD_REACTORS
330
C
102
}
330
C
100
AcDbDictionary
  3
DIMASSOC
350
57
  3
HIDETEXT
350
58
1001
ACAD
1000
TREAT_AS_HARD
1070
     0
  0
MATERIAL
  5
3D
102
{ACAD_REACTORS
330
3B
102
}
102
{ACAD_XDICTIONARY
360
5B
102
}
330
3B
100
AcDbMaterial
  1
ByBlock
  0
MATERIAL
  5
3C
102
{ACAD_REACTORS
330
3B
102
}
102
{ACAD_XDICTIONARY
360
59
102
}
330
3B
100
AcDbMaterial
  1
ByLayer
  0
MATERIAL
  5
3E
102
{ACAD_REACTORS
330
3B
102
}
102
{ACAD_XDICTIONARY
360
5D
102
}
330
3B
100
AcDbMaterial
  1
Global
  0
MLINESTYLE
  5
18
102
{ACAD_REACTORS
330
17
102
}
330
17
100
AcDbMlineStyle
  2
Standard
 70
     0
  3

 62
   256
 51
90.0
 52
90.0
 71
     2
 49
0.5
 62
   256
  6
BYLAYER
 49
-0.5
 62
   256
  6
BYLAYER
  0
ACAD_PROXY_OBJECT
  5
2F
102
{ACAD_REACTORS
330
2A
102
}
330
2A
100
AcDbZombieObject
 90
      499
 91
      501
 93
      436
310
42CC9915DA5C99599C985B595049028333333333333E3BF0000000000000FB0107901411070040501600405405064090741402480A0340
1001
ACAD
1000
AcDbSavedByObjectVersion
1070
     0
  0
ACAD_PROXY_OBJECT
  5
30
102
{ACAD_REACTORS
330
2A
102
}
330
2A
100
AcDbZombieObject
 90
      499
 91
      501
 93
      436
310
42CCD915DA5C99599C985B595059028333333333333E3BF0000000000000FB0107901411070040501600405405064090741402480A0340
1001
ACAD
1000
AcDbSavedByObjectVersion
1070
     0
  0
ACAD_PROXY_OBJECT
  5
31
102
{ACAD_REACTORS
330
2A
102
}
330
2A
100
AcDbZombieObject
 90
      499
 91
      501
 93
      500
310
424CD108121A5919195B90640502408333333333333E3BF0000000000000FB01079024090700405020000000000001110200405405064090740C02480A0340
1001
ACAD
1000
AcDbSavedByObjectVersion
1070
     0
  0
ACAD_PROXY_OBJECT
  5
32
102
{ACAD_REACTORS
330
2A
102
}
330
2A
100
AcDbZombieObject
 90
      499
 91
      501
 93
      388
310
4150985CDA58D07406404333333333333E3BF0000000000000FB0107A41107004050150841D405064090741402480A0350
1001
ACAD
1000
AcDbSavedByObjectVersion
1070
     0
  0
ACAD_PROXY_OBJECT
  5
36
102
{ACAD_REACTORS
330
2A
102
}
330
2A
100
AcDbZombieObject
 90
      499
 91
      501
 93
      428
310
42109C9A59DA1D195B90C409028333333333333E3BF0000000000000FB010790141107004050150841D405064090741402480A029950
1001
ACAD
1000
AcDbSavedByObjectVersion
1070
     0
  0
ACAD_PROXY_OBJECT
  5
3A
102
{ACAD_REACTORS
330
2A
102
}
330
2A
100
AcDbZombieObject
 90
      499
 91
      501
 93
      452
310
42D0DBDB1BDC90DA185B99D95104090240C333333333333E3BF0000000000000FB0108901411070040501508421405064090741402480A0350
1001
ACAD
1000
AcDbSavedByObjectVersion
1070
     0
  0
ACAD_PROXY_OBJECT
  5
34
102
{ACAD_REACTORS
330
2A
102
}
330
2A
100
AcDbZombieObject
 90
      499
 91
      501
 93
      500
310
4290DBDB98D95C1D1D585B10940D028333333333333E3BF0000000000000FB0107902409070040501000000000000111010841D405064090740C02480A0340
1001
ACAD
1000
AcDbSavedByObjectVersion
1070
     0
  0
ACAD_PROXY_OBJECT
  5
35
102
{ACAD_REACTORS
330
2A
102
}
330
2A
100
AcDbZombieObject
 90
      499
 91
      501
 93
      412
310
40D11A5B50B409028333333333333E3BF0000000000000FB010790141107004050150841D405064090741402480A02677FFFFFD0
1001
ACAD
1000
AcDbSavedByObjectVersion
1070
     0
  0
ACAD_PROXY_OBJECT
  5
39
102
{ACAD_REACTORS
330
2A
102
}
330
2A
100
AcDbZombieObject
 90
      499
 91
      501
 93
      444
310
42D19858D95C185D1D195C9B90F409028333333333333E3BF0000000000000FB010790141107004050150841D405064090741402480A0350
1001
ACAD
1000
AcDbSavedByObjectVersion
1070
     0
  0
ACAD_PROXY_OBJECT
  5
2B
102
{ACAD_REACTORS
330
2A
102
}
330
2A
100
AcDbZombieObject
 90
      499
 91
      501
 93
      388
310
41119B185D240901404333333333333E3BF0000000000000F9010740A41107004050150841D405064090741402480A1B50
1001
ACAD
1000
AcDbSavedByObjectVersion
1070
     0
  0
ACAD_PROXY_OBJECT
  5
2C
102
{ACAD_REACTORS
330
2A
102
}
330
2A
100
AcDbZombieObject
 90
      499
 91
      501
 93
      476
310
43519B185D15DA5D1A115919D95CD0140901404333333333333E3BF0000000000000F9010740901411070040501600405405064090741402480A1B50
1001
ACAD
1000
AcDbSavedByObjectVersion
1070
     0
  0
ACAD_PROXY_OBJECT
  5
2D
102
{ACAD_REACTORS
330
2A
102
}
330
2A
100
AcDbZombieObject
 90
      499
 91
      501
 93
      412
310
41D1DBDD5C985D5910240902404333333333333E3BF0000000000000F9010740A411070040501641D405064090741402480A1B50
1001
ACAD
1000
AcDbSavedByObjectVersion
1070
     0
  0
ACAD_PROXY_OBJECT
  5
2E
102
{ACAD_REACTORS
330
2A
102
}
330
2A
100
AcDbZombieObject
 90
      499
 91
      501
 93
      500
310
4411DBDD5C985D5915DA5D1A115919D95CD0340902404333333333333E3BF0000000000000F9010740901411070040501600405405064090741402480A1B50
1001
ACAD
1000
AcDbSavedByObjectVersion
1070
     0
  0
ACAD_PROXY_OBJECT
  5
38
102
{ACAD_REACTORS
330
2A
102
}
330
2A
100
AcDbZombieObject
 90
      499
 91
      501
 93
      444
310
42D31A5B995C185D1D195C9B90E409028333333333333E3BF0000000000000FB010790141107004050750841D405064090741402483A0350
1001
ACAD
1000
AcDbSavedByObjectVersion
1070
     0
  0
ACAD_PROXY_OBJECT
  5
33
102
{ACAD_REACTORS
330
2A
102
}
330
2A
100
AcDbZombieObject
 90
      499
 91
      501
 93
      420
310
425499585B1A5CDD1A58D08409028333333333333E3BF0000000000000FB01079019070040501508421405064090741402480A1B40
1001
ACAD
1000
AcDbSavedByObjectVersion
1070
     0
  0
ACAD_PROXY_OBJECT
  5
37
102
{ACAD_REACTORS
330
2A
102
}
330
2A
100
AcDbZombieObject
 90
      499
 91
      501
 93
      412
310
41D51A1A58DAD95B90D409028333333333333E3BF0000000000000FB010790141107004050150C41D405064090741402480A0350
1001
ACAD
1000
AcDbSavedByObjectVersion
1070
     0
  0
DICTIONARYVAR
  5
57
102
{ACAD_REACTORS
330
54
102
}
330
54
100
DictionaryVariables
280
     0
  1
2
  0
DICTIONARYVAR
  5
58
102
{ACAD_REACTORS
330
54
102
}
330
54
100
DictionaryVariables
280
     0
  1
1
  0
DICTIONARY
  5
5B
330
3D
100
AcDbDictionary
  3
ACAD_XREC_ROUNDTRIP
360
5C
1001
ACAD
1000
TREAT_AS_HARD
1070
     1
  0
DICTIONARY
  5
59
330
3C
100
AcDbDictionary
  3
ACAD_XREC_ROUNDTRIP
360
5A
1001
ACAD
1000
TREAT_AS_HARD
1070
     1
  0
DICTIONARY
  5
5D
330
3E
100
AcDbDictionary
  3
ACAD_XREC_ROUNDTRIP
360
5E
1001
ACAD
1000
TREAT_AS_HARD
1070
     1
  0
XRECORD
  5
5C
102
{ACAD_REACTORS
330
5B
102
}
330
5B
100
AcDbXrecord
102
MATERIAL
148
0.0
149
0.0
149
0.0
 93
        0
 94
      127
282
     0
 72
     1
 77
     1
171
     1
175
     1
179
     1
273
     0
  0
XRECORD
  5
5A
102
{ACAD_REACTORS
330
59
102
}
330
59
100
AcDbXrecord
102
MATERIAL
148
0.0
149
0.0
149
0.0
 93
        0
 94
      127
282
     0
 72
     1
 77
     1
171
     1
175
     1
179
     1
273
     0
  0
XRECORD
  5
5E
102
{ACAD_REACTORS
330
5D
102
}
330
5D
100
AcDbXrecord
102
MATERIAL
148
0.0
149
0.0
149
0.0
 93
        0
 94
      127
282
     0
 72
     1
 77
     1
171
     1
175
     1
179
     1
273
     0
  0
ENDSEC
  0
EOF
