  0
SECTION
  2
HEADER
  9
$ACADVER
  1
AC1012
  9
$DWGCODEPAGE
  3
undefined
  9
$INSBASE
 10
0.0
 20
0.0
 30
0.0
  9
$EXTMIN
 10
1.000000000000000E+20
 20
1.000000000000000E+20
 30
1.000000000000000E+20
  9
$EXTMAX
 10
-1.000000000000000E+20
 20
-1.000000000000000E+20
 30
-1.000000000000000E+20
  9
$LIMMIN
 10
0.0
 20
0.0
  9
$LIMMAX
 10
12.0
 20
9.0
  9
$ORTHOMODE
 70
     0
  9
$REGENMODE
 70
     1
  9
$FILLMODE
 70
     1
  9
$QTEXTMODE
 70
     0
  9
$MIRRTEXT
 70
     1
  9
$DRAGMODE
 70
     2
  9
$LTSCALE
 40
1.0
  9
$OSMODE
 70
    37
  9
$ATTMODE
 70
     1
  9
$TEXTSIZE
 40
0.2
  9
$TRACEWID
 40
0.05
  9
$TEXTSTYLE
  7
STANDARD
  9
$CLAYER
  8
0
  9
$CELTYPE
  6
BYLAYER
  9
$CECOLOR
 62
   256
  9
$CELTSCALE
 40
1.0
  9
$DELOBJ
 70
     1
  9
$DISPSILH
 70
     0
  9
$DIMSCALE
 40
1.0
  9
$DIMASZ
 40
0.18
  9
$DIMEXO
 40
0.0625
  9
$DIMDLI
 40
0.38
  9
$DIMRND
 40
0.0
  9
$DIMDLE
 40
0.0
  9
$DIMEXE
 40
0.18
  9
$DIMTP
 40
0.0
  9
$DIMTM
 40
0.0
  9
$DIMTXT
 40
0.18
  9
$DIMCEN
 40
0.09
  9
$DIMTSZ
 40
0.0
  9
$DIMTOL
 70
     0
  9
$DIMLIM
 70
     0
  9
$DIMTIH
 70
     1
  9
$DIMTOH
 70
     1
  9
$DIMSE1
 70
     0
  9
$DIMSE2
 70
     0
  9
$DIMTAD
 70
     0
  9
$DIMZIN
 70
     0
  9
$DIMBLK
  1

  9
$DIMASO
 70
     1
  9
$DIMSHO
 70
     1
  9
$DIMPOST
  1

  9
$DIMAPOST
  1

  9
$DIMALT
 70
     0
  9
$DIMALTD
 70
     2
  9
$DIMALTF
 40
25.4
  9
$DIMLFAC
 40
1.0
  9
$DIMTOFL
 70
     0
  9
$DIMTVP
 40
0.0
  9
$DIMTIX
 70
     0
  9
$DIMSOXD
 70
     0
  9
$DIMSAH
 70
     0
  9
$DIMBLK1
  1

  9
$DIMBLK2
  1

  9
$DIMSTYLE
  2
STANDARD
  9
$DIMCLRD
 70
     0
  9
$DIMCLRE
 70
     0
  9
$DIMCLRT
 70
     0
  9
$DIMTFAC
 40
1.0
  9
$DIMGAP
 40
0.09
  9
$DIMJUST
 70
     0
  9
$DIMSD1
 70
     0
  9
$DIMSD2
 70
     0
  9
$DIMTOLJ
 70
     1
  9
$DIMTZIN
 70
     0
  9
$DIMALTZ
 70
     0
  9
$DIMALTTZ
 70
     0
  9
$DIMFIT
 70
     3
  9
$DIMUPT
 70
     0
  9
$DIMUNIT
 70
     2
  9
$DIMDEC
 70
     4
  9
$DIMTDEC
 70
     4
  9
$DIMALTU
 70
     2
  9
$DIMALTTD
 70
     2
  9
$DIMTXSTY
  7
STANDARD
  9
$DIMAUNIT
 70
     0
  9
$LUNITS
 70
     2
  9
$LUPREC
 70
     4
  9
$SKETCHINC
 40
0.1
  9
$FILLETRAD
 40
0.5
  9
$AUNITS
 70
     0
  9
$AUPREC
 70
     0
  9
$MENU
  1
.
  9
$ELEVATION
 40
0.0
  9
$PELEVATION
 40
0.0
  9
$THICKNESS
 40
0.0
  9
$LIMCHECK
 70
     0
  9
$CHAMFERA
 40
0.5
  9
$CHAMFERB
 40
0.5
  9
$CHAMFERC
 40
1.0
  9
$CHAMFERD
 40
0.0
  9
$SKPOLY
 70
     0
  9
$TDCREATE
 40
2457703.522488426
  9
$TDUPDATE
 40
2457703.522488426
  9
$TDINDWG
 40
0.0000000116
  9
$TDUSRTIMER
 40
0.0000000116
  9
$USRTIMER
 70
     1
  9
$ANGBASE
 50
0.0
  9
$ANGDIR
 70
     0
  9
$PDMODE
 70
     0
  9
$PDSIZE
 40
0.0
  9
$PLINEWID
 40
0.0
  9
$COORDS
 70
     1
  9
$SPLFRAME
 70
     0
  9
$SPLINETYPE
 70
     6
  9
$SPLINESEGS
 70
     8
  9
$ATTDIA
 70
     0
  9
$ATTREQ
 70
     1
  9
$HANDLING
 70
     1
  9
$HANDSEED
  5
55
  9
$SURFTAB1
 70
     6
  9
$SURFTAB2
 70
     6
  9
$SURFTYPE
 70
     6
  9
$SURFU
 70
     6
  9
$SURFV
 70
     6
  9
$UCSNAME
  2

  9
$UCSORG
 10
0.0
 20
0.0
 30
0.0
  9
$UCSXDIR
 10
1.0
 20
0.0
 30
0.0
  9
$UCSYDIR
 10
0.0
 20
1.0
 30
0.0
  9
$PUCSNAME
  2

  9
$PUCSORG
 10
0.0
 20
0.0
 30
0.0
  9
$PUCSXDIR
 10
1.0
 20
0.0
 30
0.0
  9
$PUCSYDIR
 10
0.0
 20
1.0
 30
0.0
  9
$USERI1
 70
     0
  9
$USERI2
 70
     0
  9
$USERI3
 70
     0
  9
$USERI4
 70
     0
  9
$USERI5
 70
     0
  9
$USERR1
 40
0.0
  9
$USERR2
 40
0.0
  9
$USERR3
 40
0.0
  9
$USERR4
 40
0.0
  9
$USERR5
 40
0.0
  9
$WORLDVIEW
 70
     1
  9
$SHADEDGE
 70
     3
  9
$SHADEDIF
 70
    70
  9
$TILEMODE
 70
     1
  9
$MAXACTVP
 70
    64
  9
$PINSBASE
 10
0.0
 20
0.0
 30
0.0
  9
$PLIMCHECK
 70
     0
  9
$PEXTMIN
 10
1.000000000000000E+20
 20
1.000000000000000E+20
 30
1.000000000000000E+20
  9
$PEXTMAX
 10
-1.000000000000000E+20
 20
-1.000000000000000E+20
 30
-1.000000000000000E+20
  9
$PLIMMIN
 10
0.0
 20
0.0
  9
$PLIMMAX
 10
12.0
 20
9.0
  9
$UNITMODE
 70
     0
  9
$VISRETAIN
 70
     1
  9
$PLINEGEN
 70
     0
  9
$PSLTSCALE
 70
     1
  9
$TREEDEPTH
 70
  3020
  9
$PICKSTYLE
 70
     1
  9
$CMLSTYLE
  2
STANDARD
  9
$CMLJUST
 70
     0
  9
$CMLSCALE
 40
1.0
  9
$SAVEIMAGES
 70
     1
  0
ENDSEC
  0
SECTION
  2
CLASSES
  0
CLASS
  1
ACDBDICTIONARYWDFLT
  2
AcDbDictionaryWithDefault
  3
ObjectDBX Classes
 90
    32768
280
     0
281
     0
  0
CLASS
  1
VISUALSTYLE
  2
AcDbVisualStyle
  3
ObjectDBX Classes
 90
     4095
280
     0
281
     0
  0
CLASS
  1
MATERIAL
  2
AcDbMaterial
  3
ObjectDBX Classes
 90
     1153
280
     0
281
     0
  0
CLASS
  1
SUN
  2
AcDbSun
  3
SCENEOE
 90
     1024
280
     0
281
     0
  0
CLASS
  1
DICTIONARYVAR
  2
AcDbDictionaryVar
  3
ObjectDBX Classes
 90
        0
280
     0
281
     0
  0
CLASS
  1
XRECORD
  2
AcDbXrecord
  3
AutoCAD 2000
 90
    32768
280
     0
281
     0
  0
CLASS
  1
LWPOLYLINE
  2
AcDbPolyline
  3
AutoCAD 2000
 90
    32768
280
     0
281
     1
  0
CLASS
  1
HATCH
  2
AcDbHatch
  3
AutoCAD 2000
 90
    32768
280
     0
281
     1
  0
CLASS
  1
ACDBPLACEHOLDER
  2
AcDbPlaceHolder
  3
ObjectDBX Classes
 90
        0
280
     0
281
     0
  0
CLASS
  1
LAYOUT
  2
AcDbLayout
  3
ObjectDBX Classes
 90
        0
280
     0
281
     0
  0
ENDSEC
  0
SECTION
  2
TABLES
  0
TABLE
  2
VPORT
  5
8
330
0
100
AcDbSymbolTable
 70
     1
  0
VPORT
  5
29
330
8
100
AcDbSymbolTableRecord
100
AcDbViewportTableRecord
  2
*ACTIVE
 70
     0
 10
0.0
 20
0.0
 11
1.0
 21
1.0
 12
0.0
 22
0.0
 13
0.0
 23
0.0
 14
0.5
 24
0.5
 15
0.5
 25
0.5
 16
0.0
 26
0.0
 36
1.0
 17
960.0
 27
-540.0
 37
0.0
 40
1080.0
 41
1.777777777777778
 42
50.0
 43
0.0
 44
0.0
 50
0.0
 51
0.0
 71
     0
 72
   100
 73
     1
 74
     3
 75
     0
 76
     0
 77
     0
 78
     0
  0
ENDTAB
  0
TABLE
  2
LTYPE
  5
5
330
0
100
AcDbSymbolTable
 70
     1
  0
LTYPE
  5
14
330
5
100
AcDbSymbolTableRecord
100
AcDbLinetypeTableRecord
  2
BYBLOCK
 70
     0
  3

 72
    65
 73
     0
 40
0.0
  0
LTYPE
  5
15
330
5
100
AcDbSymbolTableRecord
100
AcDbLinetypeTableRecord
  2
BYLAYER
 70
     0
  3

 72
    65
 73
     0
 40
0.0
  0
LTYPE
  5
16
330
5
100
AcDbSymbolTableRecord
100
AcDbLinetypeTableRecord
  2
CONTINUOUS
 70
     0
  3
Solid line
 72
    65
 73
     0
 40
0.0
  0
ENDTAB
  0
TABLE
  2
LAYER
  5
2
330
0
100
AcDbSymbolTable
 70
     2
  0
LAYER
  5
10
330
2
100
AcDbSymbolTableRecord
100
AcDbLayerTableRecord
  2
0
 70
     0
 62
     7
  6
CONTINUOUS
  0
LAYER
  5
40
330
2
100
AcDbSymbolTableRecord
100
AcDbLayerTableRecord
  2
LAYER_1
 70
     0
 62
     7
  6
CONTINUOUS
  0
ENDTAB
  0
TABLE
  2
STYLE
  5
3
330
0
100
AcDbSymbolTable
 70
     1
  0
STYLE
  5
11
330
3
100
AcDbSymbolTableRecord
100
AcDbTextStyleTableRecord
  2
STANDARD
 70
     0
 40
0.0
 41
1.0
 50
0.0
 71
     0
 42
0.2
  3
txt
  4

  0
ENDTAB
  0
TABLE
  2
VIEW
  5
6
330
0
100
AcDbSymbolTable
 70
     0
  0
ENDTAB
  0
TABLE
  2
UCS
  5
7
330
0
100
AcDbSymbolTable
 70
     0
  0
ENDTAB
  0
TABLE
  2
APPID
  5
9
330
0
100
AcDbSymbolTable
 70
     1
  0
APPID
  5
12
330
9
100
AcDbSymbolTableRecord
100
AcDbRegAppTableRecord
  2
ACAD
 70
     0
  0
ENDTAB
  0
TABLE
  2
DIMSTYLE
  5
A
330
0
100
AcDbSymbolTable
 70
     1
  0
DIMSTYLE
105
27
330
A
100
AcDbSymbolTableRecord
100
AcDbDimStyleTableRecord
  2
STANDARD
 70
     0
  3

  4

  5

  6

  7

 40
1.0
 41
0.18
 42
0.0625
 43
0.38
 44
0.18
 45
0.0
 46
0.0
 47
0.0
 48
0.0
140
0.18
141
0.09
142
0.0
143
25.4
144
1.0
145
0.0
146
1.0
147
0.09
 71
     0
 72
     0
 73
     1
 74
     1
 75
     0
 76
     0
 77
     0
 78
     0
170
     0
171
     2
172
     0
173
     0
174
     0
175
     0
176
     0
177
     0
178
     0
270
     2
271
     4
272
     4
273
     2
274
     2
340
11
275
     0
280
     0
281
     0
282
     0
283
     1
284
     0
285
     0
286
     0
287
     3
288
     0
  0
ENDTAB
  0
TABLE
  2
BLOCK_RECORD
  5
1
330
0
100
AcDbSymbolTable
 70
     3
  0
BLOCK_RECORD
  5
1F
330
1
100
AcDbSymbolTableRecord
100
AcDbBlockTableRecord
  2
*MODEL_SPACE
  0
BLOCK_RECORD
  5
1B
330
1
100
AcDbSymbolTableRecord
100
AcDbBlockTableRecord
  2
*PAPER_SPACE
  0
BLOCK_RECORD
  5
41
330
1
100
AcDbSymbolTableRecord
100
AcDbBlockTableRecord
  2
BLOCK_2
  0
BLOCK_RECORD
  5
45
330
1
100
AcDbSymbolTableRecord
100
AcDbBlockTableRecord
  2
BLOCK_3
  0
ENDTAB
  0
ENDSEC
  0
SECTION
  2
BLOCKS
  0
BLOCK
  5
20
330
1F
100
AcDbEntity
  8
0
100
AcDbBlockBegin
  2
*MODEL_SPACE
 70
     0
 10
0.0
 20
0.0
 30
0.0
  3
*MODEL_SPACE
  1

  0
ENDBLK
  5
21
330
1F
100
AcDbEntity
  8
0
100
AcDbBlockEnd
  0
BLOCK
  5
1C
330
1B
100
AcDbEntity
 67
     1
  8
0
100
AcDbBlockBegin
  2
*PAPER_SPACE
 70
     0
 10
0.0
 20
0.0
 30
0.0
  3
*PAPER_SPACE
  1

  0
ENDBLK
  5
1D
330
1B
100
AcDbEntity
 67
     1
  8
0
100
AcDbBlockEnd
  0
BLOCK
  5
43
330
41
100
AcDbEntity
  8
0
100
AcDbBlockBegin
  2
BLOCK_2
 70
     0
 10
0.0
 20
0.0
 30
0.0
  3
BLOCK_2
  1

  0
INSERT
  5
46
330
41
100
AcDbEntity
  8
LAYER_1
100
AcDbBlockReference
  2
BLOCK_3
 10
0.0
 20
0.0
 30
0.0
  0
ENDBLK
  5
44
330
41
100
AcDbEntity
  8
0
100
AcDbBlockEnd
  0
BLOCK
  5
47
330
45
100
AcDbEntity
  8
0
100
AcDbBlockBegin
  2
BLOCK_3
 70
     0
 10
0.0
 20
0.0
 30
0.0
  3
BLOCK_3
  1

  0
SPLINE
  5
49
330
45
100
AcDbEntity
  8
LAYER_1
 62
     7
100
AcDbSpline
210
0.0
220
0.0
230
1.0
 70
    11
 71
     3
 72
   485
 73
   481
 74
     0
 42
0.0000000001
 43
0.0000000001
 12
1.0
 22
0.0
 32
0.0
 13
1.0
 23
0.0
 33
0.0
 40
0.0
 40
0.0
 40
0.0
 40
0.0
 40
1.0
 40
1.0
 40
1.0
 40
2.0
 40
2.0
 40
2.0
 40
3.0
 40
3.0
 40
3.0
 40
4.0
 40
4.0
 40
4.0
 40
5.0
 40
5.0
 40
5.0
 40
6.0
 40
6.0
 40
6.0
 40
7.0
 40
7.0
 40
7.0
 40
8.0
 40
8.0
 40
8.0
 40
9.0
 40
9.0
 40
9.0
 40
10.0
 40
10.0
 40
10.0
 40
11.0
 40
11.0
 40
11.0
 40
12.0
 40
12.0
 40
12.0
 40
13.0
 40
13.0
 40
13.0
 40
14.0
 40
14.0
 40
14.0
 40
15.0
 40
15.0
 40
15.0
 40
16.0
 40
16.0
 40
16.0
 40
17.0
 40
17.0
 40
17.0
 40
18.0
 40
18.0
 40
18.0
 40
19.0
 40
19.0
 40
19.0
 40
20.0
 40
20.0
 40
20.0
 40
21.0
 40
21.0
 40
21.0
 40
22.0
 40
22.0
 40
22.0
 40
23.0
 40
23.0
 40
23.0
 40
24.0
 40
24.0
 40
24.0
 40
25.0
 40
25.0
 40
25.0
 40
26.0
 40
26.0
 40
26.0
 40
27.0
 40
27.0
 40
27.0
 40
28.0
 40
28.0
 40
28.0
 40
29.0
 40
29.0
 40
29.0
 40
30.0
 40
30.0
 40
30.0
 40
31.0
 40
31.0
 40
31.0
 40
32.0
 40
32.0
 40
32.0
 40
33.0
 40
33.0
 40
33.0
 40
34.0
 40
34.0
 40
34.0
 40
35.0
 40
35.0
 40
35.0
 40
36.0
 40
36.0
 40
36.0
 40
37.0
 40
37.0
 40
37.0
 40
38.0
 40
38.0
 40
38.0
 40
39.0
 40
39.0
 40
39.0
 40
40.0
 40
40.0
 40
40.0
 40
41.0
 40
41.0
 40
41.0
 40
42.0
 40
42.0
 40
42.0
 40
43.0
 40
43.0
 40
43.0
 40
44.0
 40
44.0
 40
44.0
 40
45.0
 40
45.0
 40
45.0
 40
46.0
 40
46.0
 40
46.0
 40
47.0
 40
47.0
 40
47.0
 40
48.0
 40
48.0
 40
48.0
 40
49.0
 40
49.0
 40
49.0
 40
50.0
 40
50.0
 40
50.0
 40
51.0
 40
51.0
 40
51.0
 40
52.0
 40
52.0
 40
52.0
 40
53.0
 40
53.0
 40
53.0
 40
54.0
 40
54.0
 40
54.0
 40
55.0
 40
55.0
 40
55.0
 40
56.0
 40
56.0
 40
56.0
 40
57.0
 40
57.0
 40
57.0
 40
58.0
 40
58.0
 40
58.0
 40
59.0
 40
59.0
 40
59.0
 40
60.0
 40
60.0
 40
60.0
 40
61.0
 40
61.0
 40
61.0
 40
62.0
 40
62.0
 40
62.0
 40
63.0
 40
63.0
 40
63.0
 40
64.0
 40
64.0
 40
64.0
 40
65.0
 40
65.0
 40
65.0
 40
66.0
 40
66.0
 40
66.0
 40
67.0
 40
67.0
 40
67.0
 40
68.0
 40
68.0
 40
68.0
 40
69.0
 40
69.0
 40
69.0
 40
70.0
 40
70.0
 40
70.0
 40
71.0
 40
71.0
 40
71.0
 40
72.0
 40
72.0
 40
72.0
 40
73.0
 40
73.0
 40
73.0
 40
74.0
 40
74.0
 40
74.0
 40
75.0
 40
75.0
 40
75.0
 40
76.0
 40
76.0
 40
76.0
 40
77.0
 40
77.0
 40
77.0
 40
78.0
 40
78.0
 40
78.0
 40
79.0
 40
79.0
 40
79.0
 40
80.0
 40
80.0
 40
80.0
 40
81.0
 40
81.0
 40
81.0
 40
82.0
 40
82.0
 40
82.0
 40
83.0
 40
83.0
 40
83.0
 40
84.0
 40
84.0
 40
84.0
 40
85.0
 40
85.0
 40
85.0
 40
86.0
 40
86.0
 40
86.0
 40
87.0
 40
87.0
 40
87.0
 40
88.0
 40
88.0
 40
88.0
 40
89.0
 40
89.0
 40
89.0
 40
90.0
 40
90.0
 40
90.0
 40
91.0
 40
91.0
 40
91.0
 40
92.0
 40
92.0
 40
92.0
 40
93.0
 40
93.0
 40
93.0
 40
94.0
 40
94.0
 40
94.0
 40
95.0
 40
95.0
 40
95.0
 40
96.0
 40
96.0
 40
96.0
 40
97.0
 40
97.0
 40
97.0
 40
98.0
 40
98.0
 40
98.0
 40
99.0
 40
99.0
 40
99.0
 40
100.0
 40
100.0
 40
100.0
 40
101.0
 40
101.0
 40
101.0
 40
102.0
 40
102.0
 40
102.0
 40
103.0
 40
103.0
 40
103.0
 40
104.0
 40
104.0
 40
104.0
 40
105.0
 40
105.0
 40
105.0
 40
106.0
 40
106.0
 40
106.0
 40
107.0
 40
107.0
 40
107.0
 40
108.0
 40
108.0
 40
108.0
 40
109.0
 40
109.0
 40
109.0
 40
110.0
 40
110.0
 40
110.0
 40
111.0
 40
111.0
 40
111.0
 40
112.0
 40
112.0
 40
112.0
 40
113.0
 40
113.0
 40
113.0
 40
114.0
 40
114.0
 40
114.0
 40
115.0
 40
115.0
 40
115.0
 40
116.0
 40
116.0
 40
116.0
 40
117.0
 40
117.0
 40
117.0
 40
118.0
 40
118.0
 40
118.0
 40
119.0
 40
119.0
 40
119.0
 40
120.0
 40
120.0
 40
120.0
 40
121.0
 40
121.0
 40
121.0
 40
122.0
 40
122.0
 40
122.0
 40
123.0
 40
123.0
 40
123.0
 40
124.0
 40
124.0
 40
124.0
 40
125.0
 40
125.0
 40
125.0
 40
126.0
 40
126.0
 40
126.0
 40
127.0
 40
127.0
 40
127.0
 40
128.0
 40
128.0
 40
128.0
 40
129.0
 40
129.0
 40
129.0
 40
130.0
 40
130.0
 40
130.0
 40
131.0
 40
131.0
 40
131.0
 40
132.0
 40
132.0
 40
132.0
 40
133.0
 40
133.0
 40
133.0
 40
134.0
 40
134.0
 40
134.0
 40
135.0
 40
135.0
 40
135.0
 40
136.0
 40
136.0
 40
136.0
 40
137.0
 40
137.0
 40
137.0
 40
138.0
 40
138.0
 40
138.0
 40
139.0
 40
139.0
 40
139.0
 40
140.0
 40
140.0
 40
140.0
 40
141.0
 40
141.0
 40
141.0
 40
142.0
 40
142.0
 40
142.0
 40
143.0
 40
143.0
 40
143.0
 40
144.0
 40
144.0
 40
144.0
 40
145.0
 40
145.0
 40
145.0
 40
146.0
 40
146.0
 40
146.0
 40
147.0
 40
147.0
 40
147.0
 40
148.0
 40
148.0
 40
148.0
 40
149.0
 40
149.0
 40
149.0
 40
150.0
 40
150.0
 40
150.0
 40
151.0
 40
151.0
 40
151.0
 40
152.0
 40
152.0
 40
152.0
 40
153.0
 40
153.0
 40
153.0
 40
154.0
 40
154.0
 40
154.0
 40
155.0
 40
155.0
 40
155.0
 40
156.0
 40
156.0
 40
156.0
 40
157.0
 40
157.0
 40
157.0
 40
158.0
 40
158.0
 40
158.0
 40
159.0
 40
159.0
 40
159.0
 40
160.0
 40
160.0
 40
160.0
 40
160.0
 10
1084.913979311081
 20
-85.94432558767585
 30
0.0
 10
1084.913979311081
 20
-85.72095558398723
 30
0.0
 10
1084.9196379725
 20
-85.4989072314902
 30
0.0
 10
1084.93081976378
 20
-85.2783160617546
 30
0.0
 10
1084.94200155506
 20
-85.05772489201809
 30
0.0
 10
1084.958706476191
 20
-84.83859090504393
 30
0.0
 10
1084.980798995601
 20
-84.62104963240017
 30
0.0
 10
1085.00289151502
 20
-84.40350835975642
 30
0.0
 10
1085.03037163272
 20
-84.18755980144397
 30
0.0
 10
1085.06310381714
 20
-83.97333948903179
 30
0.0
 10
1085.09583600155
 20
-83.75911917662052
 30
0.0
 10
1085.13382025268
 20
-83.5466271101086
 30
0.0
 10
1085.17692103895
 20
-83.33599882106864
 30
0.0
 10
1085.220021825229
 20
-83.12537053202868
 30
0.0
 10
1085.26823914665
 20
-82.91660602045886
 30
0.0
 10
1085.321437471641
 20
-82.70984081792903
 30
0.0
 10
1085.37463579663
 20
-82.50307561539921
 30
0.0
 10
1085.432815125199
 20
-82.29830972190939
 30
0.0
 10
1085.495839925779
 20
-82.09567866903035
 30
0.0
 10
1085.55886472635
 20
-81.8930476161513
 30
0.0
 10
1085.62673499893
 20
-81.69255140388123
 30
0.0
 10
1085.699315211939
 20
-81.49432556379179
 30
0.0
 10
1085.771895424959
 20
-81.29609972370235
 30
0.0
 10
1085.84918557841
 20
-81.10014425579266
 30
0.0
 10
1085.931050140731
 20
-80.90659469163256
 30
0.0
 10
1086.01291470304
 20
-80.71304512747247
 30
0.0
 10
1086.099353674221
 20
-80.52190146706198
 30
0.0
 10
1086.1902315227
 20
-80.33329924197096
 30
0.0
 10
1086.281109371181
 20
-80.14469701687995
 30
0.0
 10
1086.376426096949
 20
-79.95863622710749
 30
0.0
 10
1086.476046168449
 20
-79.77525240422437
 30
0.0
 10
1086.575666239951
 20
-79.59186858134126
 30
0.0
 10
1086.679589657169
 20
-79.41116172534748
 30
0.0
 10
1086.787680888559
 20
-79.23326736781291
 30
0.0
 10
1086.89577211994
 20
-79.05537301027834
 30
0.0
 10
1087.00803116548
 20
-78.88029115120207
 30
0.0
 10
1087.124322493601
 20
-78.70815732215488
 30
0.0
 10
1087.24061382173
 20
-78.53602349310768
 30
0.0
 10
1087.360937432441
 20
-78.36683769408864
 30
0.0
 10
1087.48515779417
 20
-78.20073545666855
 30
0.0
 10
1087.609378155899
 20
-78.03463321924755
 30
0.0
 10
1087.73749526864
 20
-77.8716145434255
 30
0.0
 10
1087.869373600839
 20
-77.71181496077133
 30
0.0
 10
1088.00125193303
 20
-77.55201537811809
 30
0.0
 10
1088.13689148467
 20
-77.39543488863183
 30
0.0
 10
1088.276156724191
 20
-77.24220902388333
 30
0.0
 10
1088.415421963709
 20
-77.08898315913575
 30
0.0
 10
1088.5583128911
 20
-76.93911191912593
 30
0.0
 10
1088.7046939748
 20
-76.79273083542284
 30
0.0
 10
1088.85107505851
 20
-76.64634975171975
 30
0.0
 10
1089.00094629852
 20
-76.50345882432521
 30
0.0
 10
1089.15417216326
 20
-76.36419358480816
 30
0.0
 10
1089.30739802801
 20
-76.22492834529021
 30
0.0
 10
1089.4639785175
 20
-76.08928879364976
 30
0.0
 10
1089.623778100151
 20
-75.95741046145758
 30
0.0
 10
1089.783577682811
 20
-75.8255321292645
 30
0.0
 10
1089.94659635863
 20
-75.69741501651879
 30
0.0
 10
1090.112698596051
 20
-75.5731946547894
 30
0.0
 10
1090.27880083347
 20
-75.44897429306093
 30
0.0
 10
1090.447986632491
 20
-75.32865068234878
 30
0.0
 10
1090.620120461539
 20
-75.21235935422374
 30
0.0
 10
1090.79225429058
 20
-75.09606802609869
 30
0.0
 10
1090.967336149661
 20
-74.98380898055984
 30
0.0
 10
1091.145230507191
 20
-74.87571774917797
 30
0.0
 10
1091.32312486473
 20
-74.76762651779609
 30
0.0
 10
1091.50383172072
 20
-74.66370310057027
 30
0.0
 10
1091.687215543599
 20
-74.56408302907039
 30
0.0
 10
1091.87059936649
 20
-74.4644629575705
 30
0.0
 10
1092.05666015626
 20
-74.36914623179655
 30
0.0
 10
1092.24526238135
 20
-74.2782683833193
 30
0.0
 10
1092.433864606441
 20
-74.18739053484205
 30
0.0
 10
1092.62500826685
 20
-74.1009515636606
 30
0.0
 10
1092.818557831009
 20
-74.01908700134481
 30
0.0
 10
1093.01210739517
 20
-73.93722243902903
 30
0.0
 10
1093.208062863079
 20
-73.8599322855789
 30
0.0
 10
1093.406288703171
 20
-73.78735207256432
 30
0.0
 10
1093.60451454326
 20
-73.71477185954973
 30
0.0
 10
1093.80501075553
 20
-73.64690158696976
 30
0.0
 10
1094.00764180841
 20
-73.5838767863961
 30
0.0
 10
1094.21027286129
 20
-73.52085198582245
 30
0.0
 10
1094.41503875478
 20
-73.46267265725328
 30
0.0
 10
1094.62180395731
 20
-73.40947433225938
 30
0.0
 10
1094.828569159839
 20
-73.35627600726548
 30
0.0
 10
1095.037333671409
 20
-73.30805868584685
 30
0.0
 10
1095.247961960449
 20
-73.26495789957335
 30
0.0
 10
1095.458590249491
 20
-73.22185711329985
 30
0.0
 10
1095.671082315999
 20
-73.18387286216966
 30
0.0
 10
1095.88530262841
 20
-73.1511406777554
 30
0.0
 10
1096.09952294082
 20
-73.11840849334021
 30
0.0
 10
1096.31547149914
 20
-73.09092837564003
 30
0.0
 10
1096.533012771781
 20
-73.06883585622381
 30
0.0
 10
1096.750554044429
 20
-73.0467433368076
 30
0.0
 10
1096.9696880314
 20
-73.03003841567624
 30
0.0
 10
1097.190279201141
 20
-73.01885662439781
 30
0.0
 10
1097.41087037087
 20
-73.00767483312029
 30
0.0
 10
1097.63291872337
 20
-73.0020161716966
 30
0.0
 10
1097.85628872706
 20
-73.0020161716966
 30
0.0
 10
1098.07965873075
 20
-73.0020161716966
 30
0.0
 10
1098.301707083239
 20
-73.00767483312029
 30
0.0
 10
1098.522298252979
 20
-73.01885662439781
 30
0.0
 10
1098.742889422711
 20
-73.03003841567624
 30
0.0
 10
1098.962023409689
 20
-73.0467433368076
 30
0.0
 10
1099.17956468233
 20
-73.06883585622381
 30
0.0
 10
1099.39710595498
 20
-73.09092837564003
 30
0.0
 10
1099.613054513291
 20
-73.11840849334021
 30
0.0
 10
1099.8272748257
 20
-73.1511406777554
 30
0.0
 10
1100.04149513811
 20
-73.18387286216966
 30
0.0
 10
1100.25398720462
 20
-73.22185711329985
 30
0.0
 10
1100.46461549366
 20
-73.26495789957335
 30
0.0
 10
1100.6752437827
 20
-73.30805868584685
 30
0.0
 10
1100.88400829427
 20
-73.35627600726548
 30
0.0
 10
1101.0907734968
 20
-73.40947433225938
 30
0.0
 10
1101.297538699329
 20
-73.46267265725328
 30
0.0
 10
1101.502304592821
 20
-73.52085198582245
 30
0.0
 10
1101.704935645699
 20
-73.5838767863961
 30
0.0
 10
1101.907566698581
 20
-73.64690158696976
 30
0.0
 10
1102.108062910851
 20
-73.71477185954973
 30
0.0
 10
1102.30628875094
 20
-73.78735207256432
 30
0.0
 10
1102.50451459103
 20
-73.8599322855789
 30
0.0
 10
1102.70047005894
 20
-73.93722243902903
 30
0.0
 10
1102.8940196231
 20
-74.01908700134481
 30
0.0
 10
1103.087569187261
 20
-74.1009515636606
 30
0.0
 10
1103.27871284767
 20
-74.18739053484205
 30
0.0
 10
1103.467315072759
 20
-74.2782683833193
 30
0.0
 10
1103.65591729785
 20
-74.36914623179655
 30
0.0
 10
1103.841978087619
 20
-74.4644629575705
 30
0.0
 10
1104.02536191051
 20
-74.56408302907039
 30
0.0
 10
1104.208745733391
 20
-74.66370310057027
 30
0.0
 10
1104.389452589379
 20
-74.76762651779609
 30
0.0
 10
1104.56734694692
 20
-74.87571774917797
 30
0.0
 10
1104.74524130445
 20
-74.98380898055984
 30
0.0
 10
1104.920323163529
 20
-75.09606802609869
 30
0.0
 10
1105.092456992581
 20
-75.21235935422374
 30
0.0
 10
1105.264590821629
 20
-75.32865068234878
 30
0.0
 10
1105.433776620641
 20
-75.44897429306093
 30
0.0
 10
1105.59987885806
 20
-75.5731946547894
 30
0.0
 10
1105.765981095479
 20
-75.69741501651879
 30
0.0
 10
1105.928999771309
 20
-75.8255321292645
 30
0.0
 10
1106.08879935396
 20
-75.95741046145758
 30
0.0
 10
1106.248598936611
 20
-76.08928879364976
 30
0.0
 10
1106.405179426099
 20
-76.22492834529021
 30
0.0
 10
1106.558405290851
 20
-76.36419358480816
 30
0.0
 10
1106.7116311556
 20
-76.50345882432521
 30
0.0
 10
1106.86150239561
 20
-76.64634975171975
 30
0.0
 10
1107.007883479309
 20
-76.79273083542284
 30
0.0
 10
1107.154264563011
 20
-76.93911191912593
 30
0.0
 10
1107.297155490411
 20
-77.08898315913575
 30
0.0
 10
1107.43642072993
 20
-77.24220902388333
 30
0.0
 10
1107.575685969439
 20
-77.39543488863183
 30
0.0
 10
1107.711325521081
 20
-77.55201537811809
 30
0.0
 10
1107.843203853281
 20
-77.71181496077133
 30
0.0
 10
1107.97508218547
 20
-77.8716145434255
 30
0.0
 10
1108.10319929821
 20
-78.03463321924755
 30
0.0
 10
1108.227419659939
 20
-78.20073545666855
 30
0.0
 10
1108.35164002167
 20
-78.36683769408864
 30
0.0
 10
1108.471963632381
 20
-78.53602349310768
 30
0.0
 10
1108.58825496051
 20
-78.70815732215488
 30
0.0
 10
1108.704546288631
 20
-78.88029115120207
 30
0.0
 10
1108.816805334171
 20
-79.05537301027834
 30
0.0
 10
1108.924896565561
 20
-79.23326736781291
 30
0.0
 10
1109.03298779694
 20
-79.41116172534748
 30
0.0
 10
1109.13691121416
 20
-79.59186858134126
 30
0.0
 10
1109.23653128566
 20
-79.77525240422437
 30
0.0
 10
1109.33615135716
 20
-79.95863622710749
 30
0.0
 10
1109.431468082939
 20
-80.14469701687995
 30
0.0
 10
1109.522345931409
 20
-80.33329924197096
 30
0.0
 10
1109.61322377989
 20
-80.52190146706198
 30
0.0
 10
1109.699662751071
 20
-80.71304512747247
 30
0.0
 10
1109.781527313389
 20
-80.90659469163256
 30
0.0
 10
1109.8633918757
 20
-81.10014425579266
 30
0.0
 10
1109.94068202915
 20
-81.29609972370235
 30
0.0
 10
1110.01326224217
 20
-81.49432556379179
 30
0.0
 10
1110.085842455181
 20
-81.69255140388123
 30
0.0
 10
1110.153712727761
 20
-81.8930476161513
 30
0.0
 10
1110.216737528341
 20
-82.09567866903035
 30
0.0
 10
1110.27976232891
 20
-82.29830972190939
 30
0.0
 10
1110.337941657481
 20
-82.50307561539921
 30
0.0
 10
1110.39113998247
 20
-82.70984081792903
 30
0.0
 10
1110.44433830747
 20
-82.91660602045886
 30
0.0
 10
1110.492555628891
 20
-83.12537053202868
 30
0.0
 10
1110.535656415161
 20
-83.33599882106864
 30
0.0
 10
1110.578757201431
 20
-83.5466271101086
 30
0.0
 10
1110.616741452561
 20
-83.75911917662052
 30
0.0
 10
1110.64947363698
 20
-83.97333948903179
 30
0.0
 10
1110.682205821389
 20
-84.18755980144397
 30
0.0
 10
1110.709685939089
 20
-84.40350835975642
 30
0.0
 10
1110.73177845851
 20
-84.62104963240017
 30
0.0
 10
1110.753870977929
 20
-84.83859090504393
 30
0.0
 10
1110.77057589906
 20
-85.05772489201809
 30
0.0
 10
1110.781757690331
 20
-85.2783160617546
 30
0.0
 10
1110.792939481609
 20
-85.4989072314902
 30
0.0
 10
1110.798598143039
 20
-85.72095558398723
 30
0.0
 10
1110.798598143039
 20
-85.94432558767585
 30
0.0
 10
1110.798598143039
 20
-86.16769559136446
 30
0.0
 10
1110.792939481609
 20
-86.3897439438615
 30
0.0
 10
1110.781757690331
 20
-86.6103351135971
 30
0.0
 10
1110.77057589906
 20
-86.83092628333361
 30
0.0
 10
1110.753870977929
 20
-87.05006027030777
 30
0.0
 10
1110.73177845851
 20
-87.26760154295152
 30
0.0
 10
1110.709685939089
 20
-87.48514281559528
 30
0.0
 10
1110.682205821389
 20
-87.70109137390773
 30
0.0
 10
1110.64947363698
 20
-87.91531168631991
 30
0.0
 10
1110.616741452561
 20
-88.12953199873118
 30
0.0
 10
1110.578757201431
 20
-88.3420240652431
 30
0.0
 10
1110.535656415161
 20
-88.55265235428305
 30
0.0
 10
1110.492555628891
 20
-88.76328064332392
 30
0.0
 10
1110.44433830747
 20
-88.97204515489375
 30
0.0
 10
1110.39113998247
 20
-89.17881035742357
 30
0.0
 10
1110.337941657481
 20
-89.3855755599534
 30
0.0
 10
1110.27976232891
 20
-89.5903414534423
 30
0.0
 10
1110.216737528341
 20
-89.79297250632226
 30
0.0
 10
1110.153712727761
 20
-89.9956035592013
 30
0.0
 10
1110.085842455181
 20
-90.19609977147047
 30
0.0
 10
1110.01326224217
 20
-90.3943256115599
 30
0.0
 10
1109.94068202915
 20
-90.59255145164934
 30
0.0
 10
1109.8633918757
 20
-90.78850691955995
 30
0.0
 10
1109.781527313389
 20
-90.98205648372004
 30
0.0
 10
1109.699662751071
 20
-91.17560604788014
 30
0.0
 10
1109.61322377989
 20
-91.36674970829063
 30
0.0
 10
1109.522345931409
 20
-91.55535193338164
 30
0.0
 10
1109.431468082939
 20
-91.74395415847357
 30
0.0
 10
1109.33615135716
 20
-91.93001494824512
 30
0.0
 10
1109.23653128566
 20
-92.11339877112823
 30
0.0
 10
1109.13691121416
 20
-92.29678259401044
 30
0.0
 10
1109.03298779694
 20
-92.47748945000421
 30
0.0
 10
1108.924896565561
 20
-92.65538380753969
 30
0.0
 10
1108.816805334171
 20
-92.83327816507426
 30
0.0
 10
1108.704546288631
 20
-93.00836002415053
 30
0.0
 10
1108.58825496051
 20
-93.18049385319773
 30
0.0
 10
1108.471963632381
 20
-93.35262768224493
 30
0.0
 10
1108.35164002167
 20
-93.52181348126396
 30
0.0
 10
1108.227419659939
 20
-93.68791571868496
 30
0.0
 10
1108.10319929821
 20
-93.85401795610505
 30
0.0
 10
1107.97508218547
 20
-94.01703663192711
 30
0.0
 10
1107.843203853281
 20
-94.17683621458127
 30
0.0
 10
1107.711325521081
 20
-94.33663579723543
 30
0.0
 10
1107.575685969439
 20
-94.49321628672078
 30
0.0
 10
1107.43642072993
 20
-94.64644215146927
 30
0.0
 10
1107.297155490411
 20
-94.79966801621686
 30
0.0
 10
1107.154264563011
 20
-94.94953925622758
 30
0.0
 10
1107.007883479309
 20
-95.09592033992976
 30
0.0
 10
1106.86150239561
 20
-95.24230142363194
 30
0.0
 10
1106.7116311556
 20
-95.3851923510274
 30
0.0
 10
1106.558405290851
 20
-95.52445759054444
 30
0.0
 10
1106.405179426099
 20
-95.6637228300624
 30
0.0
 10
1106.248598936611
 20
-95.79936238170194
 30
0.0
 10
1106.08879935396
 20
-95.93124071389502
 30
0.0
 10
1105.928999771309
 20
-96.0631190460881
 30
0.0
 10
1105.765981095479
 20
-96.19123615883382
 30
0.0
 10
1105.59987885806
 20
-96.3154565205623
 30
0.0
 10
1105.433776620641
 20
-96.43967688229168
 30
0.0
 10
1105.264590821629
 20
-96.56000049300383
 30
0.0
 10
1105.092456992581
 20
-96.67629182112887
 30
0.0
 10
1104.920323163529
 20
-96.79258314925391
 30
0.0
 10
1104.74524130445
 20
-96.90484219479276
 30
0.0
 10
1104.56734694692
 20
-97.01293342617464
 30
0.0
 10
1104.389452589379
 20
-97.12102465755743
 30
0.0
 10
1104.208745733391
 20
-97.22494807478324
 30
0.0
 10
1104.02536191051
 20
-97.32456814628222
 30
0.0
 10
1103.841978087619
 20
-97.4241882177812
 30
0.0
 10
1103.65591729785
 20
-97.51950494355515
 30
0.0
 10
1103.467315072759
 20
-97.6103827920324
 30
0.0
 10
1103.27871284767
 20
-97.70126064050964
 30
0.0
 10
1103.087569187261
 20
-97.7876996116911
 30
0.0
 10
1102.8940196231
 20
-97.86956417400688
 30
0.0
 10
1102.70047005894
 20
-97.95142873632267
 30
0.0
 10
1102.50451459103
 20
-98.02871888977279
 30
0.0
 10
1102.30628875094
 20
-98.10129910278738
 30
0.0
 10
1102.108062910851
 20
-98.17387931580197
 30
0.0
 10
1101.907566698581
 20
-98.24174958838194
 30
0.0
 10
1101.704935645699
 20
-98.3047743889556
 30
0.0
 10
1101.502304592821
 20
-98.36779918952925
 30
0.0
 10
1101.297538699329
 20
-98.42597851809842
 30
0.0
 10
1101.0907734968
 20
-98.47917684309232
 30
0.0
 10
1100.88400829427
 20
-98.53237516808622
 30
0.0
 10
1100.6752437827
 20
-98.58059248950485
 30
0.0
 10
1100.46461549366
 20
-98.62369327577835
 30
0.0
 10
1100.25398720462
 20
-98.66679406205185
 30
0.0
 10
1100.04149513811
 20
-98.70477831318203
 30
0.0
 10
1099.8272748257
 20
-98.7375104975963
 30
0.0
 10
1099.613054513291
 20
-98.77024268201149
 30
0.0
 10
1099.39710595498
 20
-98.79772279971166
 30
0.0
 10
1099.17956468233
 20
-98.81981531912788
 30
0.0
 10
1098.962023409689
 20
-98.8419078385441
 30
0.0
 10
1098.742889422711
 20
-98.85861275967545
 30
0.0
 10
1098.522298252979
 20
-98.86979455095388
 30
0.0
 10
1098.301707083239
 20
-98.8809763422314
 30
0.0
 10
1098.07965873075
 20
-98.8866350036551
 30
0.0
 10
1097.85628872706
 20
-98.8866350036551
 30
0.0
 10
1097.63291872337
 20
-98.8866350036551
 30
0.0
 10
1097.41087037087
 20
-98.8809763422314
 30
0.0
 10
1097.190279201141
 20
-98.86979455095388
 30
0.0
 10
1096.9696880314
 20
-98.85861275967545
 30
0.0
 10
1096.750554044429
 20
-98.8419078385441
 30
0.0
 10
1096.533012771781
 20
-98.81981531912788
 30
0.0
 10
1096.31547149914
 20
-98.79772279971166
 30
0.0
 10
1096.09952294082
 20
-98.77024268201149
 30
0.0
 10
1095.88530262841
 20
-98.7375104975963
 30
0.0
 10
1095.671082315999
 20
-98.70477831318203
 30
0.0
 10
1095.458590249491
 20
-98.66679406205185
 30
0.0
 10
1095.247961960449
 20
-98.62369327577835
 30
0.0
 10
1095.037333671409
 20
-98.58059248950485
 30
0.0
 10
1094.828569159839
 20
-98.53237516808622
 30
0.0
 10
1094.62180395731
 20
-98.47917684309232
 30
0.0
 10
1094.41503875478
 20
-98.42597851809842
 30
0.0
 10
1094.21027286129
 20
-98.36779918952925
 30
0.0
 10
1094.00764180841
 20
-98.3047743889556
 30
0.0
 10
1093.80501075553
 20
-98.24174958838194
 30
0.0
 10
1093.60451454326
 20
-98.17387931580197
 30
0.0
 10
1093.406288703171
 20
-98.10129910278738
 30
0.0
 10
1093.208062863079
 20
-98.02871888977279
 30
0.0
 10
1093.01210739517
 20
-97.95142873632267
 30
0.0
 10
1092.818557831009
 20
-97.86956417400688
 30
0.0
 10
1092.62500826685
 20
-97.7876996116911
 30
0.0
 10
1092.433864606441
 20
-97.70126064050964
 30
0.0
 10
1092.24526238135
 20
-97.6103827920324
 30
0.0
 10
1092.05666015626
 20
-97.51950494355515
 30
0.0
 10
1091.87059936649
 20
-97.4241882177812
 30
0.0
 10
1091.687215543599
 20
-97.32456814628222
 30
0.0
 10
1091.50383172072
 20
-97.22494807478324
 30
0.0
 10
1091.32312486473
 20
-97.12102465755743
 30
0.0
 10
1091.145230507191
 20
-97.01293342617464
 30
0.0
 10
1090.967336149661
 20
-96.90484219479276
 30
0.0
 10
1090.79225429058
 20
-96.79258314925391
 30
0.0
 10
1090.620120461539
 20
-96.67629182112887
 30
0.0
 10
1090.447986632491
 20
-96.56000049300383
 30
0.0
 10
1090.27880083347
 20
-96.43967688229168
 30
0.0
 10
1090.112698596051
 20
-96.3154565205623
 30
0.0
 10
1089.94659635863
 20
-96.19123615883382
 30
0.0
 10
1089.783577682811
 20
-96.0631190460881
 30
0.0
 10
1089.623778100151
 20
-95.93124071389502
 30
0.0
 10
1089.4639785175
 20
-95.79936238170194
 30
0.0
 10
1089.30739802801
 20
-95.6637228300624
 30
0.0
 10
1089.15417216326
 20
-95.52445759054444
 30
0.0
 10
1089.00094629852
 20
-95.3851923510274
 30
0.0
 10
1088.85107505851
 20
-95.24230142363194
 30
0.0
 10
1088.7046939748
 20
-95.09592033992976
 30
0.0
 10
1088.5583128911
 20
-94.94953925622758
 30
0.0
 10
1088.415421963709
 20
-94.79966801621686
 30
0.0
 10
1088.276156724191
 20
-94.64644215146927
 30
0.0
 10
1088.13689148467
 20
-94.49321628672078
 30
0.0
 10
1088.00125193303
 20
-94.33663579723543
 30
0.0
 10
1087.869373600839
 20
-94.17683621458127
 30
0.0
 10
1087.73749526864
 20
-94.01703663192711
 30
0.0
 10
1087.609378155899
 20
-93.85401795610505
 30
0.0
 10
1087.48515779417
 20
-93.68791571868496
 30
0.0
 10
1087.360937432441
 20
-93.52181348126396
 30
0.0
 10
1087.24061382173
 20
-93.35262768224493
 30
0.0
 10
1087.124322493601
 20
-93.18049385319773
 30
0.0
 10
1087.00803116548
 20
-93.00836002415053
 30
0.0
 10
1086.89577211994
 20
-92.83327816507426
 30
0.0
 10
1086.787680888559
 20
-92.65538380753969
 30
0.0
 10
1086.679589657169
 20
-92.47748945000421
 30
0.0
 10
1086.575666239951
 20
-92.29678259401044
 30
0.0
 10
1086.476046168449
 20
-92.11339877112823
 30
0.0
 10
1086.376426096949
 20
-91.93001494824512
 30
0.0
 10
1086.281109371181
 20
-91.74395415847357
 30
0.0
 10
1086.1902315227
 20
-91.55535193338164
 30
0.0
 10
1086.099353674221
 20
-91.36674970829063
 30
0.0
 10
1086.01291470304
 20
-91.17560604788014
 30
0.0
 10
1085.931050140731
 20
-90.98205648372004
 30
0.0
 10
1085.84918557841
 20
-90.78850691955995
 30
0.0
 10
1085.771895424959
 20
-90.59255145164934
 30
0.0
 10
1085.699315211939
 20
-90.3943256115599
 30
0.0
 10
1085.62673499893
 20
-90.19609977147047
 30
0.0
 10
1085.55886472635
 20
-89.9956035592013
 30
0.0
 10
1085.495839925779
 20
-89.79297250632226
 30
0.0
 10
1085.432815125199
 20
-89.5903414534423
 30
0.0
 10
1085.37463579663
 20
-89.3855755599534
 30
0.0
 10
1085.321437471641
 20
-89.17881035742357
 30
0.0
 10
1085.26823914665
 20
-88.97204515489375
 30
0.0
 10
1085.220021825229
 20
-88.76328064332392
 30
0.0
 10
1085.17692103895
 20
-88.55265235428305
 30
0.0
 10
1085.13382025268
 20
-88.3420240652431
 30
0.0
 10
1085.09583600155
 20
-88.12953199873118
 30
0.0
 10
1085.06310381714
 20
-87.91531168631991
 30
0.0
 10
1085.03037163272
 20
-87.70109137390773
 30
0.0
 10
1085.00289151502
 20
-87.48514281559528
 30
0.0
 10
1084.980798995601
 20
-87.26760154295152
 30
0.0
 10
1084.958706476191
 20
-87.05006027030777
 30
0.0
 10
1084.94200155506
 20
-86.83092628333361
 30
0.0
 10
1084.93081976378
 20
-86.6103351135971
 30
0.0
 10
1084.9196379725
 20
-86.3897439438615
 30
0.0
 10
1084.913979311081
 20
-86.16769559136446
 30
0.0
 10
1084.913979311081
 20
-85.94432558767585
 30
0.0
 10
1084.913979311081
 20
-85.94432558767585
 30
0.0
 10
1084.913979311081
 20
-85.94432558767585
 30
0.0
 10
1084.913979311081
 20
-85.94432558767585
 30
0.0
 10
1084.913979311081
 20
-85.94432558767585
 30
0.0
 10
1084.913979311081
 20
-85.94432558767585
 30
0.0
 10
1084.913979311081
 20
-85.94432558767585
 30
0.0
 10
1084.913979311081
 20
-85.94432558767585
 30
0.0
 10
1084.913979311081
 20
-85.94432558767585
 30
0.0
 10
1084.913979311081
 20
-85.94432558767585
 30
0.0
 10
1084.913979311081
 20
-85.94432558767585
 30
0.0
 10
1084.913979311081
 20
-85.94432558767585
 30
0.0
 10
1084.913979311081
 20
-85.94432558767585
 30
0.0
 10
1084.913979311081
 20
-85.94432558767585
 30
0.0
 10
1084.913979311081
 20
-85.94432558767585
 30
0.0
 10
1084.913979311081
 20
-85.94432558767585
 30
0.0
 10
1084.913979311081
 20
-85.94432558767585
 30
0.0
 10
1084.913979311081
 20
-85.94432558767585
 30
0.0
 10
1084.913979311081
 20
-85.94432558767585
 30
0.0
 10
1084.913979311081
 20
-85.94432558767585
 30
0.0
 10
1084.913979311081
 20
-85.94432558767585
 30
0.0
 10
1084.913979311081
 20
-85.94432558767585
 30
0.0
 10
1084.913979311081
 20
-85.94432558767585
 30
0.0
 10
1084.913979311081
 20
-85.94432558767585
 30
0.0
 10
1084.913979311081
 20
-85.94432558767585
 30
0.0
 10
1084.913979311081
 20
-85.94432558767585
 30
0.0
 10
1084.913979311081
 20
-85.94432558767585
 30
0.0
 10
1084.913979311081
 20
-85.94432558767585
 30
0.0
 10
1084.913979311081
 20
-85.94432558767585
 30
0.0
 10
1084.913979311081
 20
-85.94432558767585
 30
0.0
 10
1084.913979311081
 20
-85.94432558767585
 30
0.0
 10
1084.913979311081
 20
-85.94432558767585
 30
0.0
 10
1084.913979311081
 20
-85.94432558767585
 30
0.0
 10
1084.913979311081
 20
-85.94432558767585
 30
0.0
 10
1084.913979311081
 20
-85.94432558767585
 30
0.0
 10
1084.913979311081
 20
-85.94432558767585
 30
0.0
 10
1084.913979311081
 20
-85.94432558767585
 30
0.0
 10
1084.913979311081
 20
-85.94432558767585
 30
0.0
 10
1084.913979311081
 20
-85.94432558767585
 30
0.0
 10
1084.913979311081
 20
-85.94432558767585
 30
0.0
 10
1084.913979311081
 20
-85.94432558767585
 30
0.0
 10
1084.913979311081
 20
-85.94432558767585
 30
0.0
 10
1084.913979311081
 20
-85.94432558767585
 30
0.0
 10
1084.913979311081
 20
-85.94432558767585
 30
0.0
 10
1084.913979311081
 20
-85.94432558767585
 30
0.0
 10
1084.913979311081
 20
-85.94432558767585
 30
0.0
 10
1084.913979311081
 20
-85.94432558767585
 30
0.0
 10
1084.913979311081
 20
-85.94432558767585
 30
0.0
 10
1084.913979311081
 20
-85.94432558767585
 30
0.0
 10
1084.913979311081
 20
-85.94432558767585
 30
0.0
 10
1084.913979311081
 20
-85.94432558767585
 30
0.0
 10
1084.913979311081
 20
-85.94432558767585
 30
0.0
 10
1084.913979311081
 20
-85.94432558767585
 30
0.0
 10
1084.913979311081
 20
-85.94432558767585
 30
0.0
 10
1084.913979311081
 20
-85.94432558767585
 30
0.0
 10
1084.913979311081
 20
-85.94432558767585
 30
0.0
 10
1084.913979311081
 20
-85.94432558767585
 30
0.0
 10
1084.913979311081
 20
-85.94432558767585
 30
0.0
 10
1084.913979311081
 20
-85.94432558767585
 30
0.0
 10
1084.913979311081
 20
-85.94432558767585
 30
0.0
 10
1084.913979311081
 20
-85.94432558767585
 30
0.0
 10
1084.913979311081
 20
-85.94432558767585
 30
0.0
 10
1084.913979311081
 20
-85.94432558767585
 30
0.0
 10
1084.913979311081
 20
-85.94432558767585
 30
0.0
 10
1084.913979311081
 20
-85.94432558767585
 30
0.0
 10
1084.913979311081
 20
-85.94432558767585
 30
0.0
 10
1084.913979311081
 20
-85.94432558767585
 30
0.0
 10
1084.913979311081
 20
-85.94432558767585
 30
0.0
 10
1084.913979311081
 20
-85.94432558767585
 30
0.0
 10
1084.913979311081
 20
-85.94432558767585
 30
0.0
 10
1084.913979311081
 20
-85.94432558767585
 30
0.0
 10
1084.913979311081
 20
-85.94432558767585
 30
0.0
 10
1084.913979311081
 20
-85.94432558767585
 30
0.0
 10
1084.913979311081
 20
-85.94432558767585
 30
0.0
 10
1084.913979311081
 20
-85.94432558767585
 30
0.0
 10
1084.913979311081
 20
-85.94432558767585
 30
0.0
 10
1084.913979311081
 20
-85.94432558767585
 30
0.0
 10
1084.913979311081
 20
-85.94432558767585
 30
0.0
 10
1084.913979311081
 20
-85.94432558767585
 30
0.0
 10
1084.913979311081
 20
-85.94432558767585
 30
0.0
 10
1084.913979311081
 20
-85.94432558767585
 30
0.0
 10
1084.913979311081
 20
-85.94432558767585
 30
0.0
 10
1084.913979311081
 20
-85.94432558767585
 30
0.0
 10
1084.913979311081
 20
-85.94432558767585
 30
0.0
 10
1084.913979311081
 20
-85.94432558767585
 30
0.0
 10
1084.913979311081
 20
-85.94432558767585
 30
0.0
 10
1084.913979311081
 20
-85.94432558767585
 30
0.0
 10
1084.913979311081
 20
-85.94432558767585
 30
0.0
 10
1084.913979311081
 20
-85.94432558767585
 30
0.0
 10
1084.913979311081
 20
-85.94432558767585
 30
0.0
 10
1084.913979311081
 20
-85.94432558767585
 30
0.0
 10
1084.913979311081
 20
-85.94432558767585
 30
0.0
 10
1084.913979311081
 20
-85.94432558767585
 30
0.0
 10
1084.913979311081
 20
-85.94432558767585
 30
0.0
 10
1084.913979311081
 20
-85.94432558767585
 30
0.0
 10
1084.913979311081
 20
-85.94432558767585
 30
0.0
 10
1084.913979311081
 20
-85.94432558767585
 30
0.0
  0
ENDBLK
  5
48
330
45
100
AcDbEntity
  8
0
100
AcDbBlockEnd
  0
ENDSEC
  0
SECTION
  2
ENTITIES
  0
INSERT
  5
42
330
1F
100
AcDbEntity
  8
LAYER_1
100
AcDbBlockReference
  2
BLOCK_2
 10
0.0
 20
0.0
 30
0.0
  0
ENDSEC
  0
SECTION
  2
OBJECTS
  0
DICTIONARY
  5
C
330
0
100
AcDbDictionary
  3
ACAD_GROUP
350
D
  3
ACAD_LAYOUT
350
1A
  3
ACAD_MATERIAL
350
3B
  3
ACAD_MLEADERSTYLE
350
4C
  3
ACAD_MLINESTYLE
350
17
  3
ACAD_PLOTSETTINGS
350
19
  3
ACAD_VISUALSTYLE
350
2A
  3
ACDBVARIABLEDICTIONARY
350
4A
1001
ACAD
1000
TREAT_AS_HARD
1070
     0
  0
DICTIONARY
  5
D
102
{ACAD_REACTORS
330
C
102
}
330
C
100
AcDbDictionary
1001
ACAD
1000
TREAT_AS_HARD
1070
     0
  0
DICTIONARY
  5
1A
102
{ACAD_REACTORS
330
C
102
}
330
C
100
AcDbDictionary
1001
ACAD
1000
TREAT_AS_HARD
1070
     0
  0
DICTIONARY
  5
3B
102
{ACAD_REACTORS
330
C
102
}
330
C
100
AcDbDictionary
  3
BYBLOCK
350
3D
  3
BYLAYER
350
3C
  3
GLOBAL
350
3E
1001
ACAD
1000
TREAT_AS_HARD
1070
     0
  0
DICTIONARY
  5
4C
102
{ACAD_REACTORS
330
C
102
}
330
C
100
AcDbDictionary
1001
ACAD
1000
TREAT_AS_HARD
1070
     0
  0
DICTIONARY
  5
17
102
{ACAD_REACTORS
330
C
102
}
330
C
100
AcDbDictionary
  3
STANDARD
350
18
1001
ACAD
1000
TREAT_AS_HARD
1070
     0
  0
DICTIONARY
  5
19
102
{ACAD_REACTORS
330
C
102
}
330
C
100
AcDbDictionary
1001
ACAD
1000
TREAT_AS_HARD
1070
     0
  0
DICTIONARY
  5
2A
102
{ACAD_REACTORS
330
C
102
}
330
C
100
AcDbDictionary
  3
2DWIREFRAME
350
2F
  3
3DWIREFRAME
350
30
  3
3D_HIDDEN
350
31
  3
BASIC
350
32
  3
BRIGHTEN
350
36
  3
COLORCHANGE
350
3A
  3
CONCEPTUAL
350
34
  3
DIM
350
35
  3
FACEPATTERN
350
39
  3
FLAT
350
2B
  3
FLATWITHEDGES
350
2C
  3
GOURAUD
350
2D
  3
GOURAUDWITHEDGES
350
2E
  3
LINEPATTERN
350
38
  3
REALISTIC
350
33
  3
THICKEN
350
37
1001
ACAD
1000
TREAT_AS_HARD
1070
     0
  0
DICTIONARY
  5
4A
102
{ACAD_REACTORS
330
C
102
}
330
C
100
AcDbDictionary
  3
DIMASSOC
350
4D
  3
HIDETEXT
350
4E
1001
ACAD
1000
TREAT_AS_HARD
1070
     0
  0
MATERIAL
  5
3D
102
{ACAD_REACTORS
330
3B
102
}
102
{ACAD_XDICTIONARY
360
51
102
}
330
3B
100
AcDbMaterial
  1
ByBlock
  0
MATERIAL
  5
3C
102
{ACAD_REACTORS
330
3B
102
}
102
{ACAD_XDICTIONARY
360
4F
102
}
330
3B
100
AcDbMaterial
  1
ByLayer
  0
MATERIAL
  5
3E
102
{ACAD_REACTORS
330
3B
102
}
102
{ACAD_XDICTIONARY
360
53
102
}
330
3B
100
AcDbMaterial
  1
Global
  0
MLINESTYLE
  5
18
102
{ACAD_REACTORS
330
17
102
}
330
17
100
AcDbMlineStyle
  2
Standard
 70
     0
  3

 62
   256
 51
90.0
 52
90.0
 71
     2
 49
0.5
 62
   256
  6
BYLAYER
 49
-0.5
 62
   256
  6
BYLAYER
  0
ACAD_PROXY_OBJECT
  5
2F
102
{ACAD_REACTORS
330
2A
102
}
330
2A
100
AcDbZombieObject
 90
      499
 91
      501
 93
      436
310
42CC9915DA5C99599C985B595049028333333333333E3BF0000000000000FB0107901411070040501600405405064090741402480A0340
1001
ACAD
1000
AcDbSavedByObjectVersion
1070
     0
  0
ACAD_PROXY_OBJECT
  5
30
102
{ACAD_REACTORS
330
2A
102
}
330
2A
100
AcDbZombieObject
 90
      499
 91
      501
 93
      436
310
42CCD915DA5C99599C985B595059028333333333333E3BF0000000000000FB0107901411070040501600405405064090741402480A0340
1001
ACAD
1000
AcDbSavedByObjectVersion
1070
     0
  0
ACAD_PROXY_OBJECT
  5
31
102
{ACAD_REACTORS
330
2A
102
}
330
2A
100
AcDbZombieObject
 90
      499
 91
      501
 93
      500
310
424CD108121A5919195B90640502408333333333333E3BF0000000000000FB01079024090700405020000000000001110200405405064090740C02480A0340
1001
ACAD
1000
AcDbSavedByObjectVersion
1070
     0
  0
ACAD_PROXY_OBJECT
  5
32
102
{ACAD_REACTORS
330
2A
102
}
330
2A
100
AcDbZombieObject
 90
      499
 91
      501
 93
      388
310
4150985CDA58D07406404333333333333E3BF0000000000000FB0107A41107004050150841D405064090741402480A0350
1001
ACAD
1000
AcDbSavedByObjectVersion
1070
     0
  0
ACAD_PROXY_OBJECT
  5
36
102
{ACAD_REACTORS
330
2A
102
}
330
2A
100
AcDbZombieObject
 90
      499
 91
      501
 93
      428
310
42109C9A59DA1D195B90C409028333333333333E3BF0000000000000FB010790141107004050150841D405064090741402480A029950
1001
ACAD
1000
AcDbSavedByObjectVersion
1070
     0
  0
ACAD_PROXY_OBJECT
  5
3A
102
{ACAD_REACTORS
330
2A
102
}
330
2A
100
AcDbZombieObject
 90
      499
 91
      501
 93
      452
310
42D0DBDB1BDC90DA185B99D95104090240C333333333333E3BF0000000000000FB0108901411070040501508421405064090741402480A0350
1001
ACAD
1000
AcDbSavedByObjectVersion
1070
     0
  0
ACAD_PROXY_OBJECT
  5
34
102
{ACAD_REACTORS
330
2A
102
}
330
2A
100
AcDbZombieObject
 90
      499
 91
      501
 93
      500
310
4290DBDB98D95C1D1D585B10940D028333333333333E3BF0000000000000FB0107902409070040501000000000000111010841D405064090740C02480A0340
1001
ACAD
1000
AcDbSavedByObjectVersion
1070
     0
  0
ACAD_PROXY_OBJECT
  5
35
102
{ACAD_REACTORS
330
2A
102
}
330
2A
100
AcDbZombieObject
 90
      499
 91
      501
 93
      412
310
40D11A5B50B409028333333333333E3BF0000000000000FB010790141107004050150841D405064090741402480A02677FFFFFD0
1001
ACAD
1000
AcDbSavedByObjectVersion
1070
     0
  0
ACAD_PROXY_OBJECT
  5
39
102
{ACAD_REACTORS
330
2A
102
}
330
2A
100
AcDbZombieObject
 90
      499
 91
      501
 93
      444
310
42D19858D95C185D1D195C9B90F409028333333333333E3BF0000000000000FB010790141107004050150841D405064090741402480A0350
1001
ACAD
1000
AcDbSavedByObjectVersion
1070
     0
  0
ACAD_PROXY_OBJECT
  5
2B
102
{ACAD_REACTORS
330
2A
102
}
330
2A
100
AcDbZombieObject
 90
      499
 91
      501
 93
      388
310
41119B185D240901404333333333333E3BF0000000000000F9010740A41107004050150841D405064090741402480A1B50
1001
ACAD
1000
AcDbSavedByObjectVersion
1070
     0
  0
ACAD_PROXY_OBJECT
  5
2C
102
{ACAD_REACTORS
330
2A
102
}
330
2A
100
AcDbZombieObject
 90
      499
 91
      501
 93
      476
310
43519B185D15DA5D1A115919D95CD0140901404333333333333E3BF0000000000000F9010740901411070040501600405405064090741402480A1B50
1001
ACAD
1000
AcDbSavedByObjectVersion
1070
     0
  0
ACAD_PROXY_OBJECT
  5
2D
102
{ACAD_REACTORS
330
2A
102
}
330
2A
100
AcDbZombieObject
 90
      499
 91
      501
 93
      412
310
41D1DBDD5C985D5910240902404333333333333E3BF0000000000000F9010740A411070040501641D405064090741402480A1B50
1001
ACAD
1000
AcDbSavedByObjectVersion
1070
     0
  0
ACAD_PROXY_OBJECT
  5
2E
102
{ACAD_REACTORS
330
2A
102
}
330
2A
100
AcDbZombieObject
 90
      499
 91
      501
 93
      500
310
4411DBDD5C985D5915DA5D1A115919D95CD0340902404333333333333E3BF0000000000000F9010740901411070040501600405405064090741402480A1B50
1001
ACAD
1000
AcDbSavedByObjectVersion
1070
     0
  0
ACAD_PROXY_OBJECT
  5
38
102
{ACAD_REACTORS
330
2A
102
}
330
2A
100
AcDbZombieObject
 90
      499
 91
      501
 93
      444
310
42D31A5B995C185D1D195C9B90E409028333333333333E3BF0000000000000FB010790141107004050750841D405064090741402483A0350
1001
ACAD
1000
AcDbSavedByObjectVersion
1070
     0
  0
ACAD_PROXY_OBJECT
  5
33
102
{ACAD_REACTORS
330
2A
102
}
330
2A
100
AcDbZombieObject
 90
      499
 91
      501
 93
      420
310
425499585B1A5CDD1A58D08409028333333333333E3BF0000000000000FB01079019070040501508421405064090741402480A1B40
1001
ACAD
1000
AcDbSavedByObjectVersion
1070
     0
  0
ACAD_PROXY_OBJECT
  5
37
102
{ACAD_REACTORS
330
2A
102
}
330
2A
100
AcDbZombieObject
 90
      499
 91
      501
 93
      412
310
41D51A1A58DAD95B90D409028333333333333E3BF0000000000000FB010790141107004050150C41D405064090741402480A0350
1001
ACAD
1000
AcDbSavedByObjectVersion
1070
     0
  0
DICTIONARYVAR
  5
4D
102
{ACAD_REACTORS
330
4A
102
}
330
4A
100
DictionaryVariables
280
     0
  1
2
  0
DICTIONARYVAR
  5
4E
102
{ACAD_REACTORS
330
4A
102
}
330
4A
100
DictionaryVariables
280
     0
  1
1
  0
DICTIONARY
  5
51
330
3D
100
AcDbDictionary
  3
ACAD_XREC_ROUNDTRIP
360
52
1001
ACAD
1000
TREAT_AS_HARD
1070
     1
  0
DICTIONARY
  5
4F
330
3C
100
AcDbDictionary
  3
ACAD_XREC_ROUNDTRIP
360
50
1001
ACAD
1000
TREAT_AS_HARD
1070
     1
  0
DICTIONARY
  5
53
330
3E
100
AcDbDictionary
  3
ACAD_XREC_ROUNDTRIP
360
54
1001
ACAD
1000
TREAT_AS_HARD
1070
     1
  0
XRECORD
  5
52
102
{ACAD_REACTORS
330
51
102
}
330
51
100
AcDbXrecord
102
MATERIAL
148
0.0
149
0.0
149
0.0
 93
        0
 94
      127
282
     0
 72
     1
 77
     1
171
     1
175
     1
179
     1
273
     0
  0
XRECORD
  5
50
102
{ACAD_REACTORS
330
4F
102
}
330
4F
100
AcDbXrecord
102
MATERIAL
148
0.0
149
0.0
149
0.0
 93
        0
 94
      127
282
     0
 72
     1
 77
     1
171
     1
175
     1
179
     1
273
     0
  0
XRECORD
  5
54
102
{ACAD_REACTORS
330
53
102
}
330
53
100
AcDbXrecord
102
MATERIAL
148
0.0
149
0.0
149
0.0
 93
        0
 94
      127
282
     0
 72
     1
 77
     1
171
     1
175
     1
179
     1
273
     0
  0
ENDSEC
  0
EOF
