G75*
%MOIN*%
%OFA0B0*%
%FSLAX25Y25*%
%IPPOS*%
%LPD*%
%AMOC8*
5,1,8,0,0,1.08239X$1,22.5*
%
%ADD10C,0.13398*%
%ADD11R,0.07099X0.07887*%
%ADD12R,0.07887X0.07099*%
%ADD13R,0.05800X0.08800*%
%ADD14C,0.05600*%
%ADD15R,0.05131X0.04737*%
%ADD16R,0.04737X0.05131*%
D10*
X0252603Y0172546D03*
X0430802Y0172565D03*
X0430814Y0471795D03*
X0252590Y0471775D03*
D11*
G36*
X0239472Y0493504D02*
X0233325Y0489955D01*
X0229382Y0496784D01*
X0235529Y0500333D01*
X0239472Y0493504D01*
G37*
G36*
X0249018Y0499016D02*
X0242871Y0495467D01*
X0238928Y0502296D01*
X0245075Y0505845D01*
X0249018Y0499016D01*
G37*
G36*
X0287724Y0514583D02*
X0280869Y0512746D01*
X0278828Y0520363D01*
X0285683Y0522200D01*
X0287724Y0514583D01*
G37*
G36*
X0298372Y0517437D02*
X0291517Y0515600D01*
X0289476Y0523217D01*
X0296331Y0525054D01*
X0298372Y0517437D01*
G37*
X0336188Y0525800D03*
X0347212Y0525800D03*
G36*
X0391183Y0515500D02*
X0384328Y0517337D01*
X0386369Y0524954D01*
X0393224Y0523117D01*
X0391183Y0515500D01*
G37*
G36*
X0401831Y0512646D02*
X0394976Y0514483D01*
X0397017Y0522100D01*
X0403872Y0520263D01*
X0401831Y0512646D01*
G37*
G36*
X0440429Y0496067D02*
X0434282Y0499616D01*
X0438225Y0506445D01*
X0444372Y0502896D01*
X0440429Y0496067D01*
G37*
G36*
X0449975Y0490555D02*
X0443828Y0494104D01*
X0447771Y0500933D01*
X0453918Y0497384D01*
X0449975Y0490555D01*
G37*
G36*
X0481425Y0465900D02*
X0476406Y0470919D01*
X0481981Y0476494D01*
X0487000Y0471475D01*
X0481425Y0465900D01*
G37*
G36*
X0489219Y0458106D02*
X0484200Y0463125D01*
X0489775Y0468700D01*
X0494794Y0463681D01*
X0489219Y0458106D01*
G37*
G36*
X0514104Y0423028D02*
X0510555Y0429175D01*
X0517384Y0433118D01*
X0520933Y0426971D01*
X0514104Y0423028D01*
G37*
G36*
X0519616Y0413482D02*
X0516067Y0419629D01*
X0522896Y0423572D01*
X0526445Y0417425D01*
X0519616Y0413482D01*
G37*
G36*
X0534183Y0376476D02*
X0532346Y0383331D01*
X0539963Y0385372D01*
X0541800Y0378517D01*
X0534183Y0376476D01*
G37*
G36*
X0537037Y0365828D02*
X0535200Y0372683D01*
X0542817Y0374724D01*
X0544654Y0367869D01*
X0537037Y0365828D01*
G37*
G36*
X0534900Y0271717D02*
X0536737Y0278572D01*
X0544354Y0276531D01*
X0542517Y0269676D01*
X0534900Y0271717D01*
G37*
G36*
X0532046Y0261069D02*
X0533883Y0267924D01*
X0541500Y0265883D01*
X0539663Y0259028D01*
X0532046Y0261069D01*
G37*
G36*
X0516167Y0224971D02*
X0519716Y0231118D01*
X0526545Y0227175D01*
X0522996Y0221028D01*
X0516167Y0224971D01*
G37*
G36*
X0510655Y0215425D02*
X0514204Y0221572D01*
X0521033Y0217629D01*
X0517484Y0211482D01*
X0510655Y0215425D01*
G37*
G36*
X0484400Y0181675D02*
X0489419Y0186694D01*
X0494994Y0181119D01*
X0489975Y0176100D01*
X0484400Y0181675D01*
G37*
G36*
X0476606Y0173881D02*
X0481625Y0178900D01*
X0487200Y0173325D01*
X0482181Y0168306D01*
X0476606Y0173881D01*
G37*
G36*
X0443828Y0149896D02*
X0449975Y0153445D01*
X0453918Y0146616D01*
X0447771Y0143067D01*
X0443828Y0149896D01*
G37*
G36*
X0434282Y0144384D02*
X0440429Y0147933D01*
X0444372Y0141104D01*
X0438225Y0137555D01*
X0434282Y0144384D01*
G37*
G36*
X0394676Y0129517D02*
X0401531Y0131354D01*
X0403572Y0123737D01*
X0396717Y0121900D01*
X0394676Y0129517D01*
G37*
G36*
X0384028Y0126663D02*
X0390883Y0128500D01*
X0392924Y0120883D01*
X0386069Y0119046D01*
X0384028Y0126663D01*
G37*
X0347812Y0118300D03*
X0336788Y0118300D03*
G36*
X0291517Y0128800D02*
X0298372Y0126963D01*
X0296331Y0119346D01*
X0289476Y0121183D01*
X0291517Y0128800D01*
G37*
G36*
X0280869Y0131654D02*
X0287724Y0129817D01*
X0285683Y0122200D01*
X0278828Y0124037D01*
X0280869Y0131654D01*
G37*
G36*
X0243471Y0148733D02*
X0249618Y0145184D01*
X0245675Y0138355D01*
X0239528Y0141904D01*
X0243471Y0148733D01*
G37*
G36*
X0233925Y0154245D02*
X0240072Y0150696D01*
X0236129Y0143867D01*
X0229982Y0147416D01*
X0233925Y0154245D01*
G37*
G36*
X0201775Y0179800D02*
X0206794Y0174781D01*
X0201219Y0169206D01*
X0196200Y0174225D01*
X0201775Y0179800D01*
G37*
G36*
X0193981Y0187594D02*
X0199000Y0182575D01*
X0193425Y0177000D01*
X0188406Y0182019D01*
X0193981Y0187594D01*
G37*
G36*
X0169196Y0221072D02*
X0172745Y0214925D01*
X0165916Y0210982D01*
X0162367Y0217129D01*
X0169196Y0221072D01*
G37*
G36*
X0163684Y0230618D02*
X0167233Y0224471D01*
X0160404Y0220528D01*
X0156855Y0226675D01*
X0163684Y0230618D01*
G37*
G36*
X0149217Y0268424D02*
X0151054Y0261569D01*
X0143437Y0259528D01*
X0141600Y0266383D01*
X0149217Y0268424D01*
G37*
G36*
X0146363Y0279072D02*
X0148200Y0272217D01*
X0140583Y0270176D01*
X0138746Y0277031D01*
X0146363Y0279072D01*
G37*
G36*
X0148100Y0371383D02*
X0146263Y0364528D01*
X0138646Y0366569D01*
X0140483Y0373424D01*
X0148100Y0371383D01*
G37*
G36*
X0150954Y0382031D02*
X0149117Y0375176D01*
X0141500Y0377217D01*
X0143337Y0384072D01*
X0150954Y0382031D01*
G37*
G36*
X0167633Y0420729D02*
X0164084Y0414582D01*
X0157255Y0418525D01*
X0160804Y0424672D01*
X0167633Y0420729D01*
G37*
G36*
X0173145Y0430275D02*
X0169596Y0424128D01*
X0162767Y0428071D01*
X0166316Y0434218D01*
X0173145Y0430275D01*
G37*
G36*
X0199500Y0462125D02*
X0194481Y0457106D01*
X0188906Y0462681D01*
X0193925Y0467700D01*
X0199500Y0462125D01*
G37*
G36*
X0207294Y0469919D02*
X0202275Y0464900D01*
X0196700Y0470475D01*
X0201719Y0475494D01*
X0207294Y0469919D01*
G37*
D12*
X0137800Y0327612D03*
X0137800Y0316588D03*
X0545500Y0316588D03*
X0545500Y0327612D03*
D13*
X0402100Y0174600D03*
X0392100Y0174600D03*
X0382100Y0174600D03*
X0372100Y0174600D03*
X0362100Y0174600D03*
X0352100Y0174600D03*
X0342100Y0174600D03*
X0332100Y0174600D03*
X0322100Y0174600D03*
X0312100Y0174600D03*
X0302100Y0174600D03*
X0292100Y0174600D03*
X0282100Y0174600D03*
X0282100Y0151600D03*
X0292100Y0151600D03*
X0302100Y0151600D03*
X0312100Y0151600D03*
X0322100Y0151600D03*
X0332100Y0151600D03*
X0342100Y0151600D03*
X0352100Y0151600D03*
X0362100Y0151600D03*
X0372100Y0151600D03*
X0382100Y0151600D03*
X0392100Y0151600D03*
X0402100Y0151600D03*
D14*
X0398470Y0490010D03*
X0388470Y0490010D03*
X0378470Y0490010D03*
D15*
G36*
X0174595Y0180154D02*
X0178222Y0176527D01*
X0174873Y0173178D01*
X0171246Y0176805D01*
X0174595Y0180154D01*
G37*
G36*
X0179327Y0175422D02*
X0182954Y0171795D01*
X0179605Y0168446D01*
X0175978Y0172073D01*
X0179327Y0175422D01*
G37*
G36*
X0191395Y0163754D02*
X0195022Y0160127D01*
X0191673Y0156778D01*
X0188046Y0160405D01*
X0191395Y0163754D01*
G37*
G36*
X0196127Y0159022D02*
X0199754Y0155395D01*
X0196405Y0152046D01*
X0192778Y0155673D01*
X0196127Y0159022D01*
G37*
G36*
X0216865Y0141906D02*
X0221307Y0139341D01*
X0218939Y0135240D01*
X0214497Y0137805D01*
X0216865Y0141906D01*
G37*
G36*
X0222661Y0138560D02*
X0227103Y0135995D01*
X0224735Y0131894D01*
X0220293Y0134459D01*
X0222661Y0138560D01*
G37*
G36*
X0238165Y0130306D02*
X0242607Y0127741D01*
X0240239Y0123640D01*
X0235797Y0126205D01*
X0238165Y0130306D01*
G37*
G36*
X0243961Y0126960D02*
X0248403Y0124395D01*
X0246035Y0120294D01*
X0241593Y0122859D01*
X0243961Y0126960D01*
G37*
G36*
X0268304Y0115717D02*
X0273258Y0114389D01*
X0272032Y0109815D01*
X0267078Y0111143D01*
X0268304Y0115717D01*
G37*
G36*
X0274768Y0113985D02*
X0279722Y0112657D01*
X0278496Y0108083D01*
X0273542Y0109411D01*
X0274768Y0113985D01*
G37*
G36*
X0290404Y0109817D02*
X0295358Y0108489D01*
X0294132Y0103915D01*
X0289178Y0105243D01*
X0290404Y0109817D01*
G37*
G36*
X0296868Y0108085D02*
X0301822Y0106757D01*
X0300596Y0102183D01*
X0295642Y0103511D01*
X0296868Y0108085D01*
G37*
X0326054Y0101900D03*
X0332746Y0101900D03*
X0349954Y0101800D03*
X0356646Y0101800D03*
G36*
X0380878Y0106957D02*
X0385832Y0108285D01*
X0387058Y0103711D01*
X0382104Y0102383D01*
X0380878Y0106957D01*
G37*
G36*
X0387342Y0108689D02*
X0392296Y0110017D01*
X0393522Y0105443D01*
X0388568Y0104115D01*
X0387342Y0108689D01*
G37*
G36*
X0403978Y0112457D02*
X0408932Y0113785D01*
X0410158Y0109211D01*
X0405204Y0107883D01*
X0403978Y0112457D01*
G37*
G36*
X0410442Y0114189D02*
X0415396Y0115517D01*
X0416622Y0110943D01*
X0411668Y0109615D01*
X0410442Y0114189D01*
G37*
G36*
X0435297Y0124395D02*
X0439739Y0126960D01*
X0442107Y0122859D01*
X0437665Y0120294D01*
X0435297Y0124395D01*
G37*
G36*
X0441093Y0127741D02*
X0445535Y0130306D01*
X0447903Y0126205D01*
X0443461Y0123640D01*
X0441093Y0127741D01*
G37*
G36*
X0455897Y0136195D02*
X0460339Y0138760D01*
X0462707Y0134659D01*
X0458265Y0132094D01*
X0455897Y0136195D01*
G37*
G36*
X0461693Y0139541D02*
X0466135Y0142106D01*
X0468503Y0138005D01*
X0464061Y0135440D01*
X0461693Y0139541D01*
G37*
G36*
X0483746Y0155695D02*
X0487373Y0159322D01*
X0490722Y0155973D01*
X0487095Y0152346D01*
X0483746Y0155695D01*
G37*
G36*
X0488478Y0160427D02*
X0492105Y0164054D01*
X0495454Y0160705D01*
X0491827Y0157078D01*
X0488478Y0160427D01*
G37*
G36*
X0500046Y0171995D02*
X0503673Y0175622D01*
X0507022Y0172273D01*
X0503395Y0168646D01*
X0500046Y0171995D01*
G37*
G36*
X0504778Y0176727D02*
X0508405Y0180354D01*
X0511754Y0177005D01*
X0508127Y0173378D01*
X0504778Y0176727D01*
G37*
G36*
X0522094Y0197165D02*
X0524659Y0201607D01*
X0528760Y0199239D01*
X0526195Y0194797D01*
X0522094Y0197165D01*
G37*
G36*
X0525440Y0202961D02*
X0528005Y0207403D01*
X0532106Y0205035D01*
X0529541Y0200593D01*
X0525440Y0202961D01*
G37*
G36*
X0533594Y0218065D02*
X0536159Y0222507D01*
X0540260Y0220139D01*
X0537695Y0215697D01*
X0533594Y0218065D01*
G37*
G36*
X0536940Y0223861D02*
X0539505Y0228303D01*
X0543606Y0225935D01*
X0541041Y0221493D01*
X0536940Y0223861D01*
G37*
G36*
X0548083Y0249104D02*
X0549411Y0254058D01*
X0553985Y0252832D01*
X0552657Y0247878D01*
X0548083Y0249104D01*
G37*
G36*
X0549815Y0255568D02*
X0551143Y0260522D01*
X0555717Y0259296D01*
X0554389Y0254342D01*
X0549815Y0255568D01*
G37*
G36*
X0554583Y0271104D02*
X0555911Y0276058D01*
X0560485Y0274832D01*
X0559157Y0269878D01*
X0554583Y0271104D01*
G37*
G36*
X0556315Y0277568D02*
X0557643Y0282522D01*
X0562217Y0281296D01*
X0560889Y0276342D01*
X0556315Y0277568D01*
G37*
G36*
X0558043Y0362278D02*
X0556715Y0367232D01*
X0561289Y0368458D01*
X0562617Y0363504D01*
X0558043Y0362278D01*
G37*
G36*
X0556311Y0368742D02*
X0554983Y0373696D01*
X0559557Y0374922D01*
X0560885Y0369968D01*
X0556311Y0368742D01*
G37*
G36*
X0551243Y0384778D02*
X0549915Y0389732D01*
X0554489Y0390958D01*
X0555817Y0386004D01*
X0551243Y0384778D01*
G37*
G36*
X0549511Y0391242D02*
X0548183Y0396196D01*
X0552757Y0397422D01*
X0554085Y0392468D01*
X0549511Y0391242D01*
G37*
G36*
X0540005Y0416297D02*
X0537440Y0420739D01*
X0541541Y0423107D01*
X0544106Y0418665D01*
X0540005Y0416297D01*
G37*
G36*
X0536659Y0422093D02*
X0534094Y0426535D01*
X0538195Y0428903D01*
X0540760Y0424461D01*
X0536659Y0422093D01*
G37*
G36*
X0528305Y0436497D02*
X0525740Y0440939D01*
X0529841Y0443307D01*
X0532406Y0438865D01*
X0528305Y0436497D01*
G37*
G36*
X0524959Y0442293D02*
X0522394Y0446735D01*
X0526495Y0449103D01*
X0529060Y0444661D01*
X0524959Y0442293D01*
G37*
G36*
X0508505Y0464146D02*
X0504878Y0467773D01*
X0508227Y0471122D01*
X0511854Y0467495D01*
X0508505Y0464146D01*
G37*
G36*
X0503773Y0468878D02*
X0500146Y0472505D01*
X0503495Y0475854D01*
X0507122Y0472227D01*
X0503773Y0468878D01*
G37*
G36*
X0491705Y0481146D02*
X0488078Y0484773D01*
X0491427Y0488122D01*
X0495054Y0484495D01*
X0491705Y0481146D01*
G37*
G36*
X0486973Y0485878D02*
X0483346Y0489505D01*
X0486695Y0492854D01*
X0490322Y0489227D01*
X0486973Y0485878D01*
G37*
G36*
X0465935Y0502794D02*
X0461493Y0505359D01*
X0463861Y0509460D01*
X0468303Y0506895D01*
X0465935Y0502794D01*
G37*
G36*
X0460139Y0506140D02*
X0455697Y0508705D01*
X0458065Y0512806D01*
X0462507Y0510241D01*
X0460139Y0506140D01*
G37*
G36*
X0445735Y0514394D02*
X0441293Y0516959D01*
X0443661Y0521060D01*
X0448103Y0518495D01*
X0445735Y0514394D01*
G37*
G36*
X0439939Y0517740D02*
X0435497Y0520305D01*
X0437865Y0524406D01*
X0442307Y0521841D01*
X0439939Y0517740D01*
G37*
G36*
X0415196Y0528883D02*
X0410242Y0530211D01*
X0411468Y0534785D01*
X0416422Y0533457D01*
X0415196Y0528883D01*
G37*
G36*
X0408732Y0530615D02*
X0403778Y0531943D01*
X0405004Y0536517D01*
X0409958Y0535189D01*
X0408732Y0530615D01*
G37*
G36*
X0392296Y0534783D02*
X0387342Y0536111D01*
X0388568Y0540685D01*
X0393522Y0539357D01*
X0392296Y0534783D01*
G37*
G36*
X0385832Y0536515D02*
X0380878Y0537843D01*
X0382104Y0542417D01*
X0387058Y0541089D01*
X0385832Y0536515D01*
G37*
X0356946Y0543100D03*
X0350254Y0543100D03*
X0332946Y0543000D03*
X0326254Y0543000D03*
G36*
X0301922Y0537443D02*
X0296968Y0536115D01*
X0295742Y0540689D01*
X0300696Y0542017D01*
X0301922Y0537443D01*
G37*
G36*
X0295458Y0535711D02*
X0290504Y0534383D01*
X0289278Y0538957D01*
X0294232Y0540285D01*
X0295458Y0535711D01*
G37*
G36*
X0279622Y0531643D02*
X0274668Y0530315D01*
X0273442Y0534889D01*
X0278396Y0536217D01*
X0279622Y0531643D01*
G37*
G36*
X0273158Y0529911D02*
X0268204Y0528583D01*
X0266978Y0533157D01*
X0271932Y0534485D01*
X0273158Y0529911D01*
G37*
G36*
X0247303Y0519505D02*
X0242861Y0516940D01*
X0240493Y0521041D01*
X0244935Y0523606D01*
X0247303Y0519505D01*
G37*
G36*
X0241507Y0516159D02*
X0237065Y0513594D01*
X0234697Y0517695D01*
X0239139Y0520260D01*
X0241507Y0516159D01*
G37*
G36*
X0227903Y0508705D02*
X0223461Y0506140D01*
X0221093Y0510241D01*
X0225535Y0512806D01*
X0227903Y0508705D01*
G37*
G36*
X0222107Y0505359D02*
X0217665Y0502794D01*
X0215297Y0506895D01*
X0219739Y0509460D01*
X0222107Y0505359D01*
G37*
G36*
X0199754Y0489005D02*
X0196127Y0485378D01*
X0192778Y0488727D01*
X0196405Y0492354D01*
X0199754Y0489005D01*
G37*
G36*
X0195022Y0484273D02*
X0191395Y0480646D01*
X0188046Y0483995D01*
X0191673Y0487622D01*
X0195022Y0484273D01*
G37*
G36*
X0183154Y0472405D02*
X0179527Y0468778D01*
X0176178Y0472127D01*
X0179805Y0475754D01*
X0183154Y0472405D01*
G37*
G36*
X0178422Y0467673D02*
X0174795Y0464046D01*
X0171446Y0467395D01*
X0175073Y0471022D01*
X0178422Y0467673D01*
G37*
G36*
X0161306Y0447135D02*
X0158741Y0442693D01*
X0154640Y0445061D01*
X0157205Y0449503D01*
X0161306Y0447135D01*
G37*
G36*
X0157960Y0441339D02*
X0155395Y0436897D01*
X0151294Y0439265D01*
X0153859Y0443707D01*
X0157960Y0441339D01*
G37*
G36*
X0149506Y0426935D02*
X0146941Y0422493D01*
X0142840Y0424861D01*
X0145405Y0429303D01*
X0149506Y0426935D01*
G37*
G36*
X0146160Y0421139D02*
X0143595Y0416697D01*
X0139494Y0419065D01*
X0142059Y0423507D01*
X0146160Y0421139D01*
G37*
G36*
X0134517Y0395796D02*
X0133189Y0390842D01*
X0128615Y0392068D01*
X0129943Y0397022D01*
X0134517Y0395796D01*
G37*
G36*
X0132785Y0389332D02*
X0131457Y0384378D01*
X0126883Y0385604D01*
X0128211Y0390558D01*
X0132785Y0389332D01*
G37*
G36*
X0128417Y0372796D02*
X0127089Y0367842D01*
X0122515Y0369068D01*
X0123843Y0374022D01*
X0128417Y0372796D01*
G37*
G36*
X0126685Y0366332D02*
X0125357Y0361378D01*
X0120783Y0362604D01*
X0122111Y0367558D01*
X0126685Y0366332D01*
G37*
G36*
X0125657Y0282622D02*
X0126985Y0277668D01*
X0122411Y0276442D01*
X0121083Y0281396D01*
X0125657Y0282622D01*
G37*
G36*
X0127389Y0276158D02*
X0128717Y0271204D01*
X0124143Y0269978D01*
X0122815Y0274932D01*
X0127389Y0276158D01*
G37*
G36*
X0131657Y0259822D02*
X0132985Y0254868D01*
X0128411Y0253642D01*
X0127083Y0258596D01*
X0131657Y0259822D01*
G37*
G36*
X0133389Y0253358D02*
X0134717Y0248404D01*
X0130143Y0247178D01*
X0128815Y0252132D01*
X0133389Y0253358D01*
G37*
G36*
X0143495Y0228603D02*
X0146060Y0224161D01*
X0141959Y0221793D01*
X0139394Y0226235D01*
X0143495Y0228603D01*
G37*
G36*
X0146841Y0222807D02*
X0149406Y0218365D01*
X0145305Y0215997D01*
X0142740Y0220439D01*
X0146841Y0222807D01*
G37*
G36*
X0155395Y0208003D02*
X0157960Y0203561D01*
X0153859Y0201193D01*
X0151294Y0205635D01*
X0155395Y0208003D01*
G37*
G36*
X0158741Y0202207D02*
X0161306Y0197765D01*
X0157205Y0195397D01*
X0154640Y0199839D01*
X0158741Y0202207D01*
G37*
D16*
X0120600Y0306954D03*
X0120600Y0313646D03*
X0120600Y0330454D03*
X0120600Y0337146D03*
X0562500Y0337046D03*
X0562500Y0330354D03*
X0562700Y0313946D03*
X0562700Y0307254D03*
M02*
