G75*
%MOIN*%
%OFA0B0*%
%FSLAX25Y25*%
%IPPOS*%
%LPD*%
%AMOC8*
5,1,8,0,0,1.08239X$1,22.5*
%
%ADD10R,0.06299X0.07087*%
%ADD11R,0.07087X0.06299*%
%ADD12R,0.05000X0.08000*%
%ADD13R,0.04331X0.03937*%
%ADD14R,0.03937X0.04331*%
D10*
G36*
X0193981Y0187028D02*
X0198434Y0182575D01*
X0193425Y0177566D01*
X0188972Y0182019D01*
X0193981Y0187028D01*
G37*
G36*
X0201775Y0179234D02*
X0206228Y0174781D01*
X0201219Y0169772D01*
X0196766Y0174225D01*
X0201775Y0179234D01*
G37*
G36*
X0234072Y0153698D02*
X0239525Y0150549D01*
X0235982Y0144414D01*
X0230529Y0147563D01*
X0234072Y0153698D01*
G37*
G36*
X0243618Y0148186D02*
X0249071Y0145037D01*
X0245528Y0138902D01*
X0240075Y0142051D01*
X0243618Y0148186D01*
G37*
G36*
X0281152Y0131164D02*
X0287234Y0129534D01*
X0285400Y0122690D01*
X0279318Y0124320D01*
X0281152Y0131164D01*
G37*
G36*
X0291800Y0128310D02*
X0297882Y0126680D01*
X0296048Y0119836D01*
X0289966Y0121466D01*
X0291800Y0128310D01*
G37*
X0336788Y0118300D03*
X0347812Y0118300D03*
G36*
X0384518Y0126380D02*
X0390600Y0128010D01*
X0392434Y0121166D01*
X0386352Y0119536D01*
X0384518Y0126380D01*
G37*
G36*
X0395166Y0129234D02*
X0401248Y0130864D01*
X0403082Y0124020D01*
X0397000Y0122390D01*
X0395166Y0129234D01*
G37*
G36*
X0434829Y0144237D02*
X0440282Y0147386D01*
X0443825Y0141251D01*
X0438372Y0138102D01*
X0434829Y0144237D01*
G37*
G36*
X0444375Y0149749D02*
X0449828Y0152898D01*
X0453371Y0146763D01*
X0447918Y0143614D01*
X0444375Y0149749D01*
G37*
G36*
X0477172Y0173881D02*
X0481625Y0178334D01*
X0486634Y0173325D01*
X0482181Y0168872D01*
X0477172Y0173881D01*
G37*
G36*
X0484966Y0181675D02*
X0489419Y0186128D01*
X0494428Y0181119D01*
X0489975Y0176666D01*
X0484966Y0181675D01*
G37*
G36*
X0511202Y0215572D02*
X0514351Y0221025D01*
X0520486Y0217482D01*
X0517337Y0212029D01*
X0511202Y0215572D01*
G37*
G36*
X0516714Y0225118D02*
X0519863Y0230571D01*
X0525998Y0227028D01*
X0522849Y0221575D01*
X0516714Y0225118D01*
G37*
G36*
X0532536Y0261352D02*
X0534166Y0267434D01*
X0541010Y0265600D01*
X0539380Y0259518D01*
X0532536Y0261352D01*
G37*
G36*
X0535390Y0272000D02*
X0537020Y0278082D01*
X0543864Y0276248D01*
X0542234Y0270166D01*
X0535390Y0272000D01*
G37*
G36*
X0537320Y0366318D02*
X0535690Y0372400D01*
X0542534Y0374234D01*
X0544164Y0368152D01*
X0537320Y0366318D01*
G37*
G36*
X0534466Y0376966D02*
X0532836Y0383048D01*
X0539680Y0384882D01*
X0541310Y0378800D01*
X0534466Y0376966D01*
G37*
G36*
X0519763Y0414029D02*
X0516614Y0419482D01*
X0522749Y0423025D01*
X0525898Y0417572D01*
X0519763Y0414029D01*
G37*
G36*
X0514251Y0423575D02*
X0511102Y0429028D01*
X0517237Y0432571D01*
X0520386Y0427118D01*
X0514251Y0423575D01*
G37*
G36*
X0489219Y0458672D02*
X0484766Y0463125D01*
X0489775Y0468134D01*
X0494228Y0463681D01*
X0489219Y0458672D01*
G37*
G36*
X0481425Y0466466D02*
X0476972Y0470919D01*
X0481981Y0475928D01*
X0486434Y0471475D01*
X0481425Y0466466D01*
G37*
G36*
X0449828Y0491102D02*
X0444375Y0494251D01*
X0447918Y0500386D01*
X0453371Y0497237D01*
X0449828Y0491102D01*
G37*
G36*
X0440282Y0496614D02*
X0434829Y0499763D01*
X0438372Y0505898D01*
X0443825Y0502749D01*
X0440282Y0496614D01*
G37*
G36*
X0401548Y0513136D02*
X0395466Y0514766D01*
X0397300Y0521610D01*
X0403382Y0519980D01*
X0401548Y0513136D01*
G37*
G36*
X0390900Y0515990D02*
X0384818Y0517620D01*
X0386652Y0524464D01*
X0392734Y0522834D01*
X0390900Y0515990D01*
G37*
X0347212Y0525800D03*
X0336188Y0525800D03*
G36*
X0297882Y0517720D02*
X0291800Y0516090D01*
X0289966Y0522934D01*
X0296048Y0524564D01*
X0297882Y0517720D01*
G37*
G36*
X0287234Y0514866D02*
X0281152Y0513236D01*
X0279318Y0520080D01*
X0285400Y0521710D01*
X0287234Y0514866D01*
G37*
G36*
X0248471Y0499163D02*
X0243018Y0496014D01*
X0239475Y0502149D01*
X0244928Y0505298D01*
X0248471Y0499163D01*
G37*
G36*
X0238925Y0493651D02*
X0233472Y0490502D01*
X0229929Y0496637D01*
X0235382Y0499786D01*
X0238925Y0493651D01*
G37*
G36*
X0206728Y0469919D02*
X0202275Y0465466D01*
X0197266Y0470475D01*
X0201719Y0474928D01*
X0206728Y0469919D01*
G37*
G36*
X0198934Y0462125D02*
X0194481Y0457672D01*
X0189472Y0462681D01*
X0193925Y0467134D01*
X0198934Y0462125D01*
G37*
G36*
X0172598Y0430128D02*
X0169449Y0424675D01*
X0163314Y0428218D01*
X0166463Y0433671D01*
X0172598Y0430128D01*
G37*
G36*
X0167086Y0420582D02*
X0163937Y0415129D01*
X0157802Y0418672D01*
X0160951Y0424125D01*
X0167086Y0420582D01*
G37*
G36*
X0150464Y0381748D02*
X0148834Y0375666D01*
X0141990Y0377500D01*
X0143620Y0383582D01*
X0150464Y0381748D01*
G37*
G36*
X0147610Y0371100D02*
X0145980Y0365018D01*
X0139136Y0366852D01*
X0140766Y0372934D01*
X0147610Y0371100D01*
G37*
G36*
X0146080Y0278582D02*
X0147710Y0272500D01*
X0140866Y0270666D01*
X0139236Y0276748D01*
X0146080Y0278582D01*
G37*
G36*
X0148934Y0267934D02*
X0150564Y0261852D01*
X0143720Y0260018D01*
X0142090Y0266100D01*
X0148934Y0267934D01*
G37*
G36*
X0163537Y0230071D02*
X0166686Y0224618D01*
X0160551Y0221075D01*
X0157402Y0226528D01*
X0163537Y0230071D01*
G37*
G36*
X0169049Y0220525D02*
X0172198Y0215072D01*
X0166063Y0211529D01*
X0162914Y0216982D01*
X0169049Y0220525D01*
G37*
D11*
X0137800Y0316588D03*
X0137800Y0327612D03*
X0545500Y0327612D03*
X0545500Y0316588D03*
D12*
X0402100Y0174600D03*
X0392100Y0174600D03*
X0382100Y0174600D03*
X0372100Y0174600D03*
X0362100Y0174600D03*
X0352100Y0174600D03*
X0342100Y0174600D03*
X0332100Y0174600D03*
X0322100Y0174600D03*
X0312100Y0174600D03*
X0302100Y0174600D03*
X0292100Y0174600D03*
X0282100Y0174600D03*
X0282100Y0151600D03*
X0292100Y0151600D03*
X0302100Y0151600D03*
X0312100Y0151600D03*
X0322100Y0151600D03*
X0332100Y0151600D03*
X0342100Y0151600D03*
X0352100Y0151600D03*
X0362100Y0151600D03*
X0372100Y0151600D03*
X0382100Y0151600D03*
X0392100Y0151600D03*
X0402100Y0151600D03*
D13*
G36*
X0174595Y0179588D02*
X0177656Y0176527D01*
X0174873Y0173744D01*
X0171812Y0176805D01*
X0174595Y0179588D01*
G37*
G36*
X0179327Y0174856D02*
X0182388Y0171795D01*
X0179605Y0169012D01*
X0176544Y0172073D01*
X0179327Y0174856D01*
G37*
G36*
X0191395Y0163188D02*
X0194456Y0160127D01*
X0191673Y0157344D01*
X0188612Y0160405D01*
X0191395Y0163188D01*
G37*
G36*
X0196127Y0158456D02*
X0199188Y0155395D01*
X0196405Y0152612D01*
X0193344Y0155673D01*
X0196127Y0158456D01*
G37*
G36*
X0217012Y0141359D02*
X0220760Y0139194D01*
X0218792Y0135787D01*
X0215044Y0137952D01*
X0217012Y0141359D01*
G37*
G36*
X0222808Y0138013D02*
X0226556Y0135848D01*
X0224588Y0132441D01*
X0220840Y0134606D01*
X0222808Y0138013D01*
G37*
G36*
X0238312Y0129759D02*
X0242060Y0127594D01*
X0240092Y0124187D01*
X0236344Y0126352D01*
X0238312Y0129759D01*
G37*
G36*
X0244108Y0126413D02*
X0247856Y0124248D01*
X0245888Y0120841D01*
X0242140Y0123006D01*
X0244108Y0126413D01*
G37*
G36*
X0268587Y0115227D02*
X0272768Y0114106D01*
X0271749Y0110305D01*
X0267568Y0111426D01*
X0268587Y0115227D01*
G37*
G36*
X0275051Y0113495D02*
X0279232Y0112374D01*
X0278213Y0108573D01*
X0274032Y0109694D01*
X0275051Y0113495D01*
G37*
G36*
X0290687Y0109327D02*
X0294868Y0108206D01*
X0293849Y0104405D01*
X0289668Y0105526D01*
X0290687Y0109327D01*
G37*
G36*
X0297151Y0107595D02*
X0301332Y0106474D01*
X0300313Y0102673D01*
X0296132Y0103794D01*
X0297151Y0107595D01*
G37*
X0326054Y0101900D03*
X0332746Y0101900D03*
X0349954Y0101800D03*
X0356646Y0101800D03*
G36*
X0381368Y0106674D02*
X0385549Y0107795D01*
X0386568Y0103994D01*
X0382387Y0102873D01*
X0381368Y0106674D01*
G37*
G36*
X0387832Y0108406D02*
X0392013Y0109527D01*
X0393032Y0105726D01*
X0388851Y0104605D01*
X0387832Y0108406D01*
G37*
G36*
X0404468Y0112174D02*
X0408649Y0113295D01*
X0409668Y0109494D01*
X0405487Y0108373D01*
X0404468Y0112174D01*
G37*
G36*
X0410932Y0113906D02*
X0415113Y0115027D01*
X0416132Y0111226D01*
X0411951Y0110105D01*
X0410932Y0113906D01*
G37*
G36*
X0435844Y0124248D02*
X0439592Y0126413D01*
X0441560Y0123006D01*
X0437812Y0120841D01*
X0435844Y0124248D01*
G37*
G36*
X0441640Y0127594D02*
X0445388Y0129759D01*
X0447356Y0126352D01*
X0443608Y0124187D01*
X0441640Y0127594D01*
G37*
G36*
X0456444Y0136048D02*
X0460192Y0138213D01*
X0462160Y0134806D01*
X0458412Y0132641D01*
X0456444Y0136048D01*
G37*
G36*
X0462240Y0139394D02*
X0465988Y0141559D01*
X0467956Y0138152D01*
X0464208Y0135987D01*
X0462240Y0139394D01*
G37*
G36*
X0484312Y0155695D02*
X0487373Y0158756D01*
X0490156Y0155973D01*
X0487095Y0152912D01*
X0484312Y0155695D01*
G37*
G36*
X0489044Y0160427D02*
X0492105Y0163488D01*
X0494888Y0160705D01*
X0491827Y0157644D01*
X0489044Y0160427D01*
G37*
G36*
X0500612Y0171995D02*
X0503673Y0175056D01*
X0506456Y0172273D01*
X0503395Y0169212D01*
X0500612Y0171995D01*
G37*
G36*
X0505344Y0176727D02*
X0508405Y0179788D01*
X0511188Y0177005D01*
X0508127Y0173944D01*
X0505344Y0176727D01*
G37*
G36*
X0522641Y0197312D02*
X0524806Y0201060D01*
X0528213Y0199092D01*
X0526048Y0195344D01*
X0522641Y0197312D01*
G37*
G36*
X0525987Y0203108D02*
X0528152Y0206856D01*
X0531559Y0204888D01*
X0529394Y0201140D01*
X0525987Y0203108D01*
G37*
G36*
X0534141Y0218212D02*
X0536306Y0221960D01*
X0539713Y0219992D01*
X0537548Y0216244D01*
X0534141Y0218212D01*
G37*
G36*
X0537487Y0224008D02*
X0539652Y0227756D01*
X0543059Y0225788D01*
X0540894Y0222040D01*
X0537487Y0224008D01*
G37*
G36*
X0548573Y0249387D02*
X0549694Y0253568D01*
X0553495Y0252549D01*
X0552374Y0248368D01*
X0548573Y0249387D01*
G37*
G36*
X0550305Y0255851D02*
X0551426Y0260032D01*
X0555227Y0259013D01*
X0554106Y0254832D01*
X0550305Y0255851D01*
G37*
G36*
X0555073Y0271387D02*
X0556194Y0275568D01*
X0559995Y0274549D01*
X0558874Y0270368D01*
X0555073Y0271387D01*
G37*
G36*
X0556805Y0277851D02*
X0557926Y0282032D01*
X0561727Y0281013D01*
X0560606Y0276832D01*
X0556805Y0277851D01*
G37*
G36*
X0558326Y0362768D02*
X0557205Y0366949D01*
X0561006Y0367968D01*
X0562127Y0363787D01*
X0558326Y0362768D01*
G37*
G36*
X0556594Y0369232D02*
X0555473Y0373413D01*
X0559274Y0374432D01*
X0560395Y0370251D01*
X0556594Y0369232D01*
G37*
G36*
X0551526Y0385268D02*
X0550405Y0389449D01*
X0554206Y0390468D01*
X0555327Y0386287D01*
X0551526Y0385268D01*
G37*
G36*
X0549794Y0391732D02*
X0548673Y0395913D01*
X0552474Y0396932D01*
X0553595Y0392751D01*
X0549794Y0391732D01*
G37*
G36*
X0540152Y0416844D02*
X0537987Y0420592D01*
X0541394Y0422560D01*
X0543559Y0418812D01*
X0540152Y0416844D01*
G37*
G36*
X0536806Y0422640D02*
X0534641Y0426388D01*
X0538048Y0428356D01*
X0540213Y0424608D01*
X0536806Y0422640D01*
G37*
G36*
X0528452Y0437044D02*
X0526287Y0440792D01*
X0529694Y0442760D01*
X0531859Y0439012D01*
X0528452Y0437044D01*
G37*
G36*
X0525106Y0442840D02*
X0522941Y0446588D01*
X0526348Y0448556D01*
X0528513Y0444808D01*
X0525106Y0442840D01*
G37*
G36*
X0508505Y0464712D02*
X0505444Y0467773D01*
X0508227Y0470556D01*
X0511288Y0467495D01*
X0508505Y0464712D01*
G37*
G36*
X0503773Y0469444D02*
X0500712Y0472505D01*
X0503495Y0475288D01*
X0506556Y0472227D01*
X0503773Y0469444D01*
G37*
G36*
X0491705Y0481712D02*
X0488644Y0484773D01*
X0491427Y0487556D01*
X0494488Y0484495D01*
X0491705Y0481712D01*
G37*
G36*
X0486973Y0486444D02*
X0483912Y0489505D01*
X0486695Y0492288D01*
X0489756Y0489227D01*
X0486973Y0486444D01*
G37*
G36*
X0465788Y0503341D02*
X0462040Y0505506D01*
X0464008Y0508913D01*
X0467756Y0506748D01*
X0465788Y0503341D01*
G37*
G36*
X0459992Y0506687D02*
X0456244Y0508852D01*
X0458212Y0512259D01*
X0461960Y0510094D01*
X0459992Y0506687D01*
G37*
G36*
X0445588Y0514941D02*
X0441840Y0517106D01*
X0443808Y0520513D01*
X0447556Y0518348D01*
X0445588Y0514941D01*
G37*
G36*
X0439792Y0518287D02*
X0436044Y0520452D01*
X0438012Y0523859D01*
X0441760Y0521694D01*
X0439792Y0518287D01*
G37*
G36*
X0414913Y0529373D02*
X0410732Y0530494D01*
X0411751Y0534295D01*
X0415932Y0533174D01*
X0414913Y0529373D01*
G37*
G36*
X0408449Y0531105D02*
X0404268Y0532226D01*
X0405287Y0536027D01*
X0409468Y0534906D01*
X0408449Y0531105D01*
G37*
G36*
X0392013Y0535273D02*
X0387832Y0536394D01*
X0388851Y0540195D01*
X0393032Y0539074D01*
X0392013Y0535273D01*
G37*
G36*
X0385549Y0537005D02*
X0381368Y0538126D01*
X0382387Y0541927D01*
X0386568Y0540806D01*
X0385549Y0537005D01*
G37*
X0356946Y0543100D03*
X0350254Y0543100D03*
X0332946Y0543000D03*
X0326254Y0543000D03*
G36*
X0301432Y0537726D02*
X0297251Y0536605D01*
X0296232Y0540406D01*
X0300413Y0541527D01*
X0301432Y0537726D01*
G37*
G36*
X0294968Y0535994D02*
X0290787Y0534873D01*
X0289768Y0538674D01*
X0293949Y0539795D01*
X0294968Y0535994D01*
G37*
G36*
X0279132Y0531926D02*
X0274951Y0530805D01*
X0273932Y0534606D01*
X0278113Y0535727D01*
X0279132Y0531926D01*
G37*
G36*
X0272668Y0530194D02*
X0268487Y0529073D01*
X0267468Y0532874D01*
X0271649Y0533995D01*
X0272668Y0530194D01*
G37*
G36*
X0246756Y0519652D02*
X0243008Y0517487D01*
X0241040Y0520894D01*
X0244788Y0523059D01*
X0246756Y0519652D01*
G37*
G36*
X0240960Y0516306D02*
X0237212Y0514141D01*
X0235244Y0517548D01*
X0238992Y0519713D01*
X0240960Y0516306D01*
G37*
G36*
X0227356Y0508852D02*
X0223608Y0506687D01*
X0221640Y0510094D01*
X0225388Y0512259D01*
X0227356Y0508852D01*
G37*
G36*
X0221560Y0505506D02*
X0217812Y0503341D01*
X0215844Y0506748D01*
X0219592Y0508913D01*
X0221560Y0505506D01*
G37*
G36*
X0199188Y0489005D02*
X0196127Y0485944D01*
X0193344Y0488727D01*
X0196405Y0491788D01*
X0199188Y0489005D01*
G37*
G36*
X0194456Y0484273D02*
X0191395Y0481212D01*
X0188612Y0483995D01*
X0191673Y0487056D01*
X0194456Y0484273D01*
G37*
G36*
X0182588Y0472405D02*
X0179527Y0469344D01*
X0176744Y0472127D01*
X0179805Y0475188D01*
X0182588Y0472405D01*
G37*
G36*
X0177856Y0467673D02*
X0174795Y0464612D01*
X0172012Y0467395D01*
X0175073Y0470456D01*
X0177856Y0467673D01*
G37*
G36*
X0160759Y0446988D02*
X0158594Y0443240D01*
X0155187Y0445208D01*
X0157352Y0448956D01*
X0160759Y0446988D01*
G37*
G36*
X0157413Y0441192D02*
X0155248Y0437444D01*
X0151841Y0439412D01*
X0154006Y0443160D01*
X0157413Y0441192D01*
G37*
G36*
X0148959Y0426788D02*
X0146794Y0423040D01*
X0143387Y0425008D01*
X0145552Y0428756D01*
X0148959Y0426788D01*
G37*
G36*
X0145613Y0420992D02*
X0143448Y0417244D01*
X0140041Y0419212D01*
X0142206Y0422960D01*
X0145613Y0420992D01*
G37*
G36*
X0134027Y0395513D02*
X0132906Y0391332D01*
X0129105Y0392351D01*
X0130226Y0396532D01*
X0134027Y0395513D01*
G37*
G36*
X0132295Y0389049D02*
X0131174Y0384868D01*
X0127373Y0385887D01*
X0128494Y0390068D01*
X0132295Y0389049D01*
G37*
G36*
X0127927Y0372513D02*
X0126806Y0368332D01*
X0123005Y0369351D01*
X0124126Y0373532D01*
X0127927Y0372513D01*
G37*
G36*
X0126195Y0366049D02*
X0125074Y0361868D01*
X0121273Y0362887D01*
X0122394Y0367068D01*
X0126195Y0366049D01*
G37*
G36*
X0125374Y0282132D02*
X0126495Y0277951D01*
X0122694Y0276932D01*
X0121573Y0281113D01*
X0125374Y0282132D01*
G37*
G36*
X0127106Y0275668D02*
X0128227Y0271487D01*
X0124426Y0270468D01*
X0123305Y0274649D01*
X0127106Y0275668D01*
G37*
G36*
X0131374Y0259332D02*
X0132495Y0255151D01*
X0128694Y0254132D01*
X0127573Y0258313D01*
X0131374Y0259332D01*
G37*
G36*
X0133106Y0252868D02*
X0134227Y0248687D01*
X0130426Y0247668D01*
X0129305Y0251849D01*
X0133106Y0252868D01*
G37*
G36*
X0143348Y0228056D02*
X0145513Y0224308D01*
X0142106Y0222340D01*
X0139941Y0226088D01*
X0143348Y0228056D01*
G37*
G36*
X0146694Y0222260D02*
X0148859Y0218512D01*
X0145452Y0216544D01*
X0143287Y0220292D01*
X0146694Y0222260D01*
G37*
G36*
X0155248Y0207456D02*
X0157413Y0203708D01*
X0154006Y0201740D01*
X0151841Y0205488D01*
X0155248Y0207456D01*
G37*
G36*
X0158594Y0201660D02*
X0160759Y0197912D01*
X0157352Y0195944D01*
X0155187Y0199692D01*
X0158594Y0201660D01*
G37*
D14*
X0120600Y0306954D03*
X0120600Y0313646D03*
X0120600Y0330454D03*
X0120600Y0337146D03*
X0562500Y0337046D03*
X0562500Y0330354D03*
X0562700Y0313946D03*
X0562700Y0307254D03*
M02*
