G75*
%MOIN*%
%OFA0B0*%
%FSLAX25Y25*%
%IPPOS*%
%LPD*%
%AMOC8*
5,1,8,0,0,1.08239X$1,22.5*
%
%ADD10C,0.00000*%
D10*
X0199265Y0198078D02*
X0199234Y0198110D01*
X0199218Y0198126D01*
X0199187Y0198157D01*
X0199171Y0198173D01*
X0199156Y0198189D01*
X0199140Y0198205D01*
X0199125Y0198221D01*
X0199094Y0198253D01*
X0199078Y0198269D01*
X0199047Y0198301D01*
X0199032Y0198317D01*
X0199016Y0198334D01*
X0199001Y0198350D01*
X0198985Y0198366D01*
X0198970Y0198382D01*
X0198955Y0198398D01*
X0198939Y0198414D01*
X0198924Y0198431D01*
X0198909Y0198447D01*
X0198893Y0198463D01*
X0198878Y0198479D01*
X0198863Y0198496D01*
X0198848Y0198512D01*
X0198832Y0198528D01*
X0198817Y0198545D01*
X0198802Y0198561D01*
X0198787Y0198577D01*
X0198772Y0198594D01*
X0198756Y0198610D01*
X0198741Y0198627D01*
X0198726Y0198643D01*
X0198711Y0198660D01*
X0198696Y0198676D01*
X0198681Y0198693D01*
X0198666Y0198709D01*
X0198636Y0198742D01*
X0198621Y0198759D01*
X0198606Y0198776D01*
X0198591Y0198792D01*
X0198576Y0198809D01*
X0198561Y0198826D01*
X0198546Y0198842D01*
X0198531Y0198859D01*
X0198516Y0198876D01*
X0198502Y0198892D01*
X0198487Y0198909D01*
X0198472Y0198926D01*
X0198457Y0198943D01*
X0198442Y0198960D01*
X0198413Y0198993D01*
X0198398Y0199010D01*
X0198383Y0199027D01*
X0198369Y0199044D01*
X0198354Y0199061D01*
X0198339Y0199078D01*
X0198325Y0199095D01*
X0198310Y0199112D01*
X0198295Y0199129D01*
X0198058Y0199405D01*
X0197822Y0199683D01*
X0197586Y0199960D01*
X0197351Y0200238D01*
X0197116Y0200516D01*
X0196649Y0201073D01*
X0196417Y0201352D01*
X0195953Y0201911D01*
X0195722Y0202191D01*
X0195263Y0202752D01*
X0195034Y0203034D01*
X0194578Y0203597D01*
X0194351Y0203879D01*
X0193898Y0204444D01*
X0193673Y0204727D01*
X0193449Y0205010D01*
X0193225Y0205294D01*
X0193001Y0205578D01*
X0192779Y0205863D01*
X0192556Y0206147D01*
X0192335Y0206432D01*
X0192114Y0206718D01*
X0191894Y0207003D01*
X0191674Y0207289D01*
X0191455Y0207575D01*
X0191237Y0207862D01*
X0191019Y0208149D01*
X0190802Y0208436D01*
X0190585Y0208723D01*
X0190369Y0209011D01*
X0189939Y0209588D01*
X0189725Y0209877D01*
X0189299Y0210455D01*
X0189086Y0210745D01*
X0188875Y0211035D01*
X0188664Y0211325D01*
X0188453Y0211616D01*
X0188244Y0211907D01*
X0188034Y0212198D01*
X0187826Y0212489D01*
X0187618Y0212781D01*
X0187411Y0213073D01*
X0187204Y0213366D01*
X0186998Y0213659D01*
X0186793Y0213952D01*
X0186588Y0214245D01*
X0186180Y0214832D01*
X0185977Y0215127D01*
X0185775Y0215421D01*
X0185573Y0215716D01*
X0185372Y0216011D01*
X0185172Y0216307D01*
X0184971Y0216602D01*
X0184772Y0216898D01*
X0184574Y0217194D01*
X0184375Y0217491D01*
X0184178Y0217788D01*
X0183982Y0218085D01*
X0183785Y0218382D01*
X0183589Y0218680D01*
X0183395Y0218978D01*
X0183200Y0219276D01*
X0183006Y0219574D01*
X0182814Y0219873D01*
X0182621Y0220172D01*
X0182429Y0220472D01*
X0182238Y0220771D01*
X0182047Y0221071D01*
X0181857Y0221371D01*
X0181479Y0221972D01*
X0181291Y0222273D01*
X0181104Y0222575D01*
X0180917Y0222876D01*
X0180730Y0223178D01*
X0180359Y0223782D01*
X0180175Y0224085D01*
X0179808Y0224691D01*
X0179625Y0224994D01*
X0179444Y0225298D01*
X0179262Y0225602D01*
X0179081Y0225906D01*
X0178902Y0226211D01*
X0178722Y0226515D01*
X0178543Y0226820D01*
X0178365Y0227126D01*
X0178187Y0227431D01*
X0178010Y0227737D01*
X0177834Y0228043D01*
X0177658Y0228349D01*
X0177483Y0228656D01*
X0177308Y0228962D01*
X0177134Y0229269D01*
X0176961Y0229577D01*
X0176788Y0229884D01*
X0176616Y0230192D01*
X0176445Y0230500D01*
X0176274Y0230808D01*
X0176104Y0231117D01*
X0175934Y0231425D01*
X0175765Y0231735D01*
X0175597Y0232044D01*
X0175429Y0232353D01*
X0175262Y0232663D01*
X0175095Y0232973D01*
X0174929Y0233283D01*
X0174764Y0233594D01*
X0174599Y0233904D01*
X0174435Y0234215D01*
X0174272Y0234526D01*
X0174109Y0234838D01*
X0173947Y0235149D01*
X0173786Y0235461D01*
X0173624Y0235773D01*
X0173464Y0236086D01*
X0173305Y0236398D01*
X0173145Y0236711D01*
X0172987Y0237024D01*
X0172829Y0237337D01*
X0172672Y0237651D01*
X0172515Y0237964D01*
X0172359Y0238278D01*
X0172203Y0238592D01*
X0172049Y0238907D01*
X0171741Y0239536D01*
X0171588Y0239851D01*
X0171436Y0240167D01*
X0171284Y0240482D01*
X0171133Y0240798D01*
X0170983Y0241114D01*
X0170833Y0241430D01*
X0170684Y0241746D01*
X0170535Y0242063D01*
X0170387Y0242380D01*
X0170240Y0242697D01*
X0169947Y0243331D01*
X0169801Y0243649D01*
X0169657Y0243967D01*
X0169512Y0244285D01*
X0169368Y0244603D01*
X0169226Y0244922D01*
X0169083Y0245240D01*
X0168941Y0245559D01*
X0168800Y0245878D01*
X0168659Y0246197D01*
X0168519Y0246517D01*
X0168380Y0246837D01*
X0168241Y0247156D01*
X0168103Y0247477D01*
X0167829Y0248117D01*
X0167693Y0248438D01*
X0167557Y0248759D01*
X0167422Y0249080D01*
X0167288Y0249401D01*
X0167154Y0249723D01*
X0167021Y0250044D01*
X0166888Y0250366D01*
X0166625Y0251011D01*
X0166494Y0251333D01*
X0166365Y0251656D01*
X0166235Y0251978D01*
X0166106Y0252301D01*
X0165978Y0252625D01*
X0165850Y0252948D01*
X0165723Y0253271D01*
X0165597Y0253595D01*
X0165471Y0253919D01*
X0165346Y0254243D01*
X0165222Y0254568D01*
X0165098Y0254892D01*
X0164974Y0255217D01*
X0164852Y0255541D01*
X0164730Y0255866D01*
X0164608Y0256192D01*
X0164488Y0256517D01*
X0164367Y0256842D01*
X0164248Y0257168D01*
X0164129Y0257494D01*
X0164010Y0257820D01*
X0163893Y0258146D01*
X0163659Y0258799D01*
X0163543Y0259126D01*
X0163428Y0259453D01*
X0163313Y0259780D01*
X0163199Y0260107D01*
X0163086Y0260434D01*
X0162973Y0260762D01*
X0162861Y0261090D01*
X0162639Y0261745D01*
X0162528Y0262074D01*
X0162419Y0262402D01*
X0162310Y0262730D01*
X0162201Y0263059D01*
X0162094Y0263388D01*
X0161986Y0263717D01*
X0161880Y0264046D01*
X0161774Y0264375D01*
X0161668Y0264705D01*
X0161564Y0265034D01*
X0161460Y0265364D01*
X0161356Y0265694D01*
X0161253Y0266024D01*
X0161151Y0266354D01*
X0161049Y0266684D01*
X0160948Y0267015D01*
X0160848Y0267346D01*
X0160748Y0267676D01*
X0160649Y0268007D01*
X0160551Y0268338D01*
X0160452Y0268669D01*
X0160355Y0269001D01*
X0160259Y0269332D01*
X0160162Y0269664D01*
X0160067Y0269996D01*
X0159972Y0270327D01*
X0159878Y0270659D01*
X0159784Y0270992D01*
X0159691Y0271324D01*
X0159599Y0271656D01*
X0159507Y0271989D01*
X0159416Y0272322D01*
X0159325Y0272654D01*
X0159235Y0272987D01*
X0159146Y0273321D01*
X0159057Y0273654D01*
X0158969Y0273987D01*
X0158882Y0274321D01*
X0158795Y0274654D01*
X0158709Y0274988D01*
X0158624Y0275322D01*
X0158538Y0275656D01*
X0158454Y0275990D01*
X0158371Y0276324D01*
X0158287Y0276658D01*
X0158205Y0276993D01*
X0158042Y0277662D01*
X0157961Y0277997D01*
X0157881Y0278332D01*
X0157802Y0278667D01*
X0157723Y0279002D01*
X0157567Y0279672D01*
X0157490Y0280008D01*
X0157338Y0280679D01*
X0157263Y0281015D01*
X0157189Y0281351D01*
X0157115Y0281687D01*
X0157042Y0282023D01*
X0156969Y0282359D01*
X0156897Y0282696D01*
X0156826Y0283032D01*
X0156755Y0283369D01*
X0156685Y0283705D01*
X0156615Y0284042D01*
X0156547Y0284379D01*
X0156478Y0284716D01*
X0156410Y0285053D01*
X0156277Y0285728D01*
X0156211Y0286065D01*
X0156081Y0286740D01*
X0156018Y0287077D01*
X0155954Y0287415D01*
X0155891Y0287753D01*
X0155829Y0288091D01*
X0155707Y0288767D01*
X0155647Y0289105D01*
X0155587Y0289443D01*
X0155528Y0289782D01*
X0155470Y0290120D01*
X0155412Y0290459D01*
X0155355Y0290797D01*
X0155298Y0291136D01*
X0155243Y0291475D01*
X0155187Y0291814D01*
X0155132Y0292152D01*
X0155079Y0292491D01*
X0155025Y0292830D01*
X0154972Y0293170D01*
X0154868Y0293848D01*
X0154817Y0294188D01*
X0154717Y0294866D01*
X0154668Y0295206D01*
X0154620Y0295546D01*
X0154572Y0295885D01*
X0154524Y0296225D01*
X0154478Y0296565D01*
X0154432Y0296905D01*
X0154386Y0297245D01*
X0154297Y0297925D01*
X0154254Y0298265D01*
X0154211Y0298606D01*
X0154169Y0298946D01*
X0154127Y0299286D01*
X0154086Y0299627D01*
X0154045Y0299967D01*
X0154005Y0300308D01*
X0153928Y0300989D01*
X0153890Y0301330D01*
X0153815Y0302012D01*
X0153779Y0302352D01*
X0153744Y0302693D01*
X0153709Y0303034D01*
X0153675Y0303375D01*
X0153641Y0303716D01*
X0153608Y0304058D01*
X0153575Y0304399D01*
X0153544Y0304740D01*
X0153512Y0305081D01*
X0153482Y0305423D01*
X0153452Y0305764D01*
X0153422Y0306105D01*
X0153394Y0306447D01*
X0153338Y0307130D01*
X0153311Y0307471D01*
X0153285Y0307813D01*
X0153259Y0308155D01*
X0153234Y0308496D01*
X0153186Y0309180D01*
X0153163Y0309522D01*
X0153141Y0309863D01*
X0153118Y0310205D01*
X0153097Y0310547D01*
X0153056Y0311231D01*
X0153037Y0311573D01*
X0153018Y0311915D01*
X0153000Y0312257D01*
X0152982Y0312599D01*
X0152949Y0313283D01*
X0152933Y0313625D01*
X0152918Y0313967D01*
X0152903Y0314310D01*
X0152890Y0314652D01*
X0152877Y0314994D01*
X0152864Y0315336D01*
X0152852Y0315678D01*
X0152840Y0316021D01*
X0152829Y0316363D01*
X0152819Y0316705D01*
X0152810Y0317048D01*
X0152801Y0317390D01*
X0152792Y0317732D01*
X0152785Y0318075D01*
X0152777Y0318417D01*
X0152771Y0318759D01*
X0152765Y0319102D01*
X0152760Y0319444D01*
X0152755Y0319786D01*
X0152751Y0320129D01*
X0152748Y0320471D01*
X0152745Y0320814D01*
X0152743Y0321156D01*
X0152741Y0321499D01*
X0152740Y0321841D01*
X0152740Y0322526D01*
X0152741Y0322868D01*
X0152743Y0323211D01*
X0152745Y0323553D01*
X0152748Y0323895D01*
X0152751Y0324238D01*
X0152755Y0324580D01*
X0152760Y0324923D01*
X0152765Y0325265D01*
X0152771Y0325607D01*
X0152777Y0325950D01*
X0152785Y0326292D01*
X0152792Y0326634D01*
X0152801Y0326977D01*
X0152810Y0327319D01*
X0152819Y0327661D01*
X0152829Y0328004D01*
X0152840Y0328346D01*
X0152852Y0328688D01*
X0152864Y0329030D01*
X0152877Y0329373D01*
X0152890Y0329715D01*
X0152903Y0330057D01*
X0152918Y0330399D01*
X0152933Y0330741D01*
X0152949Y0331083D01*
X0152966Y0331426D01*
X0152982Y0331768D01*
X0153000Y0332110D01*
X0153018Y0332452D01*
X0153037Y0332794D01*
X0153056Y0333136D01*
X0153077Y0333478D01*
X0153097Y0333820D01*
X0153118Y0334161D01*
X0153163Y0334845D01*
X0153186Y0335187D01*
X0153234Y0335870D01*
X0153259Y0336212D01*
X0153285Y0336554D01*
X0153311Y0336895D01*
X0153338Y0337237D01*
X0153394Y0337920D01*
X0153422Y0338261D01*
X0153452Y0338603D01*
X0153482Y0338944D01*
X0153512Y0339285D01*
X0153544Y0339627D01*
X0153575Y0339968D01*
X0153608Y0340309D01*
X0153675Y0340991D01*
X0153709Y0341332D01*
X0153744Y0341673D01*
X0153779Y0342014D01*
X0153815Y0342355D01*
X0153852Y0342696D01*
X0153890Y0343037D01*
X0153928Y0343377D01*
X0153966Y0343718D01*
X0154005Y0344059D01*
X0154045Y0344399D01*
X0154086Y0344740D01*
X0154127Y0345080D01*
X0154169Y0345421D01*
X0154211Y0345761D01*
X0154254Y0346101D01*
X0154297Y0346441D01*
X0154342Y0346781D01*
X0154386Y0347122D01*
X0154432Y0347462D01*
X0154478Y0347802D01*
X0154524Y0348141D01*
X0154572Y0348481D01*
X0154620Y0348821D01*
X0154668Y0349161D01*
X0154717Y0349500D01*
X0154767Y0349840D01*
X0154817Y0350179D01*
X0154868Y0350519D01*
X0154972Y0351197D01*
X0155025Y0351536D01*
X0155079Y0351875D01*
X0155132Y0352214D01*
X0155187Y0352553D01*
X0155243Y0352892D01*
X0155298Y0353231D01*
X0155355Y0353569D01*
X0155412Y0353908D01*
X0155470Y0354247D01*
X0155528Y0354585D01*
X0155587Y0354923D01*
X0155647Y0355262D01*
X0155707Y0355600D01*
X0155768Y0355938D01*
X0155829Y0356276D01*
X0155891Y0356614D01*
X0155954Y0356951D01*
X0156018Y0357289D01*
X0156081Y0357627D01*
X0156146Y0357964D01*
X0156211Y0358302D01*
X0156277Y0358639D01*
X0156410Y0359314D01*
X0156478Y0359651D01*
X0156547Y0359988D01*
X0156615Y0360324D01*
X0156685Y0360661D01*
X0156755Y0360998D01*
X0156826Y0361334D01*
X0156897Y0361671D01*
X0156969Y0362007D01*
X0157042Y0362343D01*
X0157115Y0362680D01*
X0157189Y0363016D01*
X0157263Y0363352D01*
X0157338Y0363687D01*
X0157414Y0364023D01*
X0157490Y0364359D01*
X0157567Y0364694D01*
X0157723Y0365365D01*
X0157802Y0365700D01*
X0157881Y0366035D01*
X0157961Y0366370D01*
X0158042Y0366705D01*
X0158123Y0367039D01*
X0158205Y0367374D01*
X0158287Y0367708D01*
X0158371Y0368043D01*
X0158454Y0368377D01*
X0158538Y0368711D01*
X0158624Y0369045D01*
X0158709Y0369379D01*
X0158795Y0369713D01*
X0158882Y0370046D01*
X0158969Y0370380D01*
X0159057Y0370713D01*
X0159146Y0371046D01*
X0159235Y0371379D01*
X0159325Y0371712D01*
X0159507Y0372378D01*
X0159599Y0372710D01*
X0159691Y0373043D01*
X0159784Y0373375D01*
X0159878Y0373707D01*
X0160067Y0374371D01*
X0160162Y0374703D01*
X0160259Y0375034D01*
X0160355Y0375366D01*
X0160452Y0375697D01*
X0160551Y0376028D01*
X0160649Y0376360D01*
X0160748Y0376690D01*
X0160848Y0377021D01*
X0160948Y0377352D01*
X0161049Y0377682D01*
X0161151Y0378013D01*
X0161253Y0378343D01*
X0161356Y0378673D01*
X0161460Y0379003D01*
X0161564Y0379332D01*
X0161668Y0379662D01*
X0161880Y0380321D01*
X0161986Y0380650D01*
X0162094Y0380979D01*
X0162201Y0381308D01*
X0162310Y0381636D01*
X0162528Y0382293D01*
X0162639Y0382621D01*
X0162861Y0383277D01*
X0162973Y0383605D01*
X0163199Y0384260D01*
X0163313Y0384587D01*
X0163428Y0384914D01*
X0163543Y0385241D01*
X0163659Y0385568D01*
X0163893Y0386220D01*
X0164010Y0386547D01*
X0164129Y0386873D01*
X0164248Y0387199D01*
X0164367Y0387524D01*
X0164488Y0387850D01*
X0164608Y0388175D01*
X0164730Y0388500D01*
X0164974Y0389150D01*
X0165098Y0389475D01*
X0165222Y0389799D01*
X0165346Y0390123D01*
X0165471Y0390448D01*
X0165723Y0391095D01*
X0165850Y0391419D01*
X0165978Y0391742D01*
X0166106Y0392065D01*
X0166235Y0392388D01*
X0166365Y0392711D01*
X0166494Y0393034D01*
X0166625Y0393356D01*
X0166888Y0394000D01*
X0167021Y0394322D01*
X0167154Y0394644D01*
X0167288Y0394965D01*
X0167422Y0395287D01*
X0167557Y0395608D01*
X0167693Y0395929D01*
X0167829Y0396249D01*
X0167966Y0396570D01*
X0168103Y0396890D01*
X0168241Y0397210D01*
X0168380Y0397530D01*
X0168519Y0397850D01*
X0168659Y0398169D01*
X0168800Y0398488D01*
X0168941Y0398808D01*
X0169083Y0399127D01*
X0169368Y0399764D01*
X0169512Y0400082D01*
X0169657Y0400400D01*
X0169801Y0400718D01*
X0169947Y0401036D01*
X0170093Y0401353D01*
X0170240Y0401670D01*
X0170387Y0401987D01*
X0170684Y0402621D01*
X0170833Y0402937D01*
X0170983Y0403253D01*
X0171133Y0403569D01*
X0171284Y0403885D01*
X0171436Y0404200D01*
X0171588Y0404515D01*
X0171741Y0404830D01*
X0172049Y0405460D01*
X0172203Y0405774D01*
X0172359Y0406088D01*
X0172515Y0406402D01*
X0172672Y0406716D01*
X0172829Y0407029D01*
X0172987Y0407343D01*
X0173145Y0407656D01*
X0173305Y0407968D01*
X0173464Y0408281D01*
X0173624Y0408593D01*
X0173947Y0409217D01*
X0174109Y0409529D01*
X0174272Y0409840D01*
X0174435Y0410152D01*
X0174599Y0410463D01*
X0174764Y0410773D01*
X0174929Y0411084D01*
X0175095Y0411394D01*
X0175262Y0411704D01*
X0175429Y0412014D01*
X0175597Y0412323D01*
X0175765Y0412632D01*
X0175934Y0412941D01*
X0176104Y0413250D01*
X0176445Y0413867D01*
X0176616Y0414175D01*
X0176788Y0414482D01*
X0176961Y0414790D01*
X0177134Y0415097D01*
X0177308Y0415404D01*
X0177483Y0415711D01*
X0177658Y0416018D01*
X0177834Y0416324D01*
X0178010Y0416630D01*
X0178187Y0416936D01*
X0178365Y0417241D01*
X0178543Y0417546D01*
X0178722Y0417851D01*
X0178902Y0418156D01*
X0179081Y0418460D01*
X0179262Y0418765D01*
X0179625Y0419372D01*
X0179808Y0419676D01*
X0179992Y0419979D01*
X0180175Y0420282D01*
X0180359Y0420584D01*
X0180730Y0421189D01*
X0180917Y0421490D01*
X0181104Y0421792D01*
X0181291Y0422093D01*
X0181479Y0422394D01*
X0181668Y0422695D01*
X0181857Y0422995D01*
X0182047Y0423296D01*
X0182238Y0423595D01*
X0182429Y0423895D01*
X0182621Y0424194D01*
X0182814Y0424493D01*
X0183006Y0424792D01*
X0183200Y0425091D01*
X0183395Y0425389D01*
X0183589Y0425687D01*
X0183785Y0425985D01*
X0183982Y0426282D01*
X0184178Y0426579D01*
X0184375Y0426876D01*
X0184574Y0427172D01*
X0184772Y0427469D01*
X0184971Y0427765D01*
X0185172Y0428060D01*
X0185372Y0428356D01*
X0185573Y0428651D01*
X0185775Y0428945D01*
X0185977Y0429240D01*
X0186180Y0429534D01*
X0186588Y0430122D01*
X0186793Y0430415D01*
X0186998Y0430708D01*
X0187204Y0431001D01*
X0187411Y0431293D01*
X0187618Y0431585D01*
X0187826Y0431877D01*
X0188034Y0432169D01*
X0188453Y0432751D01*
X0188664Y0433041D01*
X0188875Y0433332D01*
X0189086Y0433622D01*
X0189299Y0433911D01*
X0189725Y0434490D01*
X0189939Y0434779D01*
X0190369Y0435355D01*
X0190585Y0435643D01*
X0190802Y0435931D01*
X0191019Y0436218D01*
X0191237Y0436505D01*
X0191455Y0436791D01*
X0191674Y0437078D01*
X0191894Y0437364D01*
X0192114Y0437649D01*
X0192335Y0437935D01*
X0192556Y0438220D01*
X0192779Y0438504D01*
X0193001Y0438789D01*
X0193225Y0439073D01*
X0193449Y0439356D01*
X0193673Y0439640D01*
X0193898Y0439923D01*
X0194351Y0440488D01*
X0194578Y0440770D01*
X0195034Y0441333D01*
X0195263Y0441614D01*
X0195493Y0441895D01*
X0195722Y0442175D01*
X0195953Y0442456D01*
X0196185Y0442735D01*
X0196417Y0443015D01*
X0196649Y0443294D01*
X0197116Y0443851D01*
X0197351Y0444129D01*
X0197586Y0444407D01*
X0197822Y0444684D01*
X0198058Y0444961D01*
X0198295Y0445238D01*
X0198310Y0445255D01*
X0198325Y0445272D01*
X0198339Y0445289D01*
X0198354Y0445306D01*
X0198369Y0445323D01*
X0198383Y0445340D01*
X0198398Y0445356D01*
X0198413Y0445373D01*
X0198442Y0445407D01*
X0198457Y0445424D01*
X0198472Y0445441D01*
X0198487Y0445457D01*
X0198502Y0445474D01*
X0198516Y0445491D01*
X0198531Y0445508D01*
X0198546Y0445524D01*
X0198561Y0445541D01*
X0198576Y0445558D01*
X0198591Y0445574D01*
X0198621Y0445608D01*
X0198636Y0445624D01*
X0198666Y0445657D01*
X0198681Y0445674D01*
X0198711Y0445707D01*
X0198726Y0445724D01*
X0198741Y0445740D01*
X0198756Y0445756D01*
X0198772Y0445773D01*
X0198787Y0445789D01*
X0198802Y0445806D01*
X0198817Y0445822D01*
X0198848Y0445855D01*
X0198863Y0445871D01*
X0198878Y0445887D01*
X0198893Y0445904D01*
X0198909Y0445920D01*
X0198924Y0445936D01*
X0198939Y0445952D01*
X0198955Y0445969D01*
X0198970Y0445985D01*
X0198985Y0446001D01*
X0199001Y0446017D01*
X0199016Y0446033D01*
X0199032Y0446049D01*
X0199047Y0446065D01*
X0199078Y0446097D01*
X0199094Y0446113D01*
X0199109Y0446129D01*
X0199125Y0446145D01*
X0199140Y0446161D01*
X0199156Y0446177D01*
X0199171Y0446193D01*
X0199187Y0446209D01*
X0199218Y0446241D01*
X0199234Y0446257D01*
X0199265Y0446288D01*
X0199281Y0446304D01*
X0199297Y0446320D01*
X0199312Y0446336D01*
X0199328Y0446352D01*
X0199344Y0446367D01*
X0199360Y0446383D01*
X0199375Y0446399D01*
X0199391Y0446414D01*
X0199407Y0446430D01*
X0199423Y0446446D01*
X0199439Y0446461D01*
X0199455Y0446477D01*
X0199470Y0446492D01*
X0199486Y0446508D01*
X0199502Y0446523D01*
X0199518Y0446539D01*
X0199534Y0446554D01*
X0199550Y0446570D01*
X0199566Y0446585D01*
X0199582Y0446601D01*
X0199598Y0446616D01*
X0199614Y0446631D01*
X0199646Y0446662D01*
X0199662Y0446677D01*
X0199678Y0446693D01*
X0199695Y0446708D01*
X0199711Y0446723D01*
X0199727Y0446739D01*
X0199743Y0446754D01*
X0199759Y0446769D01*
X0199775Y0446784D01*
X0199792Y0446799D01*
X0199808Y0446815D01*
X0199824Y0446830D01*
X0199840Y0446845D01*
X0199857Y0446860D01*
X0199873Y0446875D01*
X0199889Y0446890D01*
X0199905Y0446905D01*
X0199922Y0446920D01*
X0199938Y0446935D01*
X0199955Y0446950D01*
X0199971Y0446965D01*
X0199987Y0446980D01*
X0200004Y0446995D01*
X0200020Y0447010D01*
X0200037Y0447025D01*
X0200053Y0447039D01*
X0200069Y0447054D01*
X0200086Y0447069D01*
X0200102Y0447084D01*
X0200135Y0447113D01*
X0200152Y0447128D01*
X0200169Y0447143D01*
X0200185Y0447158D01*
X0200202Y0447172D01*
X0200218Y0447187D01*
X0200235Y0447201D01*
X0200252Y0447216D01*
X0200268Y0447231D01*
X0200285Y0447245D01*
X0200302Y0447260D01*
X0200318Y0447274D01*
X0200335Y0447289D01*
X0200352Y0447303D01*
X0200369Y0447318D01*
X0200385Y0447332D01*
X0200402Y0447347D01*
X0200436Y0447376D01*
X0200452Y0447390D01*
X0200469Y0447404D01*
X0200486Y0447419D01*
X0200503Y0447433D01*
X0200537Y0447462D01*
X0200554Y0447476D01*
X0200587Y0447504D01*
X0200604Y0447518D01*
X0200621Y0447533D01*
X0200638Y0447547D01*
X0200655Y0447561D01*
X0200672Y0447575D01*
X0200689Y0447589D01*
X0200706Y0447603D01*
X0200724Y0447617D01*
X0200741Y0447631D01*
X0200758Y0447645D01*
X0200775Y0447659D01*
X0200792Y0447673D01*
X0200809Y0447687D01*
X0200826Y0447701D01*
X0200843Y0447715D01*
X0200860Y0447729D01*
X0200878Y0447743D01*
X0200895Y0447757D01*
X0200912Y0447770D01*
X0200929Y0447784D01*
X0200946Y0447798D01*
X0200964Y0447812D01*
X0200998Y0447839D01*
X0201016Y0447853D01*
X0201033Y0447867D01*
X0201050Y0447880D01*
X0201068Y0447894D01*
X0201102Y0447921D01*
X0201120Y0447935D01*
X0201137Y0447948D01*
X0201154Y0447962D01*
X0201172Y0447976D01*
X0201207Y0448003D01*
X0201224Y0448016D01*
X0201242Y0448029D01*
X0201259Y0448043D01*
X0201277Y0448056D01*
X0201294Y0448070D01*
X0201312Y0448083D01*
X0201329Y0448096D01*
X0201364Y0448123D01*
X0201382Y0448136D01*
X0201400Y0448150D01*
X0201417Y0448163D01*
X0201435Y0448176D01*
X0201453Y0448189D01*
X0201470Y0448202D01*
X0201488Y0448216D01*
X0201523Y0448242D01*
X0201541Y0448255D01*
X0201577Y0448281D01*
X0201594Y0448294D01*
X0201612Y0448307D01*
X0201630Y0448320D01*
X0201648Y0448333D01*
X0201665Y0448346D01*
X0201683Y0448359D01*
X0201701Y0448372D01*
X0201719Y0448385D01*
X0201737Y0448398D01*
X0201755Y0448410D01*
X0201790Y0448436D01*
X0201808Y0448449D01*
X0201844Y0448474D01*
X0201862Y0448487D01*
X0201880Y0448500D01*
X0201898Y0448512D01*
X0201916Y0448525D01*
X0201934Y0448538D01*
X0201952Y0448550D01*
X0201970Y0448563D01*
X0201988Y0448576D01*
X0202006Y0448588D01*
X0202024Y0448601D01*
X0202061Y0448626D01*
X0202079Y0448638D01*
X0202097Y0448651D01*
X0202115Y0448663D01*
X0202133Y0448675D01*
X0202151Y0448688D01*
X0202170Y0448700D01*
X0202188Y0448713D01*
X0202206Y0448725D01*
X0202224Y0448737D01*
X0202242Y0448750D01*
X0202279Y0448774D01*
X0202297Y0448786D01*
X0202334Y0448811D01*
X0202352Y0448823D01*
X0202389Y0448847D01*
X0202407Y0448859D01*
X0202444Y0448883D01*
X0202462Y0448895D01*
X0202481Y0448907D01*
X0202499Y0448919D01*
X0202518Y0448931D01*
X0202554Y0448955D01*
X0202573Y0448967D01*
X0202591Y0448979D01*
X0202610Y0448991D01*
X0202628Y0449003D01*
X0202647Y0449015D01*
X0202665Y0449026D01*
X0202684Y0449038D01*
X0202702Y0449050D01*
X0202721Y0449062D01*
X0202740Y0449073D01*
X0202758Y0449085D01*
X0202777Y0449097D01*
X0202795Y0449108D01*
X0202814Y0449120D01*
X0202833Y0449132D01*
X0202851Y0449143D01*
X0202870Y0449155D01*
X0202889Y0449166D01*
X0202907Y0449178D01*
X0202926Y0449189D01*
X0202945Y0449201D01*
X0202964Y0449212D01*
X0202982Y0449224D01*
X0203001Y0449235D01*
X0203020Y0449247D01*
X0203039Y0449258D01*
X0203057Y0449269D01*
X0203076Y0449281D01*
X0203095Y0449292D01*
X0203114Y0449303D01*
X0203133Y0449315D01*
X0203151Y0449326D01*
X0203170Y0449337D01*
X0203189Y0449348D01*
X0203208Y0449360D01*
X0203227Y0449371D01*
X0203246Y0449382D01*
X0203265Y0449393D01*
X0203284Y0449404D01*
X0203303Y0449415D01*
X0203341Y0449437D01*
X0203360Y0449448D01*
X0203398Y0449470D01*
X0203417Y0449481D01*
X0203436Y0449492D01*
X0203455Y0449503D01*
X0203474Y0449514D01*
X0203493Y0449525D01*
X0203512Y0449536D01*
X0203531Y0449546D01*
X0203550Y0449557D01*
X0203569Y0449568D01*
X0203588Y0449579D01*
X0203626Y0449600D01*
X0203646Y0449611D01*
X0203684Y0449632D01*
X0203703Y0449643D01*
X0203722Y0449654D01*
X0203742Y0449664D01*
X0203761Y0449675D01*
X0203799Y0449696D01*
X0203819Y0449706D01*
X0203838Y0449717D01*
X0203857Y0449727D01*
X0203876Y0449738D01*
X0203915Y0449758D01*
X0203934Y0449769D01*
X0203973Y0449790D01*
X0203992Y0449800D01*
X0204012Y0449810D01*
X0204031Y0449820D01*
X0204050Y0449831D01*
X0204070Y0449841D01*
X0204089Y0449851D01*
X0204109Y0449861D01*
X0204128Y0449871D01*
X0204148Y0449882D01*
X0204167Y0449892D01*
X0204206Y0449912D01*
X0204225Y0449922D01*
X0204245Y0449932D01*
X0204264Y0449942D01*
X0204284Y0449952D01*
X0204304Y0449962D01*
X0204323Y0449972D01*
X0204343Y0449982D01*
X0204362Y0449992D01*
X0204382Y0450001D01*
X0204401Y0450011D01*
X0204421Y0450021D01*
X0204441Y0450031D01*
X0204460Y0450041D01*
X0204480Y0450050D01*
X0204499Y0450060D01*
X0204519Y0450070D01*
X0204539Y0450080D01*
X0204558Y0450089D01*
X0204578Y0450099D01*
X0204618Y0450118D01*
X0204637Y0450128D01*
X0204657Y0450137D01*
X0204677Y0450147D01*
X0204696Y0450156D01*
X0204716Y0450166D01*
X0204736Y0450175D01*
X0204756Y0450185D01*
X0204795Y0450204D01*
X0204815Y0450213D01*
X0204835Y0450222D01*
X0204855Y0450232D01*
X0204875Y0450241D01*
X0204895Y0450250D01*
X0204914Y0450260D01*
X0204934Y0450269D01*
X0204954Y0450278D01*
X0204974Y0450287D01*
X0204994Y0450297D01*
X0205014Y0450306D01*
X0205034Y0450315D01*
X0205054Y0450324D01*
X0205074Y0450333D01*
X0205094Y0450342D01*
X0205114Y0450351D01*
X0205154Y0450369D01*
X0205174Y0450378D01*
X0205194Y0450387D01*
X0205214Y0450396D01*
X0205234Y0450405D01*
X0205254Y0450414D01*
X0205274Y0450423D01*
X0205294Y0450432D01*
X0205314Y0450441D01*
X0205334Y0450449D01*
X0205354Y0450458D01*
X0205374Y0450467D01*
X0205394Y0450476D01*
X0205414Y0450484D01*
X0205455Y0450502D01*
X0205475Y0450510D01*
X0205495Y0450519D01*
X0205515Y0450528D01*
X0205535Y0450536D01*
X0205555Y0450545D01*
X0205576Y0450553D01*
X0205596Y0450562D01*
X0205616Y0450570D01*
X0205636Y0450579D01*
X0205656Y0450587D01*
X0205677Y0450596D01*
X0205697Y0450604D01*
X0205717Y0450612D01*
X0205737Y0450621D01*
X0205758Y0450629D01*
X0205778Y0450637D01*
X0205798Y0450646D01*
X0205819Y0450654D01*
X0205839Y0450662D01*
X0205859Y0450671D01*
X0205880Y0450679D01*
X0205900Y0450687D01*
X0205920Y0450695D01*
X0205941Y0450703D01*
X0205961Y0450711D01*
X0205981Y0450719D01*
X0206002Y0450728D01*
X0206022Y0450736D01*
X0206043Y0450744D01*
X0206063Y0450752D01*
X0206083Y0450760D01*
X0206104Y0450768D01*
X0206124Y0450775D01*
X0206145Y0450783D01*
X0206165Y0450791D01*
X0206186Y0450799D01*
X0206206Y0450807D01*
X0206247Y0450823D01*
X0206268Y0450830D01*
X0206309Y0450846D01*
X0206329Y0450854D01*
X0206350Y0450861D01*
X0206370Y0450869D01*
X0206391Y0450877D01*
X0206411Y0450884D01*
X0206432Y0450892D01*
X0206453Y0450899D01*
X0206473Y0450907D01*
X0206494Y0450914D01*
X0206514Y0450922D01*
X0206535Y0450929D01*
X0206556Y0450937D01*
X0206576Y0450944D01*
X0206597Y0450952D01*
X0206618Y0450959D01*
X0206638Y0450966D01*
X0206680Y0450981D01*
X0206700Y0450988D01*
X0206742Y0451003D01*
X0206763Y0451010D01*
X0206783Y0451017D01*
X0206804Y0451025D01*
X0206825Y0451032D01*
X0206845Y0451039D01*
X0206866Y0451046D01*
X0206887Y0451053D01*
X0206908Y0451060D01*
X0206929Y0451067D01*
X0206949Y0451074D01*
X0206970Y0451081D01*
X0206991Y0451088D01*
X0207012Y0451095D01*
X0207033Y0451102D01*
X0207054Y0451109D01*
X0207074Y0451116D01*
X0207095Y0451123D01*
X0207116Y0451130D01*
X0207137Y0451136D01*
X0207179Y0451150D01*
X0207200Y0451157D01*
X0207221Y0451163D01*
X0207241Y0451170D01*
X0207262Y0451177D01*
X0207283Y0451183D01*
X0207304Y0451190D01*
X0207325Y0451197D01*
X0207346Y0451203D01*
X0207367Y0451210D01*
X0207388Y0451216D01*
X0207409Y0451223D01*
X0207430Y0451229D01*
X0207451Y0451236D01*
X0207472Y0451242D01*
X0207493Y0451249D01*
X0207514Y0451255D01*
X0207535Y0451261D01*
X0207556Y0451268D01*
X0207577Y0451274D01*
X0207598Y0451280D01*
X0207619Y0451287D01*
X0207640Y0451293D01*
X0207661Y0451299D01*
X0207682Y0451305D01*
X0207704Y0451312D01*
X0207725Y0451318D01*
X0207746Y0451324D01*
X0207767Y0451330D01*
X0207788Y0451336D01*
X0207809Y0451342D01*
X0207830Y0451348D01*
X0207851Y0451354D01*
X0207872Y0451360D01*
X0207894Y0451366D01*
X0207936Y0451378D01*
X0207957Y0451384D01*
X0207978Y0451390D01*
X0208000Y0451396D01*
X0208021Y0451402D01*
X0208042Y0451407D01*
X0208063Y0451413D01*
X0208084Y0451419D01*
X0208127Y0451430D01*
X0208148Y0451436D01*
X0208191Y0451447D01*
X0208212Y0451453D01*
X0208233Y0451459D01*
X0208254Y0451464D01*
X0208276Y0451470D01*
X0208297Y0451475D01*
X0208318Y0451481D01*
X0208340Y0451486D01*
X0208382Y0451497D01*
X0208404Y0451503D01*
X0208446Y0451513D01*
X0208468Y0451519D01*
X0208489Y0451524D01*
X0208510Y0451529D01*
X0208532Y0451535D01*
X0208553Y0451540D01*
X0208575Y0451545D01*
X0208596Y0451550D01*
X0208617Y0451555D01*
X0208639Y0451561D01*
X0208660Y0451566D01*
X0208682Y0451571D01*
X0208703Y0451576D01*
X0208724Y0451581D01*
X0208746Y0451586D01*
X0208767Y0451591D01*
X0208789Y0451596D01*
X0208810Y0451601D01*
X0208832Y0451606D01*
X0208853Y0451611D01*
X0208875Y0451616D01*
X0208896Y0451621D01*
X0208918Y0451625D01*
X0208961Y0451635D01*
X0208982Y0451640D01*
X0209004Y0451645D01*
X0209025Y0451649D01*
X0209047Y0451654D01*
X0209068Y0451659D01*
X0209090Y0451663D01*
X0209111Y0451668D01*
X0209133Y0451673D01*
X0209155Y0451677D01*
X0209176Y0451682D01*
X0209198Y0451686D01*
X0209219Y0451691D01*
X0209241Y0451695D01*
X0209284Y0451704D01*
X0209306Y0451709D01*
X0209327Y0451713D01*
X0209349Y0451717D01*
X0209371Y0451722D01*
X0209414Y0451730D01*
X0209435Y0451735D01*
X0209457Y0451739D01*
X0209479Y0451743D01*
X0209500Y0451747D01*
X0209522Y0451751D01*
X0209544Y0451756D01*
X0209566Y0451760D01*
X0209587Y0451764D01*
X0209609Y0451768D01*
X0209631Y0451772D01*
X0209652Y0451776D01*
X0209674Y0451780D01*
X0209696Y0451784D01*
X0209717Y0451788D01*
X0209739Y0451792D01*
X0209761Y0451796D01*
X0209783Y0451800D01*
X0209804Y0451804D01*
X0209826Y0451807D01*
X0209870Y0451815D01*
X0209892Y0451819D01*
X0209913Y0451822D01*
X0209935Y0451826D01*
X0209957Y0451830D01*
X0209979Y0451834D01*
X0210000Y0451837D01*
X0210022Y0451841D01*
X0210044Y0451844D01*
X0210066Y0451848D01*
X0210088Y0451852D01*
X0210110Y0451855D01*
X0210131Y0451859D01*
X0210153Y0451862D01*
X0210175Y0451865D01*
X0210197Y0451869D01*
X0210219Y0451872D01*
X0210241Y0451876D01*
X0210263Y0451879D01*
X0210284Y0451882D01*
X0210306Y0451886D01*
X0210328Y0451889D01*
X0210350Y0451892D01*
X0210372Y0451895D01*
X0210394Y0451899D01*
X0210416Y0451902D01*
X0210438Y0451905D01*
X0210460Y0451908D01*
X0210482Y0451911D01*
X0210504Y0451914D01*
X0210525Y0451917D01*
X0210547Y0451920D01*
X0210591Y0451926D01*
X0210613Y0451929D01*
X0210635Y0451932D01*
X0210657Y0451935D01*
X0210679Y0451938D01*
X0210701Y0451941D01*
X0210723Y0451944D01*
X0210745Y0451947D01*
X0210789Y0451952D01*
X0210811Y0451955D01*
X0210833Y0451958D01*
X0210855Y0451960D01*
X0210877Y0451963D01*
X0210921Y0451968D01*
X0210943Y0451971D01*
X0210965Y0451973D01*
X0210987Y0451976D01*
X0211009Y0451978D01*
X0211031Y0451981D01*
X0211053Y0451983D01*
X0211075Y0451986D01*
X0211098Y0451988D01*
X0211120Y0451991D01*
X0211142Y0451993D01*
X0211186Y0451998D01*
X0211208Y0452000D01*
X0211230Y0452002D01*
X0211252Y0452005D01*
X0211274Y0452007D01*
X0211296Y0452009D01*
X0211318Y0452011D01*
X0211341Y0452013D01*
X0211385Y0452018D01*
X0211407Y0452020D01*
X0211429Y0452022D01*
X0211451Y0452024D01*
X0211473Y0452026D01*
X0211496Y0452028D01*
X0211518Y0452030D01*
X0211540Y0452032D01*
X0211562Y0452033D01*
X0211584Y0452035D01*
X0211606Y0452037D01*
X0211628Y0452039D01*
X0211651Y0452041D01*
X0211673Y0452043D01*
X0211695Y0452044D01*
X0211717Y0452046D01*
X0211739Y0452048D01*
X0211762Y0452049D01*
X0211784Y0452051D01*
X0211806Y0452053D01*
X0211828Y0452054D01*
X0211850Y0452056D01*
X0211873Y0452057D01*
X0211895Y0452059D01*
X0211917Y0452060D01*
X0211939Y0452062D01*
X0211962Y0452063D01*
X0211984Y0452065D01*
X0212006Y0452066D01*
X0212028Y0452068D01*
X0212051Y0452069D01*
X0212073Y0452070D01*
X0212117Y0452073D01*
X0212140Y0452074D01*
X0212162Y0452075D01*
X0212184Y0452077D01*
X0212206Y0452078D01*
X0212229Y0452079D01*
X0212251Y0452080D01*
X0212273Y0452081D01*
X0212318Y0452083D01*
X0212340Y0452084D01*
X0212362Y0452085D01*
X0212385Y0452086D01*
X0212407Y0452087D01*
X0212452Y0452089D01*
X0212474Y0452090D01*
X0212496Y0452091D01*
X0212519Y0452092D01*
X0212541Y0452092D01*
X0212563Y0452093D01*
X0212586Y0452094D01*
X0212608Y0452095D01*
X0212630Y0452095D01*
X0212653Y0452096D01*
X0212675Y0452097D01*
X0212697Y0452097D01*
X0212720Y0452098D01*
X0212742Y0452098D01*
X0212765Y0452099D01*
X0212787Y0452100D01*
X0212809Y0452100D01*
X0212854Y0452101D01*
X0212876Y0452101D01*
X0212899Y0452102D01*
X0212921Y0452102D01*
X0212944Y0452102D01*
X0212966Y0452103D01*
X0212988Y0452103D01*
X0213011Y0452103D01*
X0213033Y0452104D01*
X0213056Y0452104D01*
X0213078Y0452104D01*
X0213123Y0452104D01*
X0213145Y0452104D01*
X0213168Y0452104D01*
X0213190Y0452105D01*
X0213213Y0452105D01*
X0470221Y0452105D01*
X0470243Y0452105D01*
X0470288Y0452104D01*
X0470310Y0452104D01*
X0470355Y0452104D01*
X0470378Y0452104D01*
X0470400Y0452104D01*
X0470423Y0452103D01*
X0470445Y0452103D01*
X0470467Y0452103D01*
X0470490Y0452102D01*
X0470512Y0452102D01*
X0470534Y0452102D01*
X0470557Y0452101D01*
X0470579Y0452101D01*
X0470624Y0452100D01*
X0470646Y0452100D01*
X0470669Y0452099D01*
X0470691Y0452098D01*
X0470713Y0452098D01*
X0470736Y0452097D01*
X0470758Y0452097D01*
X0470781Y0452096D01*
X0470803Y0452095D01*
X0470825Y0452095D01*
X0470848Y0452094D01*
X0470892Y0452092D01*
X0470915Y0452092D01*
X0470959Y0452090D01*
X0470982Y0452089D01*
X0471026Y0452087D01*
X0471049Y0452086D01*
X0471071Y0452085D01*
X0471093Y0452084D01*
X0471115Y0452083D01*
X0471160Y0452081D01*
X0471182Y0452080D01*
X0471205Y0452079D01*
X0471227Y0452078D01*
X0471249Y0452077D01*
X0471271Y0452075D01*
X0471294Y0452074D01*
X0471316Y0452073D01*
X0471338Y0452072D01*
X0471361Y0452070D01*
X0471383Y0452069D01*
X0471427Y0452066D01*
X0471450Y0452065D01*
X0471472Y0452063D01*
X0471494Y0452062D01*
X0471516Y0452060D01*
X0471538Y0452059D01*
X0471561Y0452057D01*
X0471583Y0452056D01*
X0471605Y0452054D01*
X0471627Y0452053D01*
X0471650Y0452051D01*
X0471672Y0452049D01*
X0471694Y0452048D01*
X0471716Y0452046D01*
X0471738Y0452044D01*
X0471760Y0452043D01*
X0471783Y0452041D01*
X0471805Y0452039D01*
X0471827Y0452037D01*
X0471849Y0452035D01*
X0471871Y0452033D01*
X0471894Y0452032D01*
X0471916Y0452030D01*
X0471938Y0452028D01*
X0471960Y0452026D01*
X0471982Y0452024D01*
X0472026Y0452020D01*
X0472049Y0452018D01*
X0472093Y0452013D01*
X0472115Y0452011D01*
X0472137Y0452009D01*
X0472159Y0452007D01*
X0472181Y0452005D01*
X0472203Y0452002D01*
X0472225Y0452000D01*
X0472247Y0451998D01*
X0472270Y0451995D01*
X0472292Y0451993D01*
X0472314Y0451991D01*
X0472336Y0451988D01*
X0472358Y0451986D01*
X0472380Y0451983D01*
X0472402Y0451981D01*
X0472424Y0451978D01*
X0472446Y0451976D01*
X0472468Y0451973D01*
X0472490Y0451971D01*
X0472512Y0451968D01*
X0472556Y0451963D01*
X0472578Y0451960D01*
X0472600Y0451958D01*
X0472622Y0451955D01*
X0472644Y0451952D01*
X0472688Y0451947D01*
X0472710Y0451944D01*
X0472732Y0451941D01*
X0472754Y0451938D01*
X0472776Y0451935D01*
X0472798Y0451932D01*
X0472820Y0451929D01*
X0472842Y0451926D01*
X0472886Y0451920D01*
X0472908Y0451917D01*
X0472930Y0451914D01*
X0472952Y0451911D01*
X0472974Y0451908D01*
X0472996Y0451905D01*
X0473018Y0451902D01*
X0473039Y0451899D01*
X0473061Y0451895D01*
X0473083Y0451892D01*
X0473105Y0451889D01*
X0473127Y0451886D01*
X0473149Y0451882D01*
X0473171Y0451879D01*
X0473193Y0451876D01*
X0473214Y0451872D01*
X0473236Y0451869D01*
X0473258Y0451865D01*
X0473280Y0451862D01*
X0473302Y0451859D01*
X0473324Y0451855D01*
X0473346Y0451852D01*
X0473367Y0451848D01*
X0473389Y0451844D01*
X0473411Y0451841D01*
X0473433Y0451837D01*
X0473455Y0451834D01*
X0473476Y0451830D01*
X0473498Y0451826D01*
X0473520Y0451822D01*
X0473542Y0451819D01*
X0473564Y0451815D01*
X0473585Y0451811D01*
X0473607Y0451807D01*
X0473629Y0451804D01*
X0473672Y0451796D01*
X0473694Y0451792D01*
X0473738Y0451784D01*
X0473759Y0451780D01*
X0473781Y0451776D01*
X0473803Y0451772D01*
X0473824Y0451768D01*
X0473846Y0451764D01*
X0473868Y0451760D01*
X0473890Y0451756D01*
X0473911Y0451751D01*
X0473933Y0451747D01*
X0473955Y0451743D01*
X0473976Y0451739D01*
X0473998Y0451735D01*
X0474020Y0451730D01*
X0474063Y0451722D01*
X0474084Y0451717D01*
X0474106Y0451713D01*
X0474128Y0451709D01*
X0474149Y0451704D01*
X0474171Y0451700D01*
X0474192Y0451695D01*
X0474214Y0451691D01*
X0474257Y0451682D01*
X0474279Y0451677D01*
X0474300Y0451673D01*
X0474322Y0451668D01*
X0474343Y0451663D01*
X0474365Y0451659D01*
X0474387Y0451654D01*
X0474408Y0451649D01*
X0474430Y0451645D01*
X0474451Y0451640D01*
X0474473Y0451635D01*
X0474516Y0451625D01*
X0474537Y0451621D01*
X0474559Y0451616D01*
X0474580Y0451611D01*
X0474602Y0451606D01*
X0474623Y0451601D01*
X0474645Y0451596D01*
X0474666Y0451591D01*
X0474687Y0451586D01*
X0474709Y0451581D01*
X0474730Y0451576D01*
X0474752Y0451571D01*
X0474773Y0451566D01*
X0474795Y0451561D01*
X0474837Y0451550D01*
X0474859Y0451545D01*
X0474880Y0451540D01*
X0474902Y0451535D01*
X0474923Y0451529D01*
X0474944Y0451524D01*
X0474966Y0451519D01*
X0474987Y0451513D01*
X0475008Y0451508D01*
X0475030Y0451503D01*
X0475051Y0451497D01*
X0475072Y0451492D01*
X0475094Y0451486D01*
X0475115Y0451481D01*
X0475136Y0451475D01*
X0475158Y0451470D01*
X0475179Y0451464D01*
X0475200Y0451459D01*
X0475221Y0451453D01*
X0475243Y0451447D01*
X0475264Y0451442D01*
X0475285Y0451436D01*
X0475306Y0451430D01*
X0475328Y0451425D01*
X0475349Y0451419D01*
X0475370Y0451413D01*
X0475391Y0451407D01*
X0475413Y0451402D01*
X0475434Y0451396D01*
X0475476Y0451384D01*
X0475497Y0451378D01*
X0475519Y0451372D01*
X0475540Y0451366D01*
X0475561Y0451360D01*
X0475582Y0451354D01*
X0475603Y0451348D01*
X0475624Y0451342D01*
X0475645Y0451336D01*
X0475666Y0451330D01*
X0475688Y0451324D01*
X0475709Y0451318D01*
X0475730Y0451312D01*
X0475751Y0451305D01*
X0475772Y0451299D01*
X0475793Y0451293D01*
X0475814Y0451287D01*
X0475835Y0451280D01*
X0475856Y0451274D01*
X0475877Y0451268D01*
X0475898Y0451261D01*
X0475919Y0451255D01*
X0475940Y0451249D01*
X0475961Y0451242D01*
X0475982Y0451236D01*
X0476003Y0451229D01*
X0476024Y0451223D01*
X0476045Y0451216D01*
X0476066Y0451210D01*
X0476087Y0451203D01*
X0476108Y0451197D01*
X0476129Y0451190D01*
X0476150Y0451183D01*
X0476171Y0451177D01*
X0476192Y0451170D01*
X0476213Y0451163D01*
X0476234Y0451157D01*
X0476255Y0451150D01*
X0476276Y0451143D01*
X0476296Y0451136D01*
X0476317Y0451130D01*
X0476338Y0451123D01*
X0476359Y0451116D01*
X0476380Y0451109D01*
X0476401Y0451102D01*
X0476421Y0451095D01*
X0476442Y0451088D01*
X0476463Y0451081D01*
X0476484Y0451074D01*
X0476505Y0451067D01*
X0476526Y0451060D01*
X0476546Y0451053D01*
X0476567Y0451046D01*
X0476588Y0451039D01*
X0476609Y0451032D01*
X0476629Y0451025D01*
X0476650Y0451017D01*
X0476671Y0451010D01*
X0476692Y0451003D01*
X0476733Y0450988D01*
X0476754Y0450981D01*
X0476774Y0450974D01*
X0476795Y0450966D01*
X0476816Y0450959D01*
X0476836Y0450952D01*
X0476857Y0450944D01*
X0476878Y0450937D01*
X0476898Y0450929D01*
X0476919Y0450922D01*
X0476939Y0450914D01*
X0476960Y0450907D01*
X0476981Y0450899D01*
X0477001Y0450892D01*
X0477022Y0450884D01*
X0477042Y0450877D01*
X0477063Y0450869D01*
X0477084Y0450861D01*
X0477104Y0450854D01*
X0477125Y0450846D01*
X0477166Y0450830D01*
X0477186Y0450823D01*
X0477227Y0450807D01*
X0477248Y0450799D01*
X0477268Y0450791D01*
X0477289Y0450783D01*
X0477309Y0450775D01*
X0477330Y0450768D01*
X0477350Y0450760D01*
X0477370Y0450752D01*
X0477391Y0450744D01*
X0477411Y0450736D01*
X0477432Y0450728D01*
X0477452Y0450719D01*
X0477472Y0450711D01*
X0477493Y0450703D01*
X0477513Y0450695D01*
X0477533Y0450687D01*
X0477554Y0450679D01*
X0477574Y0450671D01*
X0477594Y0450662D01*
X0477615Y0450654D01*
X0477635Y0450646D01*
X0477655Y0450637D01*
X0477676Y0450629D01*
X0477696Y0450621D01*
X0477716Y0450612D01*
X0477736Y0450604D01*
X0477757Y0450596D01*
X0477777Y0450587D01*
X0477797Y0450579D01*
X0477817Y0450570D01*
X0477838Y0450562D01*
X0477858Y0450553D01*
X0477898Y0450536D01*
X0477918Y0450528D01*
X0477939Y0450519D01*
X0477959Y0450510D01*
X0477979Y0450502D01*
X0478019Y0450484D01*
X0478039Y0450476D01*
X0478059Y0450467D01*
X0478079Y0450458D01*
X0478099Y0450449D01*
X0478120Y0450441D01*
X0478140Y0450432D01*
X0478160Y0450423D01*
X0478180Y0450414D01*
X0478200Y0450405D01*
X0478220Y0450396D01*
X0478240Y0450387D01*
X0478260Y0450378D01*
X0478280Y0450369D01*
X0478320Y0450351D01*
X0478340Y0450342D01*
X0478360Y0450333D01*
X0478380Y0450324D01*
X0478400Y0450315D01*
X0478419Y0450306D01*
X0478439Y0450297D01*
X0478459Y0450287D01*
X0478479Y0450278D01*
X0478499Y0450269D01*
X0478519Y0450260D01*
X0478559Y0450241D01*
X0478578Y0450232D01*
X0478598Y0450222D01*
X0478618Y0450213D01*
X0478638Y0450204D01*
X0478658Y0450194D01*
X0478678Y0450185D01*
X0478697Y0450175D01*
X0478717Y0450166D01*
X0478737Y0450156D01*
X0478757Y0450147D01*
X0478776Y0450137D01*
X0478796Y0450128D01*
X0478816Y0450118D01*
X0478835Y0450109D01*
X0478855Y0450099D01*
X0478875Y0450089D01*
X0478914Y0450070D01*
X0478934Y0450060D01*
X0478953Y0450050D01*
X0478973Y0450041D01*
X0478993Y0450031D01*
X0479012Y0450021D01*
X0479032Y0450011D01*
X0479052Y0450001D01*
X0479071Y0449992D01*
X0479091Y0449982D01*
X0479110Y0449972D01*
X0479130Y0449962D01*
X0479149Y0449952D01*
X0479169Y0449942D01*
X0479188Y0449932D01*
X0479208Y0449922D01*
X0479227Y0449912D01*
X0479266Y0449892D01*
X0479286Y0449882D01*
X0479305Y0449871D01*
X0479325Y0449861D01*
X0479344Y0449851D01*
X0479363Y0449841D01*
X0479383Y0449831D01*
X0479402Y0449820D01*
X0479422Y0449810D01*
X0479441Y0449800D01*
X0479460Y0449790D01*
X0479480Y0449779D01*
X0479499Y0449769D01*
X0479518Y0449758D01*
X0479538Y0449748D01*
X0479557Y0449738D01*
X0479576Y0449727D01*
X0479615Y0449706D01*
X0479634Y0449696D01*
X0479653Y0449685D01*
X0479673Y0449675D01*
X0479692Y0449664D01*
X0479711Y0449654D01*
X0479730Y0449643D01*
X0479749Y0449632D01*
X0479788Y0449611D01*
X0479807Y0449600D01*
X0479826Y0449590D01*
X0479845Y0449579D01*
X0479864Y0449568D01*
X0479883Y0449557D01*
X0479902Y0449546D01*
X0479922Y0449536D01*
X0479941Y0449525D01*
X0479960Y0449514D01*
X0479979Y0449503D01*
X0479998Y0449492D01*
X0480017Y0449481D01*
X0480036Y0449470D01*
X0480074Y0449448D01*
X0480093Y0449437D01*
X0480131Y0449415D01*
X0480150Y0449404D01*
X0480169Y0449393D01*
X0480187Y0449382D01*
X0480206Y0449371D01*
X0480225Y0449360D01*
X0480244Y0449348D01*
X0480263Y0449337D01*
X0480301Y0449315D01*
X0480320Y0449303D01*
X0480338Y0449292D01*
X0480357Y0449281D01*
X0480376Y0449269D01*
X0480395Y0449258D01*
X0480414Y0449247D01*
X0480432Y0449235D01*
X0480451Y0449224D01*
X0480470Y0449212D01*
X0480489Y0449201D01*
X0480507Y0449189D01*
X0480526Y0449178D01*
X0480545Y0449166D01*
X0480563Y0449155D01*
X0480582Y0449143D01*
X0480601Y0449132D01*
X0480619Y0449120D01*
X0480638Y0449108D01*
X0480657Y0449097D01*
X0480675Y0449085D01*
X0480694Y0449073D01*
X0480712Y0449062D01*
X0480731Y0449050D01*
X0480749Y0449038D01*
X0480768Y0449026D01*
X0480786Y0449015D01*
X0480805Y0449003D01*
X0480823Y0448991D01*
X0480842Y0448979D01*
X0480860Y0448967D01*
X0480879Y0448955D01*
X0480916Y0448931D01*
X0480934Y0448919D01*
X0480953Y0448907D01*
X0480971Y0448895D01*
X0480989Y0448883D01*
X0481008Y0448871D01*
X0481026Y0448859D01*
X0481045Y0448847D01*
X0481081Y0448823D01*
X0481100Y0448811D01*
X0481118Y0448798D01*
X0481136Y0448786D01*
X0481154Y0448774D01*
X0481173Y0448762D01*
X0481191Y0448750D01*
X0481209Y0448737D01*
X0481227Y0448725D01*
X0481246Y0448713D01*
X0481264Y0448700D01*
X0481282Y0448688D01*
X0481300Y0448675D01*
X0481318Y0448663D01*
X0481336Y0448651D01*
X0481355Y0448638D01*
X0481373Y0448626D01*
X0481409Y0448601D01*
X0481427Y0448588D01*
X0481445Y0448576D01*
X0481463Y0448563D01*
X0481481Y0448550D01*
X0481517Y0448525D01*
X0481535Y0448512D01*
X0481571Y0448487D01*
X0481589Y0448474D01*
X0481625Y0448449D01*
X0481643Y0448436D01*
X0481661Y0448423D01*
X0481679Y0448410D01*
X0481697Y0448398D01*
X0481714Y0448385D01*
X0481732Y0448372D01*
X0481750Y0448359D01*
X0481768Y0448346D01*
X0481786Y0448333D01*
X0481804Y0448320D01*
X0481821Y0448307D01*
X0481839Y0448294D01*
X0481857Y0448281D01*
X0481875Y0448268D01*
X0481892Y0448255D01*
X0481910Y0448242D01*
X0481928Y0448229D01*
X0481945Y0448216D01*
X0481963Y0448202D01*
X0481981Y0448189D01*
X0481998Y0448176D01*
X0482016Y0448163D01*
X0482034Y0448150D01*
X0482051Y0448136D01*
X0482069Y0448123D01*
X0482086Y0448110D01*
X0482104Y0448096D01*
X0482122Y0448083D01*
X0482139Y0448070D01*
X0482157Y0448056D01*
X0482174Y0448043D01*
X0482192Y0448029D01*
X0482209Y0448016D01*
X0482227Y0448003D01*
X0482261Y0447976D01*
X0482279Y0447962D01*
X0482296Y0447948D01*
X0482314Y0447935D01*
X0482331Y0447921D01*
X0482366Y0447894D01*
X0482383Y0447880D01*
X0482400Y0447867D01*
X0482418Y0447853D01*
X0482435Y0447839D01*
X0482470Y0447812D01*
X0482487Y0447798D01*
X0482504Y0447784D01*
X0482521Y0447770D01*
X0482539Y0447757D01*
X0482573Y0447729D01*
X0482590Y0447715D01*
X0482607Y0447701D01*
X0482624Y0447687D01*
X0482641Y0447673D01*
X0482659Y0447659D01*
X0482676Y0447645D01*
X0482693Y0447631D01*
X0482710Y0447617D01*
X0482727Y0447603D01*
X0482744Y0447589D01*
X0482761Y0447575D01*
X0482778Y0447561D01*
X0482795Y0447547D01*
X0482812Y0447533D01*
X0482829Y0447518D01*
X0482846Y0447504D01*
X0482863Y0447490D01*
X0482880Y0447476D01*
X0482897Y0447462D01*
X0482930Y0447433D01*
X0482947Y0447419D01*
X0482964Y0447404D01*
X0482981Y0447390D01*
X0482998Y0447376D01*
X0483031Y0447347D01*
X0483048Y0447332D01*
X0483065Y0447318D01*
X0483082Y0447303D01*
X0483098Y0447289D01*
X0483115Y0447274D01*
X0483132Y0447260D01*
X0483148Y0447245D01*
X0483165Y0447231D01*
X0483182Y0447216D01*
X0483198Y0447201D01*
X0483215Y0447187D01*
X0483232Y0447172D01*
X0483248Y0447158D01*
X0483265Y0447143D01*
X0483281Y0447128D01*
X0483298Y0447113D01*
X0483331Y0447084D01*
X0483347Y0447069D01*
X0483364Y0447054D01*
X0483380Y0447039D01*
X0483397Y0447025D01*
X0483413Y0447010D01*
X0483430Y0446995D01*
X0483446Y0446980D01*
X0483462Y0446965D01*
X0483479Y0446950D01*
X0483495Y0446935D01*
X0483512Y0446920D01*
X0483528Y0446905D01*
X0483544Y0446890D01*
X0483560Y0446875D01*
X0483577Y0446860D01*
X0483593Y0446845D01*
X0483626Y0446815D01*
X0483642Y0446799D01*
X0483658Y0446784D01*
X0483674Y0446769D01*
X0483690Y0446754D01*
X0483706Y0446739D01*
X0483723Y0446723D01*
X0483739Y0446708D01*
X0483755Y0446693D01*
X0483771Y0446677D01*
X0483787Y0446662D01*
X0483819Y0446631D01*
X0483835Y0446616D01*
X0483867Y0446585D01*
X0483883Y0446570D01*
X0483899Y0446554D01*
X0483915Y0446539D01*
X0483931Y0446523D01*
X0483947Y0446508D01*
X0483963Y0446492D01*
X0483979Y0446477D01*
X0483995Y0446461D01*
X0484010Y0446446D01*
X0484026Y0446430D01*
X0484058Y0446399D01*
X0484074Y0446383D01*
X0484090Y0446367D01*
X0484105Y0446352D01*
X0484121Y0446336D01*
X0484137Y0446320D01*
X0484152Y0446304D01*
X0484168Y0446288D01*
X0484200Y0446257D01*
X0484215Y0446241D01*
X0484231Y0446225D01*
X0484246Y0446209D01*
X0484262Y0446193D01*
X0484278Y0446177D01*
X0484293Y0446161D01*
X0484309Y0446145D01*
X0484324Y0446129D01*
X0484340Y0446113D01*
X0484355Y0446097D01*
X0484371Y0446081D01*
X0484386Y0446065D01*
X0484402Y0446049D01*
X0484432Y0446017D01*
X0484448Y0446001D01*
X0484479Y0445969D01*
X0484494Y0445952D01*
X0484525Y0445920D01*
X0484540Y0445904D01*
X0484555Y0445887D01*
X0484570Y0445871D01*
X0484586Y0445855D01*
X0484601Y0445838D01*
X0484616Y0445822D01*
X0484631Y0445806D01*
X0484647Y0445789D01*
X0484662Y0445773D01*
X0484677Y0445756D01*
X0484692Y0445740D01*
X0484707Y0445724D01*
X0484722Y0445707D01*
X0484752Y0445674D01*
X0484767Y0445657D01*
X0484782Y0445641D01*
X0484797Y0445624D01*
X0484812Y0445608D01*
X0484842Y0445574D01*
X0484857Y0445558D01*
X0484872Y0445541D01*
X0484887Y0445524D01*
X0484902Y0445508D01*
X0484917Y0445491D01*
X0484932Y0445474D01*
X0484947Y0445457D01*
X0484961Y0445441D01*
X0484976Y0445424D01*
X0484991Y0445407D01*
X0485021Y0445373D01*
X0485035Y0445356D01*
X0485050Y0445340D01*
X0485065Y0445323D01*
X0485079Y0445306D01*
X0485094Y0445289D01*
X0485109Y0445272D01*
X0485123Y0445255D01*
X0485138Y0445238D01*
X0485375Y0444961D01*
X0485612Y0444684D01*
X0485847Y0444407D01*
X0486082Y0444129D01*
X0486317Y0443851D01*
X0486551Y0443572D01*
X0486784Y0443294D01*
X0487017Y0443015D01*
X0487248Y0442735D01*
X0487480Y0442456D01*
X0487711Y0442175D01*
X0487941Y0441895D01*
X0488171Y0441614D01*
X0488400Y0441333D01*
X0488856Y0440770D01*
X0489083Y0440488D01*
X0489535Y0439923D01*
X0489760Y0439640D01*
X0489984Y0439356D01*
X0490209Y0439073D01*
X0490432Y0438789D01*
X0490877Y0438220D01*
X0491098Y0437935D01*
X0491319Y0437649D01*
X0491540Y0437364D01*
X0491759Y0437078D01*
X0491978Y0436791D01*
X0492197Y0436505D01*
X0492414Y0436218D01*
X0492631Y0435931D01*
X0492848Y0435643D01*
X0493064Y0435355D01*
X0493494Y0434779D01*
X0493708Y0434490D01*
X0493922Y0434201D01*
X0494135Y0433911D01*
X0494347Y0433622D01*
X0494558Y0433332D01*
X0494770Y0433041D01*
X0494980Y0432751D01*
X0495399Y0432169D01*
X0495607Y0431877D01*
X0495815Y0431585D01*
X0496023Y0431293D01*
X0496229Y0431001D01*
X0496435Y0430708D01*
X0496641Y0430415D01*
X0496846Y0430122D01*
X0497050Y0429828D01*
X0497253Y0429534D01*
X0497456Y0429240D01*
X0497658Y0428945D01*
X0497860Y0428651D01*
X0498062Y0428356D01*
X0498262Y0428060D01*
X0498462Y0427765D01*
X0498661Y0427469D01*
X0498860Y0427172D01*
X0499058Y0426876D01*
X0499255Y0426579D01*
X0499452Y0426282D01*
X0499648Y0425985D01*
X0499844Y0425687D01*
X0500039Y0425389D01*
X0500233Y0425091D01*
X0500427Y0424792D01*
X0500620Y0424493D01*
X0500812Y0424194D01*
X0501004Y0423895D01*
X0501386Y0423296D01*
X0501576Y0422995D01*
X0501765Y0422695D01*
X0501954Y0422394D01*
X0502142Y0422093D01*
X0502330Y0421792D01*
X0502517Y0421490D01*
X0502703Y0421189D01*
X0502888Y0420886D01*
X0503074Y0420584D01*
X0503258Y0420282D01*
X0503442Y0419979D01*
X0503625Y0419676D01*
X0503808Y0419372D01*
X0503990Y0419068D01*
X0504171Y0418765D01*
X0504352Y0418460D01*
X0504532Y0418156D01*
X0504712Y0417851D01*
X0504890Y0417546D01*
X0505068Y0417241D01*
X0505246Y0416936D01*
X0505423Y0416630D01*
X0505776Y0416018D01*
X0505951Y0415711D01*
X0506299Y0415097D01*
X0506472Y0414790D01*
X0506645Y0414482D01*
X0506817Y0414175D01*
X0506989Y0413867D01*
X0507330Y0413250D01*
X0507499Y0412941D01*
X0507668Y0412632D01*
X0507837Y0412323D01*
X0508005Y0412014D01*
X0508171Y0411704D01*
X0508338Y0411394D01*
X0508504Y0411084D01*
X0508669Y0410773D01*
X0508834Y0410463D01*
X0508998Y0410152D01*
X0509161Y0409840D01*
X0509324Y0409529D01*
X0509487Y0409217D01*
X0509648Y0408905D01*
X0509809Y0408593D01*
X0509969Y0408281D01*
X0510129Y0407968D01*
X0510288Y0407656D01*
X0510447Y0407343D01*
X0510762Y0406716D01*
X0510918Y0406402D01*
X0511230Y0405774D01*
X0511385Y0405460D01*
X0511692Y0404830D01*
X0511845Y0404515D01*
X0511997Y0404200D01*
X0512149Y0403885D01*
X0512300Y0403569D01*
X0512450Y0403253D01*
X0512601Y0402937D01*
X0512750Y0402621D01*
X0513046Y0401987D01*
X0513194Y0401670D01*
X0513340Y0401353D01*
X0513487Y0401036D01*
X0513632Y0400718D01*
X0513777Y0400400D01*
X0513921Y0400082D01*
X0514065Y0399764D01*
X0514350Y0399127D01*
X0514492Y0398808D01*
X0514633Y0398488D01*
X0514774Y0398169D01*
X0514914Y0397850D01*
X0515053Y0397530D01*
X0515192Y0397210D01*
X0515330Y0396890D01*
X0515467Y0396570D01*
X0515604Y0396249D01*
X0515741Y0395929D01*
X0515876Y0395608D01*
X0516011Y0395287D01*
X0516146Y0394965D01*
X0516279Y0394644D01*
X0516413Y0394322D01*
X0516545Y0394000D01*
X0516808Y0393356D01*
X0516939Y0393034D01*
X0517069Y0392711D01*
X0517199Y0392388D01*
X0517327Y0392065D01*
X0517455Y0391742D01*
X0517583Y0391419D01*
X0517710Y0391095D01*
X0517962Y0390448D01*
X0518087Y0390123D01*
X0518212Y0389799D01*
X0518336Y0389475D01*
X0518459Y0389150D01*
X0518704Y0388500D01*
X0518825Y0388175D01*
X0518946Y0387850D01*
X0519066Y0387524D01*
X0519186Y0387199D01*
X0519304Y0386873D01*
X0519423Y0386547D01*
X0519541Y0386220D01*
X0519774Y0385568D01*
X0519890Y0385241D01*
X0520120Y0384587D01*
X0520234Y0384260D01*
X0520347Y0383932D01*
X0520460Y0383605D01*
X0520572Y0383277D01*
X0520795Y0382621D01*
X0520905Y0382293D01*
X0521124Y0381636D01*
X0521232Y0381308D01*
X0521340Y0380979D01*
X0521447Y0380650D01*
X0521554Y0380321D01*
X0521765Y0379662D01*
X0521870Y0379332D01*
X0521974Y0379003D01*
X0522077Y0378673D01*
X0522180Y0378343D01*
X0522282Y0378013D01*
X0522384Y0377682D01*
X0522485Y0377352D01*
X0522585Y0377021D01*
X0522685Y0376690D01*
X0522784Y0376360D01*
X0522883Y0376028D01*
X0522981Y0375697D01*
X0523078Y0375366D01*
X0523175Y0375034D01*
X0523271Y0374703D01*
X0523367Y0374371D01*
X0523556Y0373707D01*
X0523649Y0373375D01*
X0523742Y0373043D01*
X0523835Y0372710D01*
X0523926Y0372378D01*
X0524017Y0372045D01*
X0524108Y0371712D01*
X0524198Y0371379D01*
X0524376Y0370713D01*
X0524464Y0370380D01*
X0524551Y0370046D01*
X0524638Y0369713D01*
X0524724Y0369379D01*
X0524810Y0369045D01*
X0524895Y0368711D01*
X0524979Y0368377D01*
X0525063Y0368043D01*
X0525146Y0367708D01*
X0525229Y0367374D01*
X0525310Y0367039D01*
X0525392Y0366705D01*
X0525472Y0366370D01*
X0525552Y0366035D01*
X0525632Y0365700D01*
X0525710Y0365365D01*
X0525788Y0365030D01*
X0525866Y0364694D01*
X0525943Y0364359D01*
X0526019Y0364023D01*
X0526095Y0363687D01*
X0526170Y0363352D01*
X0526244Y0363016D01*
X0526318Y0362680D01*
X0526392Y0362343D01*
X0526464Y0362007D01*
X0526536Y0361671D01*
X0526608Y0361334D01*
X0526678Y0360998D01*
X0526748Y0360661D01*
X0526818Y0360324D01*
X0526887Y0359988D01*
X0526955Y0359651D01*
X0527023Y0359314D01*
X0527090Y0358976D01*
X0527156Y0358639D01*
X0527222Y0358302D01*
X0527287Y0357964D01*
X0527352Y0357627D01*
X0527416Y0357289D01*
X0527479Y0356951D01*
X0527542Y0356614D01*
X0527604Y0356276D01*
X0527665Y0355938D01*
X0527726Y0355600D01*
X0527787Y0355262D01*
X0527846Y0354923D01*
X0527905Y0354585D01*
X0527964Y0354247D01*
X0528078Y0353569D01*
X0528135Y0353231D01*
X0528191Y0352892D01*
X0528246Y0352553D01*
X0528301Y0352214D01*
X0528355Y0351875D01*
X0528408Y0351536D01*
X0528461Y0351197D01*
X0528513Y0350858D01*
X0528565Y0350519D01*
X0528616Y0350179D01*
X0528666Y0349840D01*
X0528716Y0349500D01*
X0528765Y0349161D01*
X0528813Y0348821D01*
X0528862Y0348481D01*
X0528909Y0348141D01*
X0528955Y0347802D01*
X0529002Y0347462D01*
X0529047Y0347122D01*
X0529091Y0346781D01*
X0529136Y0346441D01*
X0529180Y0346101D01*
X0529222Y0345761D01*
X0529265Y0345421D01*
X0529307Y0345080D01*
X0529347Y0344740D01*
X0529388Y0344399D01*
X0529428Y0344059D01*
X0529467Y0343718D01*
X0529506Y0343377D01*
X0529544Y0343037D01*
X0529581Y0342696D01*
X0529618Y0342355D01*
X0529654Y0342014D01*
X0529689Y0341673D01*
X0529725Y0341332D01*
X0529759Y0340991D01*
X0529826Y0340309D01*
X0529858Y0339968D01*
X0529921Y0339285D01*
X0529952Y0338944D01*
X0529981Y0338603D01*
X0530011Y0338261D01*
X0530040Y0337920D01*
X0530095Y0337237D01*
X0530122Y0336895D01*
X0530148Y0336554D01*
X0530174Y0336212D01*
X0530199Y0335870D01*
X0530223Y0335529D01*
X0530247Y0335187D01*
X0530270Y0334845D01*
X0530315Y0334161D01*
X0530336Y0333820D01*
X0530357Y0333478D01*
X0530377Y0333136D01*
X0530396Y0332794D01*
X0530434Y0332110D01*
X0530451Y0331768D01*
X0530468Y0331426D01*
X0530485Y0331083D01*
X0530500Y0330741D01*
X0530515Y0330399D01*
X0530530Y0330057D01*
X0530544Y0329715D01*
X0530557Y0329373D01*
X0530570Y0329030D01*
X0530582Y0328688D01*
X0530593Y0328346D01*
X0530604Y0328004D01*
X0530614Y0327661D01*
X0530624Y0327319D01*
X0530633Y0326977D01*
X0530641Y0326634D01*
X0530649Y0326292D01*
X0530656Y0325950D01*
X0530662Y0325607D01*
X0530668Y0325265D01*
X0530674Y0324923D01*
X0530678Y0324580D01*
X0530682Y0324238D01*
X0530686Y0323895D01*
X0530688Y0323553D01*
X0530690Y0323211D01*
X0530692Y0322868D01*
X0530693Y0322526D01*
X0530693Y0321841D01*
X0530692Y0321499D01*
X0530690Y0321156D01*
X0530688Y0320814D01*
X0530686Y0320471D01*
X0530682Y0320129D01*
X0530678Y0319786D01*
X0530674Y0319444D01*
X0530662Y0318759D01*
X0530656Y0318417D01*
X0530649Y0318075D01*
X0530641Y0317732D01*
X0530633Y0317390D01*
X0530624Y0317048D01*
X0530614Y0316705D01*
X0530604Y0316363D01*
X0530593Y0316021D01*
X0530582Y0315678D01*
X0530570Y0315336D01*
X0530557Y0314994D01*
X0530544Y0314652D01*
X0530530Y0314310D01*
X0530515Y0313967D01*
X0530500Y0313625D01*
X0530485Y0313283D01*
X0530451Y0312599D01*
X0530434Y0312257D01*
X0530415Y0311915D01*
X0530396Y0311573D01*
X0530377Y0311231D01*
X0530357Y0310889D01*
X0530336Y0310547D01*
X0530315Y0310205D01*
X0530293Y0309863D01*
X0530270Y0309522D01*
X0530247Y0309180D01*
X0530223Y0308838D01*
X0530199Y0308496D01*
X0530174Y0308155D01*
X0530148Y0307813D01*
X0530122Y0307471D01*
X0530095Y0307130D01*
X0530040Y0306447D01*
X0530011Y0306105D01*
X0529981Y0305764D01*
X0529952Y0305423D01*
X0529921Y0305081D01*
X0529889Y0304740D01*
X0529858Y0304399D01*
X0529826Y0304058D01*
X0529792Y0303716D01*
X0529759Y0303375D01*
X0529725Y0303034D01*
X0529689Y0302693D01*
X0529654Y0302352D01*
X0529618Y0302012D01*
X0529581Y0301671D01*
X0529544Y0301330D01*
X0529506Y0300989D01*
X0529467Y0300649D01*
X0529428Y0300308D01*
X0529388Y0299967D01*
X0529347Y0299627D01*
X0529307Y0299286D01*
X0529265Y0298946D01*
X0529222Y0298606D01*
X0529180Y0298265D01*
X0529136Y0297925D01*
X0529047Y0297245D01*
X0529002Y0296905D01*
X0528955Y0296565D01*
X0528909Y0296225D01*
X0528862Y0295885D01*
X0528813Y0295546D01*
X0528765Y0295206D01*
X0528716Y0294866D01*
X0528616Y0294188D01*
X0528565Y0293848D01*
X0528513Y0293509D01*
X0528461Y0293170D01*
X0528408Y0292830D01*
X0528355Y0292491D01*
X0528301Y0292152D01*
X0528246Y0291814D01*
X0528191Y0291475D01*
X0528135Y0291136D01*
X0528078Y0290797D01*
X0528021Y0290459D01*
X0527964Y0290120D01*
X0527905Y0289782D01*
X0527846Y0289443D01*
X0527787Y0289105D01*
X0527726Y0288767D01*
X0527665Y0288429D01*
X0527604Y0288091D01*
X0527542Y0287753D01*
X0527479Y0287415D01*
X0527416Y0287077D01*
X0527352Y0286740D01*
X0527222Y0286065D01*
X0527156Y0285728D01*
X0527090Y0285390D01*
X0527023Y0285053D01*
X0526955Y0284716D01*
X0526887Y0284379D01*
X0526818Y0284042D01*
X0526748Y0283705D01*
X0526678Y0283369D01*
X0526608Y0283032D01*
X0526536Y0282696D01*
X0526464Y0282359D01*
X0526392Y0282023D01*
X0526318Y0281687D01*
X0526244Y0281351D01*
X0526170Y0281015D01*
X0526095Y0280679D01*
X0525943Y0280008D01*
X0525866Y0279672D01*
X0525788Y0279337D01*
X0525710Y0279002D01*
X0525632Y0278667D01*
X0525552Y0278332D01*
X0525472Y0277997D01*
X0525392Y0277662D01*
X0525310Y0277327D01*
X0525229Y0276993D01*
X0525146Y0276658D01*
X0525063Y0276324D01*
X0524979Y0275990D01*
X0524895Y0275656D01*
X0524810Y0275322D01*
X0524724Y0274988D01*
X0524638Y0274654D01*
X0524551Y0274321D01*
X0524464Y0273987D01*
X0524376Y0273654D01*
X0524287Y0273321D01*
X0524198Y0272987D01*
X0524108Y0272654D01*
X0524017Y0272322D01*
X0523926Y0271989D01*
X0523835Y0271656D01*
X0523742Y0271324D01*
X0523649Y0270992D01*
X0523556Y0270659D01*
X0523461Y0270327D01*
X0523367Y0269996D01*
X0523271Y0269664D01*
X0523175Y0269332D01*
X0523078Y0269001D01*
X0522981Y0268669D01*
X0522883Y0268338D01*
X0522784Y0268007D01*
X0522685Y0267676D01*
X0522585Y0267346D01*
X0522485Y0267015D01*
X0522384Y0266684D01*
X0522180Y0266024D01*
X0522077Y0265694D01*
X0521870Y0265034D01*
X0521765Y0264705D01*
X0521659Y0264375D01*
X0521554Y0264046D01*
X0521447Y0263717D01*
X0521340Y0263388D01*
X0521232Y0263059D01*
X0521124Y0262730D01*
X0521014Y0262402D01*
X0520905Y0262074D01*
X0520795Y0261745D01*
X0520572Y0261090D01*
X0520460Y0260762D01*
X0520347Y0260434D01*
X0520234Y0260107D01*
X0520120Y0259780D01*
X0519890Y0259126D01*
X0519774Y0258799D01*
X0519541Y0258146D01*
X0519423Y0257820D01*
X0519186Y0257168D01*
X0519066Y0256842D01*
X0518946Y0256517D01*
X0518825Y0256192D01*
X0518704Y0255866D01*
X0518581Y0255541D01*
X0518459Y0255217D01*
X0518336Y0254892D01*
X0518212Y0254568D01*
X0518087Y0254243D01*
X0517962Y0253919D01*
X0517836Y0253595D01*
X0517710Y0253271D01*
X0517583Y0252948D01*
X0517327Y0252301D01*
X0517199Y0251978D01*
X0517069Y0251656D01*
X0516939Y0251333D01*
X0516808Y0251011D01*
X0516545Y0250366D01*
X0516413Y0250044D01*
X0516146Y0249401D01*
X0516011Y0249080D01*
X0515876Y0248759D01*
X0515741Y0248438D01*
X0515604Y0248117D01*
X0515330Y0247477D01*
X0515192Y0247156D01*
X0515053Y0246837D01*
X0514914Y0246517D01*
X0514774Y0246197D01*
X0514633Y0245878D01*
X0514492Y0245559D01*
X0514350Y0245240D01*
X0514208Y0244922D01*
X0514065Y0244603D01*
X0513921Y0244285D01*
X0513777Y0243967D01*
X0513632Y0243649D01*
X0513487Y0243331D01*
X0513340Y0243014D01*
X0513194Y0242697D01*
X0513046Y0242380D01*
X0512898Y0242063D01*
X0512750Y0241746D01*
X0512601Y0241430D01*
X0512300Y0240798D01*
X0512149Y0240482D01*
X0511997Y0240167D01*
X0511845Y0239851D01*
X0511692Y0239536D01*
X0511385Y0238907D01*
X0511230Y0238592D01*
X0511074Y0238278D01*
X0510918Y0237964D01*
X0510762Y0237651D01*
X0510447Y0237024D01*
X0510288Y0236711D01*
X0510129Y0236398D01*
X0509969Y0236086D01*
X0509809Y0235773D01*
X0509648Y0235461D01*
X0509487Y0235149D01*
X0509324Y0234838D01*
X0509161Y0234526D01*
X0508998Y0234215D01*
X0508834Y0233904D01*
X0508669Y0233594D01*
X0508504Y0233283D01*
X0508338Y0232973D01*
X0508171Y0232663D01*
X0508005Y0232353D01*
X0507837Y0232044D01*
X0507668Y0231735D01*
X0507499Y0231425D01*
X0507330Y0231117D01*
X0507159Y0230808D01*
X0506989Y0230500D01*
X0506817Y0230192D01*
X0506645Y0229884D01*
X0506472Y0229577D01*
X0506299Y0229269D01*
X0506125Y0228962D01*
X0505951Y0228656D01*
X0505776Y0228349D01*
X0505423Y0227737D01*
X0505246Y0227431D01*
X0505068Y0227126D01*
X0504890Y0226820D01*
X0504712Y0226515D01*
X0504532Y0226211D01*
X0504352Y0225906D01*
X0504171Y0225602D01*
X0503990Y0225298D01*
X0503808Y0224994D01*
X0503625Y0224691D01*
X0503442Y0224388D01*
X0503258Y0224085D01*
X0503074Y0223782D01*
X0502888Y0223480D01*
X0502703Y0223178D01*
X0502517Y0222876D01*
X0502330Y0222575D01*
X0502142Y0222273D01*
X0501954Y0221972D01*
X0501576Y0221371D01*
X0501386Y0221071D01*
X0501004Y0220472D01*
X0500812Y0220172D01*
X0500620Y0219873D01*
X0500427Y0219574D01*
X0500233Y0219276D01*
X0500039Y0218978D01*
X0499844Y0218680D01*
X0499648Y0218382D01*
X0499452Y0218085D01*
X0499255Y0217788D01*
X0499058Y0217491D01*
X0498860Y0217194D01*
X0498661Y0216898D01*
X0498462Y0216602D01*
X0498262Y0216307D01*
X0498062Y0216011D01*
X0497860Y0215716D01*
X0497658Y0215421D01*
X0497456Y0215127D01*
X0497253Y0214832D01*
X0497050Y0214539D01*
X0496846Y0214245D01*
X0496641Y0213952D01*
X0496435Y0213659D01*
X0496229Y0213366D01*
X0496023Y0213073D01*
X0495815Y0212781D01*
X0495607Y0212489D01*
X0495399Y0212198D01*
X0495189Y0211907D01*
X0494980Y0211616D01*
X0494770Y0211325D01*
X0494558Y0211035D01*
X0494347Y0210745D01*
X0494135Y0210455D01*
X0493922Y0210166D01*
X0493708Y0209877D01*
X0493494Y0209588D01*
X0493064Y0209011D01*
X0492848Y0208723D01*
X0492631Y0208436D01*
X0492414Y0208149D01*
X0492197Y0207862D01*
X0491978Y0207575D01*
X0491759Y0207289D01*
X0491540Y0207003D01*
X0491319Y0206718D01*
X0491098Y0206432D01*
X0490877Y0206147D01*
X0490654Y0205863D01*
X0490432Y0205578D01*
X0490209Y0205294D01*
X0489984Y0205010D01*
X0489760Y0204727D01*
X0489535Y0204444D01*
X0489083Y0203879D01*
X0488856Y0203597D01*
X0488400Y0203034D01*
X0488171Y0202752D01*
X0487941Y0202472D01*
X0487711Y0202191D01*
X0487480Y0201911D01*
X0487017Y0201352D01*
X0486784Y0201073D01*
X0486551Y0200794D01*
X0486317Y0200516D01*
X0486082Y0200238D01*
X0485847Y0199960D01*
X0485612Y0199683D01*
X0485375Y0199405D01*
X0485138Y0199129D01*
X0485123Y0199112D01*
X0485109Y0199095D01*
X0485094Y0199078D01*
X0485079Y0199061D01*
X0485065Y0199044D01*
X0485035Y0199010D01*
X0485021Y0198993D01*
X0484991Y0198960D01*
X0484976Y0198943D01*
X0484961Y0198926D01*
X0484947Y0198909D01*
X0484932Y0198892D01*
X0484917Y0198876D01*
X0484902Y0198859D01*
X0484887Y0198842D01*
X0484872Y0198826D01*
X0484857Y0198809D01*
X0484842Y0198792D01*
X0484827Y0198776D01*
X0484812Y0198759D01*
X0484797Y0198742D01*
X0484782Y0198726D01*
X0484767Y0198709D01*
X0484752Y0198693D01*
X0484737Y0198676D01*
X0484722Y0198660D01*
X0484707Y0198643D01*
X0484692Y0198627D01*
X0484677Y0198610D01*
X0484662Y0198594D01*
X0484647Y0198577D01*
X0484631Y0198561D01*
X0484616Y0198545D01*
X0484601Y0198528D01*
X0484586Y0198512D01*
X0484570Y0198496D01*
X0484555Y0198479D01*
X0484540Y0198463D01*
X0484525Y0198447D01*
X0484509Y0198431D01*
X0484494Y0198414D01*
X0484479Y0198398D01*
X0484463Y0198382D01*
X0484448Y0198366D01*
X0484432Y0198350D01*
X0484417Y0198334D01*
X0484402Y0198317D01*
X0484386Y0198301D01*
X0484371Y0198285D01*
X0484355Y0198269D01*
X0484340Y0198253D01*
X0484309Y0198221D01*
X0484293Y0198205D01*
X0484278Y0198189D01*
X0484262Y0198173D01*
X0484246Y0198157D01*
X0484231Y0198142D01*
X0484215Y0198126D01*
X0484200Y0198110D01*
X0484168Y0198078D01*
X0484152Y0198062D01*
X0484137Y0198047D01*
X0484121Y0198031D01*
X0484105Y0198015D01*
X0484090Y0197999D01*
X0484074Y0197984D01*
X0484058Y0197968D01*
X0484042Y0197952D01*
X0484026Y0197937D01*
X0484010Y0197921D01*
X0483995Y0197906D01*
X0483979Y0197890D01*
X0483963Y0197874D01*
X0483947Y0197859D01*
X0483931Y0197843D01*
X0483915Y0197828D01*
X0483899Y0197812D01*
X0483883Y0197797D01*
X0483867Y0197781D01*
X0483835Y0197751D01*
X0483819Y0197735D01*
X0483787Y0197705D01*
X0483771Y0197689D01*
X0483755Y0197674D01*
X0483739Y0197659D01*
X0483723Y0197643D01*
X0483706Y0197628D01*
X0483690Y0197613D01*
X0483674Y0197598D01*
X0483658Y0197582D01*
X0483642Y0197567D01*
X0483626Y0197552D01*
X0483593Y0197522D01*
X0483577Y0197507D01*
X0483560Y0197492D01*
X0483544Y0197477D01*
X0483528Y0197462D01*
X0483512Y0197447D01*
X0483495Y0197432D01*
X0483479Y0197417D01*
X0483462Y0197402D01*
X0483446Y0197387D01*
X0483430Y0197372D01*
X0483413Y0197357D01*
X0483397Y0197342D01*
X0483380Y0197327D01*
X0483347Y0197298D01*
X0483331Y0197283D01*
X0483298Y0197253D01*
X0483281Y0197239D01*
X0483248Y0197209D01*
X0483232Y0197194D01*
X0483215Y0197180D01*
X0483198Y0197165D01*
X0483182Y0197151D01*
X0483148Y0197121D01*
X0483132Y0197107D01*
X0483115Y0197092D01*
X0483098Y0197078D01*
X0483082Y0197063D01*
X0483065Y0197049D01*
X0483048Y0197034D01*
X0483031Y0197020D01*
X0482998Y0196991D01*
X0482981Y0196977D01*
X0482964Y0196962D01*
X0482947Y0196948D01*
X0482930Y0196934D01*
X0482897Y0196905D01*
X0482880Y0196891D01*
X0482863Y0196877D01*
X0482846Y0196862D01*
X0482829Y0196848D01*
X0482812Y0196834D01*
X0482795Y0196820D01*
X0482778Y0196806D01*
X0482761Y0196792D01*
X0482744Y0196778D01*
X0482727Y0196764D01*
X0482710Y0196749D01*
X0482693Y0196735D01*
X0482676Y0196721D01*
X0482659Y0196707D01*
X0482641Y0196693D01*
X0482624Y0196679D01*
X0482590Y0196652D01*
X0482573Y0196638D01*
X0482556Y0196624D01*
X0482539Y0196610D01*
X0482521Y0196596D01*
X0482504Y0196582D01*
X0482487Y0196569D01*
X0482470Y0196555D01*
X0482435Y0196527D01*
X0482418Y0196514D01*
X0482400Y0196500D01*
X0482383Y0196486D01*
X0482366Y0196473D01*
X0482331Y0196445D01*
X0482314Y0196432D01*
X0482296Y0196418D01*
X0482279Y0196405D01*
X0482261Y0196391D01*
X0482227Y0196364D01*
X0482209Y0196351D01*
X0482192Y0196337D01*
X0482174Y0196324D01*
X0482157Y0196310D01*
X0482122Y0196284D01*
X0482104Y0196270D01*
X0482086Y0196257D01*
X0482069Y0196244D01*
X0482051Y0196230D01*
X0482034Y0196217D01*
X0482016Y0196204D01*
X0481998Y0196191D01*
X0481963Y0196164D01*
X0481945Y0196151D01*
X0481928Y0196138D01*
X0481910Y0196125D01*
X0481892Y0196112D01*
X0481875Y0196099D01*
X0481857Y0196086D01*
X0481839Y0196073D01*
X0481821Y0196060D01*
X0481804Y0196047D01*
X0481786Y0196034D01*
X0481768Y0196021D01*
X0481750Y0196008D01*
X0481732Y0195995D01*
X0481714Y0195982D01*
X0481697Y0195969D01*
X0481679Y0195956D01*
X0481661Y0195943D01*
X0481643Y0195931D01*
X0481625Y0195918D01*
X0481589Y0195892D01*
X0481571Y0195880D01*
X0481535Y0195854D01*
X0481517Y0195842D01*
X0481499Y0195829D01*
X0481481Y0195816D01*
X0481463Y0195804D01*
X0481445Y0195791D01*
X0481427Y0195779D01*
X0481409Y0195766D01*
X0481391Y0195753D01*
X0481373Y0195741D01*
X0481355Y0195728D01*
X0481336Y0195716D01*
X0481318Y0195704D01*
X0481300Y0195691D01*
X0481282Y0195679D01*
X0481264Y0195666D01*
X0481246Y0195654D01*
X0481227Y0195642D01*
X0481209Y0195629D01*
X0481191Y0195617D01*
X0481173Y0195605D01*
X0481154Y0195593D01*
X0481136Y0195580D01*
X0481118Y0195568D01*
X0481100Y0195556D01*
X0481081Y0195544D01*
X0481045Y0195520D01*
X0481026Y0195507D01*
X0481008Y0195495D01*
X0480989Y0195483D01*
X0480971Y0195471D01*
X0480953Y0195459D01*
X0480934Y0195447D01*
X0480916Y0195435D01*
X0480897Y0195423D01*
X0480879Y0195411D01*
X0480860Y0195400D01*
X0480842Y0195388D01*
X0480823Y0195376D01*
X0480805Y0195364D01*
X0480786Y0195352D01*
X0480768Y0195340D01*
X0480749Y0195328D01*
X0480731Y0195317D01*
X0480712Y0195305D01*
X0480694Y0195293D01*
X0480675Y0195282D01*
X0480657Y0195270D01*
X0480638Y0195258D01*
X0480619Y0195247D01*
X0480601Y0195235D01*
X0480582Y0195223D01*
X0480563Y0195212D01*
X0480545Y0195200D01*
X0480526Y0195189D01*
X0480507Y0195177D01*
X0480489Y0195166D01*
X0480470Y0195154D01*
X0480451Y0195143D01*
X0480432Y0195131D01*
X0480414Y0195120D01*
X0480395Y0195109D01*
X0480376Y0195097D01*
X0480357Y0195086D01*
X0480338Y0195075D01*
X0480320Y0195063D01*
X0480301Y0195052D01*
X0480263Y0195030D01*
X0480244Y0195018D01*
X0480206Y0194996D01*
X0480187Y0194985D01*
X0480169Y0194974D01*
X0480150Y0194963D01*
X0480131Y0194952D01*
X0480112Y0194940D01*
X0480093Y0194929D01*
X0480074Y0194918D01*
X0480055Y0194907D01*
X0480036Y0194896D01*
X0480017Y0194885D01*
X0479998Y0194875D01*
X0479979Y0194864D01*
X0479960Y0194853D01*
X0479941Y0194842D01*
X0479922Y0194831D01*
X0479902Y0194820D01*
X0479883Y0194809D01*
X0479864Y0194799D01*
X0479845Y0194788D01*
X0479826Y0194777D01*
X0479807Y0194766D01*
X0479788Y0194756D01*
X0479769Y0194745D01*
X0479749Y0194734D01*
X0479730Y0194724D01*
X0479711Y0194713D01*
X0479692Y0194703D01*
X0479673Y0194692D01*
X0479653Y0194681D01*
X0479634Y0194671D01*
X0479615Y0194660D01*
X0479576Y0194639D01*
X0479557Y0194629D01*
X0479538Y0194619D01*
X0479518Y0194608D01*
X0479499Y0194598D01*
X0479480Y0194587D01*
X0479460Y0194577D01*
X0479441Y0194567D01*
X0479422Y0194557D01*
X0479402Y0194546D01*
X0479383Y0194536D01*
X0479363Y0194526D01*
X0479344Y0194516D01*
X0479325Y0194505D01*
X0479305Y0194495D01*
X0479286Y0194485D01*
X0479266Y0194475D01*
X0479247Y0194465D01*
X0479227Y0194455D01*
X0479208Y0194445D01*
X0479188Y0194435D01*
X0479169Y0194425D01*
X0479149Y0194415D01*
X0479130Y0194405D01*
X0479110Y0194395D01*
X0479091Y0194385D01*
X0479052Y0194365D01*
X0479032Y0194355D01*
X0479012Y0194346D01*
X0478993Y0194336D01*
X0478973Y0194326D01*
X0478953Y0194316D01*
X0478934Y0194306D01*
X0478914Y0194297D01*
X0478875Y0194277D01*
X0478855Y0194268D01*
X0478835Y0194258D01*
X0478816Y0194249D01*
X0478796Y0194239D01*
X0478776Y0194229D01*
X0478757Y0194220D01*
X0478737Y0194210D01*
X0478717Y0194201D01*
X0478697Y0194191D01*
X0478678Y0194182D01*
X0478658Y0194172D01*
X0478638Y0194163D01*
X0478618Y0194154D01*
X0478598Y0194144D01*
X0478578Y0194135D01*
X0478559Y0194126D01*
X0478539Y0194116D01*
X0478519Y0194107D01*
X0478499Y0194098D01*
X0478479Y0194089D01*
X0478459Y0194079D01*
X0478439Y0194070D01*
X0478400Y0194052D01*
X0478380Y0194043D01*
X0478360Y0194034D01*
X0478340Y0194025D01*
X0478320Y0194015D01*
X0478300Y0194006D01*
X0478280Y0193997D01*
X0478260Y0193988D01*
X0478240Y0193979D01*
X0478220Y0193971D01*
X0478200Y0193962D01*
X0478180Y0193953D01*
X0478160Y0193944D01*
X0478140Y0193935D01*
X0478099Y0193917D01*
X0478079Y0193909D01*
X0478059Y0193900D01*
X0478039Y0193891D01*
X0478019Y0193882D01*
X0477999Y0193874D01*
X0477979Y0193865D01*
X0477959Y0193856D01*
X0477939Y0193848D01*
X0477918Y0193839D01*
X0477898Y0193830D01*
X0477878Y0193822D01*
X0477858Y0193813D01*
X0477838Y0193805D01*
X0477797Y0193788D01*
X0477777Y0193779D01*
X0477757Y0193771D01*
X0477736Y0193763D01*
X0477716Y0193754D01*
X0477676Y0193737D01*
X0477655Y0193729D01*
X0477635Y0193721D01*
X0477615Y0193713D01*
X0477594Y0193704D01*
X0477574Y0193696D01*
X0477554Y0193688D01*
X0477533Y0193680D01*
X0477493Y0193663D01*
X0477472Y0193655D01*
X0477432Y0193639D01*
X0477411Y0193631D01*
X0477370Y0193615D01*
X0477350Y0193607D01*
X0477330Y0193599D01*
X0477309Y0193591D01*
X0477289Y0193583D01*
X0477268Y0193575D01*
X0477248Y0193568D01*
X0477227Y0193560D01*
X0477207Y0193552D01*
X0477186Y0193544D01*
X0477166Y0193536D01*
X0477145Y0193529D01*
X0477125Y0193521D01*
X0477104Y0193513D01*
X0477084Y0193505D01*
X0477063Y0193498D01*
X0477042Y0193490D01*
X0477022Y0193483D01*
X0477001Y0193475D01*
X0476981Y0193467D01*
X0476960Y0193460D01*
X0476939Y0193452D01*
X0476919Y0193445D01*
X0476878Y0193430D01*
X0476857Y0193422D01*
X0476836Y0193415D01*
X0476816Y0193408D01*
X0476795Y0193400D01*
X0476774Y0193393D01*
X0476754Y0193386D01*
X0476733Y0193378D01*
X0476712Y0193371D01*
X0476692Y0193364D01*
X0476671Y0193357D01*
X0476629Y0193342D01*
X0476609Y0193335D01*
X0476588Y0193328D01*
X0476567Y0193321D01*
X0476546Y0193314D01*
X0476526Y0193307D01*
X0476505Y0193300D01*
X0476484Y0193293D01*
X0476442Y0193279D01*
X0476421Y0193272D01*
X0476380Y0193258D01*
X0476359Y0193251D01*
X0476338Y0193244D01*
X0476317Y0193237D01*
X0476296Y0193230D01*
X0476276Y0193224D01*
X0476255Y0193217D01*
X0476234Y0193210D01*
X0476213Y0193203D01*
X0476192Y0193197D01*
X0476171Y0193190D01*
X0476150Y0193183D01*
X0476129Y0193177D01*
X0476108Y0193170D01*
X0476087Y0193163D01*
X0476066Y0193157D01*
X0476045Y0193150D01*
X0476024Y0193144D01*
X0476003Y0193137D01*
X0475982Y0193131D01*
X0475961Y0193124D01*
X0475940Y0193118D01*
X0475919Y0193112D01*
X0475877Y0193099D01*
X0475856Y0193093D01*
X0475835Y0193086D01*
X0475814Y0193080D01*
X0475793Y0193074D01*
X0475751Y0193061D01*
X0475730Y0193055D01*
X0475688Y0193043D01*
X0475666Y0193037D01*
X0475645Y0193031D01*
X0475624Y0193025D01*
X0475603Y0193018D01*
X0475582Y0193012D01*
X0475561Y0193006D01*
X0475540Y0193000D01*
X0475519Y0192995D01*
X0475497Y0192989D01*
X0475476Y0192983D01*
X0475455Y0192977D01*
X0475434Y0192971D01*
X0475413Y0192965D01*
X0475391Y0192959D01*
X0475370Y0192953D01*
X0475349Y0192948D01*
X0475328Y0192942D01*
X0475306Y0192936D01*
X0475285Y0192931D01*
X0475264Y0192925D01*
X0475243Y0192919D01*
X0475221Y0192914D01*
X0475200Y0192908D01*
X0475179Y0192902D01*
X0475158Y0192897D01*
X0475136Y0192891D01*
X0475115Y0192886D01*
X0475094Y0192880D01*
X0475072Y0192875D01*
X0475051Y0192869D01*
X0475030Y0192864D01*
X0475008Y0192859D01*
X0474987Y0192853D01*
X0474966Y0192848D01*
X0474944Y0192843D01*
X0474923Y0192837D01*
X0474902Y0192832D01*
X0474880Y0192827D01*
X0474859Y0192822D01*
X0474837Y0192816D01*
X0474795Y0192806D01*
X0474773Y0192801D01*
X0474752Y0192796D01*
X0474730Y0192791D01*
X0474709Y0192786D01*
X0474687Y0192781D01*
X0474666Y0192776D01*
X0474645Y0192771D01*
X0474623Y0192766D01*
X0474602Y0192761D01*
X0474580Y0192756D01*
X0474559Y0192751D01*
X0474537Y0192746D01*
X0474516Y0192741D01*
X0474494Y0192736D01*
X0474473Y0192732D01*
X0474451Y0192727D01*
X0474430Y0192722D01*
X0474408Y0192717D01*
X0474387Y0192713D01*
X0474365Y0192708D01*
X0474343Y0192703D01*
X0474322Y0192699D01*
X0474300Y0192694D01*
X0474279Y0192689D01*
X0474257Y0192685D01*
X0474236Y0192680D01*
X0474214Y0192676D01*
X0474192Y0192671D01*
X0474171Y0192667D01*
X0474149Y0192662D01*
X0474128Y0192658D01*
X0474106Y0192654D01*
X0474084Y0192649D01*
X0474063Y0192645D01*
X0474020Y0192636D01*
X0473998Y0192632D01*
X0473976Y0192628D01*
X0473955Y0192624D01*
X0473933Y0192619D01*
X0473911Y0192615D01*
X0473890Y0192611D01*
X0473868Y0192607D01*
X0473846Y0192603D01*
X0473824Y0192599D01*
X0473803Y0192595D01*
X0473759Y0192587D01*
X0473738Y0192583D01*
X0473694Y0192575D01*
X0473672Y0192571D01*
X0473629Y0192563D01*
X0473607Y0192559D01*
X0473585Y0192555D01*
X0473564Y0192552D01*
X0473542Y0192548D01*
X0473520Y0192544D01*
X0473498Y0192540D01*
X0473476Y0192537D01*
X0473433Y0192529D01*
X0473411Y0192526D01*
X0473389Y0192522D01*
X0473367Y0192519D01*
X0473346Y0192515D01*
X0473324Y0192512D01*
X0473302Y0192508D01*
X0473280Y0192505D01*
X0473236Y0192498D01*
X0473214Y0192494D01*
X0473193Y0192491D01*
X0473171Y0192488D01*
X0473149Y0192484D01*
X0473127Y0192481D01*
X0473105Y0192478D01*
X0473083Y0192474D01*
X0473039Y0192468D01*
X0473018Y0192465D01*
X0472996Y0192462D01*
X0472974Y0192459D01*
X0472952Y0192455D01*
X0472930Y0192452D01*
X0472908Y0192449D01*
X0472886Y0192446D01*
X0472842Y0192440D01*
X0472820Y0192437D01*
X0472798Y0192434D01*
X0472776Y0192431D01*
X0472754Y0192429D01*
X0472732Y0192426D01*
X0472710Y0192423D01*
X0472688Y0192420D01*
X0472666Y0192417D01*
X0472644Y0192414D01*
X0472622Y0192412D01*
X0472578Y0192406D01*
X0472556Y0192404D01*
X0472534Y0192401D01*
X0472512Y0192398D01*
X0472490Y0192396D01*
X0472468Y0192393D01*
X0472446Y0192391D01*
X0472424Y0192388D01*
X0472402Y0192386D01*
X0472380Y0192383D01*
X0472358Y0192381D01*
X0472336Y0192378D01*
X0472314Y0192376D01*
X0472292Y0192374D01*
X0472270Y0192371D01*
X0472247Y0192369D01*
X0472225Y0192367D01*
X0472181Y0192362D01*
X0472159Y0192360D01*
X0472115Y0192355D01*
X0472093Y0192353D01*
X0472071Y0192351D01*
X0472049Y0192349D01*
X0472026Y0192347D01*
X0472004Y0192345D01*
X0471982Y0192343D01*
X0471960Y0192341D01*
X0471938Y0192339D01*
X0471916Y0192337D01*
X0471894Y0192335D01*
X0471871Y0192333D01*
X0471849Y0192331D01*
X0471827Y0192329D01*
X0471805Y0192328D01*
X0471783Y0192326D01*
X0471760Y0192324D01*
X0471738Y0192322D01*
X0471716Y0192321D01*
X0471694Y0192319D01*
X0471672Y0192317D01*
X0471650Y0192316D01*
X0471627Y0192314D01*
X0471605Y0192312D01*
X0471583Y0192311D01*
X0471561Y0192309D01*
X0471538Y0192308D01*
X0471516Y0192306D01*
X0471494Y0192305D01*
X0471472Y0192303D01*
X0471450Y0192302D01*
X0471427Y0192300D01*
X0471405Y0192299D01*
X0471383Y0192298D01*
X0471361Y0192296D01*
X0471338Y0192295D01*
X0471316Y0192294D01*
X0471294Y0192293D01*
X0471271Y0192291D01*
X0471249Y0192290D01*
X0471227Y0192289D01*
X0471205Y0192288D01*
X0471182Y0192287D01*
X0471160Y0192286D01*
X0471138Y0192284D01*
X0471115Y0192283D01*
X0471093Y0192282D01*
X0471071Y0192281D01*
X0471049Y0192280D01*
X0471026Y0192279D01*
X0471004Y0192279D01*
X0470982Y0192278D01*
X0470959Y0192277D01*
X0470915Y0192275D01*
X0470892Y0192274D01*
X0470870Y0192274D01*
X0470848Y0192273D01*
X0470825Y0192272D01*
X0470803Y0192271D01*
X0470781Y0192271D01*
X0470758Y0192270D01*
X0470736Y0192269D01*
X0470713Y0192269D01*
X0470691Y0192268D01*
X0470669Y0192268D01*
X0470646Y0192267D01*
X0470624Y0192267D01*
X0470602Y0192266D01*
X0470579Y0192266D01*
X0470557Y0192265D01*
X0470512Y0192265D01*
X0470490Y0192264D01*
X0470467Y0192264D01*
X0470445Y0192264D01*
X0470423Y0192263D01*
X0470400Y0192263D01*
X0470378Y0192263D01*
X0470355Y0192263D01*
X0470333Y0192263D01*
X0470310Y0192262D01*
X0470288Y0192262D01*
X0470266Y0192262D01*
X0470243Y0192262D01*
X0470221Y0192262D01*
X0213213Y0192262D01*
X0213190Y0192262D01*
X0213168Y0192262D01*
X0213145Y0192262D01*
X0213123Y0192262D01*
X0213100Y0192263D01*
X0213078Y0192263D01*
X0213056Y0192263D01*
X0213033Y0192263D01*
X0213011Y0192263D01*
X0212988Y0192264D01*
X0212966Y0192264D01*
X0212944Y0192264D01*
X0212921Y0192265D01*
X0212876Y0192265D01*
X0212854Y0192266D01*
X0212832Y0192266D01*
X0212809Y0192267D01*
X0212787Y0192267D01*
X0212765Y0192268D01*
X0212742Y0192268D01*
X0212720Y0192269D01*
X0212675Y0192270D01*
X0212653Y0192271D01*
X0212630Y0192271D01*
X0212608Y0192272D01*
X0212586Y0192273D01*
X0212563Y0192274D01*
X0212541Y0192274D01*
X0212519Y0192275D01*
X0212496Y0192276D01*
X0212474Y0192277D01*
X0212452Y0192278D01*
X0212429Y0192279D01*
X0212407Y0192279D01*
X0212385Y0192280D01*
X0212362Y0192281D01*
X0212340Y0192282D01*
X0212318Y0192283D01*
X0212296Y0192284D01*
X0212273Y0192286D01*
X0212251Y0192287D01*
X0212229Y0192288D01*
X0212206Y0192289D01*
X0212184Y0192290D01*
X0212162Y0192291D01*
X0212140Y0192293D01*
X0212117Y0192294D01*
X0212095Y0192295D01*
X0212073Y0192296D01*
X0212051Y0192298D01*
X0212028Y0192299D01*
X0212006Y0192300D01*
X0211984Y0192302D01*
X0211962Y0192303D01*
X0211939Y0192305D01*
X0211917Y0192306D01*
X0211895Y0192308D01*
X0211873Y0192309D01*
X0211850Y0192311D01*
X0211828Y0192312D01*
X0211806Y0192314D01*
X0211784Y0192316D01*
X0211762Y0192317D01*
X0211739Y0192319D01*
X0211717Y0192321D01*
X0211695Y0192322D01*
X0211673Y0192324D01*
X0211651Y0192326D01*
X0211628Y0192328D01*
X0211606Y0192329D01*
X0211584Y0192331D01*
X0211562Y0192333D01*
X0211540Y0192335D01*
X0211518Y0192337D01*
X0211496Y0192339D01*
X0211473Y0192341D01*
X0211451Y0192343D01*
X0211429Y0192345D01*
X0211407Y0192347D01*
X0211385Y0192349D01*
X0211363Y0192351D01*
X0211341Y0192353D01*
X0211318Y0192355D01*
X0211274Y0192360D01*
X0211252Y0192362D01*
X0211208Y0192367D01*
X0211186Y0192369D01*
X0211164Y0192371D01*
X0211142Y0192374D01*
X0211120Y0192376D01*
X0211098Y0192378D01*
X0211075Y0192381D01*
X0211053Y0192383D01*
X0211031Y0192386D01*
X0211009Y0192388D01*
X0210987Y0192391D01*
X0210965Y0192393D01*
X0210943Y0192396D01*
X0210921Y0192398D01*
X0210899Y0192401D01*
X0210877Y0192404D01*
X0210855Y0192406D01*
X0210811Y0192412D01*
X0210789Y0192414D01*
X0210767Y0192417D01*
X0210745Y0192420D01*
X0210723Y0192423D01*
X0210701Y0192426D01*
X0210679Y0192429D01*
X0210657Y0192431D01*
X0210635Y0192434D01*
X0210613Y0192437D01*
X0210591Y0192440D01*
X0210547Y0192446D01*
X0210525Y0192449D01*
X0210504Y0192452D01*
X0210482Y0192455D01*
X0210460Y0192459D01*
X0210438Y0192462D01*
X0210416Y0192465D01*
X0210394Y0192468D01*
X0210350Y0192474D01*
X0210328Y0192478D01*
X0210306Y0192481D01*
X0210284Y0192484D01*
X0210263Y0192488D01*
X0210241Y0192491D01*
X0210219Y0192494D01*
X0210197Y0192498D01*
X0210153Y0192505D01*
X0210131Y0192508D01*
X0210088Y0192515D01*
X0210066Y0192519D01*
X0210044Y0192522D01*
X0210022Y0192526D01*
X0210000Y0192529D01*
X0209957Y0192537D01*
X0209935Y0192540D01*
X0209913Y0192544D01*
X0209892Y0192548D01*
X0209870Y0192552D01*
X0209848Y0192555D01*
X0209826Y0192559D01*
X0209804Y0192563D01*
X0209783Y0192567D01*
X0209761Y0192571D01*
X0209739Y0192575D01*
X0209717Y0192579D01*
X0209696Y0192583D01*
X0209674Y0192587D01*
X0209631Y0192595D01*
X0209609Y0192599D01*
X0209587Y0192603D01*
X0209566Y0192607D01*
X0209544Y0192611D01*
X0209522Y0192615D01*
X0209500Y0192619D01*
X0209479Y0192624D01*
X0209457Y0192628D01*
X0209435Y0192632D01*
X0209414Y0192636D01*
X0209371Y0192645D01*
X0209349Y0192649D01*
X0209327Y0192654D01*
X0209306Y0192658D01*
X0209284Y0192662D01*
X0209241Y0192671D01*
X0209219Y0192676D01*
X0209198Y0192680D01*
X0209176Y0192685D01*
X0209155Y0192689D01*
X0209133Y0192694D01*
X0209111Y0192699D01*
X0209090Y0192703D01*
X0209068Y0192708D01*
X0209047Y0192713D01*
X0209025Y0192717D01*
X0209004Y0192722D01*
X0208982Y0192727D01*
X0208961Y0192732D01*
X0208939Y0192736D01*
X0208918Y0192741D01*
X0208896Y0192746D01*
X0208875Y0192751D01*
X0208853Y0192756D01*
X0208832Y0192761D01*
X0208810Y0192766D01*
X0208789Y0192771D01*
X0208767Y0192776D01*
X0208746Y0192781D01*
X0208724Y0192786D01*
X0208703Y0192791D01*
X0208682Y0192796D01*
X0208660Y0192801D01*
X0208639Y0192806D01*
X0208617Y0192811D01*
X0208596Y0192816D01*
X0208575Y0192822D01*
X0208553Y0192827D01*
X0208532Y0192832D01*
X0208510Y0192837D01*
X0208489Y0192843D01*
X0208468Y0192848D01*
X0208446Y0192853D01*
X0208404Y0192864D01*
X0208382Y0192869D01*
X0208340Y0192880D01*
X0208318Y0192886D01*
X0208297Y0192891D01*
X0208276Y0192897D01*
X0208254Y0192902D01*
X0208233Y0192908D01*
X0208212Y0192914D01*
X0208191Y0192919D01*
X0208148Y0192931D01*
X0208127Y0192936D01*
X0208084Y0192948D01*
X0208063Y0192953D01*
X0208021Y0192965D01*
X0208000Y0192971D01*
X0207978Y0192977D01*
X0207957Y0192983D01*
X0207936Y0192989D01*
X0207894Y0193000D01*
X0207872Y0193006D01*
X0207851Y0193012D01*
X0207830Y0193018D01*
X0207809Y0193025D01*
X0207788Y0193031D01*
X0207767Y0193037D01*
X0207746Y0193043D01*
X0207704Y0193055D01*
X0207682Y0193061D01*
X0207640Y0193074D01*
X0207619Y0193080D01*
X0207598Y0193086D01*
X0207577Y0193093D01*
X0207556Y0193099D01*
X0207514Y0193112D01*
X0207493Y0193118D01*
X0207451Y0193131D01*
X0207430Y0193137D01*
X0207409Y0193144D01*
X0207388Y0193150D01*
X0207367Y0193157D01*
X0207346Y0193163D01*
X0207325Y0193170D01*
X0207304Y0193177D01*
X0207283Y0193183D01*
X0207262Y0193190D01*
X0207241Y0193197D01*
X0207221Y0193203D01*
X0207200Y0193210D01*
X0207179Y0193217D01*
X0207137Y0193230D01*
X0207116Y0193237D01*
X0207095Y0193244D01*
X0207074Y0193251D01*
X0207054Y0193258D01*
X0207033Y0193265D01*
X0207012Y0193272D01*
X0206991Y0193279D01*
X0206949Y0193293D01*
X0206929Y0193300D01*
X0206908Y0193307D01*
X0206887Y0193314D01*
X0206866Y0193321D01*
X0206845Y0193328D01*
X0206825Y0193335D01*
X0206804Y0193342D01*
X0206783Y0193349D01*
X0206763Y0193357D01*
X0206742Y0193364D01*
X0206721Y0193371D01*
X0206700Y0193378D01*
X0206680Y0193386D01*
X0206638Y0193400D01*
X0206618Y0193408D01*
X0206597Y0193415D01*
X0206576Y0193422D01*
X0206556Y0193430D01*
X0206535Y0193437D01*
X0206514Y0193445D01*
X0206494Y0193452D01*
X0206473Y0193460D01*
X0206453Y0193467D01*
X0206432Y0193475D01*
X0206411Y0193483D01*
X0206391Y0193490D01*
X0206370Y0193498D01*
X0206350Y0193505D01*
X0206329Y0193513D01*
X0206309Y0193521D01*
X0206288Y0193529D01*
X0206268Y0193536D01*
X0206247Y0193544D01*
X0206227Y0193552D01*
X0206206Y0193560D01*
X0206186Y0193568D01*
X0206165Y0193575D01*
X0206145Y0193583D01*
X0206124Y0193591D01*
X0206083Y0193607D01*
X0206063Y0193615D01*
X0206022Y0193631D01*
X0206002Y0193639D01*
X0205961Y0193655D01*
X0205941Y0193663D01*
X0205920Y0193672D01*
X0205900Y0193680D01*
X0205880Y0193688D01*
X0205859Y0193696D01*
X0205839Y0193704D01*
X0205819Y0193713D01*
X0205778Y0193729D01*
X0205758Y0193737D01*
X0205717Y0193754D01*
X0205697Y0193763D01*
X0205677Y0193771D01*
X0205656Y0193779D01*
X0205636Y0193788D01*
X0205596Y0193805D01*
X0205576Y0193813D01*
X0205555Y0193822D01*
X0205535Y0193830D01*
X0205515Y0193839D01*
X0205495Y0193848D01*
X0205475Y0193856D01*
X0205455Y0193865D01*
X0205434Y0193874D01*
X0205414Y0193882D01*
X0205394Y0193891D01*
X0205374Y0193900D01*
X0205354Y0193909D01*
X0205334Y0193917D01*
X0205294Y0193935D01*
X0205274Y0193944D01*
X0205254Y0193953D01*
X0205234Y0193962D01*
X0205214Y0193971D01*
X0205194Y0193979D01*
X0205174Y0193988D01*
X0205154Y0193997D01*
X0205134Y0194006D01*
X0205114Y0194015D01*
X0205094Y0194025D01*
X0205074Y0194034D01*
X0205054Y0194043D01*
X0205034Y0194052D01*
X0204994Y0194070D01*
X0204974Y0194079D01*
X0204954Y0194089D01*
X0204934Y0194098D01*
X0204914Y0194107D01*
X0204895Y0194116D01*
X0204875Y0194126D01*
X0204855Y0194135D01*
X0204835Y0194144D01*
X0204815Y0194154D01*
X0204795Y0194163D01*
X0204776Y0194172D01*
X0204756Y0194182D01*
X0204736Y0194191D01*
X0204716Y0194201D01*
X0204696Y0194210D01*
X0204677Y0194220D01*
X0204657Y0194229D01*
X0204637Y0194239D01*
X0204618Y0194249D01*
X0204598Y0194258D01*
X0204578Y0194268D01*
X0204558Y0194277D01*
X0204539Y0194287D01*
X0204519Y0194297D01*
X0204499Y0194306D01*
X0204480Y0194316D01*
X0204460Y0194326D01*
X0204441Y0194336D01*
X0204421Y0194346D01*
X0204401Y0194355D01*
X0204382Y0194365D01*
X0204362Y0194375D01*
X0204343Y0194385D01*
X0204323Y0194395D01*
X0204304Y0194405D01*
X0204284Y0194415D01*
X0204264Y0194425D01*
X0204245Y0194435D01*
X0204225Y0194445D01*
X0204206Y0194455D01*
X0204187Y0194465D01*
X0204167Y0194475D01*
X0204148Y0194485D01*
X0204128Y0194495D01*
X0204109Y0194505D01*
X0204089Y0194516D01*
X0204070Y0194526D01*
X0204050Y0194536D01*
X0204031Y0194546D01*
X0204012Y0194557D01*
X0203992Y0194567D01*
X0203973Y0194577D01*
X0203954Y0194587D01*
X0203934Y0194598D01*
X0203915Y0194608D01*
X0203896Y0194619D01*
X0203876Y0194629D01*
X0203857Y0194639D01*
X0203838Y0194650D01*
X0203819Y0194660D01*
X0203799Y0194671D01*
X0203780Y0194681D01*
X0203761Y0194692D01*
X0203742Y0194703D01*
X0203722Y0194713D01*
X0203703Y0194724D01*
X0203684Y0194734D01*
X0203665Y0194745D01*
X0203646Y0194756D01*
X0203626Y0194766D01*
X0203588Y0194788D01*
X0203569Y0194799D01*
X0203531Y0194820D01*
X0203512Y0194831D01*
X0203493Y0194842D01*
X0203474Y0194853D01*
X0203455Y0194864D01*
X0203436Y0194875D01*
X0203417Y0194885D01*
X0203398Y0194896D01*
X0203379Y0194907D01*
X0203360Y0194918D01*
X0203341Y0194929D01*
X0203322Y0194940D01*
X0203303Y0194952D01*
X0203284Y0194963D01*
X0203265Y0194974D01*
X0203246Y0194985D01*
X0203227Y0194996D01*
X0203189Y0195018D01*
X0203170Y0195030D01*
X0203151Y0195041D01*
X0203133Y0195052D01*
X0203114Y0195063D01*
X0203076Y0195086D01*
X0203057Y0195097D01*
X0203020Y0195120D01*
X0203001Y0195131D01*
X0202982Y0195143D01*
X0202964Y0195154D01*
X0202945Y0195166D01*
X0202926Y0195177D01*
X0202907Y0195189D01*
X0202889Y0195200D01*
X0202870Y0195212D01*
X0202851Y0195223D01*
X0202833Y0195235D01*
X0202814Y0195247D01*
X0202795Y0195258D01*
X0202777Y0195270D01*
X0202758Y0195282D01*
X0202740Y0195293D01*
X0202721Y0195305D01*
X0202702Y0195317D01*
X0202684Y0195328D01*
X0202665Y0195340D01*
X0202647Y0195352D01*
X0202628Y0195364D01*
X0202610Y0195376D01*
X0202573Y0195400D01*
X0202554Y0195411D01*
X0202536Y0195423D01*
X0202518Y0195435D01*
X0202499Y0195447D01*
X0202462Y0195471D01*
X0202444Y0195483D01*
X0202407Y0195507D01*
X0202389Y0195520D01*
X0202352Y0195544D01*
X0202334Y0195556D01*
X0202297Y0195580D01*
X0202279Y0195593D01*
X0202242Y0195617D01*
X0202224Y0195629D01*
X0202206Y0195642D01*
X0202188Y0195654D01*
X0202170Y0195666D01*
X0202151Y0195679D01*
X0202133Y0195691D01*
X0202115Y0195704D01*
X0202097Y0195716D01*
X0202079Y0195728D01*
X0202061Y0195741D01*
X0202043Y0195753D01*
X0202024Y0195766D01*
X0202006Y0195779D01*
X0201970Y0195804D01*
X0201952Y0195816D01*
X0201934Y0195829D01*
X0201916Y0195842D01*
X0201898Y0195854D01*
X0201880Y0195867D01*
X0201862Y0195880D01*
X0201844Y0195892D01*
X0201808Y0195918D01*
X0201790Y0195931D01*
X0201755Y0195956D01*
X0201737Y0195969D01*
X0201719Y0195982D01*
X0201701Y0195995D01*
X0201683Y0196008D01*
X0201665Y0196021D01*
X0201648Y0196034D01*
X0201630Y0196047D01*
X0201594Y0196073D01*
X0201577Y0196086D01*
X0201541Y0196112D01*
X0201523Y0196125D01*
X0201506Y0196138D01*
X0201488Y0196151D01*
X0201470Y0196164D01*
X0201435Y0196191D01*
X0201417Y0196204D01*
X0201400Y0196217D01*
X0201382Y0196230D01*
X0201364Y0196244D01*
X0201329Y0196270D01*
X0201312Y0196284D01*
X0201294Y0196297D01*
X0201277Y0196310D01*
X0201259Y0196324D01*
X0201242Y0196337D01*
X0201224Y0196351D01*
X0201207Y0196364D01*
X0201172Y0196391D01*
X0201154Y0196405D01*
X0201137Y0196418D01*
X0201120Y0196432D01*
X0201102Y0196445D01*
X0201068Y0196473D01*
X0201050Y0196486D01*
X0201033Y0196500D01*
X0201016Y0196514D01*
X0200998Y0196527D01*
X0200964Y0196555D01*
X0200946Y0196569D01*
X0200929Y0196582D01*
X0200912Y0196596D01*
X0200895Y0196610D01*
X0200878Y0196624D01*
X0200860Y0196638D01*
X0200843Y0196652D01*
X0200826Y0196666D01*
X0200809Y0196679D01*
X0200792Y0196693D01*
X0200775Y0196707D01*
X0200758Y0196721D01*
X0200741Y0196735D01*
X0200724Y0196749D01*
X0200706Y0196764D01*
X0200689Y0196778D01*
X0200672Y0196792D01*
X0200655Y0196806D01*
X0200638Y0196820D01*
X0200621Y0196834D01*
X0200604Y0196848D01*
X0200587Y0196862D01*
X0200554Y0196891D01*
X0200537Y0196905D01*
X0200503Y0196934D01*
X0200486Y0196948D01*
X0200469Y0196962D01*
X0200452Y0196977D01*
X0200436Y0196991D01*
X0200402Y0197020D01*
X0200385Y0197034D01*
X0200369Y0197049D01*
X0200352Y0197063D01*
X0200335Y0197078D01*
X0200302Y0197107D01*
X0200285Y0197121D01*
X0200252Y0197151D01*
X0200235Y0197165D01*
X0200218Y0197180D01*
X0200202Y0197194D01*
X0200185Y0197209D01*
X0200169Y0197224D01*
X0200152Y0197239D01*
X0200135Y0197253D01*
X0200102Y0197283D01*
X0200086Y0197298D01*
X0200053Y0197327D01*
X0200037Y0197342D01*
X0200020Y0197357D01*
X0200004Y0197372D01*
X0199987Y0197387D01*
X0199971Y0197402D01*
X0199955Y0197417D01*
X0199938Y0197432D01*
X0199922Y0197447D01*
X0199905Y0197462D01*
X0199889Y0197477D01*
X0199873Y0197492D01*
X0199857Y0197507D01*
X0199840Y0197522D01*
X0199824Y0197537D01*
X0199808Y0197552D01*
X0199792Y0197567D01*
X0199759Y0197598D01*
X0199743Y0197613D01*
X0199727Y0197628D01*
X0199711Y0197643D01*
X0199695Y0197659D01*
X0199678Y0197674D01*
X0199662Y0197689D01*
X0199646Y0197705D01*
X0199614Y0197735D01*
X0199598Y0197751D01*
X0199582Y0197766D01*
X0199566Y0197781D01*
X0199550Y0197797D01*
X0199534Y0197812D01*
X0199518Y0197828D01*
X0199502Y0197843D01*
X0199486Y0197859D01*
X0199470Y0197874D01*
X0199455Y0197890D01*
X0199423Y0197921D01*
X0199407Y0197937D01*
X0199391Y0197952D01*
X0199375Y0197968D01*
X0199360Y0197984D01*
X0199344Y0197999D01*
X0199328Y0198015D01*
X0199312Y0198031D01*
X0199297Y0198047D01*
X0199281Y0198062D01*
X0199265Y0198078D01*
M02*
