%
M48
M72
T01C0.01200
T02C0.01500
T03C0.02400
T04C0.12598
%
T01
X207400Y160100
X226200Y182600
X233500Y162100
X265400Y163000
X268900Y177200
X292000Y160800
X311900Y160800
X322000Y166400
X332300Y166300
X342300Y164800
X352000Y165400
X366800Y160500
X375500Y160300
X382200Y160800
X387600Y164600
X392300Y186000
X427400Y147000
X455100Y152000
X455200Y163100
X471400Y153200
X452600Y128100
X458400Y181900
X507800Y193000
X516200Y190600
X532700Y208600
X545200Y239500
X554700Y264200
X557800Y292900
X550300Y346100
X534700Y400900
X532700Y430000
X468800Y465800
X445600Y470800
X400600Y536500
X341700Y546800
X286700Y536400
X231200Y515800
X225100Y466200
X182500Y453900
X150600Y435800
X126400Y379700
X148700Y241300
X147900Y210600
X302000Y187400
X314600Y185800
X341600Y129300
X396200Y107500
T02
X187700Y175300
X193700Y166800
X183700Y191400
X157500Y210800
X134800Y260800
X127100Y267300
X133300Y292700
X127000Y316500
X127500Y327300
X139100Y341000
X133500Y373000
X151800Y393400
X152600Y424500
X175200Y441100
X185100Y468800
X193400Y477600
X211800Y478500
X229900Y504900
X257100Y508300
X281400Y526500
X308200Y524300
X338300Y536300
X360900Y525800
X391800Y529800
X413700Y514500
X444900Y509100
X452400Y487200
X460900Y486200
X489400Y477200
X497700Y469800
X499600Y451500
X524700Y434900
X527400Y406800
X546900Y383000
X553700Y377500
X543400Y355700
X556000Y325700
X555400Y317100
X548000Y293800
X549800Y271700
X536700Y240800
X530100Y220200
X498400Y175600
X489100Y166500
X472000Y164700
X453300Y139200
X426900Y135400
X402000Y117300
X375900Y121100
X346700Y107900
X335800Y109500
X322900Y118000
X290700Y113900
X283300Y108200
X269700Y130200
X239200Y133900
X229000Y132300
X223400Y155000
T03
X378470Y490010
X388470Y490010
X398470Y490010
T04
X430814Y471795
X252590Y471775
X252603Y172546
X430802Y172565
M30
