G75*
%MOIN*%
%OFA0B0*%
%FSLAX25Y25*%
%IPPOS*%
%LPD*%
%AMOC8*
5,1,8,0,0,1.08239X$1,22.5*
%
%ADD10C,0.00900*%
%ADD11C,0.00400*%
%ADD12R,0.16500X0.00030*%
%ADD13R,0.16560X0.00030*%
%ADD14R,0.16620X0.00030*%
%ADD15R,0.16680X0.00030*%
%ADD16R,0.16740X0.00030*%
%ADD17R,0.16800X0.00030*%
%ADD18R,0.00360X0.00030*%
%ADD19R,0.00390X0.00030*%
%ADD20R,0.00390X0.00030*%
%ADD21R,0.00330X0.00030*%
%ADD22R,0.00420X0.00030*%
%ADD23R,0.00420X0.00030*%
%ADD24R,0.09810X0.00030*%
%ADD25R,0.12870X0.00030*%
%ADD26R,0.12900X0.00030*%
%ADD27R,0.12960X0.00030*%
%ADD28R,0.12990X0.00030*%
%ADD29R,0.13020X0.00030*%
%ADD30R,0.13050X0.00030*%
%ADD31R,0.13080X0.00030*%
%ADD32R,0.13110X0.00030*%
%ADD33R,0.13140X0.00030*%
%ADD34R,0.13200X0.00030*%
%ADD35R,0.12870X0.00030*%
%ADD36R,0.12930X0.00030*%
%ADD37R,0.12990X0.00030*%
%ADD38R,0.13170X0.00030*%
%ADD39R,0.00450X0.00030*%
%ADD40R,0.00480X0.00030*%
%ADD41R,0.00510X0.00030*%
%ADD42R,0.00540X0.00030*%
%ADD43R,0.00570X0.00030*%
%ADD44R,0.00600X0.00030*%
%ADD45R,0.00630X0.00030*%
%ADD46R,0.00690X0.00030*%
%ADD47R,0.00720X0.00030*%
%ADD48R,0.00750X0.00030*%
%ADD49R,0.00570X0.00030*%
%ADD50R,0.00720X0.00030*%
%ADD51R,0.00540X0.00030*%
%ADD52R,0.13170X0.00030*%
%ADD53R,0.13020X0.00030*%
%ADD54C,0.01600*%
%ADD55C,0.00300*%
%ADD56C,0.00500*%
%ADD57C,0.01000*%
%ADD58C,0.00600*%
%ADD59R,0.01500X0.03000*%
%ADD60R,0.03000X0.01500*%
D10*
X0303950Y0507350D02*
X0310689Y0507350D01*
X0314079Y0509035D02*
X0315763Y0507350D01*
X0317448Y0507350D01*
X0319133Y0509035D01*
X0319133Y0517459D01*
X0317448Y0517459D02*
X0320818Y0517459D01*
X0334336Y0515774D02*
X0334336Y0514089D01*
X0336021Y0512404D01*
X0339390Y0512404D01*
X0341075Y0510720D01*
X0341075Y0509035D01*
X0339390Y0507350D01*
X0336021Y0507350D01*
X0334336Y0509035D01*
X0334336Y0515774D02*
X0336021Y0517459D01*
X0339390Y0517459D01*
X0341075Y0515774D01*
X0344465Y0517459D02*
X0351204Y0517459D01*
X0347834Y0517459D02*
X0347834Y0507350D01*
X0354593Y0507350D02*
X0354593Y0514089D01*
X0357963Y0517459D01*
X0361332Y0514089D01*
X0361332Y0507350D01*
X0364722Y0507350D02*
X0364722Y0517459D01*
X0371461Y0507350D01*
X0371461Y0517459D01*
X0374851Y0517459D02*
X0379905Y0517459D01*
X0381590Y0515774D01*
X0381590Y0509035D01*
X0379905Y0507350D01*
X0374851Y0507350D01*
X0374851Y0517459D01*
X0361332Y0512404D02*
X0354593Y0512404D01*
X0303950Y0517459D02*
X0303950Y0507350D01*
D11*
X0300602Y0503504D02*
X0298901Y0503504D01*
X0298050Y0502654D01*
X0298050Y0499251D01*
X0298901Y0498400D01*
X0300602Y0498400D01*
X0301453Y0499251D01*
X0301453Y0500952D01*
X0299752Y0500952D01*
X0301453Y0502654D02*
X0300602Y0503504D01*
X0303115Y0501803D02*
X0303115Y0498400D01*
X0303115Y0500101D02*
X0304816Y0501803D01*
X0305667Y0501803D01*
X0308186Y0501803D02*
X0309887Y0501803D01*
X0310738Y0500952D01*
X0310738Y0498400D01*
X0308186Y0498400D01*
X0307335Y0499251D01*
X0308186Y0500101D01*
X0310738Y0500101D01*
X0312399Y0498400D02*
X0312399Y0501803D01*
X0314951Y0501803D01*
X0315802Y0500952D01*
X0315802Y0498400D01*
X0318314Y0499251D02*
X0319165Y0498400D01*
X0318314Y0499251D02*
X0318314Y0502654D01*
X0317463Y0501803D02*
X0319165Y0501803D01*
X0318999Y0495004D02*
X0318999Y0489900D01*
X0316446Y0489900D01*
X0315596Y0490751D01*
X0315596Y0492452D01*
X0316446Y0493303D01*
X0318999Y0493303D01*
X0313934Y0492452D02*
X0313934Y0489900D01*
X0313934Y0492452D02*
X0313084Y0493303D01*
X0310531Y0493303D01*
X0310531Y0489900D01*
X0308870Y0489900D02*
X0306318Y0489900D01*
X0305467Y0490751D01*
X0306318Y0491601D01*
X0308870Y0491601D01*
X0308870Y0492452D02*
X0308870Y0489900D01*
X0308870Y0492452D02*
X0308019Y0493303D01*
X0306318Y0493303D01*
X0302942Y0495004D02*
X0302942Y0489900D01*
X0303792Y0489900D02*
X0302091Y0489900D01*
X0300416Y0489900D02*
X0298715Y0489900D01*
X0299565Y0489900D02*
X0299565Y0495004D01*
X0298715Y0495004D01*
X0296202Y0493303D02*
X0297053Y0492452D01*
X0297053Y0491601D01*
X0293650Y0491601D01*
X0293650Y0490751D02*
X0293650Y0492452D01*
X0294501Y0493303D01*
X0296202Y0493303D01*
X0296202Y0489900D02*
X0294501Y0489900D01*
X0293650Y0490751D01*
X0294318Y0488455D02*
X0294318Y0487604D01*
X0294318Y0485903D02*
X0294318Y0482500D01*
X0295168Y0482500D02*
X0293467Y0482500D01*
X0291792Y0482500D02*
X0290091Y0482500D01*
X0290942Y0482500D02*
X0290942Y0487604D01*
X0290091Y0487604D01*
X0290287Y0489900D02*
X0290287Y0492452D01*
X0291989Y0494154D01*
X0291989Y0495004D01*
X0290287Y0492452D02*
X0288586Y0494154D01*
X0288586Y0495004D01*
X0287922Y0498400D02*
X0287922Y0501803D01*
X0290474Y0501803D01*
X0291325Y0500952D01*
X0291325Y0498400D01*
X0286260Y0498400D02*
X0286260Y0500952D01*
X0285409Y0501803D01*
X0283708Y0501803D01*
X0283708Y0500101D02*
X0286260Y0500101D01*
X0286260Y0498400D02*
X0283708Y0498400D01*
X0282857Y0499251D01*
X0283708Y0500101D01*
X0281196Y0500952D02*
X0281196Y0498400D01*
X0281196Y0500952D02*
X0280345Y0501803D01*
X0278644Y0501803D01*
X0277793Y0500952D01*
X0276132Y0501803D02*
X0273579Y0501803D01*
X0272729Y0500952D01*
X0272729Y0499251D01*
X0273579Y0498400D01*
X0276132Y0498400D01*
X0277793Y0498400D02*
X0277793Y0503504D01*
X0271067Y0500952D02*
X0271067Y0498400D01*
X0268515Y0498400D01*
X0267664Y0499251D01*
X0268515Y0500101D01*
X0271067Y0500101D01*
X0271067Y0500952D02*
X0270216Y0501803D01*
X0268515Y0501803D01*
X0266003Y0498400D02*
X0262600Y0498400D01*
X0262600Y0503504D01*
X0261603Y0495004D02*
X0259901Y0495004D01*
X0260752Y0495004D02*
X0260752Y0490751D01*
X0259901Y0489900D01*
X0259051Y0489900D01*
X0258200Y0490751D01*
X0258881Y0485903D02*
X0259732Y0485052D01*
X0259732Y0482500D01*
X0258030Y0482500D02*
X0258030Y0485052D01*
X0258881Y0485903D01*
X0258030Y0485052D02*
X0257179Y0485903D01*
X0256329Y0485903D01*
X0256329Y0482500D01*
X0254667Y0482500D02*
X0252115Y0482500D01*
X0251264Y0483351D01*
X0252115Y0484201D01*
X0254667Y0484201D01*
X0254667Y0485052D02*
X0254667Y0482500D01*
X0254667Y0485052D02*
X0253816Y0485903D01*
X0252115Y0485903D01*
X0249603Y0487604D02*
X0247901Y0487604D01*
X0248752Y0487604D02*
X0248752Y0483351D01*
X0247901Y0482500D01*
X0247051Y0482500D01*
X0246200Y0483351D01*
X0261393Y0483351D02*
X0261393Y0485052D01*
X0262244Y0485903D01*
X0263945Y0485903D01*
X0264796Y0485052D01*
X0264796Y0484201D01*
X0261393Y0484201D01*
X0261393Y0483351D02*
X0262244Y0482500D01*
X0263945Y0482500D01*
X0266457Y0482500D02*
X0269009Y0482500D01*
X0269860Y0483351D01*
X0269009Y0484201D01*
X0267308Y0484201D01*
X0266457Y0485052D01*
X0267308Y0485903D01*
X0269860Y0485903D01*
X0270030Y0489900D02*
X0270030Y0492452D01*
X0270881Y0493303D01*
X0271732Y0492452D01*
X0271732Y0489900D01*
X0273393Y0490751D02*
X0273393Y0492452D01*
X0274244Y0493303D01*
X0275945Y0493303D01*
X0276796Y0492452D01*
X0276796Y0491601D01*
X0273393Y0491601D01*
X0273393Y0490751D02*
X0274244Y0489900D01*
X0275945Y0489900D01*
X0276586Y0487604D02*
X0276586Y0482500D01*
X0278287Y0484201D01*
X0279989Y0482500D01*
X0279989Y0487604D01*
X0281009Y0489900D02*
X0281860Y0490751D01*
X0281009Y0491601D01*
X0279308Y0491601D01*
X0278457Y0492452D01*
X0279308Y0493303D01*
X0281860Y0493303D01*
X0281009Y0489900D02*
X0278457Y0489900D01*
X0282501Y0485903D02*
X0284202Y0485903D01*
X0285053Y0485052D01*
X0285053Y0482500D01*
X0282501Y0482500D01*
X0281650Y0483351D01*
X0282501Y0484201D01*
X0285053Y0484201D01*
X0286715Y0482500D02*
X0288416Y0482500D01*
X0287565Y0482500D02*
X0287565Y0487604D01*
X0286715Y0487604D01*
X0293467Y0485903D02*
X0294318Y0485903D01*
X0296843Y0485903D02*
X0299395Y0485903D01*
X0300246Y0485052D01*
X0300246Y0482500D01*
X0301908Y0483351D02*
X0302758Y0482500D01*
X0305310Y0482500D01*
X0305310Y0481649D02*
X0305310Y0485903D01*
X0302758Y0485903D01*
X0301908Y0485052D01*
X0301908Y0483351D01*
X0303609Y0480799D02*
X0304460Y0480799D01*
X0305310Y0481649D01*
X0307823Y0483351D02*
X0307823Y0486754D01*
X0308673Y0485903D02*
X0306972Y0485903D01*
X0307823Y0483351D02*
X0308673Y0482500D01*
X0310348Y0483351D02*
X0311199Y0482500D01*
X0312900Y0482500D01*
X0313751Y0483351D01*
X0313751Y0485052D01*
X0312900Y0485903D01*
X0311199Y0485903D01*
X0310348Y0485052D01*
X0310348Y0483351D01*
X0309889Y0479804D02*
X0309889Y0474700D01*
X0307337Y0474700D01*
X0306486Y0475551D01*
X0306486Y0477252D01*
X0307337Y0478103D01*
X0309889Y0478103D01*
X0311550Y0477252D02*
X0311550Y0475551D01*
X0312401Y0474700D01*
X0314102Y0474700D01*
X0314953Y0475551D01*
X0314953Y0477252D01*
X0314102Y0478103D01*
X0312401Y0478103D01*
X0311550Y0477252D01*
X0316615Y0476401D02*
X0318316Y0478103D01*
X0319167Y0478103D01*
X0316615Y0478103D02*
X0316615Y0474700D01*
X0318762Y0472955D02*
X0318762Y0472104D01*
X0318762Y0470403D02*
X0318762Y0467000D01*
X0317911Y0467000D02*
X0319613Y0467000D01*
X0316250Y0467000D02*
X0316250Y0469552D01*
X0315399Y0470403D01*
X0313697Y0470403D01*
X0312847Y0469552D01*
X0311185Y0470403D02*
X0308633Y0470403D01*
X0307782Y0469552D01*
X0308633Y0468701D01*
X0310335Y0468701D01*
X0311185Y0467851D01*
X0310335Y0467000D01*
X0307782Y0467000D01*
X0306121Y0467851D02*
X0306121Y0469552D01*
X0305270Y0470403D01*
X0303569Y0470403D01*
X0302718Y0469552D01*
X0302718Y0467851D01*
X0303569Y0467000D01*
X0305270Y0467000D01*
X0306121Y0467851D01*
X0301057Y0467851D02*
X0301057Y0471254D01*
X0300206Y0472104D01*
X0297654Y0472104D01*
X0297654Y0467000D01*
X0300206Y0467000D01*
X0301057Y0467851D01*
X0301672Y0461503D02*
X0299120Y0461503D01*
X0298269Y0460652D01*
X0298269Y0458951D01*
X0299120Y0458100D01*
X0301672Y0458100D01*
X0301672Y0457249D02*
X0301672Y0461503D01*
X0303334Y0461503D02*
X0305886Y0461503D01*
X0306736Y0460652D01*
X0306736Y0458100D01*
X0308398Y0458951D02*
X0308398Y0460652D01*
X0309249Y0461503D01*
X0310950Y0461503D01*
X0311801Y0460652D01*
X0311801Y0459801D01*
X0308398Y0459801D01*
X0308398Y0458951D02*
X0309249Y0458100D01*
X0310950Y0458100D01*
X0313462Y0458951D02*
X0313462Y0460652D01*
X0314313Y0461503D01*
X0316865Y0461503D01*
X0316865Y0463204D02*
X0316865Y0458100D01*
X0314313Y0458100D01*
X0313462Y0458951D01*
X0323591Y0458100D02*
X0323591Y0463204D01*
X0323591Y0461503D02*
X0326143Y0461503D01*
X0326994Y0460652D01*
X0326994Y0458951D01*
X0326143Y0458100D01*
X0323591Y0458100D01*
X0328655Y0458951D02*
X0328655Y0461503D01*
X0328655Y0458951D02*
X0329506Y0458100D01*
X0332058Y0458100D01*
X0332058Y0457249D02*
X0331207Y0456399D01*
X0330357Y0456399D01*
X0332058Y0457249D02*
X0332058Y0461503D01*
X0338784Y0458951D02*
X0339634Y0458100D01*
X0340485Y0458100D01*
X0341336Y0458951D01*
X0341336Y0463204D01*
X0340485Y0463204D02*
X0342187Y0463204D01*
X0344699Y0461503D02*
X0346400Y0461503D01*
X0347251Y0460652D01*
X0347251Y0458100D01*
X0344699Y0458100D01*
X0343848Y0458951D01*
X0344699Y0459801D01*
X0347251Y0459801D01*
X0348912Y0458100D02*
X0348912Y0461503D01*
X0349763Y0461503D01*
X0350614Y0460652D01*
X0351465Y0461503D01*
X0352315Y0460652D01*
X0352315Y0458100D01*
X0350614Y0458100D02*
X0350614Y0460652D01*
X0353977Y0460652D02*
X0353977Y0458951D01*
X0354827Y0458100D01*
X0356529Y0458100D01*
X0357380Y0459801D02*
X0353977Y0459801D01*
X0353977Y0460652D02*
X0354827Y0461503D01*
X0356529Y0461503D01*
X0357380Y0460652D01*
X0357380Y0459801D01*
X0359041Y0460652D02*
X0359892Y0461503D01*
X0362444Y0461503D01*
X0361593Y0459801D02*
X0359892Y0459801D01*
X0359041Y0460652D01*
X0359041Y0458100D02*
X0361593Y0458100D01*
X0362444Y0458951D01*
X0361593Y0459801D01*
X0369170Y0462354D02*
X0370871Y0460652D01*
X0370871Y0458100D01*
X0370871Y0460652D02*
X0372573Y0462354D01*
X0372573Y0463204D01*
X0375085Y0461503D02*
X0376786Y0461503D01*
X0377637Y0460652D01*
X0377637Y0459801D01*
X0374234Y0459801D01*
X0374234Y0458951D02*
X0374234Y0460652D01*
X0375085Y0461503D01*
X0374234Y0458951D02*
X0375085Y0458100D01*
X0376786Y0458100D01*
X0379298Y0458100D02*
X0381000Y0458100D01*
X0380149Y0458100D02*
X0380149Y0463204D01*
X0379298Y0463204D01*
X0382675Y0463204D02*
X0383525Y0463204D01*
X0383525Y0458100D01*
X0382675Y0458100D02*
X0384376Y0458100D01*
X0386051Y0458951D02*
X0386901Y0459801D01*
X0389454Y0459801D01*
X0389454Y0460652D02*
X0389454Y0458100D01*
X0386901Y0458100D01*
X0386051Y0458951D01*
X0386901Y0461503D02*
X0388603Y0461503D01*
X0389454Y0460652D01*
X0391115Y0461503D02*
X0391115Y0458100D01*
X0391115Y0461503D02*
X0393667Y0461503D01*
X0394518Y0460652D01*
X0394518Y0458100D01*
X0396179Y0458951D02*
X0396179Y0460652D01*
X0397030Y0461503D01*
X0399582Y0461503D01*
X0399582Y0463204D02*
X0399582Y0458100D01*
X0397030Y0458100D01*
X0396179Y0458951D01*
X0369170Y0462354D02*
X0369170Y0463204D01*
X0318762Y0470403D02*
X0317911Y0470403D01*
X0312847Y0472104D02*
X0312847Y0467000D01*
X0303334Y0461503D02*
X0303334Y0458100D01*
X0301672Y0457249D02*
X0300821Y0456399D01*
X0299971Y0456399D01*
X0296594Y0458100D02*
X0294893Y0458100D01*
X0295744Y0458100D02*
X0295744Y0461503D01*
X0294893Y0461503D01*
X0293232Y0461503D02*
X0290679Y0461503D01*
X0289829Y0460652D01*
X0290679Y0459801D01*
X0292381Y0459801D01*
X0293232Y0458951D01*
X0292381Y0458100D01*
X0289829Y0458100D01*
X0288167Y0459801D02*
X0284764Y0459801D01*
X0284764Y0458951D02*
X0284764Y0460652D01*
X0285615Y0461503D01*
X0287316Y0461503D01*
X0288167Y0460652D01*
X0288167Y0459801D01*
X0287316Y0458100D02*
X0285615Y0458100D01*
X0284764Y0458951D01*
X0283103Y0458951D02*
X0283103Y0462354D01*
X0282252Y0463204D01*
X0279700Y0463204D01*
X0279700Y0458100D01*
X0282252Y0458100D01*
X0283103Y0458951D01*
X0282481Y0467000D02*
X0279929Y0468701D01*
X0282481Y0470403D01*
X0284149Y0470403D02*
X0284149Y0467851D01*
X0285000Y0467000D01*
X0287552Y0467000D01*
X0287552Y0470403D01*
X0289213Y0472104D02*
X0290064Y0472104D01*
X0290064Y0467000D01*
X0289213Y0467000D02*
X0290915Y0467000D01*
X0295744Y0464055D02*
X0295744Y0463204D01*
X0298059Y0474700D02*
X0298059Y0479804D01*
X0299760Y0479804D02*
X0296357Y0479804D01*
X0296843Y0482500D02*
X0296843Y0485903D01*
X0301422Y0478103D02*
X0301422Y0475551D01*
X0302272Y0474700D01*
X0304825Y0474700D01*
X0304825Y0478103D01*
X0315412Y0482500D02*
X0315412Y0485903D01*
X0317965Y0485903D01*
X0318815Y0485052D01*
X0318815Y0482500D01*
X0302942Y0495004D02*
X0302091Y0495004D01*
X0288781Y0478103D02*
X0289632Y0477252D01*
X0289632Y0474700D01*
X0287930Y0474700D02*
X0287930Y0477252D01*
X0288781Y0478103D01*
X0287930Y0477252D02*
X0287079Y0478103D01*
X0286229Y0478103D01*
X0286229Y0474700D01*
X0284567Y0474700D02*
X0282015Y0474700D01*
X0281164Y0475551D01*
X0282015Y0476401D01*
X0284567Y0476401D01*
X0284567Y0477252D02*
X0284567Y0474700D01*
X0284567Y0477252D02*
X0283716Y0478103D01*
X0282015Y0478103D01*
X0279503Y0478954D02*
X0278652Y0479804D01*
X0276951Y0479804D01*
X0276100Y0478954D01*
X0276100Y0478103D01*
X0276951Y0477252D01*
X0278652Y0477252D01*
X0279503Y0476401D01*
X0279503Y0475551D01*
X0278652Y0474700D01*
X0276951Y0474700D01*
X0276100Y0475551D01*
X0273203Y0472104D02*
X0273203Y0467000D01*
X0269800Y0472104D01*
X0269800Y0467000D01*
X0274864Y0467851D02*
X0275715Y0468701D01*
X0278267Y0468701D01*
X0278267Y0469552D02*
X0278267Y0467000D01*
X0275715Y0467000D01*
X0274864Y0467851D01*
X0275715Y0470403D02*
X0277416Y0470403D01*
X0278267Y0469552D01*
X0279929Y0467000D02*
X0279929Y0472104D01*
X0268329Y0489900D02*
X0268329Y0493303D01*
X0269179Y0493303D01*
X0270030Y0492452D01*
X0266667Y0492452D02*
X0265816Y0493303D01*
X0264115Y0493303D01*
X0264115Y0491601D02*
X0266667Y0491601D01*
X0266667Y0492452D02*
X0266667Y0489900D01*
X0264115Y0489900D01*
X0263264Y0490751D01*
X0264115Y0491601D01*
X0410791Y0177516D02*
X0410791Y0172912D01*
X0409257Y0172912D02*
X0412326Y0172912D01*
X0409257Y0175981D02*
X0410791Y0177516D01*
X0411200Y0143284D02*
X0412902Y0143284D01*
X0412051Y0143284D02*
X0412051Y0138180D01*
X0411200Y0138180D02*
X0412902Y0138180D01*
X0414576Y0138180D02*
X0414576Y0141583D01*
X0416278Y0143284D01*
X0417979Y0141583D01*
X0417979Y0138180D01*
X0417979Y0140732D02*
X0414576Y0140732D01*
X0409539Y0138180D02*
X0406136Y0138180D01*
X0406136Y0143284D01*
X0404475Y0141583D02*
X0404475Y0138180D01*
X0404475Y0140732D02*
X0401072Y0140732D01*
X0401072Y0141583D02*
X0402773Y0143284D01*
X0404475Y0141583D01*
X0401072Y0141583D02*
X0401072Y0138180D01*
X0399410Y0138180D02*
X0397709Y0139881D01*
X0398559Y0139881D02*
X0396007Y0139881D01*
X0396007Y0138180D02*
X0396007Y0143284D01*
X0398559Y0143284D01*
X0399410Y0142434D01*
X0399410Y0140732D01*
X0398559Y0139881D01*
X0394346Y0143284D02*
X0390943Y0143284D01*
X0392644Y0143284D02*
X0392644Y0138180D01*
X0389282Y0139031D02*
X0388431Y0138180D01*
X0386729Y0138180D01*
X0385879Y0139031D01*
X0384217Y0139031D02*
X0384217Y0143284D01*
X0385879Y0142434D02*
X0385879Y0141583D01*
X0386729Y0140732D01*
X0388431Y0140732D01*
X0389282Y0139881D01*
X0389282Y0139031D01*
X0389282Y0142434D02*
X0388431Y0143284D01*
X0386729Y0143284D01*
X0385879Y0142434D01*
X0384217Y0139031D02*
X0383366Y0138180D01*
X0381665Y0138180D01*
X0380814Y0139031D01*
X0380814Y0143284D01*
X0379153Y0141583D02*
X0379153Y0138180D01*
X0379153Y0140732D02*
X0375750Y0140732D01*
X0375750Y0141583D02*
X0377451Y0143284D01*
X0379153Y0141583D01*
X0375750Y0141583D02*
X0375750Y0138180D01*
X0360473Y0138110D02*
X0357070Y0138110D01*
X0357070Y0143214D01*
X0360473Y0143214D01*
X0358772Y0140662D02*
X0357070Y0140662D01*
X0355409Y0140662D02*
X0353708Y0140662D01*
X0355409Y0140662D02*
X0355409Y0138961D01*
X0354558Y0138110D01*
X0352857Y0138110D01*
X0352006Y0138961D01*
X0352006Y0142364D01*
X0352857Y0143214D01*
X0354558Y0143214D01*
X0355409Y0142364D01*
X0350345Y0143214D02*
X0346942Y0143214D01*
X0346942Y0138110D01*
X0350345Y0138110D01*
X0348643Y0140662D02*
X0346942Y0140662D01*
X0345280Y0138110D02*
X0341877Y0138110D01*
X0341877Y0143214D01*
X0336813Y0143214D02*
X0336813Y0138110D01*
X0340216Y0138110D01*
X0335152Y0138961D02*
X0335152Y0142364D01*
X0334301Y0143214D01*
X0332600Y0143214D01*
X0331749Y0142364D01*
X0331749Y0138961D01*
X0332600Y0138110D01*
X0334301Y0138110D01*
X0335152Y0138961D01*
X0330087Y0138961D02*
X0329237Y0138110D01*
X0327535Y0138110D01*
X0326685Y0138961D01*
X0326685Y0142364D01*
X0327535Y0143214D01*
X0329237Y0143214D01*
X0330087Y0142364D01*
X0319939Y0142364D02*
X0319088Y0141513D01*
X0319939Y0142364D02*
X0319939Y0144065D01*
X0317427Y0142364D02*
X0316576Y0143214D01*
X0314874Y0143214D01*
X0314024Y0142364D01*
X0314024Y0141513D01*
X0314874Y0140662D01*
X0316576Y0140662D01*
X0317427Y0139811D01*
X0317427Y0138961D01*
X0316576Y0138110D01*
X0314874Y0138110D01*
X0314024Y0138961D01*
X0310661Y0138110D02*
X0310661Y0140662D01*
X0312362Y0142364D01*
X0312362Y0143214D01*
X0310661Y0140662D02*
X0308959Y0142364D01*
X0308959Y0143214D01*
X0307298Y0142364D02*
X0306447Y0143214D01*
X0304746Y0143214D01*
X0303895Y0142364D01*
X0303895Y0138961D01*
X0304746Y0138110D01*
X0306447Y0138110D01*
X0307298Y0138961D01*
X0307298Y0142364D01*
X0302234Y0142364D02*
X0302234Y0141513D01*
X0301383Y0140662D01*
X0298831Y0140662D01*
X0301383Y0140662D02*
X0302234Y0139811D01*
X0302234Y0138961D01*
X0301383Y0138110D01*
X0298831Y0138110D01*
X0298831Y0143214D01*
X0301383Y0143214D01*
X0302234Y0142364D01*
X0292105Y0143214D02*
X0288702Y0143214D01*
X0288702Y0138110D01*
X0292105Y0138110D01*
X0290404Y0140662D02*
X0288702Y0140662D01*
X0287041Y0138110D02*
X0287041Y0143214D01*
X0283638Y0143214D02*
X0287041Y0138110D01*
X0283638Y0138110D02*
X0283638Y0143214D01*
X0281976Y0141513D02*
X0281976Y0138110D01*
X0281976Y0140662D02*
X0278573Y0140662D01*
X0278573Y0141513D02*
X0280275Y0143214D01*
X0281976Y0141513D01*
X0278573Y0141513D02*
X0278573Y0138110D01*
X0276912Y0138961D02*
X0276061Y0138110D01*
X0273509Y0138110D01*
X0273509Y0143214D01*
X0276061Y0143214D01*
X0276912Y0142364D01*
X0276912Y0141513D01*
X0276061Y0140662D01*
X0273509Y0140662D01*
X0271848Y0139811D02*
X0271848Y0138961D01*
X0270997Y0138110D01*
X0269296Y0138110D01*
X0268445Y0138961D01*
X0266770Y0138110D02*
X0265069Y0138110D01*
X0265919Y0138110D02*
X0265919Y0143214D01*
X0265069Y0143214D02*
X0266770Y0143214D01*
X0268445Y0142364D02*
X0268445Y0141513D01*
X0269296Y0140662D01*
X0270997Y0140662D01*
X0271848Y0139811D01*
X0271848Y0142364D02*
X0270997Y0143214D01*
X0269296Y0143214D01*
X0268445Y0142364D01*
X0263407Y0142364D02*
X0263407Y0140662D01*
X0262556Y0139811D01*
X0260004Y0139811D01*
X0258343Y0139811D02*
X0258343Y0138961D01*
X0257492Y0138110D01*
X0254940Y0138110D01*
X0254940Y0143214D01*
X0257492Y0143214D01*
X0258343Y0142364D01*
X0258343Y0141513D01*
X0257492Y0140662D01*
X0254940Y0140662D01*
X0257492Y0140662D02*
X0258343Y0139811D01*
X0260004Y0138110D02*
X0260004Y0143214D01*
X0262556Y0143214D01*
X0263407Y0142364D01*
X0261706Y0139811D02*
X0263407Y0138110D01*
X0276061Y0140662D02*
X0276912Y0139811D01*
X0276912Y0138961D01*
D12*
X0341355Y0471490D03*
X0341355Y0500020D03*
D13*
X0341355Y0499990D03*
X0341355Y0499960D03*
X0341355Y0471550D03*
X0341355Y0471520D03*
D14*
X0341355Y0471580D03*
X0341355Y0499930D03*
D15*
X0341355Y0499900D03*
X0341355Y0499870D03*
X0341355Y0471640D03*
X0341355Y0471610D03*
D16*
X0341355Y0471670D03*
X0341355Y0471700D03*
X0341355Y0499810D03*
X0341355Y0499840D03*
D17*
X0341355Y0499780D03*
X0341355Y0499750D03*
X0341355Y0471760D03*
X0341355Y0471730D03*
D18*
X0344175Y0474970D03*
X0344205Y0475030D03*
X0344235Y0475090D03*
X0344265Y0475120D03*
X0344295Y0475180D03*
X0344325Y0475240D03*
X0344355Y0475300D03*
X0344385Y0475330D03*
X0344415Y0475390D03*
X0344445Y0475450D03*
X0344475Y0475480D03*
X0344475Y0475510D03*
X0344505Y0475540D03*
X0344535Y0475600D03*
X0344565Y0475660D03*
X0344595Y0475690D03*
X0344625Y0475750D03*
X0344655Y0475810D03*
X0344685Y0475870D03*
X0344715Y0475900D03*
X0344745Y0475960D03*
X0344775Y0476020D03*
X0344805Y0476050D03*
X0344805Y0476080D03*
X0344835Y0476110D03*
X0344865Y0476170D03*
X0344895Y0476230D03*
X0344925Y0476260D03*
X0344955Y0476320D03*
X0344985Y0476380D03*
X0345015Y0476440D03*
X0345045Y0476470D03*
X0345075Y0476530D03*
X0345105Y0476590D03*
X0345135Y0476650D03*
X0345165Y0476680D03*
X0345195Y0476740D03*
X0345225Y0476800D03*
X0345255Y0476830D03*
X0345255Y0476860D03*
X0345285Y0476890D03*
X0345315Y0476950D03*
X0345345Y0477010D03*
X0345375Y0477040D03*
X0345405Y0477100D03*
X0345435Y0477160D03*
X0345465Y0477220D03*
X0345495Y0477250D03*
X0345525Y0477310D03*
X0345555Y0477370D03*
X0345585Y0477430D03*
X0345615Y0477460D03*
X0345645Y0477520D03*
X0345675Y0477580D03*
X0345705Y0477610D03*
X0345705Y0477640D03*
X0345735Y0477670D03*
X0345765Y0477730D03*
X0345975Y0478090D03*
X0346005Y0478150D03*
X0346035Y0478210D03*
X0346065Y0478240D03*
X0346095Y0478300D03*
X0346125Y0478360D03*
X0346155Y0478390D03*
X0346155Y0478420D03*
X0346185Y0478450D03*
X0346215Y0478510D03*
X0346245Y0478570D03*
X0346275Y0478600D03*
X0346305Y0478660D03*
X0346335Y0478720D03*
X0346365Y0478780D03*
X0346395Y0478810D03*
X0346425Y0478870D03*
X0346455Y0478930D03*
X0346485Y0478960D03*
X0346485Y0478990D03*
X0346515Y0479020D03*
X0346545Y0479080D03*
X0346575Y0479140D03*
X0346605Y0479170D03*
X0346635Y0479230D03*
X0346665Y0479290D03*
X0346695Y0479350D03*
X0346725Y0479380D03*
X0346755Y0479440D03*
X0346785Y0479500D03*
X0346815Y0479560D03*
X0346845Y0479590D03*
X0346875Y0479650D03*
X0346905Y0479710D03*
X0346935Y0479740D03*
X0346935Y0479770D03*
X0346965Y0479800D03*
X0346995Y0479860D03*
X0347025Y0479920D03*
X0347055Y0479950D03*
X0347085Y0480010D03*
X0347115Y0480070D03*
X0347145Y0480130D03*
X0347175Y0480160D03*
X0347205Y0480220D03*
X0347235Y0480280D03*
X0347265Y0480340D03*
X0347295Y0480370D03*
X0347325Y0480430D03*
X0347355Y0480490D03*
X0347385Y0480520D03*
X0347385Y0480550D03*
X0347415Y0480580D03*
X0347445Y0480640D03*
X0347475Y0480700D03*
X0347505Y0480730D03*
X0347535Y0480790D03*
X0347565Y0480850D03*
X0347595Y0480910D03*
X0347625Y0480940D03*
X0347655Y0481000D03*
X0347685Y0481060D03*
X0347715Y0481090D03*
X0347715Y0481120D03*
X0347745Y0481150D03*
X0347775Y0481210D03*
X0347805Y0481270D03*
X0347835Y0481300D03*
X0347835Y0481330D03*
X0347865Y0481360D03*
X0347895Y0481420D03*
X0347925Y0481480D03*
X0347955Y0481510D03*
X0347985Y0481570D03*
X0348015Y0481630D03*
X0348045Y0481690D03*
X0348075Y0481720D03*
X0348105Y0481780D03*
X0348135Y0481840D03*
X0348165Y0481870D03*
X0348165Y0481900D03*
X0348195Y0481930D03*
X0348225Y0481990D03*
X0348255Y0482050D03*
X0348285Y0482080D03*
X0348315Y0482140D03*
X0348345Y0482200D03*
X0348375Y0482260D03*
X0348405Y0482290D03*
X0348435Y0482350D03*
X0348465Y0482410D03*
X0348495Y0482470D03*
X0348525Y0482500D03*
X0348555Y0482560D03*
X0348585Y0482620D03*
X0348615Y0482650D03*
X0348615Y0482680D03*
X0348645Y0482710D03*
X0348675Y0482770D03*
X0348705Y0482830D03*
X0348735Y0482860D03*
X0348765Y0482920D03*
X0348795Y0482980D03*
X0348825Y0483040D03*
X0348855Y0483070D03*
X0348885Y0483130D03*
X0348915Y0483190D03*
X0348945Y0483250D03*
X0348975Y0483280D03*
X0349005Y0483340D03*
X0349035Y0483400D03*
X0349065Y0483430D03*
X0349065Y0483460D03*
X0349095Y0483490D03*
X0349125Y0483550D03*
X0349155Y0483610D03*
X0349185Y0483640D03*
X0349215Y0483700D03*
X0349245Y0483760D03*
X0349275Y0483820D03*
X0349305Y0483850D03*
X0349335Y0483910D03*
X0349365Y0483970D03*
X0349395Y0484000D03*
X0349395Y0484030D03*
X0349425Y0484060D03*
X0349455Y0484120D03*
X0349485Y0484180D03*
X0349515Y0484210D03*
X0349515Y0484240D03*
X0349545Y0484270D03*
X0349575Y0484330D03*
X0349605Y0484390D03*
X0349635Y0484420D03*
X0349665Y0484480D03*
X0349695Y0484540D03*
X0349725Y0484600D03*
X0349755Y0484630D03*
X0349785Y0484690D03*
X0349815Y0484750D03*
X0349845Y0484780D03*
X0349845Y0484810D03*
X0349875Y0484840D03*
X0349905Y0484900D03*
X0349935Y0484960D03*
X0349965Y0484990D03*
X0349995Y0485050D03*
X0350025Y0485110D03*
X0350055Y0485170D03*
X0350085Y0485200D03*
X0350115Y0485260D03*
X0350145Y0485320D03*
X0350175Y0485380D03*
X0350205Y0485410D03*
X0350595Y0485410D03*
X0350625Y0485350D03*
X0350655Y0485320D03*
X0350685Y0485260D03*
X0350715Y0485200D03*
X0350745Y0485170D03*
X0350745Y0485140D03*
X0350775Y0485110D03*
X0350805Y0485050D03*
X0350835Y0484990D03*
X0350865Y0484960D03*
X0350895Y0484900D03*
X0350925Y0484840D03*
X0350955Y0484780D03*
X0350985Y0484750D03*
X0351015Y0484690D03*
X0351045Y0484630D03*
X0351075Y0484600D03*
X0351075Y0484570D03*
X0351105Y0484540D03*
X0351135Y0484480D03*
X0351165Y0484420D03*
X0351195Y0484390D03*
X0351195Y0484360D03*
X0351225Y0484330D03*
X0351255Y0484270D03*
X0351285Y0484210D03*
X0351315Y0484180D03*
X0351345Y0484120D03*
X0351375Y0484060D03*
X0351405Y0484000D03*
X0351435Y0483970D03*
X0351465Y0483910D03*
X0351495Y0483850D03*
X0351525Y0483820D03*
X0351525Y0483790D03*
X0351555Y0483760D03*
X0351585Y0483700D03*
X0351615Y0483640D03*
X0351645Y0483610D03*
X0351675Y0483550D03*
X0351705Y0483490D03*
X0351735Y0483430D03*
X0351765Y0483400D03*
X0351795Y0483340D03*
X0351825Y0483280D03*
X0351855Y0483220D03*
X0351885Y0483190D03*
X0351915Y0483130D03*
X0351945Y0483070D03*
X0351975Y0483040D03*
X0351975Y0483010D03*
X0352005Y0482980D03*
X0352035Y0482920D03*
X0352065Y0482860D03*
X0352095Y0482830D03*
X0352125Y0482770D03*
X0352155Y0482710D03*
X0352185Y0482650D03*
X0352215Y0482620D03*
X0352215Y0482590D03*
X0352185Y0482560D03*
X0352155Y0482500D03*
X0352125Y0482440D03*
X0352095Y0482380D03*
X0352065Y0482350D03*
X0352035Y0482290D03*
X0352005Y0482230D03*
X0351975Y0482200D03*
X0351975Y0482170D03*
X0351945Y0482140D03*
X0351915Y0482080D03*
X0351885Y0482020D03*
X0351855Y0481990D03*
X0351855Y0481960D03*
X0351825Y0481930D03*
X0351795Y0481870D03*
X0351765Y0481810D03*
X0351735Y0481780D03*
X0351735Y0481750D03*
X0351705Y0481720D03*
X0351675Y0481660D03*
X0351645Y0481600D03*
X0351615Y0481570D03*
X0351615Y0481540D03*
X0351585Y0481510D03*
X0351555Y0481450D03*
X0351525Y0481420D03*
X0351525Y0481390D03*
X0351495Y0481360D03*
X0351495Y0481330D03*
X0351465Y0481300D03*
X0351435Y0481240D03*
X0351405Y0481210D03*
X0351405Y0481180D03*
X0351375Y0481150D03*
X0351375Y0481120D03*
X0351345Y0481090D03*
X0351315Y0481030D03*
X0351285Y0481000D03*
X0351285Y0480970D03*
X0351255Y0480940D03*
X0351225Y0480880D03*
X0351195Y0480850D03*
X0351195Y0480820D03*
X0351165Y0480790D03*
X0351165Y0480760D03*
X0351135Y0480730D03*
X0351105Y0480670D03*
X0351075Y0480640D03*
X0351075Y0480610D03*
X0351045Y0480580D03*
X0351045Y0480550D03*
X0351015Y0480520D03*
X0350985Y0480460D03*
X0350955Y0480430D03*
X0350955Y0480400D03*
X0350925Y0480370D03*
X0350925Y0480340D03*
X0350895Y0480310D03*
X0350865Y0480250D03*
X0350835Y0480220D03*
X0350835Y0480190D03*
X0350805Y0480160D03*
X0350805Y0480130D03*
X0350775Y0480100D03*
X0350745Y0480070D03*
X0350745Y0480040D03*
X0350715Y0480010D03*
X0350715Y0479980D03*
X0350685Y0479950D03*
X0350685Y0479920D03*
X0350655Y0479890D03*
X0350625Y0479860D03*
X0350625Y0479830D03*
X0350595Y0479800D03*
X0350595Y0479770D03*
X0350565Y0479740D03*
X0350565Y0479710D03*
X0350535Y0479680D03*
X0350505Y0479650D03*
X0350505Y0479620D03*
X0350475Y0479590D03*
X0350475Y0479560D03*
X0350445Y0479530D03*
X0350445Y0479500D03*
X0350415Y0479470D03*
X0350385Y0479440D03*
X0350385Y0479410D03*
X0350355Y0479380D03*
X0350355Y0479350D03*
X0350325Y0479320D03*
X0350295Y0479260D03*
X0350265Y0479230D03*
X0350265Y0479200D03*
X0350235Y0479170D03*
X0350235Y0479140D03*
X0350205Y0479110D03*
X0350175Y0479050D03*
X0350145Y0479020D03*
X0350145Y0478990D03*
X0350115Y0478960D03*
X0350115Y0478930D03*
X0350085Y0478900D03*
X0350055Y0478840D03*
X0350025Y0478810D03*
X0350025Y0478780D03*
X0349995Y0478750D03*
X0349995Y0478720D03*
X0349965Y0478690D03*
X0349935Y0478630D03*
X0349905Y0478600D03*
X0349905Y0478570D03*
X0349875Y0478540D03*
X0349845Y0478480D03*
X0349815Y0478450D03*
X0349815Y0478420D03*
X0349785Y0478390D03*
X0349785Y0478360D03*
X0349755Y0478330D03*
X0349725Y0478270D03*
X0349695Y0478240D03*
X0349695Y0478210D03*
X0349665Y0478180D03*
X0349665Y0478150D03*
X0349635Y0478120D03*
X0349605Y0478060D03*
X0349575Y0478030D03*
X0349575Y0478000D03*
X0349545Y0477970D03*
X0349515Y0477910D03*
X0349485Y0477850D03*
X0349455Y0477820D03*
X0349455Y0477790D03*
X0349425Y0477760D03*
X0349395Y0477700D03*
X0349365Y0477640D03*
X0349335Y0477610D03*
X0349335Y0477580D03*
X0349305Y0477550D03*
X0349275Y0477490D03*
X0349245Y0477430D03*
X0349215Y0477400D03*
X0349215Y0477370D03*
X0349185Y0477340D03*
X0349155Y0477280D03*
X0349125Y0477220D03*
X0349095Y0477190D03*
X0349065Y0477130D03*
X0349035Y0477070D03*
X0349005Y0477010D03*
X0348975Y0476980D03*
X0348945Y0476920D03*
X0348915Y0476860D03*
X0348885Y0476800D03*
X0348855Y0476770D03*
X0348825Y0476710D03*
X0348795Y0476650D03*
X0348765Y0476590D03*
X0348735Y0476560D03*
X0348705Y0476500D03*
X0348675Y0476440D03*
X0348615Y0476350D03*
X0348585Y0476290D03*
X0348555Y0476230D03*
X0348495Y0476140D03*
X0348465Y0476080D03*
X0348435Y0476020D03*
X0348405Y0475990D03*
X0348375Y0475930D03*
X0348345Y0475870D03*
X0348315Y0475810D03*
X0348285Y0475780D03*
X0348255Y0475720D03*
X0348225Y0475660D03*
X0348165Y0475570D03*
X0348135Y0475510D03*
X0348105Y0475450D03*
X0348045Y0475360D03*
X0348015Y0475300D03*
X0347985Y0475240D03*
X0347925Y0475150D03*
X0347895Y0475090D03*
X0347805Y0474940D03*
X0347775Y0474880D03*
X0347685Y0474730D03*
X0347655Y0474670D03*
X0347565Y0474520D03*
X0347535Y0474460D03*
X0347445Y0474310D03*
X0347325Y0474100D03*
X0347205Y0473890D03*
X0347115Y0473740D03*
X0347085Y0473680D03*
X0346995Y0473530D03*
X0346875Y0473320D03*
X0346755Y0473110D03*
X0349605Y0471790D03*
X0349635Y0471820D03*
X0349665Y0471880D03*
X0349695Y0471940D03*
X0349725Y0472000D03*
X0349755Y0472030D03*
X0349785Y0472090D03*
X0349815Y0472150D03*
X0349845Y0472180D03*
X0349845Y0472210D03*
X0349875Y0472240D03*
X0349905Y0472300D03*
X0349935Y0472360D03*
X0349965Y0472390D03*
X0349965Y0472420D03*
X0349995Y0472450D03*
X0350025Y0472510D03*
X0350055Y0472570D03*
X0350085Y0472600D03*
X0350115Y0472660D03*
X0350145Y0472720D03*
X0350175Y0472780D03*
X0350205Y0472810D03*
X0350235Y0472870D03*
X0350265Y0472930D03*
X0350295Y0472960D03*
X0350295Y0472990D03*
X0350325Y0473020D03*
X0350355Y0473080D03*
X0350385Y0473140D03*
X0350415Y0473170D03*
X0350445Y0473230D03*
X0350475Y0473290D03*
X0350505Y0473350D03*
X0350535Y0473380D03*
X0350565Y0473440D03*
X0350595Y0473500D03*
X0350625Y0473560D03*
X0350655Y0473590D03*
X0350685Y0473650D03*
X0350715Y0473710D03*
X0350745Y0473740D03*
X0350745Y0473770D03*
X0350775Y0473800D03*
X0350805Y0473860D03*
X0350835Y0473920D03*
X0350865Y0473950D03*
X0350895Y0474010D03*
X0350925Y0474070D03*
X0350955Y0474130D03*
X0350985Y0474160D03*
X0351015Y0474220D03*
X0351045Y0474280D03*
X0351075Y0474340D03*
X0351105Y0474370D03*
X0351135Y0474430D03*
X0351165Y0474490D03*
X0351195Y0474520D03*
X0351195Y0474550D03*
X0351225Y0474580D03*
X0351255Y0474640D03*
X0351285Y0474700D03*
X0351315Y0474730D03*
X0351345Y0474790D03*
X0351375Y0474850D03*
X0351405Y0474910D03*
X0351435Y0474940D03*
X0351465Y0475000D03*
X0351495Y0475060D03*
X0351525Y0475090D03*
X0351525Y0475120D03*
X0351555Y0475150D03*
X0351585Y0475210D03*
X0351615Y0475270D03*
X0351645Y0475300D03*
X0351675Y0475360D03*
X0351705Y0475420D03*
X0351735Y0475480D03*
X0351765Y0475510D03*
X0351795Y0475570D03*
X0351825Y0475630D03*
X0351855Y0475690D03*
X0351885Y0475720D03*
X0351915Y0475780D03*
X0351945Y0475840D03*
X0351975Y0475870D03*
X0351975Y0475900D03*
X0352005Y0475930D03*
X0352035Y0475990D03*
X0352065Y0476050D03*
X0352095Y0476080D03*
X0352125Y0476140D03*
X0352155Y0476200D03*
X0352185Y0476260D03*
X0352215Y0476290D03*
X0352245Y0476350D03*
X0352275Y0476410D03*
X0352305Y0476470D03*
X0352335Y0476500D03*
X0352365Y0476560D03*
X0352395Y0476620D03*
X0352425Y0476650D03*
X0352425Y0476680D03*
X0352455Y0476710D03*
X0352485Y0476770D03*
X0352515Y0476830D03*
X0352545Y0476860D03*
X0352575Y0476920D03*
X0352605Y0476980D03*
X0352635Y0477040D03*
X0352665Y0477070D03*
X0352695Y0477130D03*
X0352725Y0477190D03*
X0352755Y0477250D03*
X0352785Y0477280D03*
X0352815Y0477340D03*
X0352845Y0477400D03*
X0352875Y0477430D03*
X0352875Y0477460D03*
X0352905Y0477490D03*
X0352935Y0477550D03*
X0352965Y0477610D03*
X0352995Y0477640D03*
X0353025Y0477700D03*
X0353055Y0477760D03*
X0353085Y0477820D03*
X0353115Y0477850D03*
X0353145Y0477910D03*
X0353175Y0477970D03*
X0353205Y0478000D03*
X0353205Y0478030D03*
X0353235Y0478060D03*
X0353265Y0478120D03*
X0353295Y0478180D03*
X0353325Y0478210D03*
X0353355Y0478270D03*
X0353385Y0478330D03*
X0353415Y0478390D03*
X0353445Y0478420D03*
X0353475Y0478480D03*
X0353505Y0478540D03*
X0353535Y0478600D03*
X0353565Y0478630D03*
X0353595Y0478690D03*
X0353625Y0478750D03*
X0353655Y0478780D03*
X0353655Y0478810D03*
X0353685Y0478840D03*
X0353715Y0478900D03*
X0353745Y0478960D03*
X0353775Y0478990D03*
X0353805Y0479050D03*
X0353835Y0479110D03*
X0353865Y0479170D03*
X0353895Y0479200D03*
X0353925Y0479260D03*
X0353955Y0479320D03*
X0353985Y0479380D03*
X0354015Y0479410D03*
X0354045Y0479470D03*
X0354075Y0479530D03*
X0354105Y0479560D03*
X0354105Y0479590D03*
X0354135Y0479620D03*
X0354165Y0479680D03*
X0354195Y0479740D03*
X0354225Y0479770D03*
X0354255Y0479830D03*
X0354285Y0479890D03*
X0354315Y0479950D03*
X0354345Y0479980D03*
X0354375Y0480040D03*
X0354405Y0480100D03*
X0354435Y0480130D03*
X0354435Y0480160D03*
X0354465Y0480190D03*
X0354495Y0480250D03*
X0354525Y0480310D03*
X0354555Y0480340D03*
X0354555Y0480370D03*
X0354585Y0480400D03*
X0354615Y0480460D03*
X0354645Y0480520D03*
X0354675Y0480550D03*
X0354705Y0480610D03*
X0354735Y0480670D03*
X0354765Y0480730D03*
X0354795Y0480760D03*
X0354825Y0480820D03*
X0354855Y0480880D03*
X0354885Y0480910D03*
X0354885Y0480940D03*
X0354915Y0480970D03*
X0354945Y0481030D03*
X0354975Y0481090D03*
X0355005Y0481120D03*
X0355035Y0481180D03*
X0355065Y0481240D03*
X0355095Y0481300D03*
X0355125Y0481330D03*
X0355155Y0481390D03*
X0355185Y0481450D03*
X0355215Y0481510D03*
X0355245Y0481540D03*
X0355275Y0481600D03*
X0355305Y0481660D03*
X0355335Y0481690D03*
X0355335Y0481720D03*
X0355365Y0481750D03*
X0355395Y0481810D03*
X0355425Y0481870D03*
X0355455Y0481900D03*
X0355485Y0481960D03*
X0355515Y0482020D03*
X0355545Y0482080D03*
X0355575Y0482110D03*
X0355605Y0482170D03*
X0355635Y0482230D03*
X0355665Y0482290D03*
X0355695Y0482320D03*
X0355725Y0482380D03*
X0355755Y0482440D03*
X0355785Y0482470D03*
X0355785Y0482500D03*
X0355815Y0482530D03*
X0355845Y0482590D03*
X0355845Y0482620D03*
X0356085Y0483010D03*
X0356115Y0483040D03*
X0356115Y0483070D03*
X0356145Y0483100D03*
X0356175Y0483160D03*
X0356205Y0483220D03*
X0356235Y0483250D03*
X0356235Y0483280D03*
X0356265Y0483310D03*
X0356295Y0483370D03*
X0356325Y0483430D03*
X0356355Y0483460D03*
X0356385Y0483520D03*
X0356415Y0483580D03*
X0356445Y0483640D03*
X0356475Y0483670D03*
X0356505Y0483730D03*
X0356535Y0483790D03*
X0356565Y0483820D03*
X0356565Y0483850D03*
X0356595Y0483880D03*
X0356625Y0483940D03*
X0356655Y0484000D03*
X0356685Y0484030D03*
X0356715Y0484090D03*
X0356745Y0484150D03*
X0356775Y0484210D03*
X0356805Y0484240D03*
X0356835Y0484300D03*
X0356865Y0484360D03*
X0356895Y0484420D03*
X0356925Y0484450D03*
X0356955Y0484510D03*
X0356985Y0484570D03*
X0357015Y0484600D03*
X0357015Y0484630D03*
X0357045Y0484660D03*
X0357075Y0484720D03*
X0357105Y0484780D03*
X0357135Y0484810D03*
X0357165Y0484870D03*
X0357195Y0484930D03*
X0357225Y0484990D03*
X0357255Y0485020D03*
X0357285Y0485080D03*
X0357315Y0485140D03*
X0357345Y0485200D03*
X0357375Y0485230D03*
X0357405Y0485290D03*
X0357435Y0485350D03*
X0357465Y0485380D03*
X0357465Y0485410D03*
X0357495Y0485440D03*
X0357525Y0485500D03*
X0357555Y0485560D03*
X0357585Y0485590D03*
X0357615Y0485650D03*
X0357645Y0485710D03*
X0357645Y0485800D03*
X0357615Y0485860D03*
X0357585Y0485920D03*
X0357555Y0485950D03*
X0357525Y0486010D03*
X0357495Y0486070D03*
X0357465Y0486100D03*
X0357465Y0486130D03*
X0357435Y0486160D03*
X0357405Y0486220D03*
X0357375Y0486280D03*
X0357345Y0486310D03*
X0357315Y0486370D03*
X0357285Y0486430D03*
X0357255Y0486490D03*
X0357225Y0486520D03*
X0357195Y0486580D03*
X0357165Y0486640D03*
X0357135Y0486700D03*
X0357105Y0486730D03*
X0357075Y0486790D03*
X0357045Y0486850D03*
X0357015Y0486880D03*
X0357015Y0486910D03*
X0356985Y0486940D03*
X0356955Y0487000D03*
X0356925Y0487060D03*
X0356895Y0487090D03*
X0356865Y0487150D03*
X0356835Y0487210D03*
X0356805Y0487270D03*
X0356775Y0487300D03*
X0356745Y0487360D03*
X0356715Y0487420D03*
X0356685Y0487480D03*
X0356655Y0487510D03*
X0356625Y0487570D03*
X0356595Y0487630D03*
X0356565Y0487660D03*
X0356565Y0487690D03*
X0356535Y0487720D03*
X0356505Y0487780D03*
X0356475Y0487840D03*
X0356445Y0487870D03*
X0356415Y0487930D03*
X0356385Y0487990D03*
X0356355Y0488050D03*
X0356325Y0488080D03*
X0356295Y0488140D03*
X0356265Y0488200D03*
X0356235Y0488230D03*
X0356235Y0488260D03*
X0356205Y0488290D03*
X0356175Y0488350D03*
X0356145Y0488410D03*
X0356115Y0488440D03*
X0356115Y0488470D03*
X0356085Y0488500D03*
X0356055Y0488560D03*
X0356025Y0488620D03*
X0355995Y0488650D03*
X0355965Y0488710D03*
X0355935Y0488770D03*
X0355905Y0488830D03*
X0355875Y0488860D03*
X0355845Y0488920D03*
X0355815Y0488980D03*
X0355785Y0489010D03*
X0355785Y0489040D03*
X0355755Y0489070D03*
X0355725Y0489130D03*
X0355695Y0489190D03*
X0355665Y0489220D03*
X0355635Y0489280D03*
X0355605Y0489340D03*
X0355575Y0489400D03*
X0355545Y0489430D03*
X0355515Y0489490D03*
X0355485Y0489550D03*
X0355455Y0489610D03*
X0355425Y0489640D03*
X0355395Y0489700D03*
X0355365Y0489760D03*
X0355335Y0489790D03*
X0355335Y0489820D03*
X0355305Y0489850D03*
X0355275Y0489910D03*
X0355245Y0489970D03*
X0355215Y0490000D03*
X0355185Y0490060D03*
X0355155Y0490120D03*
X0355125Y0490180D03*
X0355095Y0490210D03*
X0355065Y0490270D03*
X0355035Y0490330D03*
X0355005Y0490390D03*
X0354975Y0490420D03*
X0354945Y0490480D03*
X0354915Y0490540D03*
X0354885Y0490570D03*
X0354885Y0490600D03*
X0354855Y0490630D03*
X0354825Y0490690D03*
X0354795Y0490750D03*
X0354765Y0490780D03*
X0354735Y0490840D03*
X0354705Y0490900D03*
X0354675Y0490960D03*
X0354645Y0490990D03*
X0354615Y0491050D03*
X0354585Y0491110D03*
X0354555Y0491140D03*
X0354555Y0491170D03*
X0354525Y0491200D03*
X0354495Y0491260D03*
X0354465Y0491320D03*
X0354435Y0491350D03*
X0354405Y0491410D03*
X0354375Y0491470D03*
X0354345Y0491530D03*
X0354315Y0491560D03*
X0354285Y0491620D03*
X0354255Y0491680D03*
X0354225Y0491740D03*
X0354195Y0491770D03*
X0354165Y0491830D03*
X0354135Y0491890D03*
X0354105Y0491920D03*
X0354105Y0491950D03*
X0354075Y0491980D03*
X0354045Y0492040D03*
X0354015Y0492100D03*
X0353985Y0492130D03*
X0353955Y0492190D03*
X0353925Y0492250D03*
X0353895Y0492310D03*
X0353865Y0492340D03*
X0353835Y0492400D03*
X0353805Y0492460D03*
X0353775Y0492520D03*
X0353745Y0492550D03*
X0353715Y0492610D03*
X0353685Y0492670D03*
X0353655Y0492700D03*
X0353655Y0492730D03*
X0353625Y0492760D03*
X0353595Y0492820D03*
X0353565Y0492880D03*
X0353535Y0492910D03*
X0353505Y0492970D03*
X0353475Y0493030D03*
X0353445Y0493090D03*
X0353415Y0493120D03*
X0353385Y0493180D03*
X0353355Y0493240D03*
X0353325Y0493300D03*
X0353295Y0493330D03*
X0353265Y0493390D03*
X0353235Y0493450D03*
X0353205Y0493480D03*
X0353205Y0493510D03*
X0353175Y0493540D03*
X0353145Y0493600D03*
X0353115Y0493660D03*
X0353085Y0493690D03*
X0353055Y0493750D03*
X0353025Y0493810D03*
X0352995Y0493870D03*
X0352965Y0493900D03*
X0352935Y0493960D03*
X0352905Y0494020D03*
X0352875Y0494050D03*
X0352875Y0494080D03*
X0352845Y0494110D03*
X0352815Y0494170D03*
X0352785Y0494230D03*
X0352755Y0494260D03*
X0352725Y0494320D03*
X0352695Y0494380D03*
X0352665Y0494440D03*
X0352635Y0494470D03*
X0352605Y0494530D03*
X0352575Y0494590D03*
X0352545Y0494650D03*
X0352515Y0494680D03*
X0352485Y0494740D03*
X0352455Y0494800D03*
X0352425Y0494830D03*
X0352425Y0494860D03*
X0352395Y0494890D03*
X0352365Y0494950D03*
X0352335Y0495010D03*
X0352305Y0495040D03*
X0352275Y0495100D03*
X0352245Y0495160D03*
X0352215Y0495220D03*
X0352185Y0495250D03*
X0352155Y0495310D03*
X0352125Y0495370D03*
X0352095Y0495430D03*
X0352065Y0495460D03*
X0352035Y0495520D03*
X0352005Y0495580D03*
X0351975Y0495610D03*
X0351975Y0495640D03*
X0351945Y0495670D03*
X0351915Y0495730D03*
X0351885Y0495790D03*
X0351855Y0495820D03*
X0351825Y0495880D03*
X0351795Y0495940D03*
X0351765Y0496000D03*
X0351735Y0496030D03*
X0351705Y0496090D03*
X0351675Y0496150D03*
X0351645Y0496210D03*
X0351615Y0496240D03*
X0351585Y0496300D03*
X0351555Y0496360D03*
X0351525Y0496390D03*
X0351525Y0496420D03*
X0351495Y0496450D03*
X0351465Y0496510D03*
X0351435Y0496570D03*
X0351225Y0496930D03*
X0351195Y0496960D03*
X0351195Y0496990D03*
X0351165Y0497020D03*
X0351135Y0497080D03*
X0351105Y0497140D03*
X0351075Y0497170D03*
X0351045Y0497230D03*
X0351015Y0497290D03*
X0350985Y0497350D03*
X0350955Y0497380D03*
X0350925Y0497440D03*
X0350895Y0497500D03*
X0350865Y0497560D03*
X0350835Y0497590D03*
X0350805Y0497650D03*
X0350775Y0497710D03*
X0350745Y0497740D03*
X0350745Y0497770D03*
X0350715Y0497800D03*
X0350685Y0497860D03*
X0350655Y0497920D03*
X0350625Y0497950D03*
X0350595Y0498010D03*
X0350565Y0498070D03*
X0350535Y0498130D03*
X0350505Y0498160D03*
X0350475Y0498220D03*
X0350445Y0498280D03*
X0350415Y0498340D03*
X0350385Y0498370D03*
X0350355Y0498430D03*
X0350325Y0498490D03*
X0350295Y0498520D03*
X0350295Y0498550D03*
X0350265Y0498580D03*
X0350235Y0498640D03*
X0350205Y0498700D03*
X0350175Y0498730D03*
X0350145Y0498790D03*
X0350115Y0498850D03*
X0350085Y0498910D03*
X0350055Y0498940D03*
X0350025Y0499000D03*
X0349995Y0499060D03*
X0349965Y0499090D03*
X0349965Y0499120D03*
X0349935Y0499150D03*
X0349905Y0499210D03*
X0349875Y0499270D03*
X0349845Y0499300D03*
X0349845Y0499330D03*
X0349815Y0499360D03*
X0349785Y0499420D03*
X0349755Y0499480D03*
X0349725Y0499510D03*
X0349695Y0499570D03*
X0349665Y0499630D03*
X0349635Y0499690D03*
X0349605Y0499720D03*
X0349605Y0493420D03*
X0349635Y0493390D03*
X0349665Y0493330D03*
X0349695Y0493270D03*
X0349725Y0493240D03*
X0349725Y0493210D03*
X0349755Y0493180D03*
X0349785Y0493120D03*
X0349815Y0493060D03*
X0349845Y0493030D03*
X0349845Y0493000D03*
X0349875Y0492970D03*
X0349905Y0492910D03*
X0349935Y0492880D03*
X0349935Y0492850D03*
X0349965Y0492820D03*
X0349995Y0492760D03*
X0350025Y0492700D03*
X0350055Y0492670D03*
X0350055Y0492640D03*
X0350085Y0492610D03*
X0350115Y0492550D03*
X0350145Y0492490D03*
X0350175Y0492460D03*
X0350175Y0492430D03*
X0350205Y0492400D03*
X0350235Y0492340D03*
X0350265Y0492310D03*
X0350265Y0492280D03*
X0350295Y0492250D03*
X0350295Y0492220D03*
X0350325Y0492190D03*
X0350355Y0492130D03*
X0350385Y0492100D03*
X0350385Y0492070D03*
X0350415Y0492040D03*
X0350445Y0491980D03*
X0350475Y0491950D03*
X0350475Y0491920D03*
X0350505Y0491890D03*
X0350505Y0491860D03*
X0350535Y0491830D03*
X0350565Y0491770D03*
X0350595Y0491740D03*
X0350595Y0491710D03*
X0350625Y0491680D03*
X0350625Y0491650D03*
X0350655Y0491620D03*
X0350685Y0491590D03*
X0350685Y0491560D03*
X0350715Y0491530D03*
X0350715Y0491500D03*
X0350745Y0491470D03*
X0350745Y0491440D03*
X0350775Y0491410D03*
X0350805Y0491380D03*
X0350805Y0491350D03*
X0350835Y0491320D03*
X0350835Y0491290D03*
X0350865Y0491260D03*
X0350895Y0491200D03*
X0350925Y0491170D03*
X0350925Y0491140D03*
X0350955Y0491110D03*
X0350955Y0491080D03*
X0350985Y0491050D03*
X0351015Y0491020D03*
X0351015Y0490990D03*
X0351045Y0490960D03*
X0351045Y0490930D03*
X0351075Y0490900D03*
X0351075Y0490870D03*
X0351105Y0490840D03*
X0351135Y0490810D03*
X0351135Y0490780D03*
X0351165Y0490750D03*
X0351165Y0490720D03*
X0351195Y0490690D03*
X0351225Y0490630D03*
X0351255Y0490600D03*
X0351255Y0490570D03*
X0351285Y0490540D03*
X0351285Y0490510D03*
X0351315Y0490480D03*
X0351345Y0490450D03*
X0351345Y0490420D03*
X0351375Y0490390D03*
X0351375Y0490360D03*
X0351405Y0490330D03*
X0351435Y0490270D03*
X0351465Y0490240D03*
X0351465Y0490210D03*
X0351495Y0490180D03*
X0351495Y0490150D03*
X0351525Y0490120D03*
X0351555Y0490060D03*
X0351585Y0490030D03*
X0351585Y0490000D03*
X0351615Y0489970D03*
X0351615Y0489940D03*
X0351645Y0489910D03*
X0351675Y0489880D03*
X0351675Y0489850D03*
X0351705Y0489820D03*
X0351705Y0489790D03*
X0351735Y0489760D03*
X0351765Y0489700D03*
X0351795Y0489670D03*
X0351795Y0489640D03*
X0351825Y0489610D03*
X0351825Y0489580D03*
X0351855Y0489550D03*
X0351885Y0489490D03*
X0351915Y0489460D03*
X0351915Y0489430D03*
X0351945Y0489400D03*
X0351975Y0489340D03*
X0352005Y0489280D03*
X0352035Y0489250D03*
X0352035Y0489220D03*
X0352065Y0489190D03*
X0352095Y0489130D03*
X0352125Y0489100D03*
X0352125Y0489070D03*
X0352155Y0489040D03*
X0352185Y0488980D03*
X0352215Y0488920D03*
X0352245Y0488890D03*
X0352245Y0488860D03*
X0352275Y0488830D03*
X0352305Y0488770D03*
X0352335Y0488710D03*
X0352365Y0488680D03*
X0352365Y0488650D03*
X0352395Y0488620D03*
X0352425Y0488560D03*
X0352455Y0488500D03*
X0352485Y0488470D03*
X0352515Y0488410D03*
X0352545Y0488350D03*
X0352575Y0488320D03*
X0352575Y0488290D03*
X0352605Y0488260D03*
X0352635Y0488200D03*
X0352665Y0488140D03*
X0352695Y0488110D03*
X0352725Y0488050D03*
X0352755Y0487990D03*
X0352785Y0487930D03*
X0352815Y0487900D03*
X0352845Y0487840D03*
X0352875Y0487780D03*
X0352935Y0487690D03*
X0352965Y0487630D03*
X0352995Y0487570D03*
X0353025Y0487540D03*
X0353055Y0487480D03*
X0353085Y0487420D03*
X0353115Y0487360D03*
X0353145Y0487330D03*
X0353175Y0487270D03*
X0353205Y0487210D03*
X0353265Y0487120D03*
X0353295Y0487060D03*
X0353325Y0487000D03*
X0353355Y0486970D03*
X0353385Y0486910D03*
X0353415Y0486850D03*
X0353475Y0486760D03*
X0353505Y0486700D03*
X0353535Y0486640D03*
X0353595Y0486550D03*
X0353625Y0486490D03*
X0353715Y0486340D03*
X0353745Y0486280D03*
X0353805Y0486190D03*
X0353835Y0486130D03*
X0353865Y0486070D03*
X0353925Y0485980D03*
X0353955Y0485920D03*
X0354045Y0485770D03*
X0354075Y0485710D03*
X0354165Y0485560D03*
X0354255Y0485410D03*
X0354285Y0485350D03*
X0354375Y0485200D03*
X0354495Y0484990D03*
X0354705Y0484630D03*
X0354825Y0484420D03*
X0355035Y0484060D03*
X0350385Y0485770D03*
X0350355Y0485830D03*
X0350325Y0485890D03*
X0350295Y0485920D03*
X0350295Y0485950D03*
X0350265Y0485980D03*
X0350235Y0486040D03*
X0350205Y0486100D03*
X0350175Y0486130D03*
X0350145Y0486190D03*
X0350115Y0486250D03*
X0350085Y0486310D03*
X0350055Y0486340D03*
X0350025Y0486400D03*
X0349995Y0486460D03*
X0349965Y0486520D03*
X0349935Y0486550D03*
X0349905Y0486610D03*
X0349875Y0486670D03*
X0349845Y0486700D03*
X0349845Y0486730D03*
X0349815Y0486760D03*
X0349785Y0486820D03*
X0349755Y0486880D03*
X0349725Y0486910D03*
X0349695Y0486970D03*
X0349665Y0487030D03*
X0349635Y0487090D03*
X0349605Y0487120D03*
X0349575Y0487180D03*
X0349545Y0487240D03*
X0349515Y0487270D03*
X0349515Y0487300D03*
X0349485Y0487330D03*
X0349455Y0487390D03*
X0349425Y0487450D03*
X0349395Y0487480D03*
X0349395Y0487510D03*
X0349365Y0487540D03*
X0349335Y0487600D03*
X0349305Y0487660D03*
X0349275Y0487690D03*
X0349245Y0487750D03*
X0349215Y0487810D03*
X0349185Y0487870D03*
X0349155Y0487900D03*
X0349125Y0487960D03*
X0349095Y0488020D03*
X0349065Y0488050D03*
X0349065Y0488080D03*
X0349035Y0488110D03*
X0349005Y0488170D03*
X0348975Y0488230D03*
X0348945Y0488260D03*
X0348915Y0488320D03*
X0348885Y0488380D03*
X0348855Y0488440D03*
X0348825Y0488470D03*
X0348795Y0488530D03*
X0348765Y0488590D03*
X0348735Y0488650D03*
X0348705Y0488680D03*
X0348675Y0488740D03*
X0348645Y0488800D03*
X0348615Y0488830D03*
X0348615Y0488860D03*
X0348585Y0488890D03*
X0348555Y0488950D03*
X0348525Y0489010D03*
X0348495Y0489040D03*
X0348465Y0489100D03*
X0348435Y0489160D03*
X0348405Y0489220D03*
X0348375Y0489250D03*
X0348345Y0489310D03*
X0348315Y0489370D03*
X0348285Y0489430D03*
X0348255Y0489460D03*
X0348225Y0489520D03*
X0348195Y0489580D03*
X0348165Y0489610D03*
X0348165Y0489640D03*
X0348135Y0489670D03*
X0348105Y0489730D03*
X0348075Y0489790D03*
X0348045Y0489820D03*
X0348015Y0489880D03*
X0347985Y0489940D03*
X0347955Y0490000D03*
X0347925Y0490030D03*
X0347895Y0490090D03*
X0347865Y0490150D03*
X0347835Y0490180D03*
X0347835Y0490210D03*
X0347805Y0490240D03*
X0347775Y0490300D03*
X0347745Y0490360D03*
X0347715Y0490390D03*
X0347715Y0490420D03*
X0347685Y0490450D03*
X0347655Y0490510D03*
X0347625Y0490570D03*
X0347595Y0490600D03*
X0347565Y0490660D03*
X0347535Y0490720D03*
X0347505Y0490780D03*
X0347475Y0490810D03*
X0347445Y0490870D03*
X0347415Y0490930D03*
X0347385Y0490960D03*
X0347385Y0490990D03*
X0347355Y0491020D03*
X0347325Y0491080D03*
X0347295Y0491140D03*
X0347265Y0491170D03*
X0347235Y0491230D03*
X0347205Y0491290D03*
X0347175Y0491350D03*
X0347145Y0491380D03*
X0347115Y0491440D03*
X0347085Y0491500D03*
X0347055Y0491560D03*
X0347025Y0491590D03*
X0346995Y0491650D03*
X0346965Y0491710D03*
X0346935Y0491740D03*
X0346935Y0491770D03*
X0346905Y0491800D03*
X0346875Y0491860D03*
X0346845Y0491920D03*
X0346815Y0491950D03*
X0346785Y0492010D03*
X0346755Y0492070D03*
X0346725Y0492130D03*
X0346695Y0492160D03*
X0346665Y0492220D03*
X0346635Y0492280D03*
X0346605Y0492340D03*
X0346575Y0492370D03*
X0346545Y0492430D03*
X0346515Y0492490D03*
X0346485Y0492520D03*
X0346485Y0492550D03*
X0346455Y0492580D03*
X0346425Y0492640D03*
X0346395Y0492700D03*
X0346365Y0492730D03*
X0346335Y0492790D03*
X0346305Y0492850D03*
X0346275Y0492910D03*
X0346245Y0492940D03*
X0346215Y0493000D03*
X0346185Y0493060D03*
X0346155Y0493090D03*
X0346155Y0493120D03*
X0346125Y0493150D03*
X0346095Y0493210D03*
X0346065Y0493270D03*
X0346035Y0493300D03*
X0346005Y0493360D03*
X0345975Y0493420D03*
X0338535Y0496540D03*
X0338505Y0496480D03*
X0338475Y0496420D03*
X0338445Y0496390D03*
X0338415Y0496330D03*
X0338385Y0496270D03*
X0338355Y0496210D03*
X0338325Y0496180D03*
X0338295Y0496120D03*
X0338265Y0496060D03*
X0338235Y0496030D03*
X0338235Y0496000D03*
X0338205Y0495970D03*
X0338175Y0495910D03*
X0338145Y0495850D03*
X0338115Y0495820D03*
X0338085Y0495760D03*
X0338055Y0495700D03*
X0338025Y0495640D03*
X0337995Y0495610D03*
X0337965Y0495550D03*
X0337935Y0495490D03*
X0337905Y0495460D03*
X0337905Y0495430D03*
X0337875Y0495400D03*
X0337845Y0495340D03*
X0337815Y0495280D03*
X0337785Y0495250D03*
X0337785Y0495220D03*
X0337755Y0495190D03*
X0337725Y0495130D03*
X0337695Y0495070D03*
X0337665Y0495040D03*
X0337635Y0494980D03*
X0337605Y0494920D03*
X0337575Y0494860D03*
X0337545Y0494830D03*
X0337515Y0494770D03*
X0337485Y0494710D03*
X0337455Y0494680D03*
X0337455Y0494650D03*
X0337425Y0494620D03*
X0337395Y0494560D03*
X0337365Y0494500D03*
X0337335Y0494470D03*
X0337305Y0494410D03*
X0337275Y0494350D03*
X0337245Y0494290D03*
X0337215Y0494260D03*
X0337185Y0494200D03*
X0337155Y0494140D03*
X0337125Y0494080D03*
X0337095Y0494050D03*
X0337065Y0493990D03*
X0337035Y0493930D03*
X0337005Y0493900D03*
X0337005Y0493870D03*
X0336975Y0493840D03*
X0336945Y0493780D03*
X0336735Y0493420D03*
X0336705Y0493360D03*
X0336675Y0493300D03*
X0336645Y0493270D03*
X0336615Y0493210D03*
X0336585Y0493150D03*
X0336555Y0493120D03*
X0336555Y0493090D03*
X0336525Y0493060D03*
X0336495Y0493000D03*
X0336465Y0492940D03*
X0336435Y0492910D03*
X0336405Y0492850D03*
X0336375Y0492790D03*
X0336345Y0492730D03*
X0336315Y0492700D03*
X0336285Y0492640D03*
X0336255Y0492580D03*
X0336225Y0492550D03*
X0336225Y0492520D03*
X0336195Y0492490D03*
X0336165Y0492430D03*
X0336135Y0492370D03*
X0336105Y0492340D03*
X0336075Y0492280D03*
X0336045Y0492220D03*
X0336015Y0492160D03*
X0335985Y0492130D03*
X0335955Y0492070D03*
X0335925Y0492010D03*
X0335895Y0491950D03*
X0335865Y0491920D03*
X0335835Y0491860D03*
X0335805Y0491800D03*
X0335775Y0491770D03*
X0335775Y0491740D03*
X0335745Y0491710D03*
X0335715Y0491650D03*
X0335685Y0491590D03*
X0335655Y0491560D03*
X0335625Y0491500D03*
X0335595Y0491440D03*
X0335565Y0491380D03*
X0335535Y0491350D03*
X0335505Y0491290D03*
X0335475Y0491230D03*
X0335445Y0491170D03*
X0335415Y0491140D03*
X0335385Y0491080D03*
X0335355Y0491020D03*
X0335325Y0490990D03*
X0335325Y0490960D03*
X0335295Y0490930D03*
X0335265Y0490870D03*
X0335235Y0490810D03*
X0335205Y0490780D03*
X0335175Y0490720D03*
X0335145Y0490660D03*
X0335115Y0490600D03*
X0335085Y0490570D03*
X0335055Y0490510D03*
X0335025Y0490450D03*
X0334995Y0490390D03*
X0334965Y0490360D03*
X0334935Y0490300D03*
X0334905Y0490240D03*
X0334875Y0490210D03*
X0334875Y0490180D03*
X0334845Y0490150D03*
X0334815Y0490090D03*
X0334785Y0490030D03*
X0334755Y0490000D03*
X0334725Y0489940D03*
X0334695Y0489880D03*
X0334665Y0489820D03*
X0334635Y0489790D03*
X0334605Y0489730D03*
X0334575Y0489670D03*
X0334545Y0489640D03*
X0334545Y0489610D03*
X0334515Y0489580D03*
X0334485Y0489520D03*
X0334455Y0489460D03*
X0334425Y0489430D03*
X0334395Y0489370D03*
X0334365Y0489310D03*
X0334335Y0489250D03*
X0334305Y0489220D03*
X0334275Y0489160D03*
X0334245Y0489100D03*
X0334215Y0489040D03*
X0334185Y0489010D03*
X0334155Y0488950D03*
X0334125Y0488890D03*
X0334095Y0488860D03*
X0334095Y0488830D03*
X0334065Y0488800D03*
X0334035Y0488740D03*
X0334005Y0488680D03*
X0333975Y0488650D03*
X0333945Y0488590D03*
X0333915Y0488530D03*
X0333885Y0488470D03*
X0333855Y0488440D03*
X0333825Y0488380D03*
X0333795Y0488320D03*
X0333765Y0488260D03*
X0333735Y0488230D03*
X0333705Y0488170D03*
X0333675Y0488110D03*
X0333645Y0488080D03*
X0333645Y0488050D03*
X0333615Y0488020D03*
X0333585Y0487960D03*
X0333555Y0487900D03*
X0333525Y0487870D03*
X0333495Y0487810D03*
X0333465Y0487750D03*
X0333435Y0487690D03*
X0333405Y0487660D03*
X0333375Y0487600D03*
X0333345Y0487540D03*
X0333315Y0487510D03*
X0333315Y0487480D03*
X0333285Y0487450D03*
X0333255Y0487390D03*
X0333225Y0487330D03*
X0333195Y0487300D03*
X0333195Y0487270D03*
X0333165Y0487240D03*
X0333135Y0487180D03*
X0333105Y0487120D03*
X0333075Y0487090D03*
X0333045Y0487030D03*
X0333015Y0486970D03*
X0332985Y0486910D03*
X0332955Y0486880D03*
X0332925Y0486820D03*
X0332895Y0486760D03*
X0332865Y0486730D03*
X0332865Y0486700D03*
X0332835Y0486670D03*
X0332805Y0486610D03*
X0332775Y0486550D03*
X0332745Y0486520D03*
X0332715Y0486460D03*
X0332685Y0486400D03*
X0332655Y0486340D03*
X0332625Y0486310D03*
X0332595Y0486250D03*
X0332565Y0486190D03*
X0332535Y0486130D03*
X0332505Y0486100D03*
X0332115Y0486100D03*
X0332085Y0486160D03*
X0332055Y0486190D03*
X0332025Y0486250D03*
X0331995Y0486310D03*
X0331965Y0486340D03*
X0331965Y0486370D03*
X0331935Y0486400D03*
X0331905Y0486460D03*
X0331875Y0486520D03*
X0331845Y0486550D03*
X0331815Y0486610D03*
X0331785Y0486670D03*
X0331755Y0486730D03*
X0331725Y0486760D03*
X0331695Y0486820D03*
X0331665Y0486880D03*
X0331635Y0486910D03*
X0331635Y0486940D03*
X0331605Y0486970D03*
X0331575Y0487030D03*
X0331545Y0487090D03*
X0331515Y0487120D03*
X0331485Y0487180D03*
X0331455Y0487240D03*
X0331425Y0487300D03*
X0331395Y0487330D03*
X0331365Y0487390D03*
X0331335Y0487450D03*
X0331305Y0487510D03*
X0331275Y0487540D03*
X0331245Y0487600D03*
X0331215Y0487660D03*
X0331185Y0487690D03*
X0331185Y0487720D03*
X0331155Y0487750D03*
X0331125Y0487810D03*
X0331095Y0487870D03*
X0331065Y0487900D03*
X0331035Y0487960D03*
X0331005Y0488020D03*
X0330975Y0488080D03*
X0330945Y0488110D03*
X0330915Y0488170D03*
X0330885Y0488230D03*
X0330855Y0488290D03*
X0330825Y0488320D03*
X0330795Y0488380D03*
X0330765Y0488440D03*
X0330735Y0488470D03*
X0330735Y0488500D03*
X0330705Y0488530D03*
X0330675Y0488590D03*
X0330645Y0488650D03*
X0330615Y0488680D03*
X0330585Y0488740D03*
X0330555Y0488800D03*
X0330525Y0488860D03*
X0330495Y0488890D03*
X0330495Y0488920D03*
X0330525Y0488950D03*
X0330555Y0489010D03*
X0330585Y0489070D03*
X0330615Y0489130D03*
X0330645Y0489160D03*
X0330675Y0489220D03*
X0330705Y0489280D03*
X0330735Y0489310D03*
X0330735Y0489340D03*
X0330765Y0489370D03*
X0330795Y0489430D03*
X0330825Y0489490D03*
X0330855Y0489520D03*
X0330855Y0489550D03*
X0330885Y0489580D03*
X0330915Y0489640D03*
X0330945Y0489700D03*
X0330975Y0489730D03*
X0330975Y0489760D03*
X0331005Y0489790D03*
X0331035Y0489850D03*
X0331065Y0489910D03*
X0331095Y0489940D03*
X0331095Y0489970D03*
X0331125Y0490000D03*
X0331155Y0490060D03*
X0331185Y0490090D03*
X0331185Y0490120D03*
X0331215Y0490150D03*
X0331215Y0490180D03*
X0331245Y0490210D03*
X0331275Y0490270D03*
X0331305Y0490300D03*
X0331305Y0490330D03*
X0331335Y0490360D03*
X0331335Y0490390D03*
X0331365Y0490420D03*
X0331395Y0490480D03*
X0331425Y0490510D03*
X0331425Y0490540D03*
X0331455Y0490570D03*
X0331485Y0490630D03*
X0331515Y0490660D03*
X0331515Y0490690D03*
X0331545Y0490720D03*
X0331545Y0490750D03*
X0331575Y0490780D03*
X0331605Y0490840D03*
X0331635Y0490870D03*
X0331635Y0490900D03*
X0331665Y0490930D03*
X0331665Y0490960D03*
X0331695Y0490990D03*
X0331725Y0491050D03*
X0331755Y0491080D03*
X0331755Y0491110D03*
X0331785Y0491140D03*
X0331785Y0491170D03*
X0331815Y0491200D03*
X0331845Y0491260D03*
X0331875Y0491290D03*
X0331875Y0491320D03*
X0331905Y0491350D03*
X0331905Y0491380D03*
X0331935Y0491410D03*
X0331965Y0491440D03*
X0331965Y0491470D03*
X0331995Y0491500D03*
X0331995Y0491530D03*
X0332025Y0491560D03*
X0332025Y0491590D03*
X0332055Y0491620D03*
X0332085Y0491650D03*
X0332085Y0491680D03*
X0332115Y0491710D03*
X0332115Y0491740D03*
X0332145Y0491770D03*
X0332145Y0491800D03*
X0332175Y0491830D03*
X0332205Y0491860D03*
X0332205Y0491890D03*
X0332235Y0491920D03*
X0332235Y0491950D03*
X0332265Y0491980D03*
X0332265Y0492010D03*
X0332295Y0492040D03*
X0332325Y0492070D03*
X0332325Y0492100D03*
X0332355Y0492130D03*
X0332355Y0492160D03*
X0332385Y0492190D03*
X0332415Y0492250D03*
X0332445Y0492280D03*
X0332445Y0492310D03*
X0332475Y0492340D03*
X0332475Y0492370D03*
X0332505Y0492400D03*
X0332535Y0492460D03*
X0332565Y0492490D03*
X0332565Y0492520D03*
X0332595Y0492550D03*
X0332595Y0492580D03*
X0332625Y0492610D03*
X0332655Y0492670D03*
X0332685Y0492700D03*
X0332685Y0492730D03*
X0332715Y0492760D03*
X0332715Y0492790D03*
X0332745Y0492820D03*
X0332775Y0492880D03*
X0332805Y0492910D03*
X0332805Y0492940D03*
X0332835Y0492970D03*
X0332865Y0493030D03*
X0332895Y0493060D03*
X0332895Y0493090D03*
X0332925Y0493120D03*
X0332925Y0493150D03*
X0332955Y0493180D03*
X0332985Y0493240D03*
X0333015Y0493270D03*
X0333015Y0493300D03*
X0333045Y0493330D03*
X0333045Y0493360D03*
X0333075Y0493390D03*
X0333105Y0493450D03*
X0333135Y0493480D03*
X0333135Y0493510D03*
X0333165Y0493540D03*
X0333195Y0493600D03*
X0333225Y0493660D03*
X0333255Y0493690D03*
X0333255Y0493720D03*
X0333285Y0493750D03*
X0333315Y0493810D03*
X0333345Y0493870D03*
X0333375Y0493900D03*
X0333375Y0493930D03*
X0333405Y0493960D03*
X0333435Y0494020D03*
X0333465Y0494080D03*
X0333495Y0494110D03*
X0333495Y0494140D03*
X0333525Y0494170D03*
X0333555Y0494230D03*
X0333585Y0494290D03*
X0333615Y0494320D03*
X0333645Y0494380D03*
X0333675Y0494440D03*
X0333705Y0494500D03*
X0333735Y0494530D03*
X0333765Y0494590D03*
X0333795Y0494650D03*
X0333825Y0494710D03*
X0333855Y0494740D03*
X0333885Y0494800D03*
X0333915Y0494860D03*
X0333945Y0494920D03*
X0333975Y0494950D03*
X0334005Y0495010D03*
X0334035Y0495070D03*
X0334095Y0495160D03*
X0334125Y0495220D03*
X0334155Y0495280D03*
X0334185Y0495310D03*
X0334215Y0495370D03*
X0334245Y0495430D03*
X0334275Y0495490D03*
X0334305Y0495520D03*
X0334335Y0495580D03*
X0334365Y0495640D03*
X0334425Y0495730D03*
X0334455Y0495790D03*
X0334485Y0495850D03*
X0334545Y0495940D03*
X0334575Y0496000D03*
X0334605Y0496060D03*
X0334665Y0496150D03*
X0334695Y0496210D03*
X0334725Y0496270D03*
X0334785Y0496360D03*
X0334815Y0496420D03*
X0334905Y0496570D03*
X0334935Y0496630D03*
X0335025Y0496780D03*
X0335055Y0496840D03*
X0335145Y0496990D03*
X0335175Y0497050D03*
X0335265Y0497200D03*
X0335385Y0497410D03*
X0335505Y0497620D03*
X0335595Y0497770D03*
X0335625Y0497830D03*
X0335715Y0497980D03*
X0335835Y0498190D03*
X0335955Y0498400D03*
X0333105Y0499720D03*
X0333075Y0499690D03*
X0333045Y0499630D03*
X0333015Y0499570D03*
X0332985Y0499510D03*
X0332955Y0499480D03*
X0332925Y0499420D03*
X0332895Y0499360D03*
X0332865Y0499330D03*
X0332865Y0499300D03*
X0332835Y0499270D03*
X0332805Y0499210D03*
X0332775Y0499150D03*
X0332745Y0499120D03*
X0332745Y0499090D03*
X0332715Y0499060D03*
X0332685Y0499000D03*
X0332655Y0498940D03*
X0332625Y0498910D03*
X0332595Y0498850D03*
X0332565Y0498790D03*
X0332535Y0498730D03*
X0332505Y0498700D03*
X0332475Y0498640D03*
X0332445Y0498580D03*
X0332415Y0498550D03*
X0332415Y0498520D03*
X0332385Y0498490D03*
X0332355Y0498430D03*
X0332325Y0498370D03*
X0332295Y0498340D03*
X0332265Y0498280D03*
X0332235Y0498220D03*
X0332205Y0498160D03*
X0332175Y0498130D03*
X0332145Y0498070D03*
X0332115Y0498010D03*
X0332085Y0497950D03*
X0332055Y0497920D03*
X0332025Y0497860D03*
X0331995Y0497800D03*
X0331965Y0497770D03*
X0331965Y0497740D03*
X0331935Y0497710D03*
X0331905Y0497650D03*
X0331875Y0497590D03*
X0331845Y0497560D03*
X0331815Y0497500D03*
X0331785Y0497440D03*
X0331755Y0497380D03*
X0331725Y0497350D03*
X0331695Y0497290D03*
X0331665Y0497230D03*
X0331635Y0497170D03*
X0331605Y0497140D03*
X0331575Y0497080D03*
X0331545Y0497020D03*
X0331515Y0496990D03*
X0331515Y0496960D03*
X0331485Y0496930D03*
X0331455Y0496870D03*
X0331425Y0496810D03*
X0331395Y0496780D03*
X0331365Y0496720D03*
X0331335Y0496660D03*
X0331305Y0496600D03*
X0331275Y0496570D03*
X0331245Y0496510D03*
X0331215Y0496450D03*
X0331185Y0496420D03*
X0331185Y0496390D03*
X0331155Y0496360D03*
X0331125Y0496300D03*
X0331095Y0496240D03*
X0331065Y0496210D03*
X0331065Y0496180D03*
X0331035Y0496150D03*
X0331005Y0496090D03*
X0330975Y0496030D03*
X0330945Y0496000D03*
X0330915Y0495940D03*
X0330885Y0495880D03*
X0330855Y0495820D03*
X0330825Y0495790D03*
X0330795Y0495730D03*
X0330765Y0495670D03*
X0330735Y0495640D03*
X0330735Y0495610D03*
X0330705Y0495580D03*
X0330675Y0495520D03*
X0330645Y0495460D03*
X0330615Y0495430D03*
X0330585Y0495370D03*
X0330555Y0495310D03*
X0330525Y0495250D03*
X0330495Y0495220D03*
X0330465Y0495160D03*
X0330435Y0495100D03*
X0330405Y0495040D03*
X0330375Y0495010D03*
X0330345Y0494950D03*
X0330315Y0494890D03*
X0330285Y0494860D03*
X0330285Y0494830D03*
X0330255Y0494800D03*
X0330225Y0494740D03*
X0330195Y0494680D03*
X0330165Y0494650D03*
X0330135Y0494590D03*
X0330105Y0494530D03*
X0330075Y0494470D03*
X0330045Y0494440D03*
X0330015Y0494380D03*
X0329985Y0494320D03*
X0329955Y0494260D03*
X0329925Y0494230D03*
X0329895Y0494170D03*
X0329865Y0494110D03*
X0329835Y0494080D03*
X0329835Y0494050D03*
X0329805Y0494020D03*
X0329775Y0493960D03*
X0329745Y0493900D03*
X0329715Y0493870D03*
X0329685Y0493810D03*
X0329655Y0493750D03*
X0329625Y0493690D03*
X0329595Y0493660D03*
X0329565Y0493600D03*
X0329535Y0493540D03*
X0329505Y0493510D03*
X0329505Y0493480D03*
X0329475Y0493450D03*
X0329445Y0493390D03*
X0329415Y0493330D03*
X0329385Y0493300D03*
X0329355Y0493240D03*
X0329325Y0493180D03*
X0329295Y0493120D03*
X0329265Y0493090D03*
X0329235Y0493030D03*
X0329205Y0492970D03*
X0329175Y0492910D03*
X0329145Y0492880D03*
X0329115Y0492820D03*
X0329085Y0492760D03*
X0329055Y0492730D03*
X0329055Y0492700D03*
X0329025Y0492670D03*
X0328995Y0492610D03*
X0328965Y0492550D03*
X0328935Y0492520D03*
X0328905Y0492460D03*
X0328875Y0492400D03*
X0328845Y0492340D03*
X0328815Y0492310D03*
X0328785Y0492250D03*
X0328755Y0492190D03*
X0328725Y0492130D03*
X0328695Y0492100D03*
X0328665Y0492040D03*
X0328635Y0491980D03*
X0328605Y0491950D03*
X0328605Y0491920D03*
X0328575Y0491890D03*
X0328545Y0491830D03*
X0328515Y0491770D03*
X0328485Y0491740D03*
X0328455Y0491680D03*
X0328425Y0491620D03*
X0328395Y0491560D03*
X0328365Y0491530D03*
X0328335Y0491470D03*
X0328305Y0491410D03*
X0328275Y0491350D03*
X0328245Y0491320D03*
X0328215Y0491260D03*
X0328185Y0491200D03*
X0328155Y0491170D03*
X0328155Y0491140D03*
X0328125Y0491110D03*
X0328095Y0491050D03*
X0328065Y0490990D03*
X0328035Y0490960D03*
X0328005Y0490900D03*
X0327975Y0490840D03*
X0327945Y0490780D03*
X0327915Y0490750D03*
X0327885Y0490690D03*
X0327855Y0490630D03*
X0327825Y0490600D03*
X0327825Y0490570D03*
X0327795Y0490540D03*
X0327765Y0490480D03*
X0327735Y0490420D03*
X0327705Y0490390D03*
X0327675Y0490330D03*
X0327645Y0490270D03*
X0327615Y0490210D03*
X0327585Y0490180D03*
X0327555Y0490120D03*
X0327525Y0490060D03*
X0327495Y0490000D03*
X0327465Y0489970D03*
X0327435Y0489910D03*
X0327405Y0489850D03*
X0327375Y0489820D03*
X0327375Y0489790D03*
X0327345Y0489760D03*
X0327315Y0489700D03*
X0327285Y0489640D03*
X0327255Y0489610D03*
X0327225Y0489550D03*
X0327195Y0489490D03*
X0327165Y0489430D03*
X0327135Y0489400D03*
X0327105Y0489340D03*
X0327075Y0489280D03*
X0327045Y0489220D03*
X0327015Y0489190D03*
X0326985Y0489130D03*
X0326955Y0489070D03*
X0326925Y0489040D03*
X0326925Y0489010D03*
X0326895Y0488980D03*
X0326865Y0488920D03*
X0326865Y0488890D03*
X0326625Y0488500D03*
X0326595Y0488470D03*
X0326595Y0488440D03*
X0326565Y0488410D03*
X0326535Y0488350D03*
X0326505Y0488290D03*
X0326475Y0488260D03*
X0326475Y0488230D03*
X0326445Y0488200D03*
X0326415Y0488140D03*
X0326385Y0488080D03*
X0326355Y0488050D03*
X0326325Y0487990D03*
X0326295Y0487930D03*
X0326265Y0487870D03*
X0326235Y0487840D03*
X0326205Y0487780D03*
X0326175Y0487720D03*
X0326145Y0487690D03*
X0326145Y0487660D03*
X0326115Y0487630D03*
X0326085Y0487570D03*
X0326055Y0487510D03*
X0326025Y0487480D03*
X0325995Y0487420D03*
X0325965Y0487360D03*
X0325935Y0487300D03*
X0325905Y0487270D03*
X0325875Y0487210D03*
X0325845Y0487150D03*
X0325815Y0487090D03*
X0325785Y0487060D03*
X0325755Y0487000D03*
X0325725Y0486940D03*
X0325695Y0486910D03*
X0325695Y0486880D03*
X0325665Y0486850D03*
X0325635Y0486790D03*
X0325605Y0486730D03*
X0325575Y0486700D03*
X0325545Y0486640D03*
X0325515Y0486580D03*
X0325485Y0486520D03*
X0325455Y0486490D03*
X0325425Y0486430D03*
X0325395Y0486370D03*
X0325365Y0486310D03*
X0325335Y0486280D03*
X0325305Y0486220D03*
X0325275Y0486160D03*
X0325245Y0486130D03*
X0325245Y0486100D03*
X0325215Y0486070D03*
X0325185Y0486010D03*
X0325155Y0485950D03*
X0325125Y0485920D03*
X0325095Y0485860D03*
X0325065Y0485800D03*
X0325065Y0485710D03*
X0325095Y0485650D03*
X0325125Y0485590D03*
X0325155Y0485560D03*
X0325185Y0485500D03*
X0325215Y0485440D03*
X0325245Y0485410D03*
X0325245Y0485380D03*
X0325275Y0485350D03*
X0325305Y0485290D03*
X0325335Y0485230D03*
X0325365Y0485200D03*
X0325395Y0485140D03*
X0325425Y0485080D03*
X0325455Y0485020D03*
X0325485Y0484990D03*
X0325515Y0484930D03*
X0325545Y0484870D03*
X0325575Y0484810D03*
X0325605Y0484780D03*
X0325635Y0484720D03*
X0325665Y0484660D03*
X0325695Y0484630D03*
X0325695Y0484600D03*
X0325725Y0484570D03*
X0325755Y0484510D03*
X0325785Y0484450D03*
X0325815Y0484420D03*
X0325845Y0484360D03*
X0325875Y0484300D03*
X0325905Y0484240D03*
X0325935Y0484210D03*
X0325965Y0484150D03*
X0325995Y0484090D03*
X0326025Y0484030D03*
X0326055Y0484000D03*
X0326085Y0483940D03*
X0326115Y0483880D03*
X0326145Y0483850D03*
X0326145Y0483820D03*
X0326175Y0483790D03*
X0326205Y0483730D03*
X0326235Y0483670D03*
X0326265Y0483640D03*
X0326295Y0483580D03*
X0326325Y0483520D03*
X0326355Y0483460D03*
X0326385Y0483430D03*
X0326415Y0483370D03*
X0326445Y0483310D03*
X0326475Y0483280D03*
X0326475Y0483250D03*
X0326505Y0483220D03*
X0326535Y0483160D03*
X0326565Y0483100D03*
X0326595Y0483070D03*
X0326595Y0483040D03*
X0326625Y0483010D03*
X0326655Y0482950D03*
X0326685Y0482890D03*
X0326715Y0482860D03*
X0326745Y0482800D03*
X0326775Y0482740D03*
X0326805Y0482680D03*
X0326835Y0482650D03*
X0326865Y0482590D03*
X0326895Y0482530D03*
X0326925Y0482500D03*
X0326925Y0482470D03*
X0326955Y0482440D03*
X0326985Y0482380D03*
X0327015Y0482320D03*
X0327045Y0482290D03*
X0327075Y0482230D03*
X0327105Y0482170D03*
X0327135Y0482110D03*
X0327165Y0482080D03*
X0327195Y0482020D03*
X0327225Y0481960D03*
X0327255Y0481900D03*
X0327285Y0481870D03*
X0327315Y0481810D03*
X0327345Y0481750D03*
X0327375Y0481720D03*
X0327375Y0481690D03*
X0327405Y0481660D03*
X0327435Y0481600D03*
X0327465Y0481540D03*
X0327495Y0481510D03*
X0327525Y0481450D03*
X0327555Y0481390D03*
X0327585Y0481330D03*
X0327615Y0481300D03*
X0327645Y0481240D03*
X0327675Y0481180D03*
X0327705Y0481120D03*
X0327735Y0481090D03*
X0327765Y0481030D03*
X0327795Y0480970D03*
X0327825Y0480940D03*
X0327825Y0480910D03*
X0327855Y0480880D03*
X0327885Y0480820D03*
X0327915Y0480760D03*
X0327945Y0480730D03*
X0327975Y0480670D03*
X0328005Y0480610D03*
X0328035Y0480550D03*
X0328065Y0480520D03*
X0328095Y0480460D03*
X0328125Y0480400D03*
X0328155Y0480370D03*
X0328155Y0480340D03*
X0328185Y0480310D03*
X0328215Y0480250D03*
X0328245Y0480190D03*
X0328275Y0480160D03*
X0328275Y0480130D03*
X0328305Y0480100D03*
X0328335Y0480040D03*
X0328365Y0479980D03*
X0328395Y0479950D03*
X0328425Y0479890D03*
X0328455Y0479830D03*
X0328485Y0479770D03*
X0328515Y0479740D03*
X0328545Y0479680D03*
X0328575Y0479620D03*
X0328605Y0479590D03*
X0328605Y0479560D03*
X0328635Y0479530D03*
X0328665Y0479470D03*
X0328695Y0479410D03*
X0328725Y0479380D03*
X0328755Y0479320D03*
X0328785Y0479260D03*
X0328815Y0479200D03*
X0328845Y0479170D03*
X0328875Y0479110D03*
X0328905Y0479050D03*
X0328935Y0478990D03*
X0328965Y0478960D03*
X0328995Y0478900D03*
X0329025Y0478840D03*
X0329055Y0478810D03*
X0329055Y0478780D03*
X0329085Y0478750D03*
X0329115Y0478690D03*
X0329145Y0478630D03*
X0329175Y0478600D03*
X0329205Y0478540D03*
X0329235Y0478480D03*
X0329265Y0478420D03*
X0329295Y0478390D03*
X0329325Y0478330D03*
X0329355Y0478270D03*
X0329385Y0478210D03*
X0329415Y0478180D03*
X0329445Y0478120D03*
X0329475Y0478060D03*
X0329505Y0478030D03*
X0329505Y0478000D03*
X0329535Y0477970D03*
X0329565Y0477910D03*
X0329595Y0477850D03*
X0329625Y0477820D03*
X0329655Y0477760D03*
X0329685Y0477700D03*
X0329715Y0477640D03*
X0329745Y0477610D03*
X0329775Y0477550D03*
X0329805Y0477490D03*
X0329835Y0477460D03*
X0329835Y0477430D03*
X0329865Y0477400D03*
X0329895Y0477340D03*
X0329925Y0477280D03*
X0329955Y0477250D03*
X0329985Y0477190D03*
X0330015Y0477130D03*
X0330045Y0477070D03*
X0330075Y0477040D03*
X0330105Y0476980D03*
X0330135Y0476920D03*
X0330165Y0476860D03*
X0330195Y0476830D03*
X0330225Y0476770D03*
X0330255Y0476710D03*
X0330285Y0476680D03*
X0330285Y0476650D03*
X0330315Y0476620D03*
X0330345Y0476560D03*
X0330375Y0476500D03*
X0330405Y0476470D03*
X0330435Y0476410D03*
X0330465Y0476350D03*
X0330495Y0476290D03*
X0330525Y0476260D03*
X0330555Y0476200D03*
X0330585Y0476140D03*
X0330615Y0476080D03*
X0330645Y0476050D03*
X0330675Y0475990D03*
X0330705Y0475930D03*
X0330735Y0475900D03*
X0330735Y0475870D03*
X0330765Y0475840D03*
X0330795Y0475780D03*
X0330825Y0475720D03*
X0330855Y0475690D03*
X0330885Y0475630D03*
X0330915Y0475570D03*
X0330945Y0475510D03*
X0330975Y0475480D03*
X0331005Y0475420D03*
X0331035Y0475360D03*
X0331065Y0475300D03*
X0331095Y0475270D03*
X0331125Y0475210D03*
X0331155Y0475150D03*
X0331185Y0475120D03*
X0331185Y0475090D03*
X0331215Y0475060D03*
X0331245Y0475000D03*
X0331275Y0474940D03*
X0331485Y0474580D03*
X0331515Y0474550D03*
X0331515Y0474520D03*
X0331545Y0474490D03*
X0331575Y0474430D03*
X0331605Y0474370D03*
X0331635Y0474340D03*
X0331665Y0474280D03*
X0331695Y0474220D03*
X0331725Y0474160D03*
X0331755Y0474130D03*
X0331785Y0474070D03*
X0331815Y0474010D03*
X0331845Y0473950D03*
X0331875Y0473920D03*
X0331905Y0473860D03*
X0331935Y0473800D03*
X0331965Y0473770D03*
X0331965Y0473740D03*
X0331995Y0473710D03*
X0332025Y0473650D03*
X0332055Y0473590D03*
X0332085Y0473560D03*
X0332115Y0473500D03*
X0332145Y0473440D03*
X0332175Y0473380D03*
X0332205Y0473350D03*
X0332235Y0473290D03*
X0332265Y0473230D03*
X0332295Y0473170D03*
X0332325Y0473140D03*
X0332355Y0473080D03*
X0332385Y0473020D03*
X0332415Y0472990D03*
X0332415Y0472960D03*
X0332445Y0472930D03*
X0332475Y0472870D03*
X0332505Y0472810D03*
X0332535Y0472780D03*
X0332565Y0472720D03*
X0332595Y0472660D03*
X0332625Y0472600D03*
X0332655Y0472570D03*
X0332685Y0472510D03*
X0332715Y0472450D03*
X0332745Y0472420D03*
X0332745Y0472390D03*
X0332775Y0472360D03*
X0332805Y0472300D03*
X0332835Y0472240D03*
X0332865Y0472210D03*
X0332865Y0472180D03*
X0332895Y0472150D03*
X0332925Y0472090D03*
X0332955Y0472030D03*
X0332985Y0472000D03*
X0333015Y0471940D03*
X0333045Y0471880D03*
X0333075Y0471820D03*
X0333105Y0471790D03*
X0333105Y0478090D03*
X0333075Y0478120D03*
X0333045Y0478180D03*
X0333015Y0478240D03*
X0332985Y0478270D03*
X0332985Y0478300D03*
X0332955Y0478330D03*
X0332925Y0478390D03*
X0332895Y0478450D03*
X0332865Y0478480D03*
X0332865Y0478510D03*
X0332835Y0478540D03*
X0332805Y0478600D03*
X0332775Y0478630D03*
X0332775Y0478660D03*
X0332745Y0478690D03*
X0332715Y0478750D03*
X0332685Y0478810D03*
X0332655Y0478840D03*
X0332655Y0478870D03*
X0332625Y0478900D03*
X0332595Y0478960D03*
X0332565Y0479020D03*
X0332535Y0479050D03*
X0332535Y0479080D03*
X0332505Y0479110D03*
X0332475Y0479170D03*
X0332445Y0479200D03*
X0332445Y0479230D03*
X0332415Y0479260D03*
X0332415Y0479290D03*
X0332385Y0479320D03*
X0332355Y0479380D03*
X0332325Y0479410D03*
X0332325Y0479440D03*
X0332295Y0479470D03*
X0332265Y0479530D03*
X0332235Y0479560D03*
X0332235Y0479590D03*
X0332205Y0479620D03*
X0332205Y0479650D03*
X0332175Y0479680D03*
X0332145Y0479740D03*
X0332115Y0479770D03*
X0332115Y0479800D03*
X0332085Y0479830D03*
X0332085Y0479860D03*
X0332055Y0479890D03*
X0332025Y0479920D03*
X0332025Y0479950D03*
X0331995Y0479980D03*
X0331995Y0480010D03*
X0331965Y0480040D03*
X0331965Y0480070D03*
X0331935Y0480100D03*
X0331905Y0480130D03*
X0331905Y0480160D03*
X0331875Y0480190D03*
X0331875Y0480220D03*
X0331845Y0480250D03*
X0331815Y0480310D03*
X0331785Y0480340D03*
X0331785Y0480370D03*
X0331755Y0480400D03*
X0331755Y0480430D03*
X0331725Y0480460D03*
X0331695Y0480490D03*
X0331695Y0480520D03*
X0331665Y0480550D03*
X0331665Y0480580D03*
X0331635Y0480610D03*
X0331635Y0480640D03*
X0331605Y0480670D03*
X0331575Y0480700D03*
X0331575Y0480730D03*
X0331545Y0480760D03*
X0331545Y0480790D03*
X0331515Y0480820D03*
X0331485Y0480880D03*
X0331455Y0480910D03*
X0331455Y0480940D03*
X0331425Y0480970D03*
X0331425Y0481000D03*
X0331395Y0481030D03*
X0331365Y0481060D03*
X0331365Y0481090D03*
X0331335Y0481120D03*
X0331335Y0481150D03*
X0331305Y0481180D03*
X0331275Y0481240D03*
X0331245Y0481270D03*
X0331245Y0481300D03*
X0331215Y0481330D03*
X0331215Y0481360D03*
X0331185Y0481390D03*
X0331155Y0481450D03*
X0331125Y0481480D03*
X0331125Y0481510D03*
X0331095Y0481540D03*
X0331095Y0481570D03*
X0331065Y0481600D03*
X0331035Y0481630D03*
X0331035Y0481660D03*
X0331005Y0481690D03*
X0331005Y0481720D03*
X0330975Y0481750D03*
X0330945Y0481810D03*
X0330915Y0481840D03*
X0330915Y0481870D03*
X0330885Y0481900D03*
X0330885Y0481930D03*
X0330855Y0481960D03*
X0330825Y0482020D03*
X0330795Y0482050D03*
X0330795Y0482080D03*
X0330765Y0482110D03*
X0330735Y0482170D03*
X0330705Y0482230D03*
X0330675Y0482260D03*
X0330675Y0482290D03*
X0330645Y0482320D03*
X0330615Y0482380D03*
X0330585Y0482410D03*
X0330585Y0482440D03*
X0330555Y0482470D03*
X0330525Y0482530D03*
X0330495Y0482590D03*
X0330465Y0482620D03*
X0330465Y0482650D03*
X0330435Y0482680D03*
X0330405Y0482740D03*
X0330375Y0482800D03*
X0330345Y0482830D03*
X0330345Y0482860D03*
X0330315Y0482890D03*
X0330285Y0482950D03*
X0330255Y0483010D03*
X0330225Y0483040D03*
X0330195Y0483100D03*
X0330165Y0483160D03*
X0330135Y0483190D03*
X0330135Y0483220D03*
X0330105Y0483250D03*
X0330075Y0483310D03*
X0330045Y0483370D03*
X0330015Y0483400D03*
X0329985Y0483460D03*
X0329955Y0483520D03*
X0329925Y0483580D03*
X0329895Y0483610D03*
X0329865Y0483670D03*
X0329835Y0483730D03*
X0329775Y0483820D03*
X0329745Y0483880D03*
X0329715Y0483940D03*
X0329685Y0483970D03*
X0329655Y0484030D03*
X0329625Y0484090D03*
X0329595Y0484150D03*
X0329565Y0484180D03*
X0329535Y0484240D03*
X0329505Y0484300D03*
X0329445Y0484390D03*
X0329415Y0484450D03*
X0329385Y0484510D03*
X0329355Y0484540D03*
X0329325Y0484600D03*
X0329295Y0484660D03*
X0329235Y0484750D03*
X0329205Y0484810D03*
X0329175Y0484870D03*
X0329115Y0484960D03*
X0329085Y0485020D03*
X0328995Y0485170D03*
X0328965Y0485230D03*
X0328905Y0485320D03*
X0328875Y0485380D03*
X0328785Y0485530D03*
X0328755Y0485590D03*
X0328665Y0485740D03*
X0328635Y0485800D03*
X0328545Y0485950D03*
X0328455Y0486100D03*
X0328425Y0486160D03*
X0328335Y0486310D03*
X0328215Y0486520D03*
X0328125Y0486670D03*
X0328005Y0486880D03*
X0327885Y0487090D03*
X0327675Y0487450D03*
X0332325Y0485740D03*
X0332355Y0485680D03*
X0332385Y0485620D03*
X0332415Y0485590D03*
X0332415Y0485560D03*
X0332445Y0485530D03*
X0332475Y0485470D03*
X0332505Y0485410D03*
X0332535Y0485380D03*
X0332565Y0485320D03*
X0332595Y0485260D03*
X0332625Y0485200D03*
X0332655Y0485170D03*
X0332685Y0485110D03*
X0332715Y0485050D03*
X0332745Y0484990D03*
X0332775Y0484960D03*
X0332805Y0484900D03*
X0332835Y0484840D03*
X0332865Y0484810D03*
X0332865Y0484780D03*
X0332895Y0484750D03*
X0332925Y0484690D03*
X0332955Y0484630D03*
X0332985Y0484600D03*
X0333015Y0484540D03*
X0333045Y0484480D03*
X0333075Y0484420D03*
X0333105Y0484390D03*
X0333135Y0484330D03*
X0333165Y0484270D03*
X0333195Y0484240D03*
X0333195Y0484210D03*
X0333225Y0484180D03*
X0333255Y0484120D03*
X0333285Y0484060D03*
X0333315Y0484030D03*
X0333315Y0484000D03*
X0333345Y0483970D03*
X0333375Y0483910D03*
X0333405Y0483850D03*
X0333435Y0483820D03*
X0333465Y0483760D03*
X0333495Y0483700D03*
X0333525Y0483640D03*
X0333555Y0483610D03*
X0333585Y0483550D03*
X0333615Y0483490D03*
X0333645Y0483460D03*
X0333645Y0483430D03*
X0333675Y0483400D03*
X0333705Y0483340D03*
X0333735Y0483280D03*
X0333765Y0483250D03*
X0333795Y0483190D03*
X0333825Y0483130D03*
X0333855Y0483070D03*
X0333885Y0483040D03*
X0333915Y0482980D03*
X0333945Y0482920D03*
X0333975Y0482860D03*
X0334005Y0482830D03*
X0334035Y0482770D03*
X0334065Y0482710D03*
X0334095Y0482680D03*
X0334095Y0482650D03*
X0334125Y0482620D03*
X0334155Y0482560D03*
X0334185Y0482500D03*
X0334215Y0482470D03*
X0334245Y0482410D03*
X0334275Y0482350D03*
X0334305Y0482290D03*
X0334335Y0482260D03*
X0334365Y0482200D03*
X0334395Y0482140D03*
X0334425Y0482080D03*
X0334455Y0482050D03*
X0334485Y0481990D03*
X0334515Y0481930D03*
X0334545Y0481900D03*
X0334545Y0481870D03*
X0334575Y0481840D03*
X0334605Y0481780D03*
X0334635Y0481720D03*
X0334665Y0481690D03*
X0334695Y0481630D03*
X0334725Y0481570D03*
X0334755Y0481510D03*
X0334785Y0481480D03*
X0334815Y0481420D03*
X0334845Y0481360D03*
X0334875Y0481330D03*
X0334875Y0481300D03*
X0334905Y0481270D03*
X0334935Y0481210D03*
X0334965Y0481150D03*
X0334995Y0481120D03*
X0334995Y0481090D03*
X0335025Y0481060D03*
X0335055Y0481000D03*
X0335085Y0480940D03*
X0335115Y0480910D03*
X0335145Y0480850D03*
X0335175Y0480790D03*
X0335205Y0480730D03*
X0335235Y0480700D03*
X0335265Y0480640D03*
X0335295Y0480580D03*
X0335325Y0480550D03*
X0335325Y0480520D03*
X0335355Y0480490D03*
X0335385Y0480430D03*
X0335415Y0480370D03*
X0335445Y0480340D03*
X0335475Y0480280D03*
X0335505Y0480220D03*
X0335535Y0480160D03*
X0335565Y0480130D03*
X0335595Y0480070D03*
X0335625Y0480010D03*
X0335655Y0479950D03*
X0335685Y0479920D03*
X0335715Y0479860D03*
X0335745Y0479800D03*
X0335775Y0479770D03*
X0335775Y0479740D03*
X0335805Y0479710D03*
X0335835Y0479650D03*
X0335865Y0479590D03*
X0335895Y0479560D03*
X0335925Y0479500D03*
X0335955Y0479440D03*
X0335985Y0479380D03*
X0336015Y0479350D03*
X0336045Y0479290D03*
X0336075Y0479230D03*
X0336105Y0479170D03*
X0336135Y0479140D03*
X0336165Y0479080D03*
X0336195Y0479020D03*
X0336225Y0478990D03*
X0336225Y0478960D03*
X0336255Y0478930D03*
X0336285Y0478870D03*
X0336315Y0478810D03*
X0336345Y0478780D03*
X0336375Y0478720D03*
X0336405Y0478660D03*
X0336435Y0478600D03*
X0336465Y0478570D03*
X0336495Y0478510D03*
X0336525Y0478450D03*
X0336555Y0478420D03*
X0336555Y0478390D03*
X0336585Y0478360D03*
X0336615Y0478300D03*
X0336645Y0478240D03*
X0336675Y0478210D03*
X0336705Y0478150D03*
X0336735Y0478090D03*
D19*
X0331290Y0481210D03*
X0330840Y0481990D03*
X0330540Y0482500D03*
X0330390Y0482770D03*
X0330090Y0483280D03*
X0329940Y0483550D03*
X0329790Y0483790D03*
X0329640Y0484060D03*
X0329490Y0484330D03*
X0329340Y0484570D03*
X0329190Y0484840D03*
X0329040Y0485080D03*
X0329040Y0485110D03*
X0328890Y0485350D03*
X0328740Y0485620D03*
X0328590Y0485860D03*
X0328590Y0485890D03*
X0328440Y0486130D03*
X0328290Y0486370D03*
X0328290Y0486400D03*
X0328140Y0486640D03*
X0327990Y0486910D03*
X0327840Y0487150D03*
X0327840Y0487180D03*
X0327690Y0487420D03*
X0327540Y0487660D03*
X0327540Y0487690D03*
X0327390Y0487930D03*
X0327390Y0487960D03*
X0327240Y0488200D03*
X0327090Y0488440D03*
X0327090Y0488470D03*
X0332640Y0492640D03*
X0333090Y0493420D03*
X0333540Y0494200D03*
X0333690Y0494470D03*
X0333990Y0494980D03*
X0334140Y0495250D03*
X0334440Y0495760D03*
X0334590Y0496030D03*
X0334740Y0496300D03*
X0334890Y0496540D03*
X0335040Y0496810D03*
X0335190Y0497080D03*
X0335340Y0497320D03*
X0335340Y0497350D03*
X0335490Y0497590D03*
X0335640Y0497860D03*
X0335790Y0498100D03*
X0335790Y0498130D03*
X0335940Y0498370D03*
X0336090Y0498610D03*
X0336090Y0498640D03*
X0336240Y0498880D03*
X0336240Y0498910D03*
X0336390Y0499150D03*
X0336390Y0499180D03*
X0336540Y0499420D03*
X0336690Y0499660D03*
X0336690Y0499690D03*
X0351540Y0490090D03*
X0351990Y0489310D03*
X0352290Y0488800D03*
X0352440Y0488530D03*
X0352740Y0488020D03*
X0352890Y0487750D03*
X0353040Y0487510D03*
X0353190Y0487240D03*
X0353490Y0486730D03*
X0353640Y0486460D03*
X0353790Y0486220D03*
X0353940Y0485950D03*
X0354090Y0485680D03*
X0354240Y0485440D03*
X0354390Y0485170D03*
X0354540Y0484930D03*
X0354540Y0484900D03*
X0354690Y0484660D03*
X0354840Y0484390D03*
X0354990Y0484150D03*
X0354990Y0484120D03*
X0355140Y0483880D03*
X0355290Y0483640D03*
X0355290Y0483610D03*
X0355440Y0483370D03*
X0355440Y0483340D03*
X0355590Y0483100D03*
X0350190Y0479080D03*
X0349740Y0478300D03*
X0349290Y0477520D03*
X0349140Y0477250D03*
X0348840Y0476740D03*
X0348690Y0476470D03*
X0348540Y0476200D03*
X0348390Y0475960D03*
X0348240Y0475690D03*
X0348090Y0475420D03*
X0347940Y0475180D03*
X0347790Y0474910D03*
X0347640Y0474640D03*
X0347490Y0474400D03*
X0347490Y0474370D03*
X0347340Y0474130D03*
X0347190Y0473860D03*
X0347040Y0473620D03*
X0347040Y0473590D03*
X0346890Y0473350D03*
X0346740Y0473080D03*
X0346590Y0472840D03*
X0346590Y0472810D03*
X0346440Y0472570D03*
X0346440Y0472540D03*
X0346290Y0472300D03*
X0346140Y0472060D03*
X0346140Y0472030D03*
X0345990Y0471790D03*
D20*
X0346020Y0471820D03*
X0346020Y0471850D03*
X0346050Y0471880D03*
X0346080Y0471940D03*
X0346110Y0471970D03*
X0346110Y0472000D03*
X0346170Y0472090D03*
X0346200Y0472150D03*
X0346230Y0472180D03*
X0346230Y0472210D03*
X0346260Y0472240D03*
X0346260Y0472270D03*
X0346320Y0472330D03*
X0346320Y0472360D03*
X0346350Y0472390D03*
X0346350Y0472420D03*
X0346380Y0472450D03*
X0346380Y0472480D03*
X0346410Y0472510D03*
X0346470Y0472600D03*
X0346470Y0472630D03*
X0346500Y0472660D03*
X0346500Y0472690D03*
X0346530Y0472720D03*
X0346560Y0472750D03*
X0346560Y0472780D03*
X0346620Y0472870D03*
X0346620Y0472900D03*
X0346650Y0472930D03*
X0346680Y0472960D03*
X0346680Y0472990D03*
X0346710Y0473020D03*
X0346710Y0473050D03*
X0346770Y0473140D03*
X0346800Y0473170D03*
X0346800Y0473200D03*
X0346830Y0473230D03*
X0346830Y0473260D03*
X0346860Y0473290D03*
X0346920Y0473380D03*
X0346920Y0473410D03*
X0346950Y0473440D03*
X0346950Y0473470D03*
X0346980Y0473500D03*
X0347010Y0473560D03*
X0347070Y0473650D03*
X0347100Y0473710D03*
X0347130Y0473770D03*
X0347160Y0473800D03*
X0347160Y0473830D03*
X0347220Y0473920D03*
X0347250Y0473950D03*
X0347250Y0473980D03*
X0347280Y0474010D03*
X0347280Y0474040D03*
X0347310Y0474070D03*
X0347370Y0474160D03*
X0347370Y0474190D03*
X0347400Y0474220D03*
X0347400Y0474250D03*
X0347430Y0474280D03*
X0347460Y0474340D03*
X0347520Y0474430D03*
X0347550Y0474490D03*
X0347580Y0474550D03*
X0347610Y0474580D03*
X0347610Y0474610D03*
X0347670Y0474700D03*
X0347700Y0474760D03*
X0347730Y0474790D03*
X0347730Y0474820D03*
X0347760Y0474850D03*
X0347820Y0474970D03*
X0347850Y0475000D03*
X0347850Y0475030D03*
X0347880Y0475060D03*
X0347910Y0475120D03*
X0347970Y0475210D03*
X0348000Y0475270D03*
X0348030Y0475330D03*
X0348060Y0475390D03*
X0348120Y0475480D03*
X0348150Y0475540D03*
X0348180Y0475600D03*
X0348210Y0475630D03*
X0348270Y0475750D03*
X0348330Y0475840D03*
X0348360Y0475900D03*
X0348450Y0476050D03*
X0348480Y0476110D03*
X0348510Y0476170D03*
X0348570Y0476260D03*
X0348600Y0476320D03*
X0348630Y0476380D03*
X0348660Y0476410D03*
X0348720Y0476530D03*
X0348780Y0476620D03*
X0348810Y0476680D03*
X0348900Y0476830D03*
X0348930Y0476890D03*
X0348960Y0476950D03*
X0349020Y0477040D03*
X0349050Y0477100D03*
X0349080Y0477160D03*
X0349170Y0477310D03*
X0349260Y0477460D03*
X0349380Y0477670D03*
X0349410Y0477730D03*
X0349500Y0477880D03*
X0349530Y0477940D03*
X0349620Y0478090D03*
X0349860Y0478510D03*
X0349950Y0478660D03*
X0350070Y0478870D03*
X0350310Y0479290D03*
X0350400Y0485710D03*
X0350400Y0485740D03*
X0353100Y0487390D03*
X0353070Y0487450D03*
X0352980Y0487600D03*
X0352950Y0487660D03*
X0352920Y0487720D03*
X0352860Y0487810D03*
X0352830Y0487870D03*
X0352770Y0487960D03*
X0352710Y0488080D03*
X0352650Y0488170D03*
X0352620Y0488230D03*
X0352530Y0488380D03*
X0352500Y0488440D03*
X0352410Y0488590D03*
X0352320Y0488740D03*
X0352200Y0488950D03*
X0352170Y0489010D03*
X0352080Y0489160D03*
X0351960Y0489370D03*
X0351870Y0489520D03*
X0351750Y0489730D03*
X0351420Y0490300D03*
X0351210Y0490660D03*
X0353160Y0487300D03*
X0353220Y0487180D03*
X0353250Y0487150D03*
X0353280Y0487090D03*
X0353310Y0487030D03*
X0353370Y0486940D03*
X0353400Y0486880D03*
X0353430Y0486820D03*
X0353460Y0486790D03*
X0353520Y0486670D03*
X0353550Y0486610D03*
X0353580Y0486580D03*
X0353610Y0486520D03*
X0353670Y0486430D03*
X0353670Y0486400D03*
X0353700Y0486370D03*
X0353730Y0486310D03*
X0353760Y0486250D03*
X0353820Y0486160D03*
X0353850Y0486100D03*
X0353880Y0486040D03*
X0353910Y0486010D03*
X0353970Y0485890D03*
X0354000Y0485860D03*
X0354000Y0485830D03*
X0354030Y0485800D03*
X0354060Y0485740D03*
X0354120Y0485650D03*
X0354120Y0485620D03*
X0354150Y0485590D03*
X0354180Y0485530D03*
X0354210Y0485500D03*
X0354210Y0485470D03*
X0354270Y0485380D03*
X0354300Y0485320D03*
X0354330Y0485290D03*
X0354330Y0485260D03*
X0354360Y0485230D03*
X0354420Y0485140D03*
X0354420Y0485110D03*
X0354450Y0485080D03*
X0354450Y0485050D03*
X0354480Y0485020D03*
X0354510Y0484960D03*
X0354570Y0484870D03*
X0354570Y0484840D03*
X0354600Y0484810D03*
X0354630Y0484780D03*
X0354630Y0484750D03*
X0354660Y0484720D03*
X0354660Y0484690D03*
X0354720Y0484600D03*
X0354750Y0484570D03*
X0354750Y0484540D03*
X0354780Y0484510D03*
X0354780Y0484480D03*
X0354810Y0484450D03*
X0354870Y0484360D03*
X0354870Y0484330D03*
X0354900Y0484300D03*
X0354900Y0484270D03*
X0354930Y0484240D03*
X0354960Y0484210D03*
X0354960Y0484180D03*
X0355020Y0484090D03*
X0355050Y0484030D03*
X0355080Y0484000D03*
X0355080Y0483970D03*
X0355110Y0483940D03*
X0355110Y0483910D03*
X0355170Y0483850D03*
X0355170Y0483820D03*
X0355200Y0483790D03*
X0355200Y0483760D03*
X0355230Y0483730D03*
X0355230Y0483700D03*
X0355260Y0483670D03*
X0355320Y0483580D03*
X0355320Y0483550D03*
X0355350Y0483520D03*
X0355380Y0483460D03*
X0355410Y0483430D03*
X0355410Y0483400D03*
X0355470Y0483310D03*
X0355500Y0483280D03*
X0355500Y0483250D03*
X0355530Y0483220D03*
X0355530Y0483190D03*
X0355560Y0483160D03*
X0355560Y0483130D03*
X0355620Y0483070D03*
X0355620Y0483040D03*
X0355650Y0483010D03*
X0355650Y0482980D03*
X0355860Y0482650D03*
X0332310Y0485770D03*
X0332310Y0485800D03*
X0329610Y0484120D03*
X0329550Y0484210D03*
X0329520Y0484270D03*
X0329460Y0484360D03*
X0329430Y0484420D03*
X0329400Y0484480D03*
X0329310Y0484630D03*
X0329280Y0484690D03*
X0329250Y0484720D03*
X0329220Y0484780D03*
X0329160Y0484900D03*
X0329130Y0484930D03*
X0329100Y0484990D03*
X0329070Y0485050D03*
X0329010Y0485140D03*
X0328980Y0485200D03*
X0328950Y0485260D03*
X0328920Y0485290D03*
X0328860Y0485410D03*
X0328830Y0485440D03*
X0328830Y0485470D03*
X0328800Y0485500D03*
X0328770Y0485560D03*
X0328710Y0485650D03*
X0328710Y0485680D03*
X0328680Y0485710D03*
X0328650Y0485770D03*
X0328620Y0485830D03*
X0328560Y0485920D03*
X0328530Y0485980D03*
X0328500Y0486010D03*
X0328500Y0486040D03*
X0328470Y0486070D03*
X0328410Y0486190D03*
X0328380Y0486220D03*
X0328380Y0486250D03*
X0328350Y0486280D03*
X0328320Y0486340D03*
X0328260Y0486430D03*
X0328260Y0486460D03*
X0328230Y0486490D03*
X0328200Y0486550D03*
X0328170Y0486580D03*
X0328170Y0486610D03*
X0328110Y0486700D03*
X0328080Y0486730D03*
X0328080Y0486760D03*
X0328050Y0486790D03*
X0328050Y0486820D03*
X0328020Y0486850D03*
X0327960Y0486940D03*
X0327960Y0486970D03*
X0327930Y0487000D03*
X0327930Y0487030D03*
X0327900Y0487060D03*
X0327870Y0487120D03*
X0327810Y0487210D03*
X0327810Y0487240D03*
X0327780Y0487270D03*
X0327750Y0487300D03*
X0327750Y0487330D03*
X0327720Y0487360D03*
X0327720Y0487390D03*
X0327660Y0487480D03*
X0327630Y0487510D03*
X0327630Y0487540D03*
X0327600Y0487570D03*
X0327600Y0487600D03*
X0327570Y0487630D03*
X0327510Y0487720D03*
X0327510Y0487750D03*
X0327480Y0487780D03*
X0327480Y0487810D03*
X0327450Y0487840D03*
X0327420Y0487870D03*
X0327420Y0487900D03*
X0327360Y0487990D03*
X0327330Y0488050D03*
X0327300Y0488080D03*
X0327300Y0488110D03*
X0327270Y0488140D03*
X0327270Y0488170D03*
X0327210Y0488230D03*
X0327210Y0488260D03*
X0327180Y0488290D03*
X0327180Y0488320D03*
X0327150Y0488350D03*
X0327150Y0488380D03*
X0327120Y0488410D03*
X0327060Y0488500D03*
X0327060Y0488530D03*
X0326850Y0488860D03*
X0329670Y0484000D03*
X0329730Y0483910D03*
X0329760Y0483850D03*
X0329820Y0483760D03*
X0329850Y0483700D03*
X0329880Y0483640D03*
X0329970Y0483490D03*
X0330000Y0483430D03*
X0330060Y0483340D03*
X0330180Y0483130D03*
X0330210Y0483070D03*
X0330270Y0482980D03*
X0330300Y0482920D03*
X0330420Y0482710D03*
X0330510Y0482560D03*
X0330630Y0482350D03*
X0330720Y0482200D03*
X0330750Y0482140D03*
X0330960Y0481780D03*
X0331170Y0481420D03*
X0331500Y0480850D03*
X0332400Y0492220D03*
X0332520Y0492430D03*
X0332760Y0492850D03*
X0332850Y0493000D03*
X0332970Y0493210D03*
X0333180Y0493570D03*
X0333210Y0493630D03*
X0333300Y0493780D03*
X0333330Y0493840D03*
X0333420Y0493990D03*
X0333450Y0494050D03*
X0333570Y0494260D03*
X0333630Y0494350D03*
X0333660Y0494410D03*
X0333750Y0494560D03*
X0333780Y0494620D03*
X0333810Y0494680D03*
X0333870Y0494770D03*
X0333900Y0494830D03*
X0333930Y0494890D03*
X0334020Y0495040D03*
X0334050Y0495100D03*
X0334080Y0495130D03*
X0334110Y0495190D03*
X0334200Y0495340D03*
X0334230Y0495400D03*
X0334260Y0495460D03*
X0334320Y0495550D03*
X0334350Y0495610D03*
X0334380Y0495670D03*
X0334410Y0495700D03*
X0334470Y0495820D03*
X0334500Y0495880D03*
X0334530Y0495910D03*
X0334560Y0495970D03*
X0334620Y0496090D03*
X0334650Y0496120D03*
X0334680Y0496180D03*
X0334710Y0496240D03*
X0334770Y0496330D03*
X0334800Y0496390D03*
X0334830Y0496450D03*
X0334860Y0496480D03*
X0334860Y0496510D03*
X0334920Y0496600D03*
X0334950Y0496660D03*
X0334980Y0496690D03*
X0334980Y0496720D03*
X0335010Y0496750D03*
X0335070Y0496870D03*
X0335100Y0496900D03*
X0335100Y0496930D03*
X0335130Y0496960D03*
X0335160Y0497020D03*
X0335220Y0497110D03*
X0335220Y0497140D03*
X0335250Y0497170D03*
X0335280Y0497230D03*
X0335310Y0497260D03*
X0335310Y0497290D03*
X0335370Y0497380D03*
X0335400Y0497440D03*
X0335430Y0497470D03*
X0335430Y0497500D03*
X0335460Y0497530D03*
X0335460Y0497560D03*
X0335520Y0497650D03*
X0335550Y0497680D03*
X0335550Y0497710D03*
X0335580Y0497740D03*
X0335610Y0497800D03*
X0335670Y0497890D03*
X0335670Y0497920D03*
X0335700Y0497950D03*
X0335730Y0498010D03*
X0335760Y0498040D03*
X0335760Y0498070D03*
X0335820Y0498160D03*
X0335850Y0498220D03*
X0335880Y0498250D03*
X0335880Y0498280D03*
X0335910Y0498310D03*
X0335910Y0498340D03*
X0335970Y0498430D03*
X0336000Y0498460D03*
X0336000Y0498490D03*
X0336030Y0498520D03*
X0336030Y0498550D03*
X0336060Y0498580D03*
X0336120Y0498670D03*
X0336120Y0498700D03*
X0336150Y0498730D03*
X0336150Y0498760D03*
X0336180Y0498790D03*
X0336210Y0498820D03*
X0336210Y0498850D03*
X0336270Y0498940D03*
X0336270Y0498970D03*
X0336300Y0499000D03*
X0336330Y0499030D03*
X0336330Y0499060D03*
X0336360Y0499090D03*
X0336360Y0499120D03*
X0336420Y0499210D03*
X0336450Y0499240D03*
X0336450Y0499270D03*
X0336480Y0499300D03*
X0336480Y0499330D03*
X0336510Y0499360D03*
X0336570Y0499450D03*
X0336570Y0499480D03*
X0336600Y0499510D03*
X0336600Y0499540D03*
X0336630Y0499570D03*
X0336660Y0499630D03*
X0336720Y0499720D03*
D21*
X0338550Y0496570D03*
X0338520Y0496510D03*
X0338490Y0496450D03*
X0338430Y0496360D03*
X0338400Y0496300D03*
X0338370Y0496240D03*
X0338310Y0496150D03*
X0338280Y0496090D03*
X0338190Y0495940D03*
X0338160Y0495880D03*
X0338100Y0495790D03*
X0338070Y0495730D03*
X0338040Y0495670D03*
X0337980Y0495580D03*
X0337950Y0495520D03*
X0337860Y0495370D03*
X0337830Y0495310D03*
X0337740Y0495160D03*
X0337710Y0495100D03*
X0337650Y0495010D03*
X0337620Y0494950D03*
X0337590Y0494890D03*
X0337530Y0494800D03*
X0337500Y0494740D03*
X0337410Y0494590D03*
X0337380Y0494530D03*
X0337320Y0494440D03*
X0337290Y0494380D03*
X0337260Y0494320D03*
X0337200Y0494230D03*
X0337170Y0494170D03*
X0337140Y0494110D03*
X0337080Y0494020D03*
X0337050Y0493960D03*
X0336960Y0493810D03*
X0336930Y0493750D03*
X0336720Y0493390D03*
X0336690Y0493330D03*
X0336630Y0493240D03*
X0336600Y0493180D03*
X0336510Y0493030D03*
X0336480Y0492970D03*
X0336420Y0492880D03*
X0336390Y0492820D03*
X0336360Y0492760D03*
X0336300Y0492670D03*
X0336270Y0492610D03*
X0336180Y0492460D03*
X0336150Y0492400D03*
X0336090Y0492310D03*
X0336060Y0492250D03*
X0336030Y0492190D03*
X0335970Y0492100D03*
X0335940Y0492040D03*
X0335910Y0491980D03*
X0335850Y0491890D03*
X0335820Y0491830D03*
X0335730Y0491680D03*
X0335700Y0491620D03*
X0335640Y0491530D03*
X0335610Y0491470D03*
X0335580Y0491410D03*
X0335520Y0491320D03*
X0335490Y0491260D03*
X0335460Y0491200D03*
X0335400Y0491110D03*
X0335370Y0491050D03*
X0335280Y0490900D03*
X0335250Y0490840D03*
X0335190Y0490750D03*
X0335160Y0490690D03*
X0335130Y0490630D03*
X0335070Y0490540D03*
X0335040Y0490480D03*
X0335010Y0490420D03*
X0334950Y0490330D03*
X0334920Y0490270D03*
X0334830Y0490120D03*
X0334800Y0490060D03*
X0334740Y0489970D03*
X0334710Y0489910D03*
X0334680Y0489850D03*
X0334620Y0489760D03*
X0334590Y0489700D03*
X0334500Y0489550D03*
X0334470Y0489490D03*
X0334410Y0489400D03*
X0334380Y0489340D03*
X0334350Y0489280D03*
X0334290Y0489190D03*
X0334260Y0489130D03*
X0334230Y0489070D03*
X0334170Y0488980D03*
X0334140Y0488920D03*
X0334050Y0488770D03*
X0334020Y0488710D03*
X0333960Y0488620D03*
X0333930Y0488560D03*
X0333900Y0488500D03*
X0333840Y0488410D03*
X0333810Y0488350D03*
X0333780Y0488290D03*
X0333720Y0488200D03*
X0333690Y0488140D03*
X0333600Y0487990D03*
X0333570Y0487930D03*
X0333510Y0487840D03*
X0333480Y0487780D03*
X0333450Y0487720D03*
X0333390Y0487630D03*
X0333360Y0487570D03*
X0333270Y0487420D03*
X0333240Y0487360D03*
X0333150Y0487210D03*
X0333120Y0487150D03*
X0333060Y0487060D03*
X0333030Y0487000D03*
X0333000Y0486940D03*
X0332940Y0486850D03*
X0332910Y0486790D03*
X0332820Y0486640D03*
X0332790Y0486580D03*
X0332730Y0486490D03*
X0332700Y0486430D03*
X0332670Y0486370D03*
X0332610Y0486280D03*
X0332580Y0486220D03*
X0332550Y0486160D03*
X0332100Y0486130D03*
X0332040Y0486220D03*
X0332010Y0486280D03*
X0331920Y0486430D03*
X0331890Y0486490D03*
X0331830Y0486580D03*
X0331800Y0486640D03*
X0331770Y0486700D03*
X0331710Y0486790D03*
X0331680Y0486850D03*
X0331590Y0487000D03*
X0331560Y0487060D03*
X0331500Y0487150D03*
X0331470Y0487210D03*
X0331440Y0487270D03*
X0331380Y0487360D03*
X0331350Y0487420D03*
X0331320Y0487480D03*
X0331260Y0487570D03*
X0331230Y0487630D03*
X0331140Y0487780D03*
X0331110Y0487840D03*
X0331050Y0487930D03*
X0331020Y0487990D03*
X0330990Y0488050D03*
X0330930Y0488140D03*
X0330900Y0488200D03*
X0330870Y0488260D03*
X0330810Y0488350D03*
X0330780Y0488410D03*
X0330690Y0488560D03*
X0330660Y0488620D03*
X0330600Y0488710D03*
X0330570Y0488770D03*
X0330540Y0488830D03*
X0330540Y0488980D03*
X0330570Y0489040D03*
X0330600Y0489100D03*
X0330660Y0489190D03*
X0330690Y0489250D03*
X0330780Y0489400D03*
X0330810Y0489460D03*
X0330900Y0489610D03*
X0330930Y0489670D03*
X0331020Y0489820D03*
X0331050Y0489880D03*
X0331140Y0490030D03*
X0331260Y0490240D03*
X0331380Y0490450D03*
X0331470Y0490600D03*
X0331590Y0490810D03*
X0331710Y0491020D03*
X0331830Y0491230D03*
X0329100Y0492790D03*
X0329130Y0492850D03*
X0329190Y0492940D03*
X0329220Y0493000D03*
X0329250Y0493060D03*
X0329310Y0493150D03*
X0329340Y0493210D03*
X0329370Y0493270D03*
X0329430Y0493360D03*
X0329460Y0493420D03*
X0329550Y0493570D03*
X0329580Y0493630D03*
X0329640Y0493720D03*
X0329670Y0493780D03*
X0329700Y0493840D03*
X0329760Y0493930D03*
X0329790Y0493990D03*
X0329880Y0494140D03*
X0329910Y0494200D03*
X0329970Y0494290D03*
X0330000Y0494350D03*
X0330030Y0494410D03*
X0330090Y0494500D03*
X0330120Y0494560D03*
X0330150Y0494620D03*
X0330210Y0494710D03*
X0330240Y0494770D03*
X0330330Y0494920D03*
X0330360Y0494980D03*
X0330420Y0495070D03*
X0330450Y0495130D03*
X0330480Y0495190D03*
X0330540Y0495280D03*
X0330570Y0495340D03*
X0330600Y0495400D03*
X0330660Y0495490D03*
X0330690Y0495550D03*
X0330780Y0495700D03*
X0330810Y0495760D03*
X0330870Y0495850D03*
X0330900Y0495910D03*
X0330930Y0495970D03*
X0330990Y0496060D03*
X0331020Y0496120D03*
X0331110Y0496270D03*
X0331140Y0496330D03*
X0331230Y0496480D03*
X0331260Y0496540D03*
X0331320Y0496630D03*
X0331350Y0496690D03*
X0331380Y0496750D03*
X0331440Y0496840D03*
X0331470Y0496900D03*
X0331560Y0497050D03*
X0331590Y0497110D03*
X0331650Y0497200D03*
X0331680Y0497260D03*
X0331710Y0497320D03*
X0331770Y0497410D03*
X0331800Y0497470D03*
X0331830Y0497530D03*
X0331890Y0497620D03*
X0331920Y0497680D03*
X0332010Y0497830D03*
X0332040Y0497890D03*
X0332100Y0497980D03*
X0332130Y0498040D03*
X0332160Y0498100D03*
X0332220Y0498190D03*
X0332250Y0498250D03*
X0332280Y0498310D03*
X0332340Y0498400D03*
X0332370Y0498460D03*
X0332460Y0498610D03*
X0332490Y0498670D03*
X0332550Y0498760D03*
X0332580Y0498820D03*
X0332610Y0498880D03*
X0332670Y0498970D03*
X0332700Y0499030D03*
X0332790Y0499180D03*
X0332820Y0499240D03*
X0332910Y0499390D03*
X0332940Y0499450D03*
X0333000Y0499540D03*
X0333030Y0499600D03*
X0333060Y0499660D03*
X0329010Y0492640D03*
X0328980Y0492580D03*
X0328920Y0492490D03*
X0328890Y0492430D03*
X0328860Y0492370D03*
X0328800Y0492280D03*
X0328770Y0492220D03*
X0328740Y0492160D03*
X0328680Y0492070D03*
X0328650Y0492010D03*
X0328560Y0491860D03*
X0328530Y0491800D03*
X0328470Y0491710D03*
X0328440Y0491650D03*
X0328410Y0491590D03*
X0328350Y0491500D03*
X0328320Y0491440D03*
X0328290Y0491380D03*
X0328230Y0491290D03*
X0328200Y0491230D03*
X0328110Y0491080D03*
X0328080Y0491020D03*
X0328020Y0490930D03*
X0327990Y0490870D03*
X0327960Y0490810D03*
X0327900Y0490720D03*
X0327870Y0490660D03*
X0327780Y0490510D03*
X0327750Y0490450D03*
X0327690Y0490360D03*
X0327660Y0490300D03*
X0327630Y0490240D03*
X0327570Y0490150D03*
X0327540Y0490090D03*
X0327510Y0490030D03*
X0327450Y0489940D03*
X0327420Y0489880D03*
X0327330Y0489730D03*
X0327300Y0489670D03*
X0327240Y0489580D03*
X0327210Y0489520D03*
X0327180Y0489460D03*
X0327120Y0489370D03*
X0327090Y0489310D03*
X0327060Y0489250D03*
X0327000Y0489160D03*
X0326970Y0489100D03*
X0326880Y0488950D03*
X0326640Y0488530D03*
X0326550Y0488380D03*
X0326520Y0488320D03*
X0326430Y0488170D03*
X0326400Y0488110D03*
X0326340Y0488020D03*
X0326310Y0487960D03*
X0326280Y0487900D03*
X0326220Y0487810D03*
X0326190Y0487750D03*
X0326100Y0487600D03*
X0326070Y0487540D03*
X0326010Y0487450D03*
X0325980Y0487390D03*
X0325950Y0487330D03*
X0325890Y0487240D03*
X0325860Y0487180D03*
X0325830Y0487120D03*
X0325770Y0487030D03*
X0325740Y0486970D03*
X0325650Y0486820D03*
X0325620Y0486760D03*
X0325560Y0486670D03*
X0325530Y0486610D03*
X0325500Y0486550D03*
X0325440Y0486460D03*
X0325410Y0486400D03*
X0325380Y0486340D03*
X0325320Y0486250D03*
X0325290Y0486190D03*
X0325200Y0486040D03*
X0325170Y0485980D03*
X0325110Y0485890D03*
X0325080Y0485830D03*
X0325050Y0485770D03*
X0325050Y0485740D03*
X0325080Y0485680D03*
X0325110Y0485620D03*
X0325170Y0485530D03*
X0325200Y0485470D03*
X0325290Y0485320D03*
X0325320Y0485260D03*
X0325380Y0485170D03*
X0325410Y0485110D03*
X0325440Y0485050D03*
X0325500Y0484960D03*
X0325530Y0484900D03*
X0325560Y0484840D03*
X0325620Y0484750D03*
X0325650Y0484690D03*
X0325740Y0484540D03*
X0325770Y0484480D03*
X0325830Y0484390D03*
X0325860Y0484330D03*
X0325890Y0484270D03*
X0325950Y0484180D03*
X0325980Y0484120D03*
X0326010Y0484060D03*
X0326070Y0483970D03*
X0326100Y0483910D03*
X0326190Y0483760D03*
X0326220Y0483700D03*
X0326280Y0483610D03*
X0326310Y0483550D03*
X0326340Y0483490D03*
X0326400Y0483400D03*
X0326430Y0483340D03*
X0326520Y0483190D03*
X0326550Y0483130D03*
X0326640Y0482980D03*
X0326670Y0482920D03*
X0326730Y0482830D03*
X0326760Y0482770D03*
X0326790Y0482710D03*
X0326850Y0482620D03*
X0326880Y0482560D03*
X0326970Y0482410D03*
X0327000Y0482350D03*
X0327060Y0482260D03*
X0327090Y0482200D03*
X0327120Y0482140D03*
X0327180Y0482050D03*
X0327210Y0481990D03*
X0327240Y0481930D03*
X0327300Y0481840D03*
X0327330Y0481780D03*
X0327420Y0481630D03*
X0327450Y0481570D03*
X0327510Y0481480D03*
X0327540Y0481420D03*
X0327570Y0481360D03*
X0327630Y0481270D03*
X0327660Y0481210D03*
X0327690Y0481150D03*
X0327750Y0481060D03*
X0327780Y0481000D03*
X0327870Y0480850D03*
X0327900Y0480790D03*
X0327960Y0480700D03*
X0327990Y0480640D03*
X0328020Y0480580D03*
X0328080Y0480490D03*
X0328110Y0480430D03*
X0328200Y0480280D03*
X0328230Y0480220D03*
X0328320Y0480070D03*
X0328350Y0480010D03*
X0328410Y0479920D03*
X0328440Y0479860D03*
X0328470Y0479800D03*
X0328530Y0479710D03*
X0328560Y0479650D03*
X0328650Y0479500D03*
X0328680Y0479440D03*
X0328740Y0479350D03*
X0328770Y0479290D03*
X0328800Y0479230D03*
X0328860Y0479140D03*
X0328890Y0479080D03*
X0328920Y0479020D03*
X0328980Y0478930D03*
X0329010Y0478870D03*
X0329100Y0478720D03*
X0329130Y0478660D03*
X0329190Y0478570D03*
X0329220Y0478510D03*
X0329250Y0478450D03*
X0329310Y0478360D03*
X0329340Y0478300D03*
X0329370Y0478240D03*
X0329430Y0478150D03*
X0329460Y0478090D03*
X0329550Y0477940D03*
X0329580Y0477880D03*
X0329640Y0477790D03*
X0329670Y0477730D03*
X0329700Y0477670D03*
X0329760Y0477580D03*
X0329790Y0477520D03*
X0329880Y0477370D03*
X0329910Y0477310D03*
X0329970Y0477220D03*
X0330000Y0477160D03*
X0330030Y0477100D03*
X0330090Y0477010D03*
X0330120Y0476950D03*
X0330150Y0476890D03*
X0330210Y0476800D03*
X0330240Y0476740D03*
X0330330Y0476590D03*
X0330360Y0476530D03*
X0330420Y0476440D03*
X0330450Y0476380D03*
X0330480Y0476320D03*
X0330540Y0476230D03*
X0330570Y0476170D03*
X0330600Y0476110D03*
X0330660Y0476020D03*
X0330690Y0475960D03*
X0330780Y0475810D03*
X0330810Y0475750D03*
X0330870Y0475660D03*
X0330900Y0475600D03*
X0330930Y0475540D03*
X0330990Y0475450D03*
X0331020Y0475390D03*
X0331050Y0475330D03*
X0331110Y0475240D03*
X0331140Y0475180D03*
X0331230Y0475030D03*
X0331260Y0474970D03*
X0331560Y0474460D03*
X0331590Y0474400D03*
X0331650Y0474310D03*
X0331680Y0474250D03*
X0331710Y0474190D03*
X0331770Y0474100D03*
X0331800Y0474040D03*
X0331830Y0473980D03*
X0331890Y0473890D03*
X0331920Y0473830D03*
X0332010Y0473680D03*
X0332040Y0473620D03*
X0332100Y0473530D03*
X0332130Y0473470D03*
X0332160Y0473410D03*
X0332220Y0473320D03*
X0332250Y0473260D03*
X0332280Y0473200D03*
X0332340Y0473110D03*
X0332370Y0473050D03*
X0332460Y0472900D03*
X0332490Y0472840D03*
X0332550Y0472750D03*
X0332580Y0472690D03*
X0332610Y0472630D03*
X0332670Y0472540D03*
X0332700Y0472480D03*
X0332790Y0472330D03*
X0332820Y0472270D03*
X0332910Y0472120D03*
X0332940Y0472060D03*
X0333000Y0471970D03*
X0333030Y0471910D03*
X0333060Y0471850D03*
X0333060Y0478150D03*
X0333030Y0478210D03*
X0332940Y0478360D03*
X0332910Y0478420D03*
X0332820Y0478570D03*
X0332730Y0478720D03*
X0332700Y0478780D03*
X0332610Y0478930D03*
X0332580Y0478990D03*
X0332490Y0479140D03*
X0332370Y0479350D03*
X0332280Y0479500D03*
X0332160Y0479710D03*
X0331830Y0480280D03*
X0334620Y0481750D03*
X0334590Y0481810D03*
X0334500Y0481960D03*
X0334470Y0482020D03*
X0334410Y0482110D03*
X0334380Y0482170D03*
X0334350Y0482230D03*
X0334290Y0482320D03*
X0334260Y0482380D03*
X0334230Y0482440D03*
X0334170Y0482530D03*
X0334140Y0482590D03*
X0334050Y0482740D03*
X0334020Y0482800D03*
X0333960Y0482890D03*
X0333930Y0482950D03*
X0333900Y0483010D03*
X0333840Y0483100D03*
X0333810Y0483160D03*
X0333780Y0483220D03*
X0333720Y0483310D03*
X0333690Y0483370D03*
X0333600Y0483520D03*
X0333570Y0483580D03*
X0333510Y0483670D03*
X0333480Y0483730D03*
X0333450Y0483790D03*
X0333390Y0483880D03*
X0333360Y0483940D03*
X0333270Y0484090D03*
X0333240Y0484150D03*
X0333150Y0484300D03*
X0333120Y0484360D03*
X0333060Y0484450D03*
X0333030Y0484510D03*
X0333000Y0484570D03*
X0332940Y0484660D03*
X0332910Y0484720D03*
X0332820Y0484870D03*
X0332790Y0484930D03*
X0332730Y0485020D03*
X0332700Y0485080D03*
X0332670Y0485140D03*
X0332610Y0485230D03*
X0332580Y0485290D03*
X0332550Y0485350D03*
X0332490Y0485440D03*
X0332460Y0485500D03*
X0332370Y0485650D03*
X0332340Y0485710D03*
X0334680Y0481660D03*
X0334710Y0481600D03*
X0334740Y0481540D03*
X0334800Y0481450D03*
X0334830Y0481390D03*
X0334920Y0481240D03*
X0334950Y0481180D03*
X0335040Y0481030D03*
X0335070Y0480970D03*
X0335130Y0480880D03*
X0335160Y0480820D03*
X0335190Y0480760D03*
X0335250Y0480670D03*
X0335280Y0480610D03*
X0335370Y0480460D03*
X0335400Y0480400D03*
X0335460Y0480310D03*
X0335490Y0480250D03*
X0335520Y0480190D03*
X0335580Y0480100D03*
X0335610Y0480040D03*
X0335640Y0479980D03*
X0335700Y0479890D03*
X0335730Y0479830D03*
X0335820Y0479680D03*
X0335850Y0479620D03*
X0335910Y0479530D03*
X0335940Y0479470D03*
X0335970Y0479410D03*
X0336030Y0479320D03*
X0336060Y0479260D03*
X0336090Y0479200D03*
X0336150Y0479110D03*
X0336180Y0479050D03*
X0336270Y0478900D03*
X0336300Y0478840D03*
X0336360Y0478750D03*
X0336390Y0478690D03*
X0336420Y0478630D03*
X0336480Y0478540D03*
X0336510Y0478480D03*
X0336600Y0478330D03*
X0336630Y0478270D03*
X0336690Y0478180D03*
X0336720Y0478120D03*
X0344160Y0474940D03*
X0344190Y0475000D03*
X0344220Y0475060D03*
X0344280Y0475150D03*
X0344310Y0475210D03*
X0344340Y0475270D03*
X0344400Y0475360D03*
X0344430Y0475420D03*
X0344520Y0475570D03*
X0344550Y0475630D03*
X0344610Y0475720D03*
X0344640Y0475780D03*
X0344670Y0475840D03*
X0344730Y0475930D03*
X0344760Y0475990D03*
X0344850Y0476140D03*
X0344880Y0476200D03*
X0344940Y0476290D03*
X0344970Y0476350D03*
X0345000Y0476410D03*
X0345060Y0476500D03*
X0345090Y0476560D03*
X0345120Y0476620D03*
X0345180Y0476710D03*
X0345210Y0476770D03*
X0345300Y0476920D03*
X0345330Y0476980D03*
X0345390Y0477070D03*
X0345420Y0477130D03*
X0345450Y0477190D03*
X0345510Y0477280D03*
X0345540Y0477340D03*
X0345570Y0477400D03*
X0345630Y0477490D03*
X0345660Y0477550D03*
X0345750Y0477700D03*
X0345780Y0477760D03*
X0345990Y0478120D03*
X0346020Y0478180D03*
X0346080Y0478270D03*
X0346110Y0478330D03*
X0346200Y0478480D03*
X0346230Y0478540D03*
X0346290Y0478630D03*
X0346320Y0478690D03*
X0346350Y0478750D03*
X0346410Y0478840D03*
X0346440Y0478900D03*
X0346530Y0479050D03*
X0346560Y0479110D03*
X0346620Y0479200D03*
X0346650Y0479260D03*
X0346680Y0479320D03*
X0346740Y0479410D03*
X0346770Y0479470D03*
X0346800Y0479530D03*
X0346860Y0479620D03*
X0346890Y0479680D03*
X0346980Y0479830D03*
X0347010Y0479890D03*
X0347070Y0479980D03*
X0347100Y0480040D03*
X0347130Y0480100D03*
X0347190Y0480190D03*
X0347220Y0480250D03*
X0347250Y0480310D03*
X0347310Y0480400D03*
X0347340Y0480460D03*
X0347430Y0480610D03*
X0347460Y0480670D03*
X0347520Y0480760D03*
X0347550Y0480820D03*
X0347580Y0480880D03*
X0347640Y0480970D03*
X0347670Y0481030D03*
X0347760Y0481180D03*
X0347790Y0481240D03*
X0347880Y0481390D03*
X0347910Y0481450D03*
X0347970Y0481540D03*
X0348000Y0481600D03*
X0348030Y0481660D03*
X0348090Y0481750D03*
X0348120Y0481810D03*
X0348210Y0481960D03*
X0348240Y0482020D03*
X0348300Y0482110D03*
X0348330Y0482170D03*
X0348360Y0482230D03*
X0348420Y0482320D03*
X0348450Y0482380D03*
X0348480Y0482440D03*
X0348540Y0482530D03*
X0348570Y0482590D03*
X0348660Y0482740D03*
X0348690Y0482800D03*
X0348750Y0482890D03*
X0348780Y0482950D03*
X0348810Y0483010D03*
X0348870Y0483100D03*
X0348900Y0483160D03*
X0348930Y0483220D03*
X0348990Y0483310D03*
X0349020Y0483370D03*
X0349110Y0483520D03*
X0349140Y0483580D03*
X0349200Y0483670D03*
X0349230Y0483730D03*
X0349260Y0483790D03*
X0349320Y0483880D03*
X0349350Y0483940D03*
X0349440Y0484090D03*
X0349470Y0484150D03*
X0349560Y0484300D03*
X0349590Y0484360D03*
X0349650Y0484450D03*
X0349680Y0484510D03*
X0349710Y0484570D03*
X0349770Y0484660D03*
X0349800Y0484720D03*
X0349890Y0484870D03*
X0349920Y0484930D03*
X0349980Y0485020D03*
X0350010Y0485080D03*
X0350040Y0485140D03*
X0350100Y0485230D03*
X0350130Y0485290D03*
X0350160Y0485350D03*
X0350610Y0485380D03*
X0350670Y0485290D03*
X0350700Y0485230D03*
X0350790Y0485080D03*
X0350820Y0485020D03*
X0350880Y0484930D03*
X0350910Y0484870D03*
X0350940Y0484810D03*
X0351000Y0484720D03*
X0351030Y0484660D03*
X0351120Y0484510D03*
X0351150Y0484450D03*
X0351240Y0484300D03*
X0351270Y0484240D03*
X0351330Y0484150D03*
X0351360Y0484090D03*
X0351390Y0484030D03*
X0351450Y0483940D03*
X0351480Y0483880D03*
X0351570Y0483730D03*
X0351600Y0483670D03*
X0351660Y0483580D03*
X0351690Y0483520D03*
X0351720Y0483460D03*
X0351780Y0483370D03*
X0351810Y0483310D03*
X0351840Y0483250D03*
X0351900Y0483160D03*
X0351930Y0483100D03*
X0352020Y0482950D03*
X0352050Y0482890D03*
X0352110Y0482800D03*
X0352140Y0482740D03*
X0352170Y0482680D03*
X0352170Y0482530D03*
X0352140Y0482470D03*
X0352110Y0482410D03*
X0352050Y0482320D03*
X0352020Y0482260D03*
X0351930Y0482110D03*
X0351900Y0482050D03*
X0351810Y0481900D03*
X0351780Y0481840D03*
X0351690Y0481690D03*
X0351660Y0481630D03*
X0351570Y0481480D03*
X0351450Y0481270D03*
X0351330Y0481060D03*
X0351240Y0480910D03*
X0351120Y0480700D03*
X0351000Y0480490D03*
X0350880Y0480280D03*
X0353610Y0478720D03*
X0353580Y0478660D03*
X0353520Y0478570D03*
X0353490Y0478510D03*
X0353460Y0478450D03*
X0353400Y0478360D03*
X0353370Y0478300D03*
X0353340Y0478240D03*
X0353280Y0478150D03*
X0353250Y0478090D03*
X0353160Y0477940D03*
X0353130Y0477880D03*
X0353070Y0477790D03*
X0353040Y0477730D03*
X0353010Y0477670D03*
X0352950Y0477580D03*
X0352920Y0477520D03*
X0352830Y0477370D03*
X0352800Y0477310D03*
X0352740Y0477220D03*
X0352710Y0477160D03*
X0352680Y0477100D03*
X0352620Y0477010D03*
X0352590Y0476950D03*
X0352560Y0476890D03*
X0352500Y0476800D03*
X0352470Y0476740D03*
X0352380Y0476590D03*
X0352350Y0476530D03*
X0352290Y0476440D03*
X0352260Y0476380D03*
X0352230Y0476320D03*
X0352170Y0476230D03*
X0352140Y0476170D03*
X0352110Y0476110D03*
X0352050Y0476020D03*
X0352020Y0475960D03*
X0351930Y0475810D03*
X0351900Y0475750D03*
X0351840Y0475660D03*
X0351810Y0475600D03*
X0351780Y0475540D03*
X0351720Y0475450D03*
X0351690Y0475390D03*
X0351660Y0475330D03*
X0351600Y0475240D03*
X0351570Y0475180D03*
X0351480Y0475030D03*
X0351450Y0474970D03*
X0351390Y0474880D03*
X0351360Y0474820D03*
X0351330Y0474760D03*
X0351270Y0474670D03*
X0351240Y0474610D03*
X0351150Y0474460D03*
X0351120Y0474400D03*
X0351060Y0474310D03*
X0351030Y0474250D03*
X0351000Y0474190D03*
X0350940Y0474100D03*
X0350910Y0474040D03*
X0350880Y0473980D03*
X0350820Y0473890D03*
X0350790Y0473830D03*
X0350700Y0473680D03*
X0350670Y0473620D03*
X0350610Y0473530D03*
X0350580Y0473470D03*
X0350550Y0473410D03*
X0350490Y0473320D03*
X0350460Y0473260D03*
X0350430Y0473200D03*
X0350370Y0473110D03*
X0350340Y0473050D03*
X0350250Y0472900D03*
X0350220Y0472840D03*
X0350160Y0472750D03*
X0350130Y0472690D03*
X0350100Y0472630D03*
X0350040Y0472540D03*
X0350010Y0472480D03*
X0349920Y0472330D03*
X0349890Y0472270D03*
X0349800Y0472120D03*
X0349770Y0472060D03*
X0349710Y0471970D03*
X0349680Y0471910D03*
X0349650Y0471850D03*
X0353700Y0478870D03*
X0353730Y0478930D03*
X0353790Y0479020D03*
X0353820Y0479080D03*
X0353850Y0479140D03*
X0353910Y0479230D03*
X0353940Y0479290D03*
X0353970Y0479350D03*
X0354030Y0479440D03*
X0354060Y0479500D03*
X0354150Y0479650D03*
X0354180Y0479710D03*
X0354240Y0479800D03*
X0354270Y0479860D03*
X0354300Y0479920D03*
X0354360Y0480010D03*
X0354390Y0480070D03*
X0354480Y0480220D03*
X0354510Y0480280D03*
X0354600Y0480430D03*
X0354630Y0480490D03*
X0354690Y0480580D03*
X0354720Y0480640D03*
X0354750Y0480700D03*
X0354810Y0480790D03*
X0354840Y0480850D03*
X0354930Y0481000D03*
X0354960Y0481060D03*
X0355020Y0481150D03*
X0355050Y0481210D03*
X0355080Y0481270D03*
X0355140Y0481360D03*
X0355170Y0481420D03*
X0355200Y0481480D03*
X0355260Y0481570D03*
X0355290Y0481630D03*
X0355380Y0481780D03*
X0355410Y0481840D03*
X0355470Y0481930D03*
X0355500Y0481990D03*
X0355530Y0482050D03*
X0355590Y0482140D03*
X0355620Y0482200D03*
X0355650Y0482260D03*
X0355710Y0482350D03*
X0355740Y0482410D03*
X0355830Y0482560D03*
X0356070Y0482980D03*
X0356160Y0483130D03*
X0356190Y0483190D03*
X0356280Y0483340D03*
X0356310Y0483400D03*
X0356370Y0483490D03*
X0356400Y0483550D03*
X0356430Y0483610D03*
X0356490Y0483700D03*
X0356520Y0483760D03*
X0356610Y0483910D03*
X0356640Y0483970D03*
X0356700Y0484060D03*
X0356730Y0484120D03*
X0356760Y0484180D03*
X0356820Y0484270D03*
X0356850Y0484330D03*
X0356880Y0484390D03*
X0356940Y0484480D03*
X0356970Y0484540D03*
X0357060Y0484690D03*
X0357090Y0484750D03*
X0357150Y0484840D03*
X0357180Y0484900D03*
X0357210Y0484960D03*
X0357270Y0485050D03*
X0357300Y0485110D03*
X0357330Y0485170D03*
X0357390Y0485260D03*
X0357420Y0485320D03*
X0357510Y0485470D03*
X0357540Y0485530D03*
X0357600Y0485620D03*
X0357630Y0485680D03*
X0357660Y0485740D03*
X0357660Y0485770D03*
X0357630Y0485830D03*
X0357600Y0485890D03*
X0357540Y0485980D03*
X0357510Y0486040D03*
X0357420Y0486190D03*
X0357390Y0486250D03*
X0357330Y0486340D03*
X0357300Y0486400D03*
X0357270Y0486460D03*
X0357210Y0486550D03*
X0357180Y0486610D03*
X0357150Y0486670D03*
X0357090Y0486760D03*
X0357060Y0486820D03*
X0356970Y0486970D03*
X0356940Y0487030D03*
X0356880Y0487120D03*
X0356850Y0487180D03*
X0356820Y0487240D03*
X0356760Y0487330D03*
X0356730Y0487390D03*
X0356700Y0487450D03*
X0356640Y0487540D03*
X0356610Y0487600D03*
X0356520Y0487750D03*
X0356490Y0487810D03*
X0356430Y0487900D03*
X0356400Y0487960D03*
X0356370Y0488020D03*
X0356310Y0488110D03*
X0356280Y0488170D03*
X0356190Y0488320D03*
X0356160Y0488380D03*
X0356070Y0488530D03*
X0356040Y0488590D03*
X0355980Y0488680D03*
X0355950Y0488740D03*
X0355920Y0488800D03*
X0355860Y0488890D03*
X0355830Y0488950D03*
X0355740Y0489100D03*
X0355710Y0489160D03*
X0355650Y0489250D03*
X0355620Y0489310D03*
X0355590Y0489370D03*
X0355530Y0489460D03*
X0355500Y0489520D03*
X0355470Y0489580D03*
X0355410Y0489670D03*
X0355380Y0489730D03*
X0355290Y0489880D03*
X0355260Y0489940D03*
X0355200Y0490030D03*
X0355170Y0490090D03*
X0355140Y0490150D03*
X0355080Y0490240D03*
X0355050Y0490300D03*
X0355020Y0490360D03*
X0354960Y0490450D03*
X0354930Y0490510D03*
X0354840Y0490660D03*
X0354810Y0490720D03*
X0354750Y0490810D03*
X0354720Y0490870D03*
X0354690Y0490930D03*
X0354630Y0491020D03*
X0354600Y0491080D03*
X0354510Y0491230D03*
X0354480Y0491290D03*
X0354420Y0491380D03*
X0354390Y0491440D03*
X0354360Y0491500D03*
X0354300Y0491590D03*
X0354270Y0491650D03*
X0354240Y0491710D03*
X0354180Y0491800D03*
X0354150Y0491860D03*
X0354060Y0492010D03*
X0354030Y0492070D03*
X0353970Y0492160D03*
X0353940Y0492220D03*
X0353910Y0492280D03*
X0353850Y0492370D03*
X0353820Y0492430D03*
X0353790Y0492490D03*
X0353730Y0492580D03*
X0353700Y0492640D03*
X0353610Y0492790D03*
X0353580Y0492850D03*
X0353520Y0492940D03*
X0353490Y0493000D03*
X0353460Y0493060D03*
X0353400Y0493150D03*
X0353370Y0493210D03*
X0353340Y0493270D03*
X0353280Y0493360D03*
X0353250Y0493420D03*
X0353160Y0493570D03*
X0353130Y0493630D03*
X0353070Y0493720D03*
X0353040Y0493780D03*
X0353010Y0493840D03*
X0352950Y0493930D03*
X0352920Y0493990D03*
X0352830Y0494140D03*
X0352800Y0494200D03*
X0352740Y0494290D03*
X0352710Y0494350D03*
X0352680Y0494410D03*
X0352620Y0494500D03*
X0352590Y0494560D03*
X0352560Y0494620D03*
X0352500Y0494710D03*
X0352470Y0494770D03*
X0352380Y0494920D03*
X0352350Y0494980D03*
X0352290Y0495070D03*
X0352260Y0495130D03*
X0352230Y0495190D03*
X0352170Y0495280D03*
X0352140Y0495340D03*
X0352110Y0495400D03*
X0352050Y0495490D03*
X0352020Y0495550D03*
X0351930Y0495700D03*
X0351900Y0495760D03*
X0351840Y0495850D03*
X0351810Y0495910D03*
X0351780Y0495970D03*
X0351720Y0496060D03*
X0351690Y0496120D03*
X0351660Y0496180D03*
X0351600Y0496270D03*
X0351570Y0496330D03*
X0351480Y0496480D03*
X0351450Y0496540D03*
X0351150Y0497050D03*
X0351120Y0497110D03*
X0351060Y0497200D03*
X0351030Y0497260D03*
X0351000Y0497320D03*
X0350940Y0497410D03*
X0350910Y0497470D03*
X0350880Y0497530D03*
X0350820Y0497620D03*
X0350790Y0497680D03*
X0350700Y0497830D03*
X0350670Y0497890D03*
X0350610Y0497980D03*
X0350580Y0498040D03*
X0350550Y0498100D03*
X0350490Y0498190D03*
X0350460Y0498250D03*
X0350430Y0498310D03*
X0350370Y0498400D03*
X0350340Y0498460D03*
X0350250Y0498610D03*
X0350220Y0498670D03*
X0350160Y0498760D03*
X0350130Y0498820D03*
X0350100Y0498880D03*
X0350040Y0498970D03*
X0350010Y0499030D03*
X0349920Y0499180D03*
X0349890Y0499240D03*
X0349800Y0499390D03*
X0349770Y0499450D03*
X0349710Y0499540D03*
X0349680Y0499600D03*
X0349650Y0499660D03*
X0349650Y0493360D03*
X0349680Y0493300D03*
X0349770Y0493150D03*
X0349800Y0493090D03*
X0349890Y0492940D03*
X0349980Y0492790D03*
X0350010Y0492730D03*
X0350100Y0492580D03*
X0350130Y0492520D03*
X0350220Y0492370D03*
X0350340Y0492160D03*
X0350430Y0492010D03*
X0350550Y0491800D03*
X0350880Y0491230D03*
X0348090Y0489760D03*
X0348120Y0489700D03*
X0348030Y0489850D03*
X0348000Y0489910D03*
X0347970Y0489970D03*
X0347910Y0490060D03*
X0347880Y0490120D03*
X0347790Y0490270D03*
X0347760Y0490330D03*
X0347670Y0490480D03*
X0347640Y0490540D03*
X0347580Y0490630D03*
X0347550Y0490690D03*
X0347520Y0490750D03*
X0347460Y0490840D03*
X0347430Y0490900D03*
X0347340Y0491050D03*
X0347310Y0491110D03*
X0347250Y0491200D03*
X0347220Y0491260D03*
X0347190Y0491320D03*
X0347130Y0491410D03*
X0347100Y0491470D03*
X0347070Y0491530D03*
X0347010Y0491620D03*
X0346980Y0491680D03*
X0346890Y0491830D03*
X0346860Y0491890D03*
X0346800Y0491980D03*
X0346770Y0492040D03*
X0346740Y0492100D03*
X0346680Y0492190D03*
X0346650Y0492250D03*
X0346620Y0492310D03*
X0346560Y0492400D03*
X0346530Y0492460D03*
X0346440Y0492610D03*
X0346410Y0492670D03*
X0346350Y0492760D03*
X0346320Y0492820D03*
X0346290Y0492880D03*
X0346230Y0492970D03*
X0346200Y0493030D03*
X0346110Y0493180D03*
X0346080Y0493240D03*
X0346020Y0493330D03*
X0345990Y0493390D03*
X0348210Y0489550D03*
X0348240Y0489490D03*
X0348300Y0489400D03*
X0348330Y0489340D03*
X0348360Y0489280D03*
X0348420Y0489190D03*
X0348450Y0489130D03*
X0348480Y0489070D03*
X0348540Y0488980D03*
X0348570Y0488920D03*
X0348660Y0488770D03*
X0348690Y0488710D03*
X0348750Y0488620D03*
X0348780Y0488560D03*
X0348810Y0488500D03*
X0348870Y0488410D03*
X0348900Y0488350D03*
X0348930Y0488290D03*
X0348990Y0488200D03*
X0349020Y0488140D03*
X0349110Y0487990D03*
X0349140Y0487930D03*
X0349200Y0487840D03*
X0349230Y0487780D03*
X0349260Y0487720D03*
X0349320Y0487630D03*
X0349350Y0487570D03*
X0349440Y0487420D03*
X0349470Y0487360D03*
X0349560Y0487210D03*
X0349590Y0487150D03*
X0349650Y0487060D03*
X0349680Y0487000D03*
X0349710Y0486940D03*
X0349770Y0486850D03*
X0349800Y0486790D03*
X0349890Y0486640D03*
X0349920Y0486580D03*
X0349980Y0486490D03*
X0350010Y0486430D03*
X0350040Y0486370D03*
X0350100Y0486280D03*
X0350130Y0486220D03*
X0350160Y0486160D03*
X0350220Y0486070D03*
X0350250Y0486010D03*
X0350340Y0485860D03*
X0350370Y0485800D03*
D22*
X0355365Y0483490D03*
X0346065Y0471910D03*
X0336525Y0499390D03*
D23*
X0336645Y0499600D03*
X0327345Y0488020D03*
X0346185Y0472120D03*
D24*
X0336210Y0474610D03*
X0346500Y0496900D03*
D25*
X0343170Y0493720D03*
X0337710Y0474640D03*
D26*
X0337725Y0474670D03*
X0344985Y0496840D03*
D27*
X0344985Y0496810D03*
X0337725Y0474700D03*
D28*
X0337710Y0474730D03*
X0343170Y0493630D03*
X0345000Y0496780D03*
D29*
X0339525Y0477910D03*
X0337725Y0474760D03*
D30*
X0337710Y0474790D03*
X0339540Y0477940D03*
X0343170Y0493570D03*
X0345000Y0496720D03*
D31*
X0344985Y0496690D03*
X0343185Y0493540D03*
X0339525Y0477970D03*
X0337725Y0474820D03*
D32*
X0337710Y0474850D03*
X0339540Y0478000D03*
X0343170Y0493510D03*
X0345000Y0496660D03*
D33*
X0344985Y0496630D03*
X0337725Y0474880D03*
D34*
X0337725Y0474910D03*
X0344985Y0496600D03*
D35*
X0345000Y0496870D03*
X0339540Y0477790D03*
D36*
X0339540Y0477820D03*
X0339540Y0477850D03*
X0343170Y0493660D03*
X0343170Y0493690D03*
D37*
X0339540Y0477880D03*
D38*
X0339540Y0478030D03*
X0339540Y0478060D03*
D39*
X0332310Y0485830D03*
X0332310Y0485860D03*
X0326850Y0488830D03*
X0350400Y0485680D03*
X0350400Y0485650D03*
X0355860Y0482680D03*
D40*
X0355845Y0482710D03*
X0326865Y0488800D03*
D41*
X0326850Y0488770D03*
X0332310Y0485890D03*
X0350400Y0485620D03*
X0355860Y0482740D03*
D42*
X0355845Y0482770D03*
X0350385Y0485590D03*
X0332325Y0485920D03*
D43*
X0332310Y0485950D03*
X0355860Y0482800D03*
D44*
X0355845Y0482830D03*
X0326865Y0488680D03*
D45*
X0326850Y0488650D03*
X0332310Y0486010D03*
X0332310Y0485980D03*
X0350400Y0485530D03*
X0350400Y0485500D03*
X0355860Y0482860D03*
D46*
X0355860Y0482890D03*
X0350400Y0485440D03*
X0350400Y0485470D03*
X0332310Y0486040D03*
X0332310Y0486070D03*
X0326850Y0488620D03*
D47*
X0355845Y0482920D03*
D48*
X0355860Y0482950D03*
X0326850Y0488560D03*
D49*
X0326850Y0488710D03*
X0350400Y0485560D03*
D50*
X0326865Y0488590D03*
D51*
X0326865Y0488740D03*
D52*
X0343170Y0493450D03*
X0343170Y0493480D03*
D53*
X0343185Y0493600D03*
X0344985Y0496750D03*
D54*
X0352700Y0181500D02*
X0331900Y0181500D01*
D55*
X0312699Y0120806D02*
X0310315Y0121445D01*
X0309356Y0117868D01*
X0308183Y0118182D02*
X0308822Y0120567D01*
X0309835Y0119656D02*
X0311028Y0119337D01*
X0308183Y0118182D02*
X0306395Y0118661D01*
X0305958Y0119417D01*
X0306438Y0121206D01*
X0305424Y0122116D02*
X0302401Y0120370D01*
X0302241Y0119774D01*
X0300472Y0120248D02*
X0301430Y0123825D01*
X0299163Y0122516D01*
X0301547Y0121877D01*
X0303199Y0123351D02*
X0305584Y0122712D01*
X0305424Y0122116D01*
X0306055Y0111362D02*
X0307801Y0108339D01*
X0307364Y0109095D02*
X0309632Y0110404D01*
X0308993Y0108019D02*
X0305416Y0108978D01*
X0305102Y0107805D02*
X0305378Y0106453D01*
X0306251Y0104941D01*
X0306730Y0106729D01*
X0307486Y0107166D01*
X0308082Y0107006D01*
X0308519Y0106250D01*
X0308199Y0105058D01*
X0307444Y0104621D01*
X0306251Y0104941D01*
X0307127Y0103439D02*
X0307723Y0103279D01*
X0307563Y0102683D01*
X0306967Y0102842D01*
X0307127Y0103439D01*
X0306653Y0101669D02*
X0304268Y0102308D01*
X0303512Y0101872D01*
X0303193Y0100680D01*
X0303629Y0099924D01*
X0304225Y0099764D01*
X0304981Y0100200D01*
X0305460Y0101989D01*
X0306653Y0101669D02*
X0307089Y0100914D01*
X0306770Y0099721D01*
X0306014Y0099285D01*
X0306295Y0097952D02*
X0305657Y0095567D01*
X0305976Y0096760D02*
X0302399Y0097718D01*
X0303272Y0096206D01*
X0318701Y0107250D02*
X0321169Y0107250D01*
X0319935Y0107250D02*
X0319935Y0110953D01*
X0318701Y0109719D01*
X0322384Y0110336D02*
X0323001Y0110953D01*
X0324235Y0110953D01*
X0324852Y0110336D01*
X0322384Y0107867D01*
X0323001Y0107250D01*
X0324235Y0107250D01*
X0324852Y0107867D01*
X0324852Y0110336D01*
X0326067Y0110336D02*
X0326684Y0110953D01*
X0327918Y0110953D01*
X0328536Y0110336D01*
X0326067Y0107867D01*
X0326684Y0107250D01*
X0327918Y0107250D01*
X0328536Y0107867D01*
X0328536Y0110336D01*
X0326067Y0110336D02*
X0326067Y0107867D01*
X0322384Y0107867D02*
X0322384Y0110336D01*
X0353617Y0118102D02*
X0356086Y0118102D01*
X0357301Y0116867D02*
X0357301Y0116250D01*
X0357301Y0116867D02*
X0359769Y0119336D01*
X0359769Y0119953D01*
X0357301Y0119953D01*
X0355469Y0119953D02*
X0353617Y0118102D01*
X0355469Y0119953D02*
X0355469Y0116250D01*
X0360984Y0116867D02*
X0360984Y0118719D01*
X0360984Y0116867D02*
X0361601Y0116250D01*
X0363452Y0116250D01*
X0363452Y0118719D01*
X0364667Y0118102D02*
X0365901Y0118102D01*
X0364667Y0119953D02*
X0364667Y0116250D01*
X0364667Y0119953D02*
X0367136Y0119953D01*
X0366450Y0109736D02*
X0364598Y0107884D01*
X0365216Y0107267D02*
X0362747Y0109736D01*
X0362747Y0107267D02*
X0366450Y0107267D01*
X0365833Y0106052D02*
X0365216Y0106052D01*
X0364598Y0105435D01*
X0364598Y0103584D01*
X0365833Y0103584D01*
X0366450Y0104201D01*
X0366450Y0105435D01*
X0365833Y0106052D01*
X0364598Y0103584D02*
X0363364Y0104818D01*
X0362747Y0106052D01*
X0365833Y0102359D02*
X0366450Y0102359D01*
X0366450Y0101742D01*
X0365833Y0101742D01*
X0365833Y0102359D01*
X0365833Y0100528D02*
X0363364Y0100528D01*
X0362747Y0099911D01*
X0362747Y0098676D01*
X0363364Y0098059D01*
X0363981Y0098059D01*
X0364598Y0098676D01*
X0364598Y0100528D01*
X0365833Y0100528D02*
X0366450Y0099911D01*
X0366450Y0098676D01*
X0365833Y0098059D01*
X0366450Y0096845D02*
X0366450Y0094376D01*
X0366450Y0095610D02*
X0362747Y0095610D01*
X0363981Y0094376D01*
X0378167Y0109442D02*
X0380552Y0110081D01*
X0379360Y0109762D02*
X0378401Y0113339D01*
X0377528Y0111827D01*
X0380926Y0113376D02*
X0381363Y0114132D01*
X0382555Y0114452D01*
X0383311Y0114015D01*
X0381565Y0110992D01*
X0382321Y0110555D01*
X0383514Y0110875D01*
X0383950Y0111631D01*
X0383311Y0114015D01*
X0384484Y0114329D02*
X0384920Y0115085D01*
X0386113Y0115405D01*
X0386869Y0114968D01*
X0385123Y0111945D01*
X0385879Y0111508D01*
X0387071Y0111828D01*
X0387508Y0112584D01*
X0386869Y0114968D01*
X0384484Y0114329D02*
X0385123Y0111945D01*
X0381565Y0110992D02*
X0380926Y0113376D01*
X0403891Y0128014D02*
X0406276Y0128653D01*
X0407768Y0127775D02*
X0407928Y0127179D01*
X0407768Y0127775D02*
X0409514Y0130799D01*
X0409354Y0131395D01*
X0406970Y0130756D01*
X0405200Y0130282D02*
X0403891Y0128014D01*
X0406159Y0126705D02*
X0405200Y0130282D01*
X0410847Y0130517D02*
X0411326Y0128729D01*
X0412082Y0128292D01*
X0413870Y0128771D01*
X0413231Y0131156D01*
X0414564Y0130874D02*
X0415756Y0131194D01*
X0414085Y0132663D02*
X0415043Y0129086D01*
X0414085Y0132663D02*
X0416470Y0133302D01*
X0418486Y0124432D02*
X0419998Y0123559D01*
X0416421Y0122601D01*
X0416102Y0123793D02*
X0416741Y0121408D01*
X0417651Y0120395D02*
X0417215Y0119639D01*
X0417534Y0118447D01*
X0418290Y0118010D01*
X0420675Y0118649D01*
X0421111Y0119405D01*
X0420792Y0120598D01*
X0420036Y0121034D01*
X0419440Y0120874D01*
X0419003Y0120118D01*
X0419482Y0118330D01*
X0418604Y0116837D02*
X0418764Y0116241D01*
X0418168Y0116081D01*
X0418008Y0116678D01*
X0418604Y0116837D01*
X0419081Y0115059D02*
X0418645Y0114303D01*
X0418964Y0113110D01*
X0419720Y0112674D01*
X0420316Y0112834D01*
X0420753Y0113590D01*
X0420273Y0115378D01*
X0419081Y0115059D01*
X0420273Y0115378D02*
X0421785Y0114505D01*
X0422701Y0113473D01*
X0423015Y0112300D02*
X0419438Y0111341D01*
X0420630Y0111661D02*
X0423654Y0109915D01*
X0421386Y0111224D02*
X0420077Y0108956D01*
X0433700Y0126513D02*
X0435838Y0127748D01*
X0434769Y0127130D02*
X0432917Y0130337D01*
X0432466Y0128651D01*
X0435347Y0131027D02*
X0435573Y0131870D01*
X0436642Y0132488D01*
X0437485Y0132262D01*
X0436581Y0128889D01*
X0437424Y0128663D01*
X0438493Y0129281D01*
X0438719Y0130124D01*
X0437485Y0132262D01*
X0438536Y0132869D02*
X0438762Y0133712D01*
X0439831Y0134329D01*
X0440674Y0134103D01*
X0439771Y0130731D01*
X0440614Y0130505D01*
X0441683Y0131122D01*
X0441909Y0131965D01*
X0440674Y0134103D01*
X0438536Y0132869D02*
X0439771Y0130731D01*
X0436581Y0128889D02*
X0435347Y0131027D01*
X0436863Y0149746D02*
X0435011Y0152953D01*
X0434333Y0150424D01*
X0436471Y0151659D01*
X0438140Y0151197D02*
X0438449Y0150662D01*
X0438140Y0151197D02*
X0439044Y0154569D01*
X0438735Y0155104D01*
X0436597Y0153869D01*
X0440404Y0154642D02*
X0441330Y0153038D01*
X0442173Y0152812D01*
X0443777Y0153738D01*
X0442542Y0155876D01*
X0443902Y0155949D02*
X0444972Y0156566D01*
X0444828Y0154345D02*
X0442977Y0157552D01*
X0445115Y0158787D01*
X0465708Y0147859D02*
X0466942Y0145721D01*
X0466325Y0146790D02*
X0469532Y0148642D01*
X0467846Y0149094D01*
X0469687Y0145904D02*
X0469461Y0145061D01*
X0470387Y0143457D01*
X0469318Y0142840D02*
X0471456Y0144074D01*
X0471682Y0144918D01*
X0471065Y0145987D01*
X0470222Y0146212D01*
X0469687Y0145904D01*
X0468084Y0144978D02*
X0467858Y0144135D01*
X0468475Y0143066D01*
X0469318Y0142840D01*
X0469925Y0141788D02*
X0470234Y0141254D01*
X0469700Y0140945D01*
X0469391Y0141480D01*
X0469925Y0141788D01*
X0470846Y0140194D02*
X0470620Y0139350D01*
X0471237Y0138281D01*
X0472081Y0138055D01*
X0472615Y0138364D01*
X0472841Y0139207D01*
X0471915Y0140811D01*
X0470846Y0140194D01*
X0471915Y0140811D02*
X0473601Y0140359D01*
X0474753Y0139598D01*
X0475360Y0138547D02*
X0472153Y0136695D01*
X0473222Y0137312D02*
X0476595Y0136409D01*
X0474065Y0137087D02*
X0473388Y0134557D01*
X0478362Y0154681D02*
X0480107Y0156427D01*
X0479235Y0155554D02*
X0476616Y0158172D01*
X0476616Y0156427D01*
X0478784Y0159467D02*
X0480530Y0157722D01*
X0480530Y0161213D01*
X0482275Y0159467D01*
X0482275Y0158595D01*
X0481403Y0157722D01*
X0480530Y0157722D01*
X0478784Y0159467D02*
X0478784Y0160340D01*
X0479657Y0161213D01*
X0480530Y0161213D01*
X0481388Y0162072D02*
X0481388Y0162945D01*
X0482261Y0163817D01*
X0483134Y0163817D01*
X0483134Y0160326D01*
X0484007Y0160326D01*
X0484880Y0161199D01*
X0484880Y0162072D01*
X0483134Y0163817D01*
X0481388Y0162072D02*
X0483134Y0160326D01*
X0476967Y0178607D02*
X0474348Y0181226D01*
X0474348Y0178607D01*
X0476094Y0180353D01*
X0477825Y0180339D02*
X0478262Y0179902D01*
X0477825Y0180339D02*
X0477825Y0183830D01*
X0477389Y0184266D01*
X0475643Y0182521D01*
X0479120Y0184252D02*
X0480430Y0182943D01*
X0481302Y0182943D01*
X0482612Y0184252D01*
X0480866Y0185998D01*
X0482161Y0186420D02*
X0483034Y0187293D01*
X0483470Y0185111D02*
X0480852Y0187730D01*
X0482598Y0189475D01*
X0505802Y0185946D02*
X0507547Y0184201D01*
X0506675Y0185074D02*
X0509293Y0187692D01*
X0507547Y0187692D01*
X0510152Y0185088D02*
X0510152Y0184215D01*
X0511461Y0182906D01*
X0512334Y0183778D02*
X0512334Y0184651D01*
X0511461Y0185524D01*
X0510588Y0185524D01*
X0510152Y0185088D01*
X0508843Y0183778D02*
X0508843Y0182906D01*
X0509715Y0182033D01*
X0510588Y0182033D01*
X0512334Y0183778D01*
X0511447Y0181174D02*
X0511883Y0180738D01*
X0511447Y0180301D01*
X0511010Y0180738D01*
X0511447Y0181174D01*
X0512749Y0179872D02*
X0512749Y0178999D01*
X0513622Y0178126D01*
X0514495Y0178126D01*
X0514931Y0178563D01*
X0514931Y0179435D01*
X0513622Y0180745D01*
X0512749Y0179872D01*
X0513622Y0180745D02*
X0515368Y0180745D01*
X0516677Y0180308D01*
X0517536Y0179450D02*
X0514917Y0176831D01*
X0515790Y0177704D02*
X0519281Y0177704D01*
X0516663Y0177704D02*
X0516663Y0175085D01*
X0519087Y0198650D02*
X0520322Y0200788D01*
X0519705Y0199719D02*
X0516498Y0201570D01*
X0516949Y0199884D01*
X0518256Y0203383D02*
X0518030Y0204226D01*
X0518648Y0205295D01*
X0519491Y0205521D01*
X0520394Y0202148D01*
X0521238Y0202374D01*
X0521855Y0203443D01*
X0521629Y0204286D01*
X0519491Y0205521D01*
X0520098Y0206572D02*
X0519872Y0207415D01*
X0520489Y0208484D01*
X0521332Y0208710D01*
X0522236Y0205338D01*
X0523079Y0205564D01*
X0523696Y0206633D01*
X0523470Y0207476D01*
X0521332Y0208710D01*
X0520098Y0206572D02*
X0522236Y0205338D01*
X0520394Y0202148D02*
X0518256Y0203383D01*
X0541770Y0230175D02*
X0542305Y0229866D01*
X0542613Y0230401D01*
X0542079Y0230709D01*
X0541770Y0230175D01*
X0541027Y0231316D02*
X0542261Y0233454D01*
X0542036Y0234297D01*
X0540967Y0234915D01*
X0540123Y0234689D01*
X0539815Y0234154D01*
X0540041Y0233311D01*
X0541644Y0232385D01*
X0541027Y0231316D02*
X0540184Y0231090D01*
X0539115Y0231708D01*
X0538889Y0232551D01*
X0537529Y0232623D02*
X0535391Y0233858D01*
X0536460Y0233241D02*
X0538311Y0236448D01*
X0536625Y0235996D01*
X0530821Y0239878D02*
X0527614Y0241730D01*
X0528849Y0243868D01*
X0529835Y0241873D02*
X0529218Y0240804D01*
X0528076Y0240061D02*
X0530214Y0238827D01*
X0529288Y0237223D01*
X0528445Y0236997D01*
X0526842Y0237923D01*
X0525700Y0237180D02*
X0526604Y0233807D01*
X0527138Y0233499D01*
X0526223Y0231913D02*
X0523015Y0233764D01*
X0523693Y0231235D01*
X0524928Y0233373D01*
X0523931Y0235350D02*
X0525166Y0237488D01*
X0525700Y0237180D01*
X0543674Y0229788D02*
X0543900Y0228945D01*
X0544969Y0228328D01*
X0545812Y0228554D01*
X0546120Y0229088D01*
X0545894Y0229932D01*
X0544291Y0230857D01*
X0543674Y0229788D01*
X0544291Y0230857D02*
X0545977Y0231309D01*
X0547355Y0231226D01*
X0548406Y0230619D02*
X0546555Y0227412D01*
X0547172Y0228481D02*
X0550544Y0229385D01*
X0548015Y0228707D02*
X0548693Y0226178D01*
X0546086Y0249004D02*
X0546725Y0251389D01*
X0546406Y0250196D02*
X0542829Y0251155D01*
X0543702Y0249643D01*
X0544059Y0253360D02*
X0543622Y0254116D01*
X0543942Y0255308D01*
X0544698Y0255745D01*
X0546444Y0252721D01*
X0547199Y0253158D01*
X0547519Y0254350D01*
X0547082Y0255106D01*
X0544698Y0255745D01*
X0545012Y0256918D02*
X0544576Y0257674D01*
X0544895Y0258866D01*
X0545651Y0259303D01*
X0547397Y0256279D01*
X0548153Y0256715D01*
X0548472Y0257908D01*
X0548036Y0258664D01*
X0545651Y0259303D01*
X0545012Y0256918D02*
X0547397Y0256279D01*
X0546444Y0252721D02*
X0544059Y0253360D01*
X0540784Y0279463D02*
X0539475Y0281730D01*
X0543052Y0280772D01*
X0543526Y0282541D02*
X0542930Y0282701D01*
X0541184Y0285724D01*
X0540588Y0285884D01*
X0539949Y0283499D01*
X0541423Y0281847D02*
X0540784Y0279463D01*
X0542094Y0286738D02*
X0543883Y0286258D01*
X0544639Y0286695D01*
X0545118Y0288483D01*
X0542733Y0289122D01*
X0543644Y0290135D02*
X0543963Y0291328D01*
X0542494Y0292999D02*
X0541855Y0290615D01*
X0545432Y0289656D01*
X0552594Y0288979D02*
X0554106Y0289852D01*
X0553148Y0286275D01*
X0554340Y0285956D02*
X0551955Y0286595D01*
X0555673Y0286238D02*
X0556109Y0285482D01*
X0557301Y0285162D01*
X0558057Y0285599D01*
X0558696Y0287983D01*
X0558260Y0288739D01*
X0557068Y0289059D01*
X0556312Y0288622D01*
X0556152Y0288026D01*
X0556588Y0287270D01*
X0558377Y0286791D01*
X0559230Y0285284D02*
X0559827Y0285125D01*
X0559667Y0284528D01*
X0559071Y0284688D01*
X0559230Y0285284D01*
X0561009Y0284808D02*
X0561446Y0284052D01*
X0562638Y0283732D01*
X0563394Y0284169D01*
X0563554Y0284765D01*
X0563117Y0285521D01*
X0561329Y0286000D01*
X0561009Y0284808D01*
X0561329Y0286000D02*
X0562840Y0286873D01*
X0564193Y0287149D01*
X0565366Y0286835D02*
X0564407Y0283258D01*
X0564727Y0284451D02*
X0567750Y0286196D01*
X0565482Y0284887D02*
X0566792Y0282619D01*
X0557650Y0301401D02*
X0557650Y0303869D01*
X0557650Y0302635D02*
X0553947Y0302635D01*
X0555181Y0301401D01*
X0554564Y0305084D02*
X0553947Y0305701D01*
X0553947Y0306935D01*
X0554564Y0307552D01*
X0557033Y0305084D01*
X0557650Y0305701D01*
X0557650Y0306935D01*
X0557033Y0307552D01*
X0554564Y0307552D01*
X0554564Y0308767D02*
X0553947Y0309384D01*
X0553947Y0310618D01*
X0554564Y0311236D01*
X0557033Y0308767D01*
X0557650Y0309384D01*
X0557650Y0310618D01*
X0557033Y0311236D01*
X0554564Y0311236D01*
X0554564Y0308767D02*
X0557033Y0308767D01*
X0557033Y0305084D02*
X0554564Y0305084D01*
X0544798Y0333850D02*
X0544798Y0336319D01*
X0546033Y0337533D02*
X0546650Y0337533D01*
X0546033Y0337533D02*
X0543564Y0340002D01*
X0542947Y0340002D01*
X0542947Y0337533D01*
X0542947Y0335702D02*
X0544798Y0333850D01*
X0542947Y0335702D02*
X0546650Y0335702D01*
X0546033Y0341216D02*
X0546650Y0341833D01*
X0546650Y0343685D01*
X0544181Y0343685D01*
X0544798Y0344899D02*
X0544798Y0346134D01*
X0542947Y0347368D02*
X0542947Y0344899D01*
X0546650Y0344899D01*
X0546033Y0341216D02*
X0544181Y0341216D01*
X0554750Y0343050D02*
X0557219Y0343050D01*
X0555984Y0343050D02*
X0555984Y0346753D01*
X0554750Y0345519D01*
X0558433Y0345519D02*
X0559050Y0344902D01*
X0560902Y0344902D01*
X0560902Y0346136D02*
X0560285Y0346753D01*
X0559050Y0346753D01*
X0558433Y0346136D01*
X0558433Y0345519D01*
X0558433Y0343667D02*
X0559050Y0343050D01*
X0560285Y0343050D01*
X0560902Y0343667D01*
X0560902Y0346136D01*
X0562116Y0343667D02*
X0562733Y0343667D01*
X0562733Y0343050D01*
X0562116Y0343050D01*
X0562116Y0343667D01*
X0563958Y0343667D02*
X0564575Y0343050D01*
X0565809Y0343050D01*
X0566427Y0343667D01*
X0566427Y0344284D01*
X0565809Y0344902D01*
X0563958Y0344902D01*
X0563958Y0343667D01*
X0563958Y0344902D02*
X0565192Y0346136D01*
X0566427Y0346753D01*
X0567641Y0346753D02*
X0567641Y0343050D01*
X0567641Y0344284D02*
X0570110Y0346753D01*
X0568258Y0344902D02*
X0570110Y0343050D01*
X0556028Y0361392D02*
X0553004Y0363137D01*
X0552568Y0362381D01*
X0552888Y0361189D01*
X0553643Y0360753D01*
X0556028Y0361392D01*
X0556464Y0362148D01*
X0556145Y0363340D01*
X0555389Y0363776D01*
X0553004Y0363137D01*
X0552690Y0364310D02*
X0551934Y0364747D01*
X0551615Y0365939D01*
X0552051Y0366695D01*
X0555075Y0364949D01*
X0552690Y0364310D01*
X0555075Y0364949D02*
X0555511Y0365705D01*
X0555192Y0366898D01*
X0554436Y0367334D01*
X0552051Y0366695D01*
X0551141Y0367708D02*
X0550502Y0370093D01*
X0550821Y0368901D02*
X0554398Y0369859D01*
X0552886Y0370732D01*
X0536440Y0385954D02*
X0535801Y0388339D01*
X0532224Y0387381D01*
X0531910Y0388554D02*
X0534295Y0389193D01*
X0534013Y0387860D02*
X0534332Y0386668D01*
X0531910Y0388554D02*
X0531431Y0390342D01*
X0531867Y0391098D01*
X0533656Y0391577D01*
X0533938Y0392910D02*
X0530914Y0394656D01*
X0530318Y0394496D01*
X0529844Y0396265D02*
X0533421Y0397224D01*
X0531153Y0398533D01*
X0531792Y0396148D01*
X0533895Y0395454D02*
X0534534Y0393070D01*
X0533938Y0392910D01*
X0542407Y0397302D02*
X0544792Y0397941D01*
X0543599Y0397621D02*
X0542641Y0401198D01*
X0541768Y0399686D01*
X0545326Y0400640D02*
X0546082Y0400203D01*
X0547870Y0400682D01*
X0548190Y0399490D02*
X0547551Y0401875D01*
X0546795Y0402311D01*
X0545602Y0401992D01*
X0545166Y0401236D01*
X0545326Y0400640D01*
X0545805Y0398851D02*
X0546561Y0398415D01*
X0547753Y0398734D01*
X0548190Y0399490D01*
X0549363Y0399804D02*
X0549959Y0399964D01*
X0550118Y0399368D01*
X0549522Y0399208D01*
X0549363Y0399804D01*
X0551141Y0400281D02*
X0551897Y0399845D01*
X0553090Y0400164D01*
X0553526Y0400920D01*
X0553366Y0401516D01*
X0552610Y0401953D01*
X0550822Y0401473D01*
X0551141Y0400281D01*
X0550822Y0401473D02*
X0551695Y0402985D01*
X0552727Y0403901D01*
X0553900Y0404215D02*
X0554859Y0400638D01*
X0554539Y0401830D02*
X0556285Y0404854D01*
X0554976Y0402586D02*
X0557243Y0401277D01*
X0536998Y0415585D02*
X0533625Y0416488D01*
X0533400Y0415645D01*
X0534017Y0414576D01*
X0534860Y0414350D01*
X0536998Y0415585D01*
X0537224Y0416428D01*
X0536607Y0417497D01*
X0535763Y0417723D01*
X0533625Y0416488D01*
X0533018Y0417540D02*
X0535156Y0418774D01*
X0531784Y0419678D01*
X0531558Y0418835D01*
X0532175Y0417766D01*
X0533018Y0417540D01*
X0531784Y0419678D02*
X0533922Y0420912D01*
X0534765Y0420687D01*
X0535382Y0419618D01*
X0535156Y0418774D01*
X0530642Y0420421D02*
X0529408Y0422559D01*
X0530025Y0421490D02*
X0533232Y0423342D01*
X0531546Y0423794D01*
X0514225Y0434353D02*
X0512990Y0436491D01*
X0509783Y0434639D01*
X0509176Y0435691D02*
X0511314Y0436925D01*
X0511387Y0435565D02*
X0512004Y0434496D01*
X0509176Y0435691D02*
X0508250Y0437294D01*
X0508476Y0438137D01*
X0510080Y0439063D01*
X0510007Y0440423D02*
X0506635Y0441327D01*
X0506100Y0441019D01*
X0505185Y0442605D02*
X0508392Y0444456D01*
X0505862Y0445134D01*
X0507097Y0442996D01*
X0509307Y0442870D02*
X0510542Y0440732D01*
X0510007Y0440423D01*
X0513941Y0444708D02*
X0516079Y0445942D01*
X0515010Y0445325D02*
X0513158Y0448532D01*
X0512706Y0446846D01*
X0515896Y0448687D02*
X0516739Y0448461D01*
X0518343Y0449387D01*
X0518960Y0448318D02*
X0517726Y0450456D01*
X0516882Y0450682D01*
X0515813Y0450065D01*
X0515587Y0449222D01*
X0515896Y0448687D01*
X0516822Y0447084D02*
X0517665Y0446858D01*
X0518734Y0447475D01*
X0518960Y0448318D01*
X0520012Y0448925D02*
X0520546Y0449234D01*
X0520855Y0448700D01*
X0520320Y0448391D01*
X0520012Y0448925D01*
X0521606Y0449846D02*
X0522450Y0449620D01*
X0523519Y0450237D01*
X0523744Y0451081D01*
X0523436Y0451615D01*
X0522593Y0451841D01*
X0520989Y0450915D01*
X0521606Y0449846D01*
X0520989Y0450915D02*
X0521441Y0452601D01*
X0522201Y0453753D01*
X0523253Y0454360D02*
X0525105Y0451153D01*
X0524488Y0452222D02*
X0525391Y0455595D01*
X0524713Y0453065D02*
X0527243Y0452388D01*
X0508338Y0459574D02*
X0504847Y0459574D01*
X0504847Y0458701D01*
X0505720Y0457828D01*
X0506593Y0457828D01*
X0508338Y0459574D01*
X0508338Y0460447D01*
X0507465Y0461320D01*
X0506593Y0461320D01*
X0504847Y0459574D01*
X0503988Y0460433D02*
X0503115Y0460433D01*
X0502243Y0461306D01*
X0502243Y0462178D01*
X0505734Y0462178D01*
X0503988Y0460433D01*
X0502243Y0462178D02*
X0503988Y0463924D01*
X0504861Y0463924D01*
X0505734Y0463051D01*
X0505734Y0462178D01*
X0500947Y0462601D02*
X0499202Y0464346D01*
X0500075Y0463474D02*
X0502693Y0466092D01*
X0500947Y0466092D01*
X0478558Y0476806D02*
X0476812Y0478552D01*
X0474194Y0475933D01*
X0473335Y0476792D02*
X0475080Y0478538D01*
X0475503Y0477243D02*
X0476376Y0476370D01*
X0473335Y0476792D02*
X0472026Y0478101D01*
X0472026Y0478974D01*
X0473335Y0480283D01*
X0472913Y0481578D02*
X0469421Y0481578D01*
X0468985Y0481142D01*
X0467690Y0482437D02*
X0470308Y0485056D01*
X0467690Y0485056D01*
X0469435Y0483310D01*
X0471603Y0483761D02*
X0473349Y0482015D01*
X0472913Y0481578D01*
X0476654Y0487402D02*
X0478399Y0489147D01*
X0477526Y0488275D02*
X0474908Y0490893D01*
X0474908Y0489147D01*
X0477512Y0491752D02*
X0478385Y0491752D01*
X0479694Y0493061D01*
X0478821Y0493934D02*
X0477949Y0493934D01*
X0477076Y0493061D01*
X0477076Y0492188D01*
X0477512Y0491752D01*
X0478821Y0490443D02*
X0479694Y0490443D01*
X0480567Y0491315D01*
X0480567Y0492188D01*
X0478821Y0493934D01*
X0481426Y0493047D02*
X0481862Y0493483D01*
X0482299Y0493047D01*
X0481862Y0492610D01*
X0481426Y0493047D01*
X0482728Y0494349D02*
X0483601Y0494349D01*
X0484474Y0495222D01*
X0484474Y0496095D01*
X0484037Y0496531D01*
X0483164Y0496531D01*
X0481855Y0495222D01*
X0482728Y0494349D01*
X0481855Y0495222D02*
X0481855Y0496968D01*
X0482292Y0498277D01*
X0483150Y0499136D02*
X0485769Y0496517D01*
X0484896Y0497390D02*
X0484896Y0500881D01*
X0484896Y0498263D02*
X0487515Y0498263D01*
X0463751Y0501713D02*
X0460379Y0500809D01*
X0460605Y0499966D01*
X0461674Y0499349D01*
X0462517Y0499575D01*
X0463751Y0501713D01*
X0463525Y0502556D01*
X0462456Y0503173D01*
X0461613Y0502947D01*
X0460379Y0500809D01*
X0459327Y0501416D02*
X0458484Y0501190D01*
X0457415Y0501808D01*
X0457189Y0502651D01*
X0460561Y0503554D01*
X0459327Y0501416D01*
X0457189Y0502651D02*
X0458423Y0504789D01*
X0459267Y0505015D01*
X0460336Y0504397D01*
X0460561Y0503554D01*
X0455829Y0502723D02*
X0453691Y0503958D01*
X0454760Y0503341D02*
X0456611Y0506548D01*
X0454925Y0506096D01*
X0434400Y0505857D02*
X0432262Y0507091D01*
X0430411Y0503884D01*
X0429359Y0504491D02*
X0430594Y0506629D01*
X0431337Y0505488D02*
X0432406Y0504870D01*
X0429359Y0504491D02*
X0427756Y0505417D01*
X0427530Y0506260D01*
X0428456Y0507864D01*
X0427712Y0509005D02*
X0424340Y0508102D01*
X0424031Y0507567D01*
X0422445Y0508483D02*
X0424297Y0511690D01*
X0421768Y0511012D01*
X0423906Y0509778D01*
X0425883Y0510774D02*
X0428021Y0509540D01*
X0427712Y0509005D01*
X0431242Y0517591D02*
X0432477Y0519729D01*
X0431859Y0518660D02*
X0428652Y0520511D01*
X0429104Y0518825D01*
X0430946Y0522015D02*
X0431789Y0522241D01*
X0432715Y0523844D01*
X0433784Y0523227D02*
X0431646Y0524461D01*
X0430803Y0524236D01*
X0430185Y0523167D01*
X0430411Y0522323D01*
X0430946Y0522015D01*
X0432549Y0521089D02*
X0433392Y0521315D01*
X0434010Y0522384D01*
X0433784Y0523227D01*
X0434391Y0524279D02*
X0434699Y0524813D01*
X0435234Y0524505D01*
X0434925Y0523970D01*
X0434391Y0524279D01*
X0435312Y0525874D02*
X0436155Y0526100D01*
X0436772Y0527169D01*
X0436546Y0528012D01*
X0436012Y0528320D01*
X0435168Y0528094D01*
X0434243Y0526491D01*
X0435312Y0525874D01*
X0434243Y0526491D02*
X0433791Y0528177D01*
X0433873Y0529555D01*
X0434481Y0530606D02*
X0437688Y0528755D01*
X0436619Y0529372D02*
X0435715Y0532744D01*
X0436393Y0530215D02*
X0438922Y0530893D01*
X0413954Y0526530D02*
X0410930Y0524784D01*
X0411367Y0524028D01*
X0412559Y0523709D01*
X0413315Y0524145D01*
X0413954Y0526530D01*
X0413518Y0527286D01*
X0412325Y0527605D01*
X0411569Y0527169D01*
X0410930Y0524784D01*
X0409757Y0525099D02*
X0410396Y0527483D01*
X0407373Y0525738D01*
X0407809Y0524982D01*
X0409001Y0524662D01*
X0409757Y0525099D01*
X0407373Y0525738D02*
X0408012Y0528122D01*
X0408768Y0528559D01*
X0409960Y0528239D01*
X0410396Y0527483D01*
X0406040Y0525456D02*
X0403655Y0526095D01*
X0404848Y0525775D02*
X0405806Y0529352D01*
X0404294Y0528479D01*
X0384534Y0523612D02*
X0382150Y0524251D01*
X0381191Y0520674D01*
X0380018Y0520988D02*
X0380657Y0523373D01*
X0381670Y0522463D02*
X0382863Y0522143D01*
X0380018Y0520988D02*
X0378230Y0521468D01*
X0377793Y0522224D01*
X0378272Y0524012D01*
X0377259Y0524923D02*
X0377419Y0525519D01*
X0375034Y0526158D01*
X0373265Y0526632D02*
X0370997Y0525322D01*
X0373382Y0524684D01*
X0374236Y0523177D02*
X0374076Y0522581D01*
X0374236Y0523177D02*
X0377259Y0524923D01*
X0373265Y0526632D02*
X0372307Y0523055D01*
X0374421Y0535194D02*
X0373548Y0536706D01*
X0377125Y0535748D01*
X0377444Y0536940D02*
X0376805Y0534555D01*
X0377162Y0538273D02*
X0377918Y0538709D01*
X0378238Y0539901D01*
X0377801Y0540657D01*
X0375417Y0541296D01*
X0374661Y0540860D01*
X0374341Y0539668D01*
X0374778Y0538912D01*
X0375374Y0538752D01*
X0376130Y0539188D01*
X0376609Y0540977D01*
X0378116Y0541830D02*
X0378275Y0542426D01*
X0378872Y0542267D01*
X0378712Y0541671D01*
X0378116Y0541830D01*
X0378592Y0543609D02*
X0379348Y0544046D01*
X0379668Y0545238D01*
X0379231Y0545994D01*
X0378635Y0546154D01*
X0377879Y0545717D01*
X0377400Y0543929D01*
X0378592Y0543609D01*
X0377400Y0543929D02*
X0376527Y0545440D01*
X0376250Y0546793D01*
X0376565Y0547965D02*
X0380142Y0547007D01*
X0378949Y0547327D02*
X0377204Y0550350D01*
X0378513Y0548082D02*
X0380781Y0549392D01*
X0358385Y0538536D02*
X0355916Y0536067D01*
X0356533Y0535450D01*
X0357768Y0535450D01*
X0358385Y0536067D01*
X0358385Y0538536D01*
X0357768Y0539153D01*
X0356533Y0539153D01*
X0355916Y0538536D01*
X0355916Y0536067D01*
X0354702Y0536067D02*
X0354085Y0535450D01*
X0352850Y0535450D01*
X0352233Y0536067D01*
X0354702Y0538536D01*
X0354702Y0536067D01*
X0352233Y0536067D02*
X0352233Y0538536D01*
X0352850Y0539153D01*
X0354085Y0539153D01*
X0354702Y0538536D01*
X0351019Y0535450D02*
X0348550Y0535450D01*
X0349784Y0535450D02*
X0349784Y0539153D01*
X0348550Y0537919D01*
X0329868Y0527653D02*
X0327399Y0527653D01*
X0327399Y0523950D01*
X0326185Y0523950D02*
X0326185Y0526419D01*
X0327399Y0525802D02*
X0328634Y0525802D01*
X0326185Y0523950D02*
X0324333Y0523950D01*
X0323716Y0524567D01*
X0323716Y0526419D01*
X0322502Y0527036D02*
X0320033Y0524567D01*
X0320033Y0523950D01*
X0318202Y0523950D02*
X0318202Y0527653D01*
X0316350Y0525802D01*
X0318819Y0525802D01*
X0320033Y0527653D02*
X0322502Y0527653D01*
X0322502Y0527036D01*
X0320950Y0535750D02*
X0320950Y0538219D01*
X0320950Y0536984D02*
X0317247Y0536984D01*
X0318481Y0535750D01*
X0318481Y0539433D02*
X0319098Y0540050D01*
X0319098Y0541902D01*
X0317864Y0541902D02*
X0320333Y0541902D01*
X0320950Y0541285D01*
X0320950Y0540050D01*
X0320333Y0539433D01*
X0318481Y0539433D02*
X0317864Y0539433D01*
X0317247Y0540050D01*
X0317247Y0541285D01*
X0317864Y0541902D01*
X0320333Y0543116D02*
X0320333Y0543733D01*
X0320950Y0543733D01*
X0320950Y0543116D01*
X0320333Y0543116D01*
X0320333Y0544958D02*
X0320950Y0545575D01*
X0320950Y0546809D01*
X0320333Y0547427D01*
X0319716Y0547427D01*
X0319098Y0546809D01*
X0319098Y0544958D01*
X0320333Y0544958D01*
X0319098Y0544958D02*
X0317864Y0546192D01*
X0317247Y0547427D01*
X0317247Y0548641D02*
X0320950Y0548641D01*
X0319716Y0548641D02*
X0317247Y0551110D01*
X0319098Y0549258D02*
X0320950Y0551110D01*
X0302008Y0534028D02*
X0300263Y0531004D01*
X0301018Y0530568D01*
X0302211Y0530888D01*
X0302647Y0531643D01*
X0302008Y0534028D01*
X0301252Y0534464D01*
X0300060Y0534145D01*
X0299624Y0533389D01*
X0300263Y0531004D01*
X0299090Y0530690D02*
X0298451Y0533075D01*
X0296705Y0530051D01*
X0297461Y0529615D01*
X0298653Y0529934D01*
X0299090Y0530690D01*
X0298451Y0533075D02*
X0297695Y0533511D01*
X0296502Y0533192D01*
X0296066Y0532436D01*
X0296705Y0530051D01*
X0295692Y0529141D02*
X0293307Y0528502D01*
X0294499Y0528821D02*
X0293541Y0532398D01*
X0292668Y0530886D01*
X0277445Y0517140D02*
X0275061Y0516501D01*
X0276019Y0512924D01*
X0274846Y0512610D02*
X0274207Y0514995D01*
X0275540Y0514713D02*
X0276732Y0515032D01*
X0274846Y0512610D02*
X0273058Y0512131D01*
X0272302Y0512567D01*
X0271823Y0514356D01*
X0270490Y0514638D02*
X0268744Y0511614D01*
X0268904Y0511018D01*
X0267135Y0510544D02*
X0266176Y0514121D01*
X0264867Y0511853D01*
X0267252Y0512492D01*
X0267946Y0514595D02*
X0270330Y0515234D01*
X0270490Y0514638D01*
X0267065Y0523191D02*
X0264041Y0524937D01*
X0264797Y0524500D02*
X0263488Y0522233D01*
X0262849Y0524617D02*
X0266426Y0525576D01*
X0266111Y0526749D02*
X0265196Y0527781D01*
X0263684Y0528654D01*
X0264163Y0526866D01*
X0263727Y0526110D01*
X0263130Y0525950D01*
X0262375Y0526386D01*
X0262055Y0527579D01*
X0262492Y0528335D01*
X0263684Y0528654D01*
X0262175Y0529517D02*
X0261578Y0529358D01*
X0261419Y0529954D01*
X0262015Y0530113D01*
X0262175Y0529517D01*
X0261701Y0531286D02*
X0264085Y0531925D01*
X0264522Y0532681D01*
X0264202Y0533874D01*
X0263446Y0534310D01*
X0262850Y0534150D01*
X0262414Y0533394D01*
X0262893Y0531606D01*
X0261701Y0531286D02*
X0260945Y0531723D01*
X0260625Y0532915D01*
X0261062Y0533671D01*
X0260151Y0534684D02*
X0259512Y0537069D01*
X0259832Y0535877D02*
X0263409Y0536835D01*
X0261897Y0537708D01*
X0248115Y0516598D02*
X0247212Y0513225D01*
X0248055Y0513000D01*
X0249124Y0513617D01*
X0249350Y0514460D01*
X0248115Y0516598D01*
X0247272Y0516824D01*
X0246203Y0516207D01*
X0245977Y0515363D01*
X0247212Y0513225D01*
X0246160Y0512618D02*
X0244926Y0514756D01*
X0244022Y0511384D01*
X0244865Y0511158D01*
X0245934Y0511775D01*
X0246160Y0512618D01*
X0244022Y0511384D02*
X0242787Y0513522D01*
X0243013Y0514365D01*
X0244082Y0514982D01*
X0244926Y0514756D01*
X0243279Y0510242D02*
X0241141Y0509008D01*
X0242210Y0509625D02*
X0240358Y0512832D01*
X0239906Y0511146D01*
X0229647Y0493825D02*
X0227509Y0492590D01*
X0229361Y0489383D01*
X0228309Y0488776D02*
X0227075Y0490914D01*
X0228435Y0490987D02*
X0229504Y0491604D01*
X0228309Y0488776D02*
X0226706Y0487850D01*
X0225863Y0488076D01*
X0224937Y0489680D01*
X0223576Y0489607D02*
X0222673Y0486235D01*
X0222981Y0485700D01*
X0221395Y0484785D02*
X0219544Y0487992D01*
X0218866Y0485462D01*
X0221004Y0486697D01*
X0221130Y0488907D02*
X0223268Y0490142D01*
X0223576Y0489607D01*
X0219938Y0495434D02*
X0216565Y0496338D01*
X0217408Y0496112D02*
X0216731Y0493583D01*
X0215496Y0495721D02*
X0218703Y0497572D01*
X0218096Y0498624D02*
X0216944Y0499384D01*
X0215258Y0499836D01*
X0216184Y0498233D01*
X0215958Y0497390D01*
X0215424Y0497081D01*
X0214581Y0497307D01*
X0213963Y0498376D01*
X0214189Y0499219D01*
X0215258Y0499836D01*
X0213577Y0500279D02*
X0213043Y0499971D01*
X0212734Y0500505D01*
X0213268Y0500814D01*
X0213577Y0500279D01*
X0212661Y0501865D02*
X0214799Y0503100D01*
X0215025Y0503943D01*
X0214408Y0505012D01*
X0213565Y0505238D01*
X0213030Y0504929D01*
X0212804Y0504086D01*
X0213730Y0502483D01*
X0212661Y0501865D02*
X0211818Y0502091D01*
X0211201Y0503160D01*
X0211427Y0504004D01*
X0210285Y0504747D02*
X0209051Y0506885D01*
X0209668Y0505816D02*
X0212875Y0507667D01*
X0211189Y0508119D01*
X0205326Y0489638D02*
X0205326Y0486147D01*
X0206199Y0486147D01*
X0207072Y0487020D01*
X0207072Y0487893D01*
X0205326Y0489638D01*
X0204453Y0489638D01*
X0203580Y0488765D01*
X0203580Y0487893D01*
X0205326Y0486147D01*
X0204467Y0485288D02*
X0204467Y0484415D01*
X0203594Y0483543D01*
X0202721Y0483543D01*
X0202721Y0487034D01*
X0204467Y0485288D01*
X0202721Y0483543D02*
X0200976Y0485288D01*
X0200976Y0486161D01*
X0201849Y0487034D01*
X0202721Y0487034D01*
X0202299Y0482247D02*
X0200554Y0480502D01*
X0201426Y0481375D02*
X0198808Y0483993D01*
X0198808Y0482247D01*
X0207294Y0465558D02*
X0205548Y0463812D01*
X0208167Y0461194D01*
X0207308Y0460335D02*
X0205562Y0462080D01*
X0206857Y0462503D02*
X0207730Y0463376D01*
X0207308Y0460335D02*
X0205999Y0459026D01*
X0205126Y0459026D01*
X0203817Y0460335D01*
X0202521Y0459913D02*
X0202085Y0460349D01*
X0200339Y0458603D01*
X0199044Y0457308D02*
X0199044Y0454690D01*
X0200790Y0456435D01*
X0202521Y0456421D02*
X0202958Y0455985D01*
X0202521Y0456421D02*
X0202521Y0459913D01*
X0199044Y0457308D02*
X0201663Y0454690D01*
X0177254Y0458002D02*
X0173763Y0458002D01*
X0174635Y0458002D02*
X0174635Y0455384D01*
X0172890Y0457129D02*
X0175508Y0459748D01*
X0174650Y0460607D02*
X0173340Y0461043D01*
X0171595Y0461043D01*
X0172904Y0459734D01*
X0172904Y0458861D01*
X0172467Y0458425D01*
X0171595Y0458425D01*
X0170722Y0459297D01*
X0170722Y0460170D01*
X0171595Y0461043D01*
X0169856Y0461036D02*
X0169420Y0460600D01*
X0168983Y0461036D01*
X0169420Y0461472D01*
X0169856Y0461036D01*
X0168561Y0462331D02*
X0170307Y0464077D01*
X0170307Y0464950D01*
X0169434Y0465823D01*
X0168561Y0465823D01*
X0168124Y0465386D01*
X0168124Y0464513D01*
X0169434Y0463204D01*
X0168561Y0462331D02*
X0167688Y0462331D01*
X0166815Y0463204D01*
X0166815Y0464077D01*
X0165520Y0464499D02*
X0163774Y0466245D01*
X0164647Y0465372D02*
X0167266Y0467990D01*
X0165520Y0467990D01*
X0162987Y0444551D02*
X0162144Y0444325D01*
X0161527Y0443256D01*
X0161753Y0442413D01*
X0163891Y0441179D01*
X0162987Y0444551D01*
X0165125Y0443317D01*
X0165351Y0442474D01*
X0164734Y0441405D01*
X0163891Y0441179D01*
X0163284Y0440127D02*
X0163510Y0439284D01*
X0162892Y0438215D01*
X0162049Y0437989D01*
X0161146Y0441361D01*
X0163284Y0440127D01*
X0162049Y0437989D02*
X0159911Y0439223D01*
X0159685Y0440067D01*
X0160303Y0441136D01*
X0161146Y0441361D01*
X0161977Y0436629D02*
X0160742Y0434491D01*
X0161359Y0435560D02*
X0158152Y0437411D01*
X0158604Y0435725D01*
X0158043Y0415400D02*
X0156809Y0413262D01*
X0160016Y0411411D01*
X0159409Y0410359D02*
X0157271Y0411594D01*
X0158412Y0412337D02*
X0159030Y0413406D01*
X0159409Y0410359D02*
X0158483Y0408756D01*
X0157640Y0408530D01*
X0156036Y0409456D01*
X0154895Y0408712D02*
X0155798Y0405340D01*
X0156333Y0405031D01*
X0155417Y0403445D02*
X0152210Y0405297D01*
X0152888Y0402768D01*
X0154122Y0404906D01*
X0153126Y0406883D02*
X0154360Y0409021D01*
X0154895Y0408712D01*
X0148619Y0411802D02*
X0145246Y0410898D01*
X0146090Y0411124D02*
X0146767Y0408595D01*
X0144629Y0409829D02*
X0146481Y0413036D01*
X0145429Y0413644D02*
X0144052Y0413726D01*
X0142365Y0413275D01*
X0143969Y0412349D01*
X0144195Y0411506D01*
X0143886Y0410971D01*
X0143043Y0410745D01*
X0141974Y0411362D01*
X0141748Y0412206D01*
X0142365Y0413275D01*
X0140688Y0412818D02*
X0140379Y0412283D01*
X0139845Y0412592D01*
X0140153Y0413126D01*
X0140688Y0412818D01*
X0139102Y0413734D02*
X0140336Y0415872D01*
X0140110Y0416715D01*
X0139041Y0417332D01*
X0138198Y0417106D01*
X0137889Y0416571D01*
X0138115Y0415728D01*
X0139719Y0414803D01*
X0139102Y0413734D02*
X0138259Y0413508D01*
X0137190Y0414125D01*
X0136964Y0414968D01*
X0135603Y0415041D02*
X0133465Y0416275D01*
X0134534Y0415658D02*
X0136386Y0418865D01*
X0134700Y0418413D01*
X0137470Y0393754D02*
X0139216Y0390730D01*
X0139972Y0391167D01*
X0140291Y0392359D01*
X0139855Y0393115D01*
X0137470Y0393754D01*
X0136714Y0393318D01*
X0136395Y0392125D01*
X0136831Y0391369D01*
X0139216Y0390730D01*
X0138901Y0389557D02*
X0139338Y0388801D01*
X0139018Y0387609D01*
X0138262Y0387173D01*
X0136517Y0390196D01*
X0138901Y0389557D01*
X0138262Y0387173D02*
X0135878Y0387812D01*
X0135441Y0388568D01*
X0135761Y0389760D01*
X0136517Y0390196D01*
X0138544Y0385840D02*
X0137905Y0383455D01*
X0138225Y0384648D02*
X0134648Y0385606D01*
X0135521Y0384094D01*
X0141388Y0364834D02*
X0140749Y0362450D01*
X0144326Y0361491D01*
X0144011Y0360318D02*
X0141627Y0360957D01*
X0142537Y0361970D02*
X0142857Y0363163D01*
X0144011Y0360318D02*
X0143532Y0358530D01*
X0142776Y0358093D01*
X0140988Y0358572D01*
X0140077Y0357559D02*
X0141823Y0354536D01*
X0142419Y0354376D01*
X0141945Y0352607D02*
X0138368Y0353565D01*
X0139677Y0351297D01*
X0140316Y0353682D01*
X0138842Y0355334D02*
X0139481Y0357719D01*
X0140077Y0357559D01*
X0132062Y0355845D02*
X0129039Y0354099D01*
X0129795Y0354536D02*
X0131104Y0352268D01*
X0128719Y0352907D02*
X0129678Y0356484D01*
X0128505Y0356798D02*
X0127153Y0356522D01*
X0125641Y0355649D01*
X0127429Y0355170D01*
X0127866Y0354414D01*
X0127706Y0353817D01*
X0126950Y0353381D01*
X0125758Y0353701D01*
X0125321Y0354456D01*
X0125641Y0355649D01*
X0124139Y0354773D02*
X0123979Y0354177D01*
X0123383Y0354337D01*
X0123542Y0354933D01*
X0124139Y0354773D01*
X0122369Y0355247D02*
X0123008Y0357632D01*
X0122572Y0358388D01*
X0121380Y0358707D01*
X0120624Y0358271D01*
X0120464Y0357675D01*
X0120900Y0356919D01*
X0122689Y0356440D01*
X0122369Y0355247D02*
X0121614Y0354811D01*
X0120421Y0355130D01*
X0119985Y0355886D01*
X0118652Y0355604D02*
X0116267Y0356243D01*
X0117460Y0355924D02*
X0118418Y0359501D01*
X0116906Y0358628D01*
X0125664Y0342385D02*
X0128133Y0339916D01*
X0128750Y0340533D01*
X0128750Y0341768D01*
X0128133Y0342385D01*
X0125664Y0342385D01*
X0125047Y0341768D01*
X0125047Y0340533D01*
X0125664Y0339916D01*
X0128133Y0339916D01*
X0128133Y0338702D02*
X0128750Y0338085D01*
X0128750Y0336850D01*
X0128133Y0336233D01*
X0125664Y0338702D01*
X0128133Y0338702D01*
X0128133Y0336233D02*
X0125664Y0336233D01*
X0125047Y0336850D01*
X0125047Y0338085D01*
X0125664Y0338702D01*
X0128750Y0335019D02*
X0128750Y0332550D01*
X0128750Y0333784D02*
X0125047Y0333784D01*
X0126281Y0332550D01*
X0136047Y0311668D02*
X0136047Y0309199D01*
X0139750Y0309199D01*
X0139750Y0307985D02*
X0137281Y0307985D01*
X0137898Y0309199D02*
X0137898Y0310434D01*
X0139750Y0307985D02*
X0139750Y0306133D01*
X0139133Y0305516D01*
X0137281Y0305516D01*
X0136664Y0304302D02*
X0139133Y0301833D01*
X0139750Y0301833D01*
X0139750Y0300002D02*
X0136047Y0300002D01*
X0137898Y0298150D01*
X0137898Y0300619D01*
X0136047Y0301833D02*
X0136047Y0304302D01*
X0136664Y0304302D01*
X0128136Y0302853D02*
X0125667Y0300384D01*
X0126284Y0301002D02*
X0128136Y0299150D01*
X0125667Y0299150D02*
X0125667Y0302853D01*
X0124452Y0302853D02*
X0123218Y0302236D01*
X0121984Y0301002D01*
X0123835Y0301002D01*
X0124452Y0300384D01*
X0124452Y0299767D01*
X0123835Y0299150D01*
X0122601Y0299150D01*
X0121984Y0299767D01*
X0121984Y0301002D01*
X0120759Y0299767D02*
X0120759Y0299150D01*
X0120142Y0299150D01*
X0120142Y0299767D01*
X0120759Y0299767D01*
X0118928Y0299767D02*
X0118928Y0302236D01*
X0118311Y0302853D01*
X0117076Y0302853D01*
X0116459Y0302236D01*
X0116459Y0301619D01*
X0117076Y0301002D01*
X0118928Y0301002D01*
X0118928Y0299767D02*
X0118311Y0299150D01*
X0117076Y0299150D01*
X0116459Y0299767D01*
X0115245Y0299150D02*
X0112776Y0299150D01*
X0114010Y0299150D02*
X0114010Y0302853D01*
X0112776Y0301619D01*
X0128442Y0283133D02*
X0129081Y0280748D01*
X0128762Y0281940D02*
X0132339Y0282899D01*
X0130827Y0283772D01*
X0132376Y0280374D02*
X0129992Y0279735D01*
X0133015Y0277989D01*
X0130631Y0277350D01*
X0129875Y0277786D01*
X0129555Y0278979D01*
X0129992Y0279735D01*
X0132376Y0280374D02*
X0133132Y0279937D01*
X0133452Y0278745D01*
X0133015Y0277989D01*
X0133329Y0276816D02*
X0134085Y0276380D01*
X0134405Y0275187D01*
X0133968Y0274431D01*
X0130945Y0276177D01*
X0130508Y0275421D01*
X0130828Y0274229D01*
X0131584Y0273792D01*
X0133968Y0274431D01*
X0133329Y0276816D02*
X0130945Y0276177D01*
X0147414Y0258409D02*
X0148053Y0256024D01*
X0147175Y0254532D02*
X0146579Y0254372D01*
X0147175Y0254532D02*
X0150199Y0252786D01*
X0150795Y0252946D01*
X0150156Y0255330D01*
X0149682Y0257100D02*
X0147414Y0258409D01*
X0146105Y0256141D02*
X0149682Y0257100D01*
X0149917Y0251453D02*
X0148129Y0250974D01*
X0147692Y0250218D01*
X0148171Y0248430D01*
X0150556Y0249069D01*
X0150274Y0247736D02*
X0150594Y0246543D01*
X0152063Y0248215D02*
X0152702Y0245830D01*
X0152063Y0248215D02*
X0148486Y0247257D01*
X0141867Y0244088D02*
X0139600Y0245397D01*
X0139163Y0244641D02*
X0140909Y0247665D01*
X0138524Y0247026D02*
X0139483Y0243449D01*
X0138150Y0243730D02*
X0137990Y0244327D01*
X0137234Y0244763D01*
X0135446Y0244284D01*
X0135765Y0243092D01*
X0136521Y0242655D01*
X0137714Y0242975D01*
X0138150Y0243730D01*
X0136319Y0245796D02*
X0135446Y0244284D01*
X0134583Y0242775D02*
X0134742Y0242178D01*
X0134146Y0242019D01*
X0133986Y0242615D01*
X0134583Y0242775D01*
X0132813Y0242301D02*
X0132175Y0244685D01*
X0131419Y0245122D01*
X0130226Y0244802D01*
X0129790Y0244046D01*
X0129950Y0243450D01*
X0130706Y0243014D01*
X0132494Y0243493D01*
X0132813Y0242301D02*
X0132377Y0241545D01*
X0131185Y0241225D01*
X0130429Y0241662D01*
X0129416Y0240751D02*
X0127031Y0240112D01*
X0128223Y0240432D02*
X0127265Y0244009D01*
X0126392Y0242497D01*
X0136319Y0245796D02*
X0137351Y0246711D01*
X0144713Y0231500D02*
X0145948Y0229362D01*
X0145330Y0230431D02*
X0148537Y0232283D01*
X0146851Y0232734D01*
X0149227Y0229853D02*
X0150070Y0229627D01*
X0150688Y0228558D01*
X0150462Y0227715D01*
X0147089Y0228619D01*
X0146863Y0227776D01*
X0147481Y0226707D01*
X0148324Y0226481D01*
X0150462Y0227715D01*
X0151069Y0226664D02*
X0151912Y0226438D01*
X0152529Y0225369D01*
X0152303Y0224526D01*
X0148931Y0225429D01*
X0148705Y0224586D01*
X0149322Y0223517D01*
X0150165Y0223291D01*
X0152303Y0224526D01*
X0151069Y0226664D02*
X0148931Y0225429D01*
X0147089Y0228619D02*
X0149227Y0229853D01*
X0170124Y0210667D02*
X0171359Y0208529D01*
X0170897Y0206860D02*
X0170362Y0206551D01*
X0170897Y0206860D02*
X0174269Y0205956D01*
X0174804Y0206265D01*
X0173569Y0208403D01*
X0172653Y0209989D02*
X0170124Y0210667D01*
X0172653Y0209989D02*
X0169446Y0208137D01*
X0172738Y0203670D02*
X0174342Y0204596D01*
X0172738Y0203670D02*
X0172512Y0202827D01*
X0173438Y0201223D01*
X0175576Y0202458D01*
X0175649Y0201097D02*
X0176266Y0200028D01*
X0174045Y0200172D02*
X0177252Y0202023D01*
X0178487Y0199885D01*
X0169717Y0195131D02*
X0167188Y0195808D01*
X0166962Y0194965D02*
X0167866Y0198338D01*
X0165728Y0197103D02*
X0167579Y0193896D01*
X0166219Y0193824D02*
X0165910Y0194358D01*
X0165067Y0194584D01*
X0163464Y0193658D01*
X0164081Y0192589D01*
X0164924Y0192363D01*
X0165993Y0192981D01*
X0166219Y0193824D01*
X0163916Y0195344D02*
X0163464Y0193658D01*
X0163021Y0191977D02*
X0163329Y0191443D01*
X0162795Y0191134D01*
X0162486Y0191668D01*
X0163021Y0191977D01*
X0161434Y0191061D02*
X0161209Y0190218D01*
X0160140Y0189601D01*
X0159296Y0189827D01*
X0158553Y0188685D02*
X0156415Y0187451D01*
X0157484Y0188068D02*
X0155633Y0191275D01*
X0155181Y0189589D01*
X0158371Y0191430D02*
X0159214Y0191204D01*
X0160817Y0192130D01*
X0161434Y0191061D02*
X0160200Y0193199D01*
X0159357Y0193425D01*
X0158288Y0192808D01*
X0158062Y0191965D01*
X0158371Y0191430D01*
X0163916Y0195344D02*
X0164676Y0196496D01*
X0174281Y0185338D02*
X0176027Y0183593D01*
X0175154Y0184465D02*
X0177772Y0187084D01*
X0176027Y0187084D01*
X0179067Y0184916D02*
X0179940Y0184916D01*
X0180813Y0184043D01*
X0180813Y0183170D01*
X0177322Y0183170D01*
X0177322Y0182297D01*
X0178195Y0181425D01*
X0179067Y0181425D01*
X0180813Y0183170D01*
X0181672Y0182312D02*
X0182545Y0182312D01*
X0183417Y0181439D01*
X0183417Y0180566D01*
X0179926Y0180566D01*
X0179926Y0179693D01*
X0180799Y0178820D01*
X0181672Y0178820D01*
X0183417Y0180566D01*
X0181672Y0182312D02*
X0179926Y0180566D01*
X0177322Y0183170D02*
X0179067Y0184916D01*
X0205307Y0171452D02*
X0207053Y0169706D01*
X0207039Y0167975D02*
X0206602Y0167538D01*
X0207039Y0167975D02*
X0210530Y0167975D01*
X0210966Y0168411D01*
X0209221Y0170157D01*
X0207926Y0171452D02*
X0205307Y0171452D01*
X0205307Y0168833D02*
X0207926Y0171452D01*
X0210952Y0166680D02*
X0209643Y0165370D01*
X0209643Y0164497D01*
X0210952Y0163188D01*
X0212698Y0164934D01*
X0213120Y0163639D02*
X0213993Y0162766D01*
X0211811Y0162329D02*
X0214430Y0164948D01*
X0216175Y0163202D01*
X0206816Y0154935D02*
X0204198Y0154935D01*
X0204198Y0154063D02*
X0204198Y0157554D01*
X0202452Y0155808D02*
X0205070Y0153190D01*
X0203775Y0152767D02*
X0203339Y0153204D01*
X0202466Y0153204D01*
X0201157Y0151895D01*
X0202030Y0151022D01*
X0202903Y0151022D01*
X0203775Y0151895D01*
X0203775Y0152767D01*
X0201157Y0153640D02*
X0201157Y0151895D01*
X0201164Y0150156D02*
X0201600Y0149720D01*
X0201164Y0149283D01*
X0200727Y0149720D01*
X0201164Y0150156D01*
X0199869Y0148861D02*
X0198123Y0150607D01*
X0197250Y0150607D01*
X0196377Y0149734D01*
X0196377Y0148861D01*
X0196814Y0148424D01*
X0197687Y0148424D01*
X0198996Y0149734D01*
X0199869Y0148861D02*
X0199869Y0147988D01*
X0198996Y0147115D01*
X0198123Y0147115D01*
X0197701Y0145820D02*
X0195955Y0144074D01*
X0196828Y0144947D02*
X0194209Y0147566D01*
X0194209Y0145820D01*
X0201157Y0153640D02*
X0201593Y0154950D01*
X0217650Y0144313D02*
X0219788Y0143078D01*
X0218719Y0143695D02*
X0220570Y0146902D01*
X0218884Y0146451D01*
X0222383Y0145144D02*
X0221148Y0143006D01*
X0224521Y0143909D01*
X0223286Y0141771D01*
X0222443Y0141545D01*
X0221374Y0142162D01*
X0221148Y0143006D01*
X0222383Y0145144D02*
X0223226Y0145369D01*
X0224295Y0144752D01*
X0224521Y0143909D01*
X0225572Y0143302D02*
X0226415Y0143528D01*
X0227484Y0142911D01*
X0227710Y0142068D01*
X0224338Y0141164D01*
X0224564Y0140321D01*
X0225633Y0139704D01*
X0226476Y0139930D01*
X0227710Y0142068D01*
X0225572Y0143302D02*
X0224338Y0141164D01*
X0238413Y0154577D02*
X0240264Y0157784D01*
X0237735Y0157107D01*
X0239873Y0155872D01*
X0240307Y0154196D02*
X0239999Y0153662D01*
X0240307Y0154196D02*
X0243680Y0155100D01*
X0243988Y0155634D01*
X0241850Y0156869D01*
X0244423Y0153958D02*
X0243497Y0152355D01*
X0243723Y0151511D01*
X0245327Y0150586D01*
X0246561Y0152724D01*
X0247304Y0151582D02*
X0248373Y0150965D01*
X0248230Y0153186D02*
X0250368Y0151951D01*
X0248230Y0153186D02*
X0246378Y0149979D01*
X0252598Y0127619D02*
X0253501Y0124246D01*
X0253276Y0125090D02*
X0255805Y0125767D01*
X0254570Y0123629D02*
X0251363Y0125481D01*
X0250756Y0124429D02*
X0250674Y0123052D01*
X0251125Y0121365D01*
X0252051Y0122969D01*
X0252894Y0123195D01*
X0253429Y0122886D01*
X0253655Y0122043D01*
X0253038Y0120974D01*
X0252194Y0120748D01*
X0251125Y0121365D01*
X0251582Y0119688D02*
X0252117Y0119379D01*
X0251808Y0118845D01*
X0251274Y0119153D01*
X0251582Y0119688D01*
X0250666Y0118102D02*
X0248528Y0119336D01*
X0247685Y0119110D01*
X0247068Y0118041D01*
X0247294Y0117198D01*
X0247829Y0116889D01*
X0248672Y0117115D01*
X0249597Y0118719D01*
X0250666Y0118102D02*
X0250892Y0117259D01*
X0250275Y0116190D01*
X0249432Y0115964D01*
X0249359Y0114603D02*
X0248125Y0112465D01*
X0248742Y0113534D02*
X0245535Y0115386D01*
X0245987Y0113700D01*
X0268104Y0119014D02*
X0270489Y0118375D01*
X0269296Y0118694D02*
X0270255Y0122271D01*
X0268743Y0121398D01*
X0272460Y0121041D02*
X0273216Y0121478D01*
X0274408Y0121158D01*
X0274845Y0120402D01*
X0271821Y0118656D01*
X0272258Y0117901D01*
X0273450Y0117581D01*
X0274206Y0118017D01*
X0274845Y0120402D01*
X0276018Y0120088D02*
X0276774Y0120524D01*
X0277966Y0120205D01*
X0278403Y0119449D01*
X0275379Y0117703D01*
X0275815Y0116947D01*
X0277008Y0116628D01*
X0277764Y0117064D01*
X0278403Y0119449D01*
X0276018Y0120088D02*
X0275379Y0117703D01*
X0271821Y0118656D02*
X0272460Y0121041D01*
D56*
X0277100Y0153100D02*
X0277100Y0173100D01*
X0407100Y0173100D01*
X0407100Y0153100D01*
X0277100Y0153100D01*
D57*
X0370163Y0481152D02*
X0406777Y0481152D01*
X0406777Y0498868D01*
X0370163Y0498868D01*
X0370163Y0481152D01*
D58*
X0394174Y0490010D02*
X0394176Y0490142D01*
X0394182Y0490273D01*
X0394192Y0490404D01*
X0394206Y0490535D01*
X0394224Y0490665D01*
X0394246Y0490795D01*
X0394271Y0490924D01*
X0394301Y0491052D01*
X0394335Y0491180D01*
X0394372Y0491306D01*
X0394413Y0491431D01*
X0394458Y0491554D01*
X0394507Y0491677D01*
X0394560Y0491797D01*
X0394616Y0491916D01*
X0394675Y0492034D01*
X0394738Y0492149D01*
X0394805Y0492262D01*
X0394875Y0492374D01*
X0394949Y0492483D01*
X0395025Y0492590D01*
X0395105Y0492694D01*
X0395188Y0492796D01*
X0395274Y0492896D01*
X0395363Y0492993D01*
X0395455Y0493087D01*
X0395550Y0493178D01*
X0395648Y0493267D01*
X0395748Y0493352D01*
X0395850Y0493434D01*
X0395956Y0493513D01*
X0396063Y0493589D01*
X0396173Y0493662D01*
X0396285Y0493731D01*
X0396399Y0493797D01*
X0396515Y0493859D01*
X0396632Y0493918D01*
X0396752Y0493973D01*
X0396873Y0494024D01*
X0396995Y0494072D01*
X0397119Y0494116D01*
X0397245Y0494157D01*
X0397371Y0494193D01*
X0397499Y0494226D01*
X0397627Y0494254D01*
X0397756Y0494279D01*
X0397886Y0494300D01*
X0398017Y0494317D01*
X0398148Y0494330D01*
X0398279Y0494339D01*
X0398410Y0494344D01*
X0398542Y0494345D01*
X0398673Y0494342D01*
X0398805Y0494335D01*
X0398936Y0494324D01*
X0399067Y0494309D01*
X0399197Y0494290D01*
X0399326Y0494267D01*
X0399455Y0494240D01*
X0399583Y0494210D01*
X0399710Y0494175D01*
X0399836Y0494137D01*
X0399961Y0494095D01*
X0400084Y0494049D01*
X0400206Y0493999D01*
X0400326Y0493946D01*
X0400445Y0493889D01*
X0400562Y0493828D01*
X0400676Y0493764D01*
X0400789Y0493697D01*
X0400900Y0493626D01*
X0401009Y0493552D01*
X0401115Y0493474D01*
X0401219Y0493393D01*
X0401321Y0493310D01*
X0401419Y0493223D01*
X0401516Y0493133D01*
X0401609Y0493040D01*
X0401700Y0492945D01*
X0401787Y0492847D01*
X0401872Y0492746D01*
X0401953Y0492642D01*
X0402031Y0492537D01*
X0402107Y0492429D01*
X0402178Y0492318D01*
X0402247Y0492206D01*
X0402312Y0492091D01*
X0402373Y0491975D01*
X0402431Y0491857D01*
X0402485Y0491737D01*
X0402536Y0491616D01*
X0402583Y0491493D01*
X0402626Y0491368D01*
X0402665Y0491243D01*
X0402701Y0491116D01*
X0402732Y0490988D01*
X0402760Y0490860D01*
X0402784Y0490730D01*
X0402804Y0490600D01*
X0402820Y0490470D01*
X0402832Y0490339D01*
X0402840Y0490207D01*
X0402844Y0490076D01*
X0402844Y0489944D01*
X0402840Y0489813D01*
X0402832Y0489681D01*
X0402820Y0489550D01*
X0402804Y0489420D01*
X0402784Y0489290D01*
X0402760Y0489160D01*
X0402732Y0489032D01*
X0402701Y0488904D01*
X0402665Y0488777D01*
X0402626Y0488652D01*
X0402583Y0488527D01*
X0402536Y0488404D01*
X0402485Y0488283D01*
X0402431Y0488163D01*
X0402373Y0488045D01*
X0402312Y0487929D01*
X0402247Y0487814D01*
X0402178Y0487702D01*
X0402107Y0487591D01*
X0402031Y0487483D01*
X0401953Y0487378D01*
X0401872Y0487274D01*
X0401787Y0487173D01*
X0401700Y0487075D01*
X0401609Y0486980D01*
X0401516Y0486887D01*
X0401419Y0486797D01*
X0401321Y0486710D01*
X0401219Y0486627D01*
X0401115Y0486546D01*
X0401009Y0486468D01*
X0400900Y0486394D01*
X0400789Y0486323D01*
X0400677Y0486256D01*
X0400562Y0486192D01*
X0400445Y0486131D01*
X0400326Y0486074D01*
X0400206Y0486021D01*
X0400084Y0485971D01*
X0399961Y0485925D01*
X0399836Y0485883D01*
X0399710Y0485845D01*
X0399583Y0485810D01*
X0399455Y0485780D01*
X0399326Y0485753D01*
X0399197Y0485730D01*
X0399067Y0485711D01*
X0398936Y0485696D01*
X0398805Y0485685D01*
X0398673Y0485678D01*
X0398542Y0485675D01*
X0398410Y0485676D01*
X0398279Y0485681D01*
X0398148Y0485690D01*
X0398017Y0485703D01*
X0397886Y0485720D01*
X0397756Y0485741D01*
X0397627Y0485766D01*
X0397499Y0485794D01*
X0397371Y0485827D01*
X0397245Y0485863D01*
X0397119Y0485904D01*
X0396995Y0485948D01*
X0396873Y0485996D01*
X0396752Y0486047D01*
X0396632Y0486102D01*
X0396515Y0486161D01*
X0396399Y0486223D01*
X0396285Y0486289D01*
X0396173Y0486358D01*
X0396063Y0486431D01*
X0395956Y0486507D01*
X0395850Y0486586D01*
X0395748Y0486668D01*
X0395648Y0486753D01*
X0395550Y0486842D01*
X0395455Y0486933D01*
X0395363Y0487027D01*
X0395274Y0487124D01*
X0395188Y0487224D01*
X0395105Y0487326D01*
X0395025Y0487430D01*
X0394949Y0487537D01*
X0394875Y0487646D01*
X0394805Y0487758D01*
X0394738Y0487871D01*
X0394675Y0487986D01*
X0394616Y0488104D01*
X0394560Y0488223D01*
X0394507Y0488343D01*
X0394458Y0488466D01*
X0394413Y0488589D01*
X0394372Y0488714D01*
X0394335Y0488840D01*
X0394301Y0488968D01*
X0394271Y0489096D01*
X0394246Y0489225D01*
X0394224Y0489355D01*
X0394206Y0489485D01*
X0394192Y0489616D01*
X0394182Y0489747D01*
X0394176Y0489878D01*
X0394174Y0490010D01*
D59*
G36*
X0177630Y0175890D02*
X0178690Y0174830D01*
X0176570Y0172710D01*
X0175510Y0173770D01*
X0177630Y0175890D01*
G37*
G36*
X0194430Y0159490D02*
X0195490Y0158430D01*
X0193370Y0156310D01*
X0192310Y0157370D01*
X0194430Y0159490D01*
G37*
G36*
X0220900Y0138574D02*
X0222199Y0137824D01*
X0220700Y0135226D01*
X0219401Y0135976D01*
X0220900Y0138574D01*
G37*
G36*
X0242200Y0126974D02*
X0243499Y0126224D01*
X0242000Y0123626D01*
X0240701Y0124376D01*
X0242200Y0126974D01*
G37*
G36*
X0273064Y0113543D02*
X0274512Y0113154D01*
X0273736Y0110257D01*
X0272288Y0110646D01*
X0273064Y0113543D01*
G37*
G36*
X0295164Y0107643D02*
X0296612Y0107254D01*
X0295836Y0104357D01*
X0294388Y0104746D01*
X0295164Y0107643D01*
G37*
X0329400Y0101900D03*
X0353300Y0101800D03*
G36*
X0386088Y0107454D02*
X0387536Y0107843D01*
X0388312Y0104946D01*
X0386864Y0104557D01*
X0386088Y0107454D01*
G37*
G36*
X0409188Y0112954D02*
X0410636Y0113343D01*
X0411412Y0110446D01*
X0409964Y0110057D01*
X0409188Y0112954D01*
G37*
G36*
X0440201Y0126224D02*
X0441500Y0126974D01*
X0442999Y0124376D01*
X0441700Y0123626D01*
X0440201Y0126224D01*
G37*
G36*
X0460801Y0138024D02*
X0462100Y0138774D01*
X0463599Y0136176D01*
X0462300Y0135426D01*
X0460801Y0138024D01*
G37*
G36*
X0488010Y0158730D02*
X0489070Y0159790D01*
X0491190Y0157670D01*
X0490130Y0156610D01*
X0488010Y0158730D01*
G37*
G36*
X0504310Y0175030D02*
X0505370Y0176090D01*
X0507490Y0173970D01*
X0506430Y0172910D01*
X0504310Y0175030D01*
G37*
G36*
X0525426Y0201200D02*
X0526176Y0202499D01*
X0528774Y0201000D01*
X0528024Y0199701D01*
X0525426Y0201200D01*
G37*
G36*
X0536926Y0222100D02*
X0537676Y0223399D01*
X0540274Y0221900D01*
X0539524Y0220601D01*
X0536926Y0222100D01*
G37*
G36*
X0550257Y0253864D02*
X0550646Y0255312D01*
X0553543Y0254536D01*
X0553154Y0253088D01*
X0550257Y0253864D01*
G37*
G36*
X0556757Y0275864D02*
X0557146Y0277312D01*
X0560043Y0276536D01*
X0559654Y0275088D01*
X0556757Y0275864D01*
G37*
G36*
X0557546Y0367488D02*
X0557157Y0368936D01*
X0560054Y0369712D01*
X0560443Y0368264D01*
X0557546Y0367488D01*
G37*
G36*
X0550746Y0389988D02*
X0550357Y0391436D01*
X0553254Y0392212D01*
X0553643Y0390764D01*
X0550746Y0389988D01*
G37*
G36*
X0538176Y0421201D02*
X0537426Y0422500D01*
X0540024Y0423999D01*
X0540774Y0422700D01*
X0538176Y0421201D01*
G37*
G36*
X0526476Y0441401D02*
X0525726Y0442700D01*
X0528324Y0444199D01*
X0529074Y0442900D01*
X0526476Y0441401D01*
G37*
G36*
X0505470Y0468410D02*
X0504410Y0469470D01*
X0506530Y0471590D01*
X0507590Y0470530D01*
X0505470Y0468410D01*
G37*
G36*
X0488670Y0485410D02*
X0487610Y0486470D01*
X0489730Y0488590D01*
X0490790Y0487530D01*
X0488670Y0485410D01*
G37*
G36*
X0461900Y0506126D02*
X0460601Y0506876D01*
X0462100Y0509474D01*
X0463399Y0508724D01*
X0461900Y0506126D01*
G37*
G36*
X0441700Y0517726D02*
X0440401Y0518476D01*
X0441900Y0521074D01*
X0443199Y0520324D01*
X0441700Y0517726D01*
G37*
G36*
X0410436Y0531057D02*
X0408988Y0531446D01*
X0409764Y0534343D01*
X0411212Y0533954D01*
X0410436Y0531057D01*
G37*
G36*
X0387536Y0536957D02*
X0386088Y0537346D01*
X0386864Y0540243D01*
X0388312Y0539854D01*
X0387536Y0536957D01*
G37*
X0353600Y0543100D03*
X0329600Y0543000D03*
G36*
X0296712Y0536946D02*
X0295264Y0536557D01*
X0294488Y0539454D01*
X0295936Y0539843D01*
X0296712Y0536946D01*
G37*
G36*
X0274412Y0531146D02*
X0272964Y0530757D01*
X0272188Y0533654D01*
X0273636Y0534043D01*
X0274412Y0531146D01*
G37*
G36*
X0242399Y0517676D02*
X0241100Y0516926D01*
X0239601Y0519524D01*
X0240900Y0520274D01*
X0242399Y0517676D01*
G37*
G36*
X0222999Y0506876D02*
X0221700Y0506126D01*
X0220201Y0508724D01*
X0221500Y0509474D01*
X0222999Y0506876D01*
G37*
G36*
X0195490Y0485970D02*
X0194430Y0484910D01*
X0192310Y0487030D01*
X0193370Y0488090D01*
X0195490Y0485970D01*
G37*
G36*
X0178890Y0469370D02*
X0177830Y0468310D01*
X0175710Y0470430D01*
X0176770Y0471490D01*
X0178890Y0469370D01*
G37*
G36*
X0157974Y0443100D02*
X0157224Y0441801D01*
X0154626Y0443300D01*
X0155376Y0444599D01*
X0157974Y0443100D01*
G37*
G36*
X0146174Y0422900D02*
X0145424Y0421601D01*
X0142826Y0423100D01*
X0143576Y0424399D01*
X0146174Y0422900D01*
G37*
G36*
X0132343Y0391036D02*
X0131954Y0389588D01*
X0129057Y0390364D01*
X0129446Y0391812D01*
X0132343Y0391036D01*
G37*
G36*
X0126243Y0368036D02*
X0125854Y0366588D01*
X0122957Y0367364D01*
X0123346Y0368812D01*
X0126243Y0368036D01*
G37*
G36*
X0126154Y0277412D02*
X0126543Y0275964D01*
X0123646Y0275188D01*
X0123257Y0276636D01*
X0126154Y0277412D01*
G37*
G36*
X0132154Y0254612D02*
X0132543Y0253164D01*
X0129646Y0252388D01*
X0129257Y0253836D01*
X0132154Y0254612D01*
G37*
G36*
X0145324Y0223699D02*
X0146074Y0222400D01*
X0143476Y0220901D01*
X0142726Y0222200D01*
X0145324Y0223699D01*
G37*
G36*
X0157224Y0203099D02*
X0157974Y0201800D01*
X0155376Y0200301D01*
X0154626Y0201600D01*
X0157224Y0203099D01*
G37*
D60*
X0120600Y0310300D03*
X0120600Y0333800D03*
X0562500Y0333700D03*
X0562700Y0310600D03*
M02*
